<svg width="145" height="144" viewBox="0 0 145 144" fill="none" xmlns="http://www.w3.org/2000/svg">
<path d="M7.8325 71.7158L0.978516 71.4248L1.1725 66.9201L2.23939 66.9632L2.11007 70.1532L3.899 70.2286L4.01755 67.3404L5.05211 67.3835L4.93357 70.2717L6.83027 70.3579L6.97036 67.168L8.03726 67.2111L7.84328 71.7158H7.8325Z" fill="black"/>
<path d="M8.53299 62.2969L1.8191 60.8636L2.15318 59.3226L6.78716 58.1695L3.02609 55.2382L3.36017 53.6971L10.0741 55.1304L9.79386 56.4236L5.2892 55.4645L8.4791 57.997L8.26357 59.0208L4.30852 60.0446L8.81318 61.0145L8.53299 62.3077V62.2969Z" fill="black"/>
<path d="M11.669 50.3025L5.29997 47.7376L6.2591 45.356C6.46386 44.8387 6.7225 44.4507 7.03502 44.1813C7.34755 43.9119 7.68163 43.761 8.04803 43.7071C8.41444 43.664 8.78085 43.7179 9.16881 43.8688C9.52444 44.0089 9.81541 44.2244 10.0525 44.4938C10.2896 44.774 10.4297 45.1189 10.4728 45.5284C10.5159 45.9379 10.4405 46.4121 10.2249 46.9401L9.76153 48.0932L12.1647 49.0631L11.669 50.2917V50.3025ZM8.77007 47.7053L9.20114 46.6276C9.36279 46.2289 9.38435 45.9163 9.27658 45.6685C9.16881 45.4206 8.96405 45.2374 8.66231 45.1189C8.34978 44.9895 8.06959 44.9788 7.82172 45.0865C7.57386 45.1943 7.37988 45.4422 7.21823 45.8301L6.77638 46.9078L8.74852 47.7053H8.77007Z" fill="black"/>
<path d="M15.6779 41.3901L9.77231 37.8877L11.0763 35.6893C11.3565 35.2151 11.6798 34.8702 12.0246 34.6547C12.3695 34.4392 12.7251 34.3422 13.0915 34.3529C13.4579 34.3529 13.8028 34.4715 14.1369 34.6655C14.4494 34.8487 14.6973 35.0965 14.8912 35.4091C15.0744 35.7216 15.1607 36.0772 15.1391 36.4867C15.1176 36.8962 14.9667 37.3489 14.6757 37.8338L14.0507 38.8899L16.3569 40.2586L15.6779 41.4009V41.3901ZM13.2209 38.3834L13.8136 37.392C14.0183 37.0471 14.083 36.7454 14.0076 36.4867C13.9321 36.2281 13.7597 36.0125 13.4903 35.8509C13.2101 35.6892 12.9514 35.6354 12.6928 35.7C12.4342 35.7647 12.2078 35.9694 12.0031 36.3251L11.4104 37.3165L13.2209 38.3942V38.3834ZM17.4992 38.3295L14.18 37.9955L14.9128 36.7669L18.2751 37.0256L17.4992 38.3295Z" fill="black"/>
<path d="M21.0878 33.0597L15.7749 28.7167L18.6308 25.2251L19.4606 25.904L17.4453 28.3719L18.8355 29.5034L20.6676 27.2619L21.465 27.9192L19.633 30.1608L21.1094 31.3678L23.1246 28.8999L23.9545 29.5789L21.0986 33.0705L21.0878 33.0597Z" fill="black"/>
<path d="M29.2027 24.4599C28.8363 24.794 28.4483 25.0311 28.0496 25.1604C27.6509 25.2897 27.2521 25.3221 26.8642 25.2251C26.4762 25.1389 26.1206 24.9233 25.808 24.5785L26.8426 23.6301C26.9827 23.7702 27.1444 23.878 27.3276 23.9319C27.5108 23.9858 27.694 23.9858 27.8879 23.9426C28.0819 23.8995 28.2651 23.7918 28.4483 23.6301C28.5992 23.49 28.7178 23.3391 28.7824 23.1883C28.8471 23.0374 28.8686 22.8865 28.8579 22.7357C28.8363 22.5848 28.7716 22.4447 28.6531 22.3261C28.5238 22.186 28.3729 22.0891 28.222 22.0567C28.0604 22.0244 27.8879 22.0244 27.7047 22.0783C27.5215 22.1214 27.3168 22.186 27.112 22.283C26.9073 22.38 26.6702 22.4662 26.4439 22.574C25.9266 22.8111 25.4632 22.9081 25.0537 22.8865C24.6442 22.865 24.2778 22.671 23.9545 22.3046C23.6743 22.0028 23.5126 21.6688 23.4587 21.3239C23.4048 20.9683 23.4587 20.6234 23.6204 20.2678C23.782 19.9122 24.0191 19.5889 24.3532 19.2871C24.698 18.9746 25.0537 18.759 25.4201 18.6405C25.7865 18.522 26.1421 18.5112 26.4978 18.5974C26.8534 18.6836 27.1659 18.8668 27.4461 19.1686L26.4008 20.1169C26.293 20.0091 26.1637 19.9337 26.0128 19.8906C25.8619 19.8475 25.7003 19.8475 25.5494 19.8798C25.3878 19.9122 25.2369 19.9984 25.086 20.1277C24.9567 20.2355 24.8597 20.3648 24.795 20.4941C24.7304 20.6342 24.7088 20.7743 24.7196 20.9144C24.7412 21.0545 24.8058 21.1838 24.9136 21.3131C25.0213 21.4317 25.1507 21.5071 25.28 21.5394C25.4201 21.5718 25.5602 21.561 25.7218 21.5287C25.8835 21.4963 26.0559 21.4317 26.2499 21.3562C26.4439 21.27 26.6486 21.1838 26.8642 21.0868C27.1982 20.9467 27.5215 20.839 27.8448 20.7635C28.1681 20.6881 28.4699 20.6881 28.7716 20.7635C29.0734 20.839 29.3536 21.0329 29.6338 21.3347C29.8709 21.6041 30.0325 21.9166 30.0972 22.2615C30.1618 22.6171 30.1295 22.9835 29.9894 23.3607C29.8493 23.7379 29.5907 24.1043 29.2027 24.4599Z" fill="black"/>
<path d="M34.3971 19.9768L32.7267 12.8642L33.9768 12.0452L39.8285 16.4097L38.6539 17.1749L34.1708 13.7155L35.5502 19.2117L34.3863 19.9768H34.3971ZM34.4725 18.0693L34.2031 17.0132L37.1236 15.095L37.9749 15.7631L34.4725 18.0586V18.0693Z" fill="black"/>
<path d="M46.1545 13.3707C45.7018 13.5755 45.26 13.6832 44.8397 13.6832C44.4194 13.6832 44.0315 13.5862 43.6974 13.3815C43.3633 13.1767 43.0939 12.8642 42.8891 12.4439L44.1716 11.8727C44.2578 12.0559 44.3871 12.196 44.538 12.3038C44.6996 12.4116 44.872 12.4762 45.066 12.487C45.26 12.4978 45.4755 12.4655 45.6911 12.3577C45.885 12.2715 46.0359 12.1637 46.1437 12.0452C46.2515 11.9158 46.3269 11.7865 46.3484 11.6356C46.3808 11.4848 46.3484 11.3339 46.2838 11.183C46.1976 10.9998 46.0898 10.8705 45.9497 10.7951C45.8096 10.7196 45.648 10.6657 45.454 10.655C45.26 10.6442 45.0552 10.6442 44.8289 10.655C44.6026 10.6765 44.3547 10.6981 44.0961 10.7196C43.5249 10.7843 43.0508 10.7412 42.6736 10.5903C42.2964 10.4394 42.0054 10.1377 41.8007 9.69584C41.6283 9.31866 41.5744 8.96302 41.639 8.60739C41.7037 8.25176 41.8653 7.93924 42.1132 7.64827C42.3718 7.35729 42.7059 7.12021 43.1154 6.937C43.5357 6.74302 43.9452 6.65681 44.3224 6.65681C44.7104 6.65681 45.0552 6.7538 45.3678 6.94778C45.6803 7.14176 45.9174 7.41118 46.0898 7.77759L44.7966 8.35953C44.7319 8.23021 44.6349 8.11166 44.5056 8.02545C44.3763 7.93924 44.2254 7.88535 44.0638 7.8638C43.9021 7.85302 43.7297 7.88535 43.5465 7.96079C43.3849 8.02545 43.2555 8.11166 43.1585 8.21943C43.0508 8.3272 42.9861 8.45652 42.9646 8.59662C42.9322 8.73671 42.9646 8.87681 43.0292 9.03846C43.0939 9.18933 43.1909 9.2971 43.3094 9.36176C43.428 9.42642 43.5681 9.46953 43.7405 9.49108C43.9021 9.50186 44.0961 9.50186 44.3009 9.49108C44.5056 9.46953 44.7319 9.44798 44.969 9.42642C45.3247 9.39409 45.6695 9.39409 46.0036 9.42642C46.3269 9.45875 46.6286 9.54497 46.8873 9.70662C47.1459 9.86827 47.3615 10.1377 47.5339 10.5256C47.6848 10.8489 47.7279 11.1938 47.6848 11.5602C47.6416 11.9158 47.4908 12.2607 47.2429 12.5732C46.995 12.8857 46.6286 13.1552 46.1437 13.3815L46.1545 13.3707Z" fill="black"/>
<path d="M61.5328 8.52118L60.6168 1.72108L63.1601 1.37622C63.7097 1.30079 64.1839 1.33312 64.5718 1.47321C64.9598 1.61331 65.2616 1.82885 65.4771 2.11982C65.6926 2.41079 65.8327 2.76642 65.8866 3.17593C65.9405 3.55312 65.8974 3.90875 65.7788 4.2536C65.6495 4.59846 65.4232 4.88943 65.0891 5.13729C64.7551 5.38516 64.3024 5.54681 63.742 5.62225L62.5027 5.7839L62.8476 8.34875L61.5328 8.52118ZM62.3518 4.717L63.505 4.56613C63.9252 4.51224 64.2162 4.37215 64.3779 4.15661C64.5395 3.94108 64.5934 3.67166 64.5503 3.35914C64.5072 3.02506 64.3779 2.7772 64.1623 2.61554C63.9576 2.45389 63.6343 2.40001 63.214 2.46467L62.0609 2.61554L62.3411 4.72778L62.3518 4.717Z" fill="black"/>
<path d="M70.0895 7.57283L72.7083 0.751175L74.2062 0.772728L76.5986 7.6806L75.1977 7.65904L73.4303 2.27069L71.4797 7.59438L70.0895 7.57283ZM71.2211 6.03176L71.5875 5.00797L75.0791 5.06186L75.4024 6.09642L71.2103 6.03176H71.2211Z" fill="black"/>
<path d="M81.2434 8.15477L82.4073 1.387L84.929 1.81807C85.4787 1.91506 85.9097 2.08749 86.233 2.33535C86.5563 2.58321 86.7719 2.87419 86.9012 3.21904C87.0305 3.56389 87.0521 3.91953 86.9874 4.30749C86.9227 4.66312 86.7826 4.98642 86.5671 5.27739C86.3408 5.55759 86.039 5.76234 85.6511 5.89166C85.2631 6.02098 84.789 6.03176 84.2286 5.93477L83.0216 5.73001L82.5689 8.38108L81.265 8.15477H81.2434ZM83.1724 4.78166L84.3148 4.97564C84.7135 5.0403 85.0153 4.9972 85.2308 4.83555C85.4463 4.6739 85.5864 4.43681 85.6403 4.12428C85.6942 3.81176 85.6403 3.54234 85.4894 3.32681C85.3386 3.11127 85.0584 2.97118 84.6596 2.89574L83.5173 2.70176L83.1617 4.78166H83.1724ZM84.7566 8.75827L83.8729 5.54681L85.2847 5.79467L86.2438 9.02768L84.7566 8.76904V8.75827Z" fill="black"/>
<path d="M93.8306 11.3231C93.184 11.0968 92.6775 10.7627 92.3003 10.3209C91.9339 9.87904 91.7076 9.36176 91.6322 8.76904C91.5567 8.17632 91.6321 7.55128 91.8585 6.8939C92.0848 6.23652 92.4189 5.69768 92.8391 5.27739C93.2702 4.8571 93.7552 4.58768 94.3263 4.45836C94.8867 4.33982 95.501 4.38292 96.1476 4.60924C96.9343 4.87865 97.5055 5.29894 97.8719 5.85933C98.2383 6.41972 98.3568 7.0771 98.2383 7.83147L96.8804 7.3573C96.9235 6.98011 96.8481 6.65681 96.6541 6.36584C96.4709 6.08564 96.1584 5.87011 95.7489 5.73001C95.3609 5.60069 95.0053 5.57914 94.6712 5.66535C94.3371 5.75157 94.0354 5.93477 93.7659 6.21496C93.5073 6.49516 93.2918 6.86157 93.1301 7.32497C92.9685 7.77759 92.9038 8.19788 92.9469 8.58584C92.99 8.9738 93.0978 9.2971 93.3133 9.5773C93.5289 9.84671 93.8198 10.0515 94.2078 10.1916C94.6173 10.3317 94.9837 10.364 95.307 10.267C95.6195 10.17 95.8782 9.97603 96.0722 9.67429L97.4408 10.1485C97.0852 10.7735 96.5894 11.1938 95.9536 11.4093C95.3178 11.6141 94.6065 11.5925 93.8306 11.3123V11.3231Z" fill="black"/>
<path d="M101.159 14.2221L104.403 8.17632L108.379 10.3101L107.873 11.2585L105.06 9.74972L104.209 11.3339L106.763 12.7025L106.278 13.6078L103.724 12.2391L102.829 13.9203L105.642 15.429L105.135 16.3774L101.159 14.2436V14.2221Z" fill="black"/>
<path d="M109.36 19.0931L113.326 13.4892L114.403 14.2544L110.438 19.8583L109.36 19.0931Z" fill="black"/>
<path d="M114.522 23.0051L119.167 17.9508L121.053 19.6858C121.462 20.063 121.731 20.4402 121.872 20.8282C122.012 21.2054 122.033 21.5825 121.947 21.9274C121.861 22.283 121.688 22.5956 121.43 22.8865C121.182 23.1559 120.891 23.3499 120.546 23.4685C120.201 23.587 119.835 23.5978 119.436 23.49C119.037 23.3823 118.628 23.1452 118.208 22.7572L117.302 21.9274L115.481 23.9103L114.5 23.0158L114.522 23.0051ZM117.141 25.4083L118.143 22.2291L119.199 23.1991L118.251 26.4321L117.141 25.4083ZM117.96 21.2054L118.811 21.9921C119.102 22.2615 119.393 22.3908 119.662 22.3692C119.932 22.3477 120.18 22.2291 120.395 21.9921C120.611 21.755 120.718 21.5071 120.708 21.2485C120.697 20.9791 120.546 20.7204 120.244 20.4402L119.393 19.6535L117.97 21.2054H117.96Z" fill="black"/>
<path d="M121.29 29.6327L128.23 27.3373L129.157 28.512L125.331 34.7301L124.458 33.6309L127.508 28.8568L122.152 30.7212L121.29 29.6327ZM123.197 29.5358L124.221 29.1693L126.387 31.9066L125.794 32.8119L123.197 29.525V29.5358Z" fill="black"/>
<path d="M128.92 40.7543C128.672 40.3232 128.532 39.8922 128.488 39.4719C128.445 39.0516 128.51 38.6636 128.682 38.308C128.855 37.9524 129.146 37.6506 129.545 37.4243L130.234 38.6421C130.062 38.7498 129.922 38.8792 129.836 39.0516C129.739 39.2132 129.695 39.3964 129.695 39.5904C129.695 39.7844 129.76 39.9892 129.879 40.2047C129.976 40.3879 130.105 40.528 130.234 40.625C130.364 40.722 130.515 40.7866 130.665 40.7974C130.816 40.8082 130.967 40.7759 131.118 40.6896C131.29 40.5927 131.409 40.4741 131.474 40.3232C131.538 40.1724 131.571 40.0107 131.571 39.8167C131.571 39.6227 131.549 39.418 131.506 39.1917C131.463 38.9654 131.42 38.7283 131.377 38.4696C131.269 37.9093 131.269 37.4351 131.377 37.0471C131.484 36.6592 131.765 36.3359 132.185 36.0988C132.541 35.894 132.896 35.8078 133.252 35.8401C133.607 35.8725 133.942 36.0018 134.243 36.2281C134.556 36.4544 134.814 36.7669 135.041 37.1657C135.267 37.5752 135.396 37.9631 135.429 38.3511C135.461 38.7391 135.396 39.0947 135.235 39.418C135.073 39.7413 134.814 40.0107 134.47 40.2155L133.78 38.9869C133.909 38.9115 134.006 38.8037 134.092 38.6636C134.179 38.5235 134.211 38.3726 134.211 38.211C134.211 38.0493 134.168 37.8769 134.071 37.7045C133.995 37.5536 133.898 37.4351 133.769 37.3381C133.651 37.2411 133.521 37.1872 133.381 37.1764C133.241 37.1657 133.101 37.198 132.95 37.2842C132.81 37.3596 132.713 37.4674 132.648 37.5967C132.594 37.726 132.562 37.8661 132.562 38.0386C132.562 38.211 132.584 38.3942 132.616 38.599C132.648 38.8037 132.691 39.0193 132.745 39.2563C132.81 39.612 132.842 39.9568 132.842 40.2801C132.842 40.6034 132.778 40.9052 132.638 41.1854C132.497 41.4548 132.25 41.7027 131.883 41.9074C131.571 42.0798 131.237 42.1661 130.87 42.1553C130.515 42.1445 130.159 42.026 129.814 41.8104C129.469 41.5949 129.178 41.25 128.92 40.7974V40.7543Z" fill="black"/>
<path d="M138.748 55.9171C138.662 55.5723 138.694 55.2705 138.845 55.0119C138.996 54.7532 139.222 54.5916 139.524 54.5162C139.826 54.4407 140.106 54.4838 140.354 54.6455C140.612 54.8071 140.785 55.055 140.86 55.3998C140.936 55.7231 140.903 56.0141 140.752 56.2728C140.602 56.5314 140.375 56.7038 140.073 56.7685C139.772 56.8331 139.492 56.8008 139.244 56.6392C138.996 56.4775 138.823 56.2404 138.737 55.9171H138.748Z" fill="black"/>
<path d="M137.293 73.4185L144.147 73.7633L143.921 78.268L142.854 78.2141L143.015 75.035L141.227 74.9488L141.086 77.8369L140.063 77.7831L140.203 74.8949L138.306 74.7979L138.144 77.977L137.078 77.9232L137.304 73.4185H137.293Z" fill="black"/>
<path d="M136.528 82.805L143.231 84.2922L142.886 85.8333L138.252 86.954L141.981 89.9069L141.636 91.4479L134.933 89.9607L135.224 88.6675L139.729 89.6698L136.56 87.1049L136.787 86.0811L140.742 85.0897L136.237 84.0874L136.528 82.7942V82.805Z" fill="black"/>
<path d="M133.306 94.7779L139.653 97.3859L138.672 99.7568C138.457 100.274 138.198 100.662 137.886 100.931C137.573 101.201 137.228 101.352 136.873 101.395C136.506 101.438 136.14 101.373 135.752 101.222C135.396 101.082 135.105 100.867 134.879 100.587C134.653 100.306 134.513 99.9615 134.47 99.5412C134.426 99.1209 134.513 98.6575 134.728 98.1295L135.202 96.9764L132.81 95.9957L133.316 94.7671L133.306 94.7779ZM136.183 97.3967L135.741 98.4743C135.58 98.8731 135.547 99.1856 135.655 99.4335C135.763 99.6813 135.968 99.8645 136.258 99.9831C136.571 100.112 136.851 100.123 137.099 100.026C137.347 99.9292 137.541 99.6813 137.703 99.2826L138.144 98.2049L136.172 97.3967H136.183Z" fill="black"/>
<path d="M127.378 106.719L130.698 107.074L129.954 108.303L126.603 108.012L127.378 106.719ZM129.221 103.669L135.095 107.225L133.769 109.413C133.478 109.887 133.166 110.232 132.821 110.436C132.476 110.641 132.12 110.749 131.754 110.727C131.387 110.717 131.043 110.609 130.719 110.404C130.407 110.21 130.159 109.962 129.976 109.661C129.792 109.348 129.717 108.992 129.739 108.583C129.76 108.173 129.922 107.721 130.213 107.236L130.849 106.19L128.553 104.8L129.232 103.669H129.221ZM131.657 106.686L131.053 107.678C130.849 108.022 130.784 108.324 130.849 108.583C130.913 108.852 131.086 109.057 131.366 109.229C131.635 109.391 131.905 109.445 132.163 109.38C132.422 109.316 132.648 109.111 132.864 108.766L133.467 107.775L131.668 106.686H131.657Z" fill="black"/>
<path d="M123.747 111.967L129.027 116.353L126.15 119.823L125.331 119.144L127.368 116.698L125.988 115.555L124.135 117.775L123.348 117.118L125.202 114.898L123.736 113.68L121.699 116.127L120.88 115.448L123.758 111.978L123.747 111.967Z" fill="black"/>
<path d="M115.567 120.502C115.934 120.168 116.322 119.942 116.731 119.801C117.141 119.661 117.529 119.651 117.917 119.737C118.305 119.834 118.649 120.049 118.962 120.394L117.917 121.332C117.776 121.181 117.615 121.084 117.432 121.03C117.248 120.976 117.065 120.965 116.871 121.008C116.677 121.052 116.494 121.159 116.311 121.321C116.16 121.461 116.041 121.612 115.977 121.763C115.912 121.914 115.88 122.065 115.901 122.215C115.923 122.366 115.988 122.506 116.095 122.625C116.225 122.776 116.375 122.862 116.526 122.894C116.688 122.927 116.85 122.927 117.044 122.884C117.227 122.84 117.432 122.776 117.636 122.679C117.852 122.593 118.078 122.496 118.315 122.399C118.843 122.172 119.307 122.065 119.705 122.097C120.104 122.129 120.481 122.323 120.805 122.679C121.074 122.991 121.236 123.315 121.29 123.67C121.333 124.026 121.29 124.371 121.128 124.726C120.966 125.082 120.718 125.405 120.384 125.707C120.04 126.02 119.684 126.224 119.318 126.343C118.951 126.461 118.585 126.472 118.24 126.386C117.895 126.3 117.572 126.106 117.291 125.804L118.348 124.866C118.455 124.974 118.585 125.05 118.736 125.093C118.886 125.136 119.037 125.147 119.199 125.104C119.361 125.071 119.511 124.985 119.662 124.856C119.792 124.748 119.889 124.629 119.953 124.489C120.018 124.349 120.04 124.209 120.029 124.069C120.018 123.929 119.953 123.8 119.835 123.67C119.727 123.552 119.608 123.476 119.468 123.444C119.339 123.412 119.188 123.422 119.027 123.444C118.865 123.476 118.692 123.541 118.498 123.616C118.305 123.692 118.1 123.789 117.884 123.886C117.55 124.026 117.227 124.134 116.904 124.198C116.58 124.263 116.278 124.274 115.977 124.198C115.675 124.123 115.395 123.929 115.115 123.616C114.878 123.347 114.727 123.034 114.662 122.679C114.597 122.323 114.64 121.957 114.77 121.58C114.899 121.202 115.179 120.836 115.567 120.48V120.502Z" fill="black"/>
<path d="M110.341 124.953L111.957 132.087L110.696 132.895L104.877 128.487L106.051 127.722L110.513 131.214L109.177 125.707L110.351 124.953H110.341ZM110.254 126.86L110.513 127.916L107.582 129.813L106.73 129.134L110.244 126.86H110.254Z" fill="black"/>
<path d="M98.5292 131.462C98.9819 131.257 99.4237 131.16 99.844 131.16C100.264 131.16 100.652 131.257 100.986 131.473C101.32 131.677 101.59 132.001 101.784 132.421L100.501 132.992C100.415 132.809 100.286 132.658 100.135 132.55C99.9841 132.443 99.8009 132.378 99.6069 132.356C99.4129 132.335 99.1974 132.378 98.9819 132.475C98.7879 132.561 98.637 132.669 98.5292 132.787C98.4107 132.917 98.346 133.046 98.3137 133.197C98.2814 133.348 98.3137 133.499 98.3784 133.649C98.4538 133.833 98.5616 133.962 98.7017 134.037C98.8418 134.124 99.0034 134.167 99.1974 134.188C99.3914 134.21 99.5961 134.199 99.8224 134.188C100.049 134.167 100.297 134.145 100.555 134.124C101.126 134.07 101.601 134.124 101.978 134.264C102.355 134.415 102.646 134.716 102.84 135.158C103.002 135.535 103.055 135.902 102.991 136.247C102.926 136.592 102.764 136.915 102.506 137.195C102.247 137.486 101.913 137.712 101.493 137.896C101.073 138.079 100.663 138.176 100.275 138.165C99.8871 138.165 99.5423 138.057 99.2297 137.874C98.9172 137.68 98.6801 137.4 98.5077 137.033L99.8009 136.462C99.8656 136.592 99.9625 136.71 100.092 136.796C100.221 136.883 100.372 136.936 100.534 136.958C100.695 136.969 100.868 136.947 101.051 136.861C101.213 136.796 101.342 136.71 101.45 136.602C101.558 136.495 101.622 136.365 101.654 136.225C101.687 136.085 101.654 135.945 101.59 135.783C101.525 135.632 101.428 135.525 101.31 135.46C101.191 135.395 101.051 135.352 100.879 135.331C100.717 135.309 100.523 135.309 100.318 135.331C100.113 135.341 99.8871 135.374 99.65 135.395C99.2944 135.428 98.9495 135.428 98.6155 135.395C98.2922 135.363 97.9904 135.266 97.7318 135.104C97.4731 134.943 97.2576 134.663 97.0959 134.285C96.9559 133.962 96.902 133.617 96.9558 133.251C97.0097 132.895 97.1498 132.561 97.4085 132.238C97.6563 131.925 98.0227 131.656 98.5077 131.44L98.5292 131.462Z" fill="black"/>
<path d="M83.1186 136.204L83.9807 143.014L81.4266 143.338C80.877 143.402 80.4028 143.37 80.0149 143.23C79.6269 143.09 79.3252 142.874 79.1096 142.573C78.8941 142.271 78.7648 141.926 78.7109 141.516C78.6678 141.139 78.7109 140.784 78.8294 140.439C78.9588 140.094 79.1851 139.803 79.5299 139.566C79.8748 139.329 80.3166 139.167 80.8878 139.092L82.1271 138.93L81.8038 136.365L83.1186 136.193V136.204ZM82.2672 139.997L81.1141 140.148C80.6938 140.202 80.4028 140.331 80.2412 140.547C80.0795 140.762 80.0149 141.032 80.058 141.344C80.1011 141.678 80.2304 141.926 80.4352 142.088C80.6399 142.249 80.9632 142.303 81.3835 142.249L82.5366 142.098L82.2672 139.986V139.997Z" fill="black"/>
<path d="M74.5726 137.066L71.9323 143.887L70.4344 143.855L68.0635 136.947L69.4645 136.969L71.2103 142.357L73.1717 137.044L74.5619 137.066H74.5726ZM73.4303 138.607L73.0531 139.631L69.5615 139.566L69.2382 138.531L73.4195 138.607H73.4303Z" fill="black"/>
<path d="M63.4187 136.419L62.201 143.176L59.6792 142.723C59.1296 142.626 58.6985 142.454 58.3752 142.195C58.0519 141.948 57.8364 141.646 57.7179 141.301C57.5993 140.956 57.5778 140.6 57.6424 140.213C57.7071 139.857 57.8472 139.534 58.0735 139.253C58.2998 138.973 58.6016 138.768 59.0003 138.639C59.3883 138.51 59.8624 138.499 60.4228 138.596L61.6298 138.812L62.104 136.171L63.408 136.408L63.4187 136.419ZM59.9163 135.794L60.7677 139.016L59.3559 138.758L58.4184 135.525L59.9055 135.794H59.9163ZM61.4682 139.781L60.3258 139.577C59.9379 139.501 59.6253 139.555 59.4098 139.706C59.1835 139.868 59.0542 140.105 58.9895 140.417C58.9356 140.73 58.9895 140.999 59.1296 141.215C59.2805 141.43 59.5499 141.57 59.9486 141.646L61.091 141.851L61.4682 139.771V139.781Z" fill="black"/>
<path d="M50.8639 133.154C51.5105 133.38 52.017 133.725 52.3834 134.167C52.7498 134.609 52.9653 135.126 53.0408 135.719C53.1162 136.311 53.0408 136.936 52.7929 137.594C52.5558 138.251 52.2325 138.79 51.8015 139.21C51.3704 139.631 50.8747 139.9 50.3143 140.019C49.7539 140.137 49.1396 140.083 48.493 139.857C47.7063 139.577 47.1351 139.156 46.7795 138.596C46.4131 138.036 46.3053 137.367 46.4239 136.624L47.7817 137.109C47.7386 137.486 47.8141 137.809 47.9973 138.1C48.1805 138.38 48.4822 138.596 48.8917 138.747C49.2689 138.887 49.6353 138.909 49.9694 138.822C50.3035 138.736 50.6052 138.553 50.8747 138.283C51.1441 138.003 51.3488 137.637 51.5213 137.173C51.6829 136.721 51.7476 136.301 51.7152 135.913C51.6829 135.525 51.5644 135.201 51.3488 134.921C51.1333 134.641 50.8423 134.436 50.4544 134.307C50.0449 134.156 49.6784 134.134 49.3551 134.221C49.0426 134.318 48.784 134.512 48.59 134.803L47.2214 134.318C47.577 133.693 48.0835 133.272 48.7193 133.068C49.3551 132.863 50.0664 132.895 50.8423 133.175L50.8639 133.154Z" fill="black"/>
<path d="M43.5573 130.201L40.2704 136.225L36.3153 134.07L36.8218 133.132L39.6238 134.663L40.4859 133.089L37.9426 131.699L38.4383 130.794L40.9816 132.184L41.8869 130.513L39.0849 128.983L39.5915 128.046L43.5573 130.201Z" fill="black"/>
<path d="M35.367 125.265L31.358 130.837L30.2804 130.061L34.2893 124.489L35.367 125.265Z" fill="black"/>
<path d="M30.248 121.31L25.571 126.332L23.6958 124.586C23.2863 124.209 23.0169 123.821 22.8876 123.444C22.7582 123.056 22.7259 122.69 22.8121 122.334C22.8983 121.978 23.0708 121.666 23.3402 121.386C23.588 121.116 23.8898 120.922 24.2239 120.814C24.5687 120.696 24.9351 120.696 25.3339 120.804C25.7326 120.911 26.1421 121.159 26.5516 121.547L27.4461 122.388L29.2781 120.426L30.248 121.332V121.31ZM26.7887 123.078L25.9374 122.291C25.6464 122.021 25.3662 121.892 25.086 121.903C24.8166 121.914 24.5687 122.043 24.3532 122.28C24.1377 122.517 24.0299 122.765 24.0407 123.024C24.0514 123.282 24.2023 123.552 24.5041 123.832L25.3554 124.619L26.7887 123.078ZM27.6401 118.885L26.6163 122.054L25.571 121.073L26.5409 117.851L27.6509 118.885H27.6401Z" fill="black"/>
<path d="M23.5234 114.639L16.5616 116.881L15.6348 115.696L19.5145 109.499L20.3766 110.609L17.2944 115.361L22.6612 113.54L23.5126 114.639H23.5234ZM21.6159 114.726L20.5813 115.081L18.4368 112.333L19.0403 111.428L21.6159 114.726Z" fill="black"/>
<path d="M15.9797 103.464C16.2168 103.895 16.3569 104.326 16.4 104.746C16.4431 105.167 16.3677 105.555 16.1952 105.91C16.0228 106.266 15.7318 106.557 15.3223 106.794L14.6434 105.565C14.8158 105.458 14.9559 105.328 15.0529 105.167C15.1499 105.005 15.193 104.822 15.193 104.628C15.193 104.434 15.1283 104.229 15.0206 104.014C14.9236 103.83 14.805 103.69 14.6649 103.582C14.5356 103.485 14.3847 103.421 14.2339 103.41C14.083 103.399 13.9321 103.432 13.7812 103.507C13.6088 103.604 13.4903 103.723 13.4256 103.873C13.3609 104.024 13.3178 104.186 13.3286 104.38C13.3286 104.574 13.3502 104.779 13.3933 105.005C13.4364 105.231 13.4795 105.479 13.5226 105.727C13.6304 106.287 13.6196 106.762 13.501 107.15C13.3825 107.538 13.1131 107.85 12.682 108.087C12.3264 108.292 11.96 108.367 11.6151 108.335C11.2595 108.303 10.9254 108.173 10.6237 107.936C10.3111 107.699 10.0525 107.387 9.83697 106.999C9.61066 106.589 9.48134 106.201 9.45978 105.813C9.42745 105.425 9.50289 105.08 9.66454 104.746C9.82619 104.423 10.0848 104.154 10.4405 103.96L11.1194 105.199C10.9901 105.274 10.8931 105.382 10.8069 105.522C10.7314 105.662 10.6883 105.813 10.6883 105.975C10.6883 106.137 10.7314 106.309 10.8284 106.481C10.9039 106.632 11.0009 106.762 11.1194 106.848C11.2379 106.945 11.3673 106.999 11.5074 107.009C11.6475 107.031 11.7876 106.988 11.9384 106.912C12.0785 106.837 12.1863 106.729 12.2402 106.611C12.2941 106.492 12.3264 106.341 12.3264 106.169C12.3264 106.007 12.3156 105.813 12.2725 105.619C12.2402 105.415 12.1971 105.199 12.1432 104.962C12.0785 104.606 12.057 104.261 12.057 103.938C12.057 103.604 12.1324 103.313 12.2725 103.033C12.4126 102.763 12.6712 102.526 13.0376 102.322C13.3502 102.149 13.695 102.074 14.0507 102.085C14.4063 102.106 14.7619 102.225 15.096 102.44C15.4301 102.656 15.7318 103.001 15.9905 103.464H15.9797Z" fill="black"/>
<path d="M6.2591 88.2149C6.34532 88.5598 6.30221 88.8615 6.15133 89.1202C6.00046 89.3788 5.77415 89.5404 5.4724 89.6159C5.17065 89.6913 4.89046 89.6482 4.6426 89.4866C4.38395 89.3249 4.2223 89.077 4.13609 88.7322C4.06065 88.4089 4.09298 88.1179 4.25463 87.8593C4.41628 87.6006 4.63182 87.439 4.93357 87.3636C5.23531 87.2881 5.51551 87.3312 5.76337 87.4929C6.02201 87.6545 6.18366 87.9024 6.2591 88.2257V88.2149Z" fill="black"/>
</svg>
