<svg width="141" height="193" viewBox="0 0 141 193" fill="none" xmlns="http://www.w3.org/2000/svg">
<g clip-path="url(#clip0_1048_6230)">
<path d="M103.137 3.3562H6.7698C3.03061 3.3562 -0.000610352 6.38742 -0.000610352 10.1266V188.282C-0.000610352 192.021 3.03061 195.053 6.7698 195.053H103.137C106.876 195.053 109.907 192.021 109.907 188.282V10.1266C109.907 6.38742 106.876 3.3562 103.137 3.3562Z" fill="url(#paint0_linear_1048_6230)"/>
<circle cx="56.4878" cy="101.91" r="16.5747" fill="white"/>
<path d="M100.074 176.592L100.074 18.4684C100.074 15.4061 97.5519 12.9236 94.4405 12.9236L15.5676 12.9236C12.4562 12.9236 9.93388 15.4061 9.93388 18.4684L9.93388 176.592C9.93388 179.654 12.4562 182.137 15.5676 182.137H94.4405C97.5519 182.137 100.074 179.654 100.074 176.592Z" stroke="url(#paint1_linear_1048_6230)" stroke-width="2.47095" stroke-miterlimit="10"/>
<path d="M52.1119 94.5513V109.498C52.1119 109.735 52.3725 109.877 52.5857 109.759L65.306 102.273C65.5192 102.155 65.5192 101.847 65.306 101.729L52.5857 94.2433C52.3725 94.1249 52.1119 94.267 52.1119 94.5039V94.5513Z" fill="#CAFF1F"/>
<path d="M130.713 20.2898H89.1514C83.8141 20.2898 79.5146 24.5892 79.5146 29.9265V65.7059C79.5146 71.0431 83.8141 75.3426 89.1514 75.3426H100.518L108.672 86.1654C109.314 87.0055 110.55 87.0055 111.143 86.1654L119.297 75.3426H130.663C136.001 75.3426 140.3 71.0431 140.3 65.7059V29.9265C140.3 24.5892 136.001 20.2898 130.663 20.2898H130.713Z" fill="url(#paint2_linear_1048_6230)"/>
<path d="M109.909 61.2585C109.612 61.2585 109.316 61.1597 109.118 60.962C108.377 60.2701 107.636 59.5783 106.944 58.9852C101.31 53.9445 97.6036 50.584 96.8129 47.2729C95.9234 43.4182 98.0978 39.5141 101.656 38.5257C103.386 38.0316 105.362 38.3281 107.142 39.3164C108.476 40.0577 109.514 41.0955 110.156 42.331C110.897 41.0461 112.034 39.9095 113.418 39.2176C115.049 38.3775 116.778 38.1304 118.31 38.5752C121.868 39.5635 124.043 43.5171 123.153 47.3223C122.511 49.9415 119.645 52.6596 115.988 56.0695C114.406 57.5027 112.676 59.1829 110.897 60.962C110.65 61.2091 110.354 61.3079 110.057 61.3573L109.909 61.2585Z" fill="white"/>
</g>
<defs>
<linearGradient id="paint0_linear_1048_6230" x1="56.436" y1="-39.0453" x2="54.9534" y2="358.744" gradientUnits="userSpaceOnUse">
<stop offset="0.129944" stop-color="#DBDBDB"/>
<stop offset="0.946722" stop-color="white" stop-opacity="0"/>
</linearGradient>
<linearGradient id="paint1_linear_1048_6230" x1="103.039" y1="15.5501" x2="9.14801" y2="180.756" gradientUnits="userSpaceOnUse">
<stop stop-color="white"/>
<stop offset="1" stop-color="white" stop-opacity="0"/>
</linearGradient>
<linearGradient id="paint2_linear_1048_6230" x1="104.669" y1="43.4673" x2="158.585" y2="87.8456" gradientUnits="userSpaceOnUse">
<stop stop-color="#CAFF1F"/>
<stop offset="1" stop-color="white" stop-opacity="0"/>
</linearGradient>
<clipPath id="clip0_1048_6230">
<rect width="140.35" height="191.697" fill="white" transform="translate(0 0.324219)"/>
</clipPath>
</defs>
</svg>
