<svg width="31" height="23" viewBox="0 0 31 23" fill="none" xmlns="http://www.w3.org/2000/svg">
<path d="M27.1288 0.628174H4.22166C3.2091 0.628174 2.23802 1.03041 1.52203 1.74639C0.806043 2.46238 0.403809 3.43347 0.403809 4.44603V18.763C0.403809 19.7755 0.806043 20.7466 1.52203 21.4626C2.23802 22.1786 3.2091 22.5808 4.22166 22.5808H27.1288C28.1413 22.5808 29.1124 22.1786 29.8284 21.4626C30.5444 20.7466 30.9466 19.7755 30.9466 18.763V4.44603C30.9466 3.43347 30.5444 2.46238 29.8284 1.74639C29.1124 1.03041 28.1413 0.628174 27.1288 0.628174ZM29.0377 18.763C29.0377 19.2693 28.8366 19.7548 28.4786 20.1128C28.1206 20.4708 27.6351 20.6719 27.1288 20.6719H4.22166C3.71538 20.6719 3.22984 20.4708 2.87185 20.1128C2.51385 19.7548 2.31274 19.2693 2.31274 18.763V4.44603C2.31274 3.93975 2.51385 3.4542 2.87185 3.09621C3.22984 2.73822 3.71538 2.5371 4.22166 2.5371H27.1288C27.6351 2.5371 28.1206 2.73822 28.4786 3.09621C28.8366 3.4542 29.0377 3.93975 29.0377 4.44603V18.763Z" fill="white"/>
<path d="M25.5726 5.61993L15.6749 13.7138L5.77707 5.61993C5.57988 5.48945 5.34128 5.4368 5.10749 5.47219C4.8737 5.50759 4.66138 5.6285 4.51165 5.8115C4.36192 5.99451 4.28545 6.22658 4.29705 6.46274C4.30865 6.69891 4.4075 6.92235 4.57445 7.0898L15.0735 15.68C15.2436 15.8179 15.4559 15.8932 15.6749 15.8932C15.8938 15.8932 16.1061 15.8179 16.2762 15.68L26.7753 7.0898C26.8866 7.01614 26.9812 6.91997 27.053 6.80747C27.1249 6.69498 27.1723 6.56866 27.1923 6.43669C27.2122 6.30472 27.2043 6.17004 27.169 6.04132C27.1337 5.91261 27.0718 5.79273 26.9873 5.68943C26.9027 5.58613 26.7975 5.50169 26.6783 5.44159C26.5592 5.38149 26.4287 5.34705 26.2954 5.3405C26.1621 5.33396 26.0289 5.35545 25.9044 5.40358C25.7799 5.45171 25.6669 5.52541 25.5726 5.61993Z" fill="white"/>
</svg>
