<svg width="76" height="77" viewBox="0 0 76 77" fill="none" xmlns="http://www.w3.org/2000/svg">
<g clip-path="url(#clip0_1049_7211)">
<path d="M53.0152 61.0832L30.0552 38.1231L53.0152 15.1631" stroke="white" stroke-width="13" stroke-miterlimit="10"/>
<path opacity="0.84" d="M22.9854 48.5256C28.7305 48.5256 33.3879 43.8682 33.3879 38.1231C33.3879 32.378 28.7305 27.7207 22.9854 27.7207C17.2403 27.7207 12.583 32.378 12.583 38.1231C12.583 43.8682 17.2403 48.5256 22.9854 48.5256Z" fill="#CAFF1F"/>
<path opacity="0.84" d="M53.0152 25.5656C58.7603 25.5656 63.4176 20.9083 63.4176 15.1632C63.4176 9.41807 58.7603 4.76074 53.0152 4.76074C47.2701 4.76074 42.6128 9.41807 42.6128 15.1632C42.6128 20.9083 47.2701 25.5656 53.0152 25.5656Z" fill="#CAFF1F"/>
<path opacity="0.84" d="M53.0152 71.4855C58.7603 71.4855 63.4176 66.8282 63.4176 61.0831C63.4176 55.338 58.7603 50.6807 53.0152 50.6807C47.2701 50.6807 42.6128 55.338 42.6128 61.0831C42.6128 66.8282 47.2701 71.4855 53.0152 71.4855Z" fill="#CAFF1F"/>
</g>
<defs>
<clipPath id="clip0_1049_7211">
<rect width="50.834" height="66.725" fill="white" transform="translate(12.583 4.76074)"/>
</clipPath>
</defs>
</svg>
