<svg width="29" height="29" viewBox="0 0 29 29" fill="none" xmlns="http://www.w3.org/2000/svg">
<g clip-path="url(#clip0_1049_7391)">
<path d="M26.0777 0.910156H2.91677C1.80729 0.910156 0.910156 1.78606 0.910156 2.86899V26.1255C0.910156 27.2084 1.80729 28.0896 2.91677 28.0896H26.0777C27.1872 28.0896 28.0896 27.2084 28.0896 26.1308V2.86899C28.0896 1.78606 27.1872 0.910156 26.0777 0.910156ZM8.97376 24.0711H4.9393V11.0972H8.97376V24.0711ZM6.95653 9.32943C5.66126 9.32943 4.61548 8.28365 4.61548 6.99369C4.61548 5.70373 5.66126 4.65795 6.95653 4.65795C8.24649 4.65795 9.29227 5.70373 9.29227 6.99369C9.29227 8.27835 8.24649 9.32943 6.95653 9.32943ZM24.0711 24.0711H20.042V17.7646C20.042 16.2623 20.0154 14.3247 17.9451 14.3247C15.8483 14.3247 15.5297 15.965 15.5297 17.6585V24.0711H11.5059V11.0972H15.3705V12.8702H15.4236C15.9597 11.851 17.2762 10.7733 19.2351 10.7733C23.3173 10.7733 24.0711 13.4594 24.0711 16.9524V24.0711Z" fill="white"/>
</g>
<defs>
<clipPath id="clip0_1049_7391">
<rect width="27.1795" height="27.1795" fill="white" transform="translate(0.910156 0.910156)"/>
</clipPath>
</defs>
</svg>
