<svg width="130" height="190" viewBox="0 0 130 190" fill="none" xmlns="http://www.w3.org/2000/svg">
<g clip-path="url(#clip0_1048_6237)">
<path d="M115.782 93.9567V96.6895C115.782 124.166 92.8766 146.525 64.6812 146.525C36.4858 146.525 13.5303 124.216 13.5303 96.7392V94.0064H0.15625V96.7392C0.15625 129.383 25.5071 156.263 57.9443 159.592V176.734H54.2514C46.8657 176.734 40.8773 182.696 40.8773 190.05H88.3354C88.3354 182.696 82.347 176.734 74.9613 176.734H71.2684V159.592C103.706 156.313 129.056 129.383 129.056 96.7392V94.0064H115.682L115.782 93.9567Z" fill="url(#paint0_linear_1048_6237)"/>
<path d="M85.0904 62.9522H106.599V51.5741H85.29C82.5952 51.5741 80.1999 49.4873 80.15 46.8042C80.1001 44.0218 82.2958 41.7859 85.0904 41.7859H106.599C106.599 18.6818 87.7852 -0.000183105 64.63 -0.000183105C41.4749 -0.000183105 22.6614 18.6818 22.6614 41.7859H43.2215C45.9163 41.7859 48.2618 43.8727 48.3616 46.5558C48.4614 49.3382 46.2157 51.6238 43.4211 51.6238H22.6614V63.0019H43.2215C45.9163 63.0019 48.2618 65.0887 48.3616 67.7718C48.4614 70.5542 46.2157 72.8398 43.4211 72.8398H22.6614V84.2179H43.2215C45.9163 84.2179 48.2618 86.3047 48.3616 88.9878C48.4614 91.7702 46.2157 94.0558 43.4211 94.0558H22.6614C22.6614 117.16 41.4749 135.842 64.63 135.842C87.8351 135.842 106.599 117.16 106.599 94.0558H85.0904C82.3457 94.0558 80.15 91.8696 80.15 89.1368C80.15 86.4041 82.3457 84.2179 85.0904 84.2179H106.599V72.8398H85.29C82.5952 72.8398 80.1999 70.7529 80.15 68.0699C80.1001 65.2875 82.2958 63.0516 85.0904 63.0516V62.9522Z" fill="url(#paint1_linear_1048_6237)"/>
</g>
<defs>
<linearGradient id="paint0_linear_1048_6237" x1="62.3857" y1="131.867" x2="50.8093" y2="317.65" gradientUnits="userSpaceOnUse">
<stop stop-color="#DBDBDB"/>
<stop offset="1" stop-color="white" stop-opacity="0"/>
</linearGradient>
<linearGradient id="paint1_linear_1048_6237" x1="64.0811" y1="85.6588" x2="58.9856" y2="247.389" gradientUnits="userSpaceOnUse">
<stop stop-color="#CAFF1F"/>
<stop offset="1" stop-color="white" stop-opacity="0"/>
</linearGradient>
<clipPath id="clip0_1048_6237">
<rect width="129" height="190" fill="white" transform="translate(0.15625)"/>
</clipPath>
</defs>
</svg>
