<svg width="274" height="155" viewBox="0 0 274 155" fill="none" xmlns="http://www.w3.org/2000/svg">
<g clip-path="url(#clip0_1048_6195)">
<path d="M269.068 26.71H40.7107C38.0026 26.71 35.8074 28.9053 35.8074 31.6133V149.776C35.8074 152.484 38.0026 154.679 40.7107 154.679H269.068C271.776 154.679 273.972 152.484 273.972 149.776V31.6133C273.972 28.9053 271.776 26.71 269.068 26.71Z" fill="url(#paint0_linear_1048_6195)"/>
<path d="M254.777 48.8393C257.45 48.8393 259.616 46.6729 259.616 44.0005C259.616 41.3281 257.45 39.1617 254.777 39.1617C252.105 39.1617 249.938 41.3281 249.938 44.0005C249.938 46.6729 252.105 48.8393 254.777 48.8393Z" fill="white"/>
<path d="M238.681 48.8393C241.353 48.8393 243.52 46.6729 243.52 44.0005C243.52 41.3281 241.353 39.1617 238.681 39.1617C236.008 39.1617 233.842 41.3281 233.842 44.0005C233.842 46.6729 236.008 48.8393 238.681 48.8393Z" fill="white"/>
<path d="M222.584 48.8393C225.256 48.8393 227.423 46.6729 227.423 44.0005C227.423 41.3281 225.256 39.1617 222.584 39.1617C219.912 39.1617 217.745 41.3281 217.745 44.0005C217.745 46.6729 219.912 48.8393 222.584 48.8393Z" fill="white"/>
<path d="M273.972 59.9362H35.8074V63.5814H273.972V59.9362Z" fill="white"/>
<path d="M178.938 0H4.1936C1.87754 0 0 1.87754 0 4.1936V119.292C0 121.608 1.87754 123.485 4.1936 123.485H178.938C181.254 123.485 183.131 121.608 183.131 119.292V4.1936C183.131 1.87754 181.254 0 178.938 0Z" fill="url(#paint1_linear_1048_6195)"/>
<path d="M126.083 102.969H81.3401C79.416 102.969 77.8562 104.529 77.8562 106.453V151.196C77.8562 153.12 79.416 154.68 81.3401 154.68H126.083C128.007 154.68 129.567 153.12 129.567 151.196V106.453C129.567 104.529 128.007 102.969 126.083 102.969Z" fill="url(#paint2_linear_1048_6195)"/>
<path d="M96.2117 117.292V140.324C96.2117 140.679 96.5988 140.937 96.9214 140.744L116.535 129.228C116.857 129.034 116.857 128.582 116.535 128.389L96.9214 116.873C96.5988 116.679 96.2117 116.905 96.2117 117.292Z" fill="url(#paint3_linear_1048_6195)"/>
<path d="M154.905 50.1299H154.872C153.109 50.1299 151.679 51.5597 151.679 53.3234V70.1946C151.679 71.9584 153.109 73.3882 154.872 73.3882H154.905C156.668 73.3882 158.098 71.9584 158.098 70.1946V53.3234C158.098 51.5597 156.668 50.1299 154.905 50.1299Z" fill="white"/>
<path d="M28.2586 50.1299H28.2263C26.4625 50.1299 25.0327 51.5597 25.0327 53.3234V70.1946C25.0327 71.9584 26.4625 73.3882 28.2263 73.3882H28.2586C30.0223 73.3882 31.4521 71.9584 31.4521 70.1946V53.3234C31.4521 51.5597 30.0223 50.1299 28.2586 50.1299Z" fill="white"/>
<path d="M142.259 41.775H142.227C140.463 41.775 139.033 43.2048 139.033 44.9686V78.5497C139.033 80.3134 140.463 81.7432 142.227 81.7432H142.259C144.023 81.7432 145.452 80.3134 145.452 78.5497V44.9686C145.452 43.2048 144.023 41.775 142.259 41.775Z" fill="white"/>
<path d="M104.259 41.775H104.227C102.463 41.775 101.033 43.2048 101.033 44.9686V78.5497C101.033 80.3134 102.463 81.7432 104.227 81.7432H104.259C106.023 81.7432 107.453 80.3134 107.453 78.5497V44.9686C107.453 43.2048 106.023 41.775 104.259 41.775Z" fill="white"/>
<path d="M78.9361 41.775H78.9038C77.14 41.775 75.7102 43.2048 75.7102 44.9686V78.5497C75.7102 80.3134 77.14 81.7432 78.9038 81.7432H78.9361C80.6998 81.7432 82.1296 80.3134 82.1296 78.5497V44.9686C82.1296 43.2048 80.6998 41.775 78.9361 41.775Z" fill="white"/>
<path d="M40.9358 41.775H40.9036C39.1398 41.775 37.71 43.2048 37.71 44.9686V78.5497C37.71 80.3134 39.1398 81.7432 40.9036 81.7432H40.9358C42.6996 81.7432 44.1294 80.3134 44.1294 78.5497V44.9686C44.1294 43.2048 42.6996 41.775 40.9358 41.775Z" fill="white"/>
<path d="M116.904 44.3231H116.872C115.108 44.3231 113.678 45.7529 113.678 47.5167V75.9364C113.678 77.7002 115.108 79.13 116.872 79.13H116.904C118.668 79.13 120.097 77.7002 120.097 75.9364V47.5167C120.097 45.7529 118.668 44.3231 116.904 44.3231Z" fill="white"/>
<path d="M66.2578 44.3231H66.2256C64.4618 44.3231 63.032 45.7529 63.032 47.5167V75.9364C63.032 77.7002 64.4618 79.13 66.2256 79.13H66.2578C68.0216 79.13 69.4514 77.7002 69.4514 75.9364V47.5167C69.4514 45.7529 68.0216 44.3231 66.2578 44.3231Z" fill="white"/>
<path d="M129.583 31.1618H129.551C127.787 31.1618 126.357 32.5916 126.357 34.3554V89.098C126.357 90.8618 127.787 92.2916 129.551 92.2916H129.583C131.347 92.2916 132.777 90.8618 132.777 89.098V34.3554C132.777 32.5916 131.347 31.1618 129.583 31.1618Z" fill="white"/>
<path d="M91.5811 31.1618H91.5488C89.785 31.1618 88.3552 32.5916 88.3552 34.3554V89.098C88.3552 90.8618 89.785 92.2916 91.5488 92.2916H91.5811C93.3448 92.2916 94.7747 90.8618 94.7747 89.098V34.3554C94.7747 32.5916 93.3448 31.1618 91.5811 31.1618Z" fill="white"/>
<path d="M53.6131 31.1618H53.5808C51.817 31.1618 50.3872 32.5916 50.3872 34.3554V89.098C50.3872 90.8618 51.817 92.2916 53.5808 92.2916H53.6131C55.3768 92.2916 56.8066 90.8618 56.8066 89.098V34.3554C56.8066 32.5916 55.3768 31.1618 53.6131 31.1618Z" fill="white"/>
</g>
<defs>
<linearGradient id="paint0_linear_1048_6195" x1="161.932" y1="19.0746" x2="151.293" y2="192.035" gradientUnits="userSpaceOnUse">
<stop stop-color="#DBDBDB" stop-opacity="0.941829"/>
<stop offset="1" stop-color="white" stop-opacity="0"/>
</linearGradient>
<linearGradient id="paint1_linear_1048_6195" x1="93.7431" y1="3.32262" x2="86.0979" y2="210.132" gradientUnits="userSpaceOnUse">
<stop stop-color="#CAFF1F"/>
<stop offset="1" stop-color="white" stop-opacity="0"/>
</linearGradient>
<linearGradient id="paint2_linear_1048_6195" x1="104.566" y1="104.84" x2="101.437" y2="189.744" gradientUnits="userSpaceOnUse">
<stop stop-color="white"/>
<stop offset="1" stop-color="white" stop-opacity="0"/>
</linearGradient>
<linearGradient id="paint3_linear_1048_6195" x1="95.7601" y1="128.937" x2="126.728" y2="124.582" gradientUnits="userSpaceOnUse">
<stop stop-color="#CAFF1F"/>
<stop offset="1" stop-color="white" stop-opacity="0"/>
</linearGradient>
<clipPath id="clip0_1048_6195">
<rect width="273.971" height="154.679" fill="white"/>
</clipPath>
</defs>
</svg>
