<svg width="25" height="35" viewBox="0 0 25 35" fill="none" xmlns="http://www.w3.org/2000/svg">
<path d="M19.8739 0.512939H5.15433C4.03894 0.512939 2.96922 0.956025 2.18052 1.74473C1.39182 2.53343 0.94873 3.60315 0.94873 4.71854V29.9522C0.94873 31.0676 1.39182 32.1373 2.18052 32.926C2.96922 33.7147 4.03894 34.1578 5.15433 34.1578H19.8739C20.9893 34.1578 22.0591 33.7147 22.8478 32.926C23.6365 32.1373 24.0796 31.0676 24.0796 29.9522V4.71854C24.0796 3.60315 23.6365 2.53343 22.8478 1.74473C22.0591 0.956025 20.9893 0.512939 19.8739 0.512939ZM21.9768 29.9522C21.9768 30.5099 21.7552 31.0447 21.3609 31.4391C20.9665 31.8334 20.4316 32.055 19.8739 32.055H5.15433C4.59664 32.055 4.06178 31.8334 3.66743 31.4391C3.27308 31.0447 3.05153 30.5099 3.05153 29.9522V4.71854C3.05153 4.16085 3.27308 3.62599 3.66743 3.23164C4.06178 2.83728 4.59664 2.61574 5.15433 2.61574H19.8739C20.4316 2.61574 20.9665 2.83728 21.3609 3.23164C21.7552 3.62599 21.9768 4.16085 21.9768 4.71854V29.9522Z" fill="white"/>
<path d="M19.8736 6.82153H5.15394C4.87509 6.82153 4.60768 6.9323 4.4105 7.12948C4.21333 7.32666 4.10254 7.59409 4.10254 7.87293C4.10254 8.15178 4.21333 8.41921 4.4105 8.61639C4.60768 8.81356 4.87509 8.92434 5.15394 8.92434H19.8736C20.1524 8.92434 20.4198 8.81356 20.617 8.61639C20.8142 8.41921 20.925 8.15178 20.925 7.87293C20.925 7.59409 20.8142 7.32666 20.617 7.12948C20.4198 6.9323 20.1524 6.82153 19.8736 6.82153Z" fill="white"/>
<path d="M19.8736 24.6953H5.15394C4.87509 24.6953 4.60768 24.8061 4.4105 25.0033C4.21333 25.2004 4.10254 25.4679 4.10254 25.7467C4.10254 26.0256 4.21333 26.293 4.4105 26.4902C4.60768 26.6873 4.87509 26.7981 5.15394 26.7981H19.8736C20.1524 26.7981 20.4198 26.6873 20.617 26.4902C20.8142 26.293 20.925 26.0256 20.925 25.7467C20.925 25.4679 20.8142 25.2004 20.617 25.0033C20.4198 24.8061 20.1524 24.6953 19.8736 24.6953Z" fill="white"/>
<path d="M10.4118 5.77004H14.6174C14.8962 5.77004 15.1636 5.65927 15.3608 5.46209C15.558 5.26491 15.6688 4.99749 15.6688 4.71864C15.6688 4.43979 15.558 4.17236 15.3608 3.97518C15.1636 3.77801 14.8962 3.66724 14.6174 3.66724H10.4118C10.1329 3.66724 9.86549 3.77801 9.66832 3.97518C9.47114 4.17236 9.36035 4.43979 9.36035 4.71864C9.36035 4.99749 9.47114 5.26491 9.66832 5.46209C9.86549 5.65927 10.1329 5.77004 10.4118 5.77004Z" fill="white"/>
<path d="M12.5141 31.0041C13.3851 31.0041 14.0912 30.298 14.0912 29.427C14.0912 28.5559 13.3851 27.8499 12.5141 27.8499C11.6431 27.8499 10.937 28.5559 10.937 29.427C10.937 30.298 11.6431 31.0041 12.5141 31.0041Z" fill="white"/>
</svg>
