<svg width="314" height="142" viewBox="0 0 314 142" fill="none" xmlns="http://www.w3.org/2000/svg">
<g clip-path="url(#clip0_1048_6218)">
<path d="M255.979 0.710022H5.38083C2.40908 0.710022 0 3.1191 0 6.09085V135.762C0 138.734 2.40908 141.143 5.38083 141.143H255.979C258.951 141.143 261.36 138.734 261.36 135.762V6.09085C261.36 3.1191 258.951 0.710022 255.979 0.710022Z" fill="url(#paint0_linear_1048_6218)"/>
<path d="M240.296 24.9946C243.229 24.9946 245.606 22.6173 245.606 19.6846C245.606 16.752 243.229 14.3746 240.296 14.3746C237.363 14.3746 234.986 16.752 234.986 19.6846C234.986 22.6173 237.363 24.9946 240.296 24.9946Z" fill="white"/>
<path d="M222.632 24.9946C225.565 24.9946 227.942 22.6173 227.942 19.6846C227.942 16.752 225.565 14.3746 222.632 14.3746C219.7 14.3746 217.322 16.752 217.322 19.6846C217.322 22.6173 219.7 24.9946 222.632 24.9946Z" fill="white"/>
<path d="M204.967 24.9946C207.899 24.9946 210.277 22.6172 210.277 19.6846C210.277 16.7519 207.899 14.3745 204.967 14.3745C202.034 14.3745 199.656 16.7519 199.656 19.6846C199.656 22.6172 202.034 24.9946 204.967 24.9946Z" fill="white"/>
<path d="M261.359 37.1724H-0.000244141V41.1726H261.359V37.1724Z" fill="white"/>
<path d="M282.875 65.28H21.4448C17.9843 65.28 15.179 68.0853 15.179 71.5459V105.211C15.179 108.672 17.9843 111.477 21.4448 111.477H282.875C286.336 111.477 289.141 108.672 289.141 105.211V71.5459C289.141 68.0853 286.336 65.28 282.875 65.28Z" fill="url(#paint1_linear_1048_6218)"/>
<path d="M29.6226 82.1307V94.6623C29.6226 94.8747 29.835 94.9809 30.012 94.8747L40.6674 88.6089C40.6674 88.6089 40.8444 88.2549 40.6674 88.1487L30.012 81.8829C30.012 81.8829 29.6226 81.8829 29.6226 82.0953V82.1307Z" fill="white"/>
<path d="M268.645 82.343H55.7485C52.4248 82.343 49.7305 85.0374 49.7305 88.3611C49.7305 91.6847 52.4248 94.3791 55.7485 94.3791H268.645C271.969 94.3791 274.663 91.6847 274.663 88.3611C274.663 85.0374 271.969 82.343 268.645 82.343Z" fill="white"/>
<path d="M165.418 82.343H55.7485C52.4248 82.343 49.7305 85.0374 49.7305 88.3611C49.7305 91.6847 52.4248 94.3791 55.7485 94.3791H165.418C168.742 94.3791 171.436 91.6847 171.436 88.3611C171.436 85.0374 168.742 82.343 165.418 82.343Z" fill="#CAFF1F"/>
</g>
<defs>
<linearGradient id="paint0_linear_1048_6218" x1="130.68" y1="-28.7383" x2="128.998" y2="123.655" gradientUnits="userSpaceOnUse">
<stop offset="0.132773" stop-color="#DBDBDB"/>
<stop offset="1" stop-color="white" stop-opacity="0"/>
</linearGradient>
<linearGradient id="paint1_linear_1048_6218" x1="301.142" y1="91.016" x2="-117.926" y2="83.5819" gradientUnits="userSpaceOnUse">
<stop stop-color="#CAFF1F"/>
<stop offset="1" stop-color="white" stop-opacity="0"/>
</linearGradient>
<clipPath id="clip0_1048_6218">
<rect width="313.292" height="140.433" fill="white" transform="translate(0 0.709961)"/>
</clipPath>
</defs>
</svg>
