<svg width="31" height="31" viewBox="0 0 31 31" fill="none" xmlns="http://www.w3.org/2000/svg">
<path d="M0.550781 30.4487L2.65232 22.7713C1.35552 20.524 0.674108 17.9765 0.675354 15.3642C0.679091 7.19722 7.32503 0.55127 15.4907 0.55127C19.4534 0.552515 23.1731 2.09597 25.971 4.89636C28.7677 7.69676 30.3074 11.419 30.3061 15.3779C30.3024 23.5461 23.6565 30.1921 15.4907 30.1921C13.0118 30.1908 10.5689 29.5692 8.40507 28.3883L0.550781 30.4487ZM8.76882 25.7062C10.8567 26.9457 12.8498 27.6882 15.4858 27.6894C22.2725 27.6894 27.801 22.1659 27.8047 15.3754C27.8072 8.57126 22.3049 3.05518 15.4957 3.05269C8.70404 3.05269 3.17926 8.57624 3.17677 15.3654C3.17552 18.1372 3.98773 20.2126 5.3518 22.3839L4.10732 26.9283L8.76882 25.7062ZM22.9539 18.8996C22.8617 18.7451 22.615 18.6529 22.2438 18.4673C21.8738 18.2817 20.0538 17.386 19.7137 17.2627C19.3749 17.1394 19.1283 17.0771 18.8804 17.4483C18.6337 17.8183 17.9236 18.6529 17.7081 18.8996C17.4926 19.1462 17.2759 19.1774 16.9059 18.9918C16.5359 18.8061 15.3425 18.4162 13.9286 17.1543C12.8286 16.1727 12.0849 14.9606 11.8694 14.5894C11.6539 14.2194 11.847 14.0188 12.0314 13.8345C12.1983 13.6688 12.4014 13.4022 12.587 13.1854C12.7751 12.9712 12.8361 12.8167 12.9607 12.5688C13.084 12.3221 13.023 12.1054 12.9295 11.9198C12.8361 11.7354 12.0961 9.9129 11.7885 9.1717C11.487 8.45042 11.1818 8.54759 10.9551 8.53638L10.245 8.52392C9.99835 8.52392 9.59723 8.6161 9.25839 8.98733C8.91955 9.35856 7.96284 10.253 7.96284 12.0755C7.96284 13.898 9.28953 15.6582 9.4739 15.9048C9.65951 16.1515 12.0837 19.8912 15.7972 21.4944C16.6804 21.8756 17.3705 22.1036 17.9074 22.2742C18.7944 22.5558 19.6016 22.5159 20.2394 22.4212C20.9508 22.3154 22.4294 21.5256 22.7384 20.661C23.0473 19.7953 23.0473 19.054 22.9539 18.8996Z" fill="white"/>
</svg>
