<svg width="89" height="65" viewBox="0 0 89 65" fill="none" xmlns="http://www.w3.org/2000/svg">
<g clip-path="url(#clip0_113_614)">
<path d="M16.8149 52.6668H14.5146V64.4705H16.8149V52.6668Z" fill="white"/>
<path d="M7.16161 61.2623L4.16527 52.6668H1.1084V64.4705H3.37835L3.28755 55.9052L6.28389 64.4705H8.00905L11.0054 55.9052L10.9146 64.4705H13.2148V52.6668H10.1579L7.16161 61.2623Z" fill="white"/>
<path d="M69.1757 59.8103L70.5983 55.9968L71.9905 59.8103H69.1757ZM81.9783 61.2328L78.9819 52.6372H75.9251V63.8357L71.6273 52.6372H69.66L65.0596 64.441H67.4506L68.3586 61.9592H72.7471L73.6854 64.441H78.2253L78.1345 55.8757L81.1308 64.441H82.856L85.8523 55.8757L85.7615 64.441H88.0315V52.6372H84.9746L81.9783 61.2328Z" fill="white"/>
<path d="M47.1104 54.7551H49.35V64.4705H51.6503V54.7551H53.8899V52.6668H47.1104V54.7551Z" fill="white"/>
<path d="M29.9219 59.8051L31.3444 55.9915L32.7366 59.8051H29.9219ZM22.537 58.1102C22.3856 58.1707 22.204 58.2312 22.0527 58.2615C21.8711 58.322 21.6895 58.3523 21.4777 58.3523C21.2658 58.3523 21.0539 58.3826 20.8118 58.3826H20.2973V54.569H21.1447C21.3566 54.569 21.5685 54.569 21.7501 54.569C21.9317 54.569 22.1133 54.5993 22.2646 54.6598C22.4159 54.6901 22.5672 54.7506 22.6883 54.8112C22.8094 54.8717 22.9304 54.9322 23.0515 54.9928C23.1423 55.0836 23.2331 55.1441 23.3239 55.2652C23.3844 55.356 23.445 55.4468 23.5055 55.5678C23.5358 55.6889 23.5963 55.8099 23.6266 55.9613C23.6266 56.0823 23.6568 56.2337 23.6568 56.385C23.6568 56.5363 23.6568 56.6877 23.5963 56.839C23.5963 56.9903 23.5358 57.1114 23.4752 57.2324C23.4147 57.3535 23.3542 57.4746 23.2634 57.5654C23.1726 57.6562 23.0515 57.7772 22.9304 57.8378C22.8094 57.9286 22.658 57.9891 22.537 58.0496M43.7535 60.138L38.8806 52.6017H36.6712V63.8002L32.4037 52.6017H30.4061L25.9268 64.1331L23.1726 59.8353C23.3844 59.8051 23.5963 59.7445 23.7779 59.6537C23.9595 59.5932 24.1411 59.5024 24.3227 59.3813C24.5043 59.2905 24.6556 59.1695 24.8069 59.0484C24.9583 58.8971 25.1096 58.776 25.2307 58.6247C25.3517 58.4734 25.4728 58.2918 25.5636 58.1404C25.6544 57.9588 25.7452 57.7772 25.8057 57.5956C25.8662 57.3838 25.9268 57.2022 25.957 56.9903C25.9873 56.7785 26.0176 56.5666 26.0176 56.3245C26.0176 56.1429 26.0176 55.9613 25.9873 55.7797C25.9873 55.5981 25.9268 55.4165 25.8965 55.2652C25.836 55.1138 25.8057 54.9322 25.7452 54.7809C25.6846 54.6296 25.5938 54.4782 25.503 54.3572C25.4122 54.2058 25.3214 54.0848 25.2004 53.9637C25.0793 53.8426 24.9583 53.7216 24.8372 53.6005C24.7161 53.4795 24.5648 53.3887 24.4135 53.2979C24.2621 53.2071 24.1108 53.1163 23.9292 53.0557C23.8384 53.0255 23.7779 52.9952 23.6871 52.9649C23.5963 52.9649 23.5055 52.9044 23.4147 52.8741C23.3239 52.8741 23.2331 52.8136 23.112 52.8136C23.0212 52.8136 22.9002 52.7833 22.8094 52.7531C22.6883 52.7531 22.5672 52.7531 22.4462 52.7228C22.3251 52.7228 22.1738 52.7228 21.9922 52.7228C21.8409 52.7228 21.6593 52.7228 21.4474 52.7228C21.2658 52.7228 21.0539 52.7228 20.8118 52.7228H17.9971V64.5266H20.2973V59.0484L23.3542 64.5266H28.227L29.135 62.0447H33.5235L34.4618 64.5266H38.9714V56.7482L43.9048 64.5266H46.0537V52.7228H43.7837V60.259L43.7535 60.138Z" fill="white"/>
<path d="M54.6475 64.4705H61.0033V62.4124H56.9174V59.4766H61.0033V57.4488H56.9174V54.7551H61.0033V52.6668H54.6475V64.4705Z" fill="white"/>
<path d="M57.402 22.0052C57.402 22.0052 57.1296 22.0052 57.0086 22.0052H56.7059C55.2834 22.0052 54.0425 21.8236 52.9529 21.4604C52.4384 21.2485 51.9541 21.0064 51.5304 20.734C51.1369 20.4919 50.683 20.159 50.1987 19.826C55.6466 15.2861 67.1174 8.7184 81.2819 9.65665C73.6246 10.2922 64.3329 14.7111 57.402 22.0052ZM24.745 33.7484C34.4604 34.9591 39.5753 31.3877 38.0923 24.2751C36.6092 17.2837 20.6288 6.81164 5.16283 6.44845C4.92071 6.44845 4.67858 6.44845 4.43645 6.41818C6.07082 5.87339 9.73301 5.17727 14.6361 5.3286C21.8092 5.6918 31.3127 7.78015 40.9676 14.2268C42.8138 15.4375 47.7471 19.4628 50.5922 21.2788C51.1975 21.6723 51.8331 21.9447 52.4687 22.1868C54.1333 22.8829 55.8584 23.0342 57.3717 23.0342C60.2168 23.004 64.8777 23.0342 68.6004 26.6662C62.4564 26.4846 59.1877 27.6044 50.5619 33.1431C42.9046 38.0462 33.6129 36.6237 27.9532 34.9591C26.6215 34.5353 25.5319 34.1116 24.7752 33.7787M86.2153 23.912C86.2153 34.1419 77.4079 42.9493 64.6659 47.0352C78.9514 43.3427 89.03 34.384 89.03 23.912C89.03 18.9181 86.7298 14.2874 82.7952 10.383C82.9465 10.1712 83.0373 9.89878 83.0676 9.62638C83.0676 8.96053 82.5531 8.38547 81.8872 8.35521C81.403 8.32494 80.8885 8.29468 80.4042 8.26441C76.288 4.96541 70.8704 2.36253 64.6961 0.758432C70.0532 2.4836 74.7142 5.05621 78.3461 8.20388C76.7723 8.20388 75.2287 8.29468 73.7457 8.47627C69.8111 5.81286 64.8777 3.69424 59.2785 2.33227C64.2724 3.84557 68.6307 6.02472 72.1113 8.68813C70.9915 8.83947 69.9322 9.05133 68.8728 9.26319C65.2106 6.90244 60.701 5.23781 55.6768 4.51142C60.247 5.38914 64.3329 7.17483 67.6017 9.56585C66.3305 9.89878 65.1199 10.2317 63.9395 10.6252C59.0364 6.99324 52.1055 4.72328 44.3876 4.72328C39.3332 4.72328 34.6117 5.6918 30.5863 7.38669C29.4665 6.96297 28.3769 6.56951 27.2873 6.23659C29.2546 5.38914 31.4035 4.72328 33.6432 4.29956C31.1614 4.66275 28.8006 5.26807 26.6215 6.05499C25.2595 5.66153 23.958 5.3286 22.6566 5.05621C24.9266 3.9061 27.3781 2.90732 30.0415 2.1204C27.0754 2.84679 24.3212 3.75477 21.7789 4.87461C19.8721 4.51142 18.0864 4.26929 16.4218 4.14823C18.9036 2.72572 21.6578 1.51508 24.6239 0.54657C21.2038 1.42428 18.0562 2.63493 15.2112 4.05743C14.2124 3.9969 13.2439 3.96663 12.3662 3.96663C8.00784 3.96663 4.55751 4.57195 2.83235 5.14701C2.22703 5.3286 1.86384 5.93392 1.95463 6.56951C2.04543 7.17483 2.59022 7.65909 3.22581 7.65909C5.1023 7.65909 6.9788 7.81042 8.85529 8.08281C3.34687 12.3503 0.138672 17.7679 0.138672 23.6698C0.138672 34.1419 10.2173 43.1006 24.5028 46.7931C11.7608 42.7072 2.95341 33.8997 2.95341 23.6698C2.95341 17.9193 5.73789 12.6227 10.4291 8.35521C11.67 8.59734 12.9109 8.86973 14.0913 9.20266C8.85529 13.1675 5.70762 18.1917 5.70762 23.6396C5.70762 33.4155 15.7257 41.7689 29.9205 45.189C17.2692 41.3755 8.4921 33.1734 8.4921 23.6396C8.4921 18.4035 11.1252 13.561 15.6349 9.65665C16.5126 9.92904 17.36 10.2317 18.2075 10.5344C13.8189 14.015 11.1252 18.6154 11.1252 23.6396C11.1252 33.2036 20.7196 41.1636 33.5221 43.0098C21.9605 40.7399 13.4255 32.9312 13.4255 23.6396C13.4255 18.8575 15.6954 14.4689 19.5089 11.0186C20.5682 11.4423 21.5973 11.8963 22.5961 12.3806C19.3273 15.498 17.3903 19.3418 17.3903 23.5185C17.3903 33.93 29.4362 42.3742 44.3271 42.3742C59.1877 42.3742 71.2639 33.93 71.2639 23.5185C71.2639 20.4919 70.2348 17.6166 68.4188 15.1045C69.5084 14.4992 70.6283 13.9242 71.7784 13.4399C74.2905 16.4665 75.7432 20.0379 75.7432 23.8514C75.7432 33.1734 67.2082 40.982 55.6466 43.2519C68.4491 41.4057 78.0434 33.4155 78.0434 23.8514C78.0434 19.7655 76.288 15.9822 73.2917 12.8346C74.1089 12.5319 74.926 12.2293 75.7432 11.9871C78.8606 15.4677 80.6766 19.5234 80.6766 23.8212C80.6766 33.355 71.8995 41.5571 59.2785 45.3706C73.4733 41.9202 83.4913 33.5668 83.4913 23.8212C83.4913 19.2812 81.3122 15.044 77.5895 11.4726C78.8001 11.2002 79.9502 10.9884 81.1003 10.8976C84.3691 14.6808 86.2456 19.0997 86.2456 23.8212" fill="white"/>
</g>
<defs>
<clipPath id="clip0_113_614">
<rect width="88.8611" height="63.9219" fill="white" transform="translate(0.138672 0.546265)"/>
</clipPath>
</defs>
</svg>
