<svg width="884" height="850" viewBox="0 0 884 850" fill="none" xmlns="http://www.w3.org/2000/svg">
<g filter="url(#filter0_f_1230_3147)">
<path d="M693.415 531.028C681.577 449.815 602.456 364.504 658.989 272.855C699.601 207.017 664.419 169.319 635.067 155.038L511.75 160C347.736 325.97 134.535 416.051 151.739 435.039C173.244 458.774 206.995 673.985 247.734 645.914C288.472 617.842 328.377 612.043 461.275 665.319C594.173 718.594 705.253 612.241 693.415 531.028Z" fill="url(#paint0_linear_1230_3147)"/>
<path d="M625.407 151.07C628.472 152.095 631.732 153.415 635.067 155.038M635.067 155.038C664.419 169.319 699.601 207.017 658.989 272.855C602.456 364.504 681.577 449.815 693.415 531.028C705.253 612.241 594.173 718.594 461.275 665.319C328.377 612.043 288.472 617.842 247.734 645.914C206.995 673.985 173.244 458.774 151.739 435.039C134.535 416.051 347.736 325.97 511.75 160L635.067 155.038Z" stroke="black"/>
</g>
<g filter="url(#filter1_d_1230_3147)">
<rect x="727.896" y="227.881" width="172.435" height="362.214" rx="11" transform="rotate(90 727.896 227.881)" fill="#D9D9D9" fill-opacity="0.34" shape-rendering="crispEdges"/>
<rect x="727.396" y="228.381" width="171.435" height="361.214" rx="10.5" transform="rotate(90 727.396 228.381)" stroke="white" shape-rendering="crispEdges"/>
</g>
<g filter="url(#filter2_d_1230_3147)">
<rect x="677.703" y="438.614" width="131.491" height="276.208" rx="8.38811" transform="rotate(90 677.703 438.614)" fill="#D9D9D9" fill-opacity="0.34" shape-rendering="crispEdges"/>
<rect x="677.321" y="438.995" width="130.729" height="275.446" rx="8.00683" transform="rotate(90 677.321 438.995)" stroke="white" stroke-width="0.762555" shape-rendering="crispEdges"/>
</g>
<g filter="url(#filter3_d_1230_3147)">
<rect x="148.56" y="227.881" width="184.84" height="342.223" rx="11.8258" fill="#D9D9D9" fill-opacity="0.34" shape-rendering="crispEdges"/>
<rect x="149.097" y="228.419" width="183.765" height="341.148" rx="11.2883" stroke="white" stroke-width="1.07507" shape-rendering="crispEdges"/>
</g>
<path d="M559.233 279.852H534.346C522.359 279.852 512.642 289.597 512.642 301.619V326.579C512.642 338.601 522.359 348.347 534.346 348.347H559.233C571.22 348.347 580.937 338.601 580.937 326.579V301.619C580.937 289.597 571.22 279.852 559.233 279.852Z" fill="#F7F7F7" fill-opacity="0.6"/>
<path d="M538.125 326.369V301.859C538.125 300.509 539.708 299.719 540.842 300.517L557.349 312.029C558.813 313.048 558.813 315.162 557.349 316.181L540.791 327.693C539.683 328.466 538.125 327.693 538.125 326.377V326.369Z" fill="#1E1F24"/>
<path d="M549.087 478.244H530.109C520.969 478.244 513.559 485.675 513.559 494.843V513.876C513.559 523.043 520.969 530.475 530.109 530.475H549.087C558.228 530.475 565.638 523.043 565.638 513.876V494.843C565.638 485.675 558.228 478.244 549.087 478.244Z" fill="#F7F7F7" fill-opacity="0.6"/>
<path d="M532.99 513.715V495.025C532.99 493.996 534.197 493.394 535.062 494.002L547.65 502.781C548.766 503.558 548.766 505.17 547.65 505.947L535.024 514.725C534.178 515.315 532.99 514.725 532.99 513.722V513.715Z" fill="#1E1F24"/>
<path d="M251.788 369.244H230.171C219.758 369.244 211.317 377.71 211.317 388.152V409.834C211.317 420.276 219.758 428.742 230.171 428.742H251.788C262.201 428.742 270.642 420.276 270.642 409.834V388.152C270.642 377.71 262.201 369.244 251.788 369.244Z" fill="#F7F7F7" fill-opacity="0.6"/>
<path d="M233.453 409.651V388.361C233.453 387.188 234.828 386.502 235.813 387.196L250.152 397.195C251.424 398.08 251.424 399.917 250.152 400.802L235.769 410.801C234.806 411.473 233.453 410.801 233.453 409.658V409.651Z" fill="#1E1F24"/>
<rect x="658.72" y="361.632" width="55.8367" height="31" rx="4" fill="black" fill-opacity="0.67"/>
<path d="M666.463 382.632V381.081L670.088 377.725C670.396 377.427 670.655 377.159 670.863 376.92C671.075 376.681 671.236 376.448 671.346 376.219C671.455 375.987 671.51 375.737 671.51 375.468C671.51 375.17 671.442 374.913 671.306 374.698C671.17 374.479 670.984 374.312 670.749 374.196C670.514 374.076 670.247 374.017 669.949 374.017C669.637 374.017 669.365 374.08 669.133 374.205C668.901 374.331 668.722 374.512 668.596 374.747C668.47 374.983 668.407 375.263 668.407 375.588H666.364C666.364 374.921 666.515 374.343 666.816 373.852C667.118 373.362 667.541 372.982 668.084 372.714C668.628 372.446 669.254 372.311 669.963 372.311C670.693 372.311 671.327 372.441 671.868 372.699C672.411 372.954 672.834 373.309 673.135 373.763C673.437 374.217 673.588 374.737 673.588 375.324C673.588 375.709 673.512 376.088 673.359 376.463C673.21 376.837 672.943 377.253 672.559 377.71C672.174 378.165 671.632 378.71 670.933 379.346L669.446 380.803V380.872H673.722V382.632H666.463ZM679.274 382.856C678.419 382.853 677.683 382.642 677.067 382.225C676.453 381.807 675.981 381.202 675.65 380.41C675.322 379.618 675.159 378.665 675.163 377.551C675.163 376.441 675.327 375.495 675.655 374.713C675.986 373.93 676.458 373.335 677.072 372.928C677.688 372.517 678.422 372.311 679.274 372.311C680.126 372.311 680.858 372.517 681.471 372.928C682.088 373.339 682.562 373.935 682.893 374.718C683.225 375.496 683.389 376.441 683.386 377.551C683.386 378.668 683.22 379.623 682.888 380.415C682.56 381.207 682.09 381.812 681.476 382.23C680.863 382.647 680.129 382.856 679.274 382.856ZM679.274 381.071C679.857 381.071 680.323 380.778 680.671 380.191C681.019 379.605 681.191 378.725 681.188 377.551C681.188 376.779 681.109 376.136 680.949 375.622C680.794 375.109 680.572 374.723 680.283 374.464C679.998 374.205 679.662 374.076 679.274 374.076C678.694 374.076 678.23 374.366 677.882 374.946C677.534 375.526 677.358 376.395 677.355 377.551C677.355 378.334 677.433 378.986 677.589 379.51C677.748 380.031 677.971 380.422 678.26 380.683C678.548 380.942 678.886 381.071 679.274 381.071ZM686.178 381.449C685.85 381.449 685.568 381.333 685.333 381.101C685.101 380.869 684.985 380.587 684.985 380.256C684.985 379.931 685.101 379.653 685.333 379.421C685.568 379.189 685.85 379.073 686.178 379.073C686.496 379.073 686.775 379.189 687.014 379.421C687.252 379.653 687.371 379.931 687.371 380.256C687.371 380.475 687.315 380.675 687.202 380.857C687.093 381.036 686.949 381.181 686.77 381.29C686.591 381.396 686.394 381.449 686.178 381.449ZM686.178 376.453C685.85 376.453 685.568 376.337 685.333 376.105C685.101 375.873 684.985 375.591 684.985 375.259C684.985 374.935 685.101 374.658 685.333 374.429C685.568 374.197 685.85 374.081 686.178 374.081C686.496 374.081 686.775 374.197 687.014 374.429C687.252 374.658 687.371 374.935 687.371 375.259C687.371 375.482 687.315 375.684 687.202 375.866C687.093 376.045 686.949 376.187 686.77 376.294C686.591 376.4 686.394 376.453 686.178 376.453ZM689.09 382.632V381.081L692.715 377.725C693.023 377.427 693.281 377.159 693.49 376.92C693.702 376.681 693.863 376.448 693.973 376.219C694.082 375.987 694.137 375.737 694.137 375.468C694.137 375.17 694.069 374.913 693.933 374.698C693.797 374.479 693.611 374.312 693.376 374.196C693.141 374.076 692.874 374.017 692.576 374.017C692.264 374.017 691.992 374.08 691.76 374.205C691.528 374.331 691.349 374.512 691.223 374.747C691.097 374.983 691.034 375.263 691.034 375.588H688.991C688.991 374.921 689.142 374.343 689.443 373.852C689.745 373.362 690.168 372.982 690.711 372.714C691.255 372.446 691.881 372.311 692.59 372.311C693.32 372.311 693.954 372.441 694.495 372.699C695.038 372.954 695.461 373.309 695.762 373.763C696.064 374.217 696.215 374.737 696.215 375.324C696.215 375.709 696.138 376.088 695.986 376.463C695.837 376.837 695.57 377.253 695.186 377.71C694.801 378.165 694.259 378.71 693.56 379.346L692.073 380.803V380.872H696.349V382.632H689.09ZM701.901 382.856C701.046 382.853 700.31 382.642 699.694 382.225C699.08 381.807 698.608 381.202 698.277 380.41C697.949 379.618 697.786 378.665 697.789 377.551C697.789 376.441 697.954 375.495 698.282 374.713C698.613 373.93 699.085 373.335 699.699 372.928C700.315 372.517 701.049 372.311 701.901 372.311C702.753 372.311 703.485 372.517 704.098 372.928C704.715 373.339 705.189 373.935 705.52 374.718C705.852 375.496 706.016 376.441 706.012 377.551C706.012 378.668 705.847 379.623 705.515 380.415C705.187 381.207 704.717 381.812 704.103 382.23C703.49 382.647 702.756 382.856 701.901 382.856ZM701.901 381.071C702.484 381.071 702.95 380.778 703.298 380.191C703.646 379.605 703.818 378.725 703.815 377.551C703.815 376.779 703.735 376.136 703.576 375.622C703.421 375.109 703.199 374.723 702.91 374.464C702.625 374.205 702.289 374.076 701.901 374.076C701.321 374.076 700.857 374.366 700.509 374.946C700.161 375.526 699.985 376.395 699.982 377.551C699.982 378.334 700.06 378.986 700.216 379.51C700.375 380.031 700.598 380.422 700.887 380.683C701.175 380.942 701.513 381.071 701.901 381.071Z" fill="white"/>
<rect x="628.808" y="537.362" width="40.5571" height="24.1004" rx="3.05022" fill="black" fill-opacity="0.67"/>
<path d="M638.093 545.648V553.412H636.452V547.206H636.406L634.628 548.321V546.865L636.55 545.648H638.093ZM639.821 552.047V550.755L643.062 545.648H644.177V547.437H643.517L641.474 550.671V550.732H646.08V552.047H639.821ZM643.548 553.412V551.653L643.578 551.081V545.648H645.117V553.412H643.548ZM648.133 552.51C647.883 552.51 647.668 552.421 647.488 552.244C647.312 552.068 647.223 551.853 647.223 551.6C647.223 551.352 647.312 551.14 647.488 550.963C647.668 550.786 647.883 550.698 648.133 550.698C648.376 550.698 648.588 550.786 648.77 550.963C648.952 551.14 649.043 551.352 649.043 551.6C649.043 551.767 649 551.92 648.914 552.059C648.831 552.195 648.721 552.305 648.584 552.389C648.448 552.469 648.297 552.51 648.133 552.51ZM648.133 548.7C647.883 548.7 647.668 548.611 647.488 548.434C647.312 548.257 647.223 548.043 647.223 547.79C647.223 547.542 647.312 547.331 647.488 547.157C647.668 546.98 647.883 546.891 648.133 546.891C648.376 546.891 648.588 546.98 648.77 547.157C648.952 547.331 649.043 547.542 649.043 547.79C649.043 547.959 649 548.113 648.914 548.252C648.831 548.389 648.721 548.498 648.584 548.578C648.448 548.659 648.297 548.7 648.133 548.7ZM650.354 553.412V552.229L653.117 549.67C653.352 549.443 653.55 549.238 653.709 549.056C653.87 548.874 653.993 548.696 654.076 548.522C654.16 548.345 654.202 548.154 654.202 547.949C654.202 547.722 654.15 547.526 654.046 547.361C653.943 547.195 653.801 547.067 653.622 546.979C653.442 546.888 653.239 546.842 653.011 546.842C652.774 546.842 652.566 546.89 652.389 546.986C652.213 547.082 652.076 547.22 651.98 547.399C651.884 547.579 651.836 547.792 651.836 548.04H650.278C650.278 547.532 650.393 547.091 650.623 546.717C650.853 546.343 651.175 546.054 651.59 545.849C652.004 545.644 652.482 545.542 653.023 545.542C653.579 545.542 654.063 545.64 654.475 545.837C654.889 546.032 655.211 546.303 655.441 546.649C655.671 546.995 655.786 547.392 655.786 547.839C655.786 548.132 655.728 548.422 655.612 548.707C655.498 548.993 655.295 549.31 655.002 549.659C654.708 550.005 654.295 550.421 653.762 550.906L652.628 552.017V552.07H655.889V553.412H650.354ZM660.122 553.583C659.47 553.58 658.909 553.42 658.439 553.101C657.972 552.783 657.611 552.322 657.359 551.717C657.108 551.113 656.985 550.387 656.987 549.538C656.987 548.691 657.112 547.969 657.362 547.373C657.615 546.776 657.975 546.323 658.443 546.012C658.913 545.698 659.473 545.542 660.122 545.542C660.772 545.542 661.33 545.698 661.798 546.012C662.268 546.325 662.63 546.78 662.882 547.377C663.135 547.971 663.26 548.691 663.258 549.538C663.258 550.389 663.131 551.117 662.878 551.721C662.628 552.325 662.269 552.787 661.802 553.105C661.334 553.423 660.774 553.583 660.122 553.583ZM660.122 552.222C660.567 552.222 660.922 551.998 661.188 551.551C661.453 551.103 661.584 550.432 661.582 549.538C661.582 548.949 661.521 548.458 661.4 548.067C661.281 547.675 661.112 547.38 660.892 547.183C660.675 546.986 660.418 546.888 660.122 546.888C659.68 546.888 659.326 547.109 659.061 547.551C658.795 547.993 658.662 548.656 658.659 549.538C658.659 550.134 658.718 550.632 658.837 551.031C658.958 551.428 659.129 551.726 659.349 551.926C659.569 552.123 659.827 552.222 660.122 552.222Z" fill="white"/>
<path d="M285.188 507.62V513.372L268.651 559.965H258.009L274.618 515.997H253.551V507.62H285.188ZM290.911 551.804H291.415C293.716 551.804 295.681 551.468 297.311 550.797C298.964 550.126 300.307 549.144 301.337 547.849C302.392 546.531 303.159 544.913 303.638 542.996C304.117 541.079 304.357 538.898 304.357 536.453V526.351C304.357 524.481 304.225 522.863 303.962 521.497C303.698 520.107 303.326 518.957 302.847 518.046C302.368 517.111 301.828 516.416 301.229 515.961C300.63 515.506 299.983 515.278 299.288 515.278C298.473 515.278 297.754 515.553 297.131 516.105C296.508 516.656 295.98 517.411 295.549 518.37C295.142 519.304 294.83 520.371 294.614 521.569C294.399 522.768 294.291 524.002 294.291 525.272C294.291 526.614 294.399 527.873 294.614 529.047C294.83 530.221 295.154 531.264 295.585 532.175C296.016 533.086 296.568 533.793 297.239 534.296C297.91 534.799 298.713 535.051 299.647 535.051C300.414 535.051 301.121 534.835 301.769 534.404C302.416 533.948 302.979 533.349 303.458 532.606C303.938 531.863 304.321 531.048 304.609 530.162C304.896 529.275 305.052 528.364 305.076 527.429L308.348 529.478C308.348 531.108 308.048 532.726 307.449 534.332C306.874 535.938 306.071 537.4 305.04 538.718C304.009 540.036 302.811 541.091 301.445 541.882C300.103 542.648 298.653 543.032 297.095 543.032C295.01 543.032 293.164 542.589 291.558 541.702C289.953 540.815 288.598 539.581 287.496 537.999C286.417 536.393 285.603 534.524 285.051 532.39C284.5 530.233 284.224 527.909 284.224 525.416C284.224 522.875 284.572 520.491 285.267 518.262C285.986 516.009 287.005 514.032 288.323 512.33C289.641 510.628 291.235 509.298 293.104 508.339C294.974 507.357 297.059 506.865 299.36 506.865C301.637 506.865 303.698 507.369 305.543 508.375C307.389 509.382 308.971 510.832 310.289 512.725C311.607 514.595 312.614 516.848 313.309 519.484C314.028 522.097 314.387 525.021 314.387 528.256V531.887C314.387 535.314 314.088 538.502 313.489 541.45C312.889 544.374 311.979 547.011 310.756 549.359C309.534 551.708 308.012 553.721 306.19 555.399C304.369 557.053 302.236 558.323 299.791 559.21C297.371 560.073 294.626 560.504 291.558 560.504H290.911V551.804ZM315.437 554.824C315.437 553.242 315.964 551.924 317.019 550.869C318.073 549.791 319.5 549.251 321.297 549.251C323.095 549.251 324.521 549.791 325.575 550.869C326.63 551.924 327.157 553.242 327.157 554.824C327.157 556.406 326.63 557.724 325.575 558.778C324.521 559.833 323.095 560.36 321.297 560.36C319.5 560.36 318.073 559.833 317.019 558.778C315.964 557.724 315.437 556.406 315.437 554.824ZM337.41 529.155H342.3C343.57 529.155 344.612 528.867 345.427 528.292C346.242 527.693 346.841 526.854 347.225 525.775C347.608 524.697 347.8 523.439 347.8 522.001C347.8 520.658 347.62 519.484 347.261 518.477C346.901 517.471 346.35 516.68 345.607 516.105C344.864 515.529 343.929 515.242 342.803 515.242C341.94 515.242 341.137 515.482 340.394 515.961C339.651 516.44 339.052 517.123 338.597 518.01C338.165 518.873 337.95 519.915 337.95 521.138H327.811C327.811 518.262 328.47 515.757 329.789 513.624C331.107 511.491 332.88 509.825 335.109 508.627C337.338 507.429 339.807 506.829 342.515 506.829C345.559 506.829 348.232 507.405 350.532 508.555C352.833 509.681 354.631 511.359 355.925 513.588C357.219 515.793 357.866 518.525 357.866 521.785C357.866 523.463 357.543 525.08 356.896 526.638C356.273 528.196 355.362 529.598 354.163 530.845C352.965 532.067 351.503 533.038 349.777 533.757C348.076 534.476 346.134 534.835 343.953 534.835H337.41V529.155ZM337.41 537.316V531.815H343.953C346.398 531.815 348.531 532.139 350.353 532.786C352.198 533.409 353.72 534.32 354.918 535.518C356.141 536.717 357.051 538.143 357.651 539.796C358.25 541.45 358.549 543.272 358.549 545.261C358.549 547.706 358.142 549.887 357.327 551.804C356.512 553.721 355.374 555.339 353.912 556.657C352.45 557.976 350.748 558.982 348.807 559.677C346.865 560.348 344.756 560.684 342.479 560.684C340.586 560.684 338.728 560.384 336.907 559.785C335.109 559.186 333.492 558.263 332.054 557.017C330.616 555.771 329.477 554.201 328.638 552.307C327.799 550.414 327.38 548.173 327.38 545.584H337.446C337.446 546.879 337.674 548.041 338.129 549.072C338.585 550.078 339.208 550.869 339.999 551.444C340.814 552.02 341.724 552.307 342.731 552.307C343.905 552.307 344.924 552.008 345.787 551.409C346.65 550.809 347.309 549.97 347.764 548.892C348.22 547.813 348.447 546.555 348.447 545.117C348.447 543.272 348.208 541.786 347.728 540.659C347.249 539.509 346.554 538.67 345.643 538.143C344.732 537.591 343.63 537.316 342.336 537.316H337.41ZM363.695 544.408V543.318C363.695 542.535 363.837 541.822 364.12 541.18C364.412 540.539 364.828 540.024 365.365 539.637C365.903 539.251 366.545 539.057 367.291 539.057C368.055 539.057 368.706 539.251 369.244 539.637C369.791 540.024 370.207 540.539 370.49 541.18C370.773 541.822 370.914 542.535 370.914 543.318V544.408C370.914 545.172 370.773 545.875 370.49 546.517C370.207 547.159 369.796 547.673 369.258 548.06C368.72 548.447 368.074 548.64 367.319 548.64C366.564 548.64 365.913 548.447 365.365 548.06C364.828 547.673 364.412 547.159 364.12 546.517C363.837 545.875 363.695 545.172 363.695 544.408ZM365.535 543.318V544.408C365.535 544.842 365.597 545.253 365.719 545.639C365.851 546.026 366.05 546.342 366.314 546.588C366.578 546.824 366.913 546.942 367.319 546.942C367.715 546.942 368.041 546.824 368.296 546.588C368.56 546.342 368.753 546.026 368.876 545.639C369.008 545.253 369.074 544.842 369.074 544.408V543.318C369.074 542.874 369.008 542.459 368.876 542.072C368.744 541.676 368.546 541.36 368.282 541.124C368.027 540.878 367.696 540.756 367.291 540.756C366.894 540.756 366.564 540.878 366.3 541.124C366.045 541.36 365.851 541.676 365.719 542.072C365.597 542.459 365.535 542.874 365.535 543.318ZM372.019 556.015V554.911C372.019 554.137 372.16 553.43 372.443 552.788C372.736 552.146 373.151 551.632 373.689 551.245C374.236 550.858 374.883 550.665 375.628 550.665C376.383 550.665 377.03 550.858 377.568 551.245C378.105 551.632 378.516 552.146 378.799 552.788C379.092 553.43 379.238 554.137 379.238 554.911V556.015C379.238 556.789 379.092 557.497 378.799 558.139C378.516 558.78 378.105 559.295 377.568 559.682C377.039 560.069 376.397 560.262 375.642 560.262C374.887 560.262 374.236 560.069 373.689 559.682C373.151 559.295 372.736 558.78 372.443 558.139C372.16 557.497 372.019 556.789 372.019 556.015ZM373.859 554.911V556.015C373.859 556.45 373.925 556.865 374.057 557.261C374.189 557.648 374.387 557.964 374.652 558.21C374.916 558.445 375.246 558.563 375.642 558.563C376.039 558.563 376.364 558.445 376.619 558.21C376.883 557.964 377.077 557.648 377.2 557.261C377.332 556.874 377.398 556.459 377.398 556.015V554.911C377.398 554.468 377.332 554.053 377.2 553.666C377.067 553.279 376.869 552.967 376.605 552.731C376.35 552.486 376.025 552.363 375.628 552.363C375.232 552.363 374.902 552.486 374.637 552.731C374.383 552.967 374.189 553.279 374.057 553.666C373.925 554.053 373.859 554.468 373.859 554.911ZM376.294 542.285L367.843 558.394L366.455 557.459L374.92 541.35L376.294 542.285Z" fill="black"/>
<path d="M706.093 256.202V314.099H694.982V269.853L683.95 274.099V264.813L704.903 256.202H706.093ZM739.078 256.202V314.099H727.966V269.853L716.935 274.099V264.813L737.887 256.202H739.078ZM745.321 296.927V295.724C745.321 294.86 745.477 294.073 745.79 293.365C746.113 292.656 746.571 292.089 747.165 291.662C747.758 291.235 748.467 291.021 749.29 291.021C750.133 291.021 750.852 291.235 751.446 291.662C752.05 292.089 752.508 292.656 752.821 293.365C753.133 294.073 753.29 294.86 753.29 295.724V296.927C753.29 297.771 753.133 298.547 752.821 299.255C752.508 299.964 752.055 300.531 751.462 300.958C750.868 301.386 750.154 301.599 749.321 301.599C748.488 301.599 747.769 301.386 747.165 300.958C746.571 300.531 746.113 299.964 745.79 299.255C745.477 298.547 745.321 297.771 745.321 296.927ZM747.352 295.724V296.927C747.352 297.406 747.42 297.86 747.555 298.287C747.701 298.714 747.92 299.063 748.212 299.333C748.503 299.594 748.873 299.724 749.321 299.724C749.758 299.724 750.118 299.594 750.399 299.333C750.691 299.063 750.904 298.714 751.04 298.287C751.186 297.86 751.258 297.406 751.258 296.927V295.724C751.258 295.235 751.186 294.776 751.04 294.349C750.894 293.912 750.675 293.563 750.383 293.302C750.102 293.031 749.738 292.896 749.29 292.896C748.852 292.896 748.488 293.031 748.196 293.302C747.915 293.563 747.701 293.912 747.555 294.349C747.42 294.776 747.352 295.235 747.352 295.724ZM754.508 309.74V308.521C754.508 307.667 754.665 306.886 754.977 306.177C755.3 305.469 755.758 304.901 756.352 304.474C756.956 304.047 757.67 303.833 758.493 303.833C759.326 303.833 760.04 304.047 760.633 304.474C761.227 304.901 761.68 305.469 761.993 306.177C762.316 306.886 762.477 307.667 762.477 308.521V309.74C762.477 310.594 762.316 311.375 761.993 312.083C761.68 312.792 761.227 313.36 760.633 313.787C760.05 314.214 759.342 314.427 758.508 314.427C757.675 314.427 756.956 314.214 756.352 313.787C755.758 313.36 755.3 312.792 754.977 312.083C754.665 311.375 754.508 310.594 754.508 309.74ZM756.54 308.521V309.74C756.54 310.219 756.613 310.677 756.758 311.115C756.904 311.542 757.123 311.891 757.415 312.162C757.706 312.422 758.071 312.552 758.508 312.552C758.946 312.552 759.305 312.422 759.587 312.162C759.878 311.891 760.092 311.542 760.227 311.115C760.373 310.688 760.446 310.229 760.446 309.74V308.521C760.446 308.031 760.373 307.573 760.227 307.146C760.081 306.719 759.863 306.375 759.571 306.115C759.29 305.844 758.93 305.708 758.493 305.708C758.055 305.708 757.691 305.844 757.399 306.115C757.118 306.375 756.904 306.719 756.758 307.146C756.613 307.573 756.54 308.031 756.54 308.521ZM759.227 294.583L749.899 312.365L748.368 311.333L757.712 293.552L759.227 294.583Z" fill="black"/>
<path d="M650.841 491.938H651.261C653.179 491.938 654.818 491.658 656.177 491.099C657.556 490.539 658.676 489.72 659.535 488.64C660.414 487.541 661.054 486.192 661.454 484.593C661.854 482.994 662.053 481.175 662.053 479.137V470.712C662.053 469.153 661.943 467.804 661.724 466.665C661.504 465.506 661.194 464.546 660.794 463.787C660.394 463.008 659.945 462.428 659.445 462.048C658.945 461.668 658.406 461.479 657.826 461.479C657.147 461.479 656.547 461.708 656.027 462.168C655.508 462.628 655.068 463.257 654.708 464.057C654.369 464.836 654.109 465.726 653.929 466.725C653.749 467.724 653.659 468.754 653.659 469.813C653.659 470.932 653.749 471.982 653.929 472.961C654.109 473.94 654.379 474.81 654.738 475.569C655.098 476.329 655.558 476.918 656.117 477.338C656.677 477.758 657.347 477.968 658.126 477.968C658.766 477.968 659.355 477.788 659.895 477.428C660.434 477.048 660.904 476.548 661.304 475.929C661.704 475.309 662.023 474.63 662.263 473.89C662.503 473.151 662.633 472.391 662.653 471.612L665.381 473.321C665.381 474.68 665.131 476.029 664.632 477.368C664.152 478.707 663.482 479.926 662.623 481.025C661.764 482.125 660.764 483.004 659.625 483.664C658.506 484.303 657.297 484.623 655.997 484.623C654.259 484.623 652.72 484.253 651.381 483.514C650.041 482.774 648.912 481.745 647.993 480.426C647.093 479.087 646.414 477.528 645.954 475.749C645.494 473.95 645.265 472.012 645.265 469.933C645.265 467.814 645.554 465.826 646.134 463.967C646.734 462.088 647.583 460.439 648.682 459.02C649.782 457.601 651.111 456.492 652.67 455.692C654.229 454.873 655.967 454.463 657.886 454.463C659.785 454.463 661.504 454.883 663.043 455.722C664.582 456.562 665.901 457.771 667 459.35C668.099 460.909 668.939 462.788 669.518 464.986C670.118 467.165 670.418 469.603 670.418 472.301V475.329C670.418 478.187 670.168 480.846 669.668 483.304C669.169 485.742 668.409 487.941 667.39 489.9C666.371 491.858 665.101 493.537 663.582 494.936C662.063 496.315 660.285 497.375 658.246 498.114C656.227 498.834 653.939 499.193 651.381 499.193H650.841V491.938ZM671.293 494.457C671.293 493.137 671.733 492.038 672.612 491.159C673.492 490.259 674.681 489.81 676.18 489.81C677.679 489.81 678.868 490.259 679.748 491.159C680.627 492.038 681.067 493.137 681.067 494.457C681.067 495.776 680.627 496.875 679.748 497.754C678.868 498.634 677.679 499.073 676.18 499.073C674.681 499.073 673.492 498.634 672.612 497.754C671.733 496.875 671.293 495.776 671.293 494.457ZM707.635 455.093V459.89L693.844 498.744H684.97L698.821 462.078H681.253V455.093H707.635ZM705.396 485.771V484.862C705.396 484.208 705.514 483.614 705.751 483.079C705.994 482.544 706.341 482.115 706.789 481.792C707.238 481.47 707.773 481.308 708.395 481.308C709.032 481.308 709.575 481.47 710.024 481.792C710.48 482.115 710.826 482.544 711.063 483.079C711.299 483.614 711.417 484.208 711.417 484.862V485.771C711.417 486.408 711.299 486.994 711.063 487.529C710.826 488.065 710.484 488.493 710.036 488.816C709.587 489.139 709.048 489.3 708.418 489.3C707.789 489.3 707.246 489.139 706.789 488.816C706.341 488.493 705.994 488.065 705.751 487.529C705.514 486.994 705.396 486.408 705.396 485.771ZM706.931 484.862V485.771C706.931 486.133 706.982 486.475 707.084 486.798C707.195 487.12 707.36 487.384 707.58 487.588C707.801 487.785 708.08 487.884 708.418 487.884C708.749 487.884 709.02 487.785 709.233 487.588C709.453 487.384 709.615 487.12 709.717 486.798C709.827 486.475 709.882 486.133 709.882 485.771V484.862C709.882 484.492 709.827 484.145 709.717 483.823C709.607 483.492 709.441 483.229 709.221 483.032C709.009 482.827 708.733 482.725 708.395 482.725C708.064 482.725 707.789 482.827 707.568 483.032C707.356 483.229 707.195 483.492 707.084 483.823C706.982 484.145 706.931 484.492 706.931 484.862ZM712.337 495.45V494.529C712.337 493.884 712.455 493.294 712.692 492.759C712.936 492.224 713.282 491.795 713.73 491.472C714.187 491.149 714.726 490.988 715.348 490.988C715.977 490.988 716.516 491.149 716.965 491.472C717.413 491.795 717.756 492.224 717.992 492.759C718.236 493.294 718.358 493.884 718.358 494.529V495.45C718.358 496.096 718.236 496.686 717.992 497.221C717.756 497.756 717.413 498.185 716.965 498.508C716.524 498.83 715.989 498.992 715.359 498.992C714.73 498.992 714.187 498.83 713.73 498.508C713.282 498.185 712.936 497.756 712.692 497.221C712.455 496.686 712.337 496.096 712.337 495.45ZM713.872 494.529V495.45C713.872 495.812 713.927 496.158 714.037 496.489C714.147 496.812 714.313 497.075 714.533 497.28C714.753 497.477 715.029 497.575 715.359 497.575C715.69 497.575 715.961 497.477 716.174 497.28C716.394 497.075 716.556 496.812 716.658 496.489C716.768 496.166 716.823 495.82 716.823 495.45V494.529C716.823 494.16 716.768 493.813 716.658 493.491C716.548 493.168 716.382 492.908 716.162 492.712C715.95 492.507 715.678 492.405 715.348 492.405C715.017 492.405 714.742 492.507 714.521 492.712C714.309 492.908 714.147 493.168 714.037 493.491C713.927 493.813 713.872 494.16 713.872 494.529ZM715.902 484L708.855 497.433L707.698 496.654L714.757 483.221L715.902 484Z" fill="black"/>
<path d="M265.021 582.722H263.612C263.528 582.316 263.383 581.96 263.174 581.653C262.97 581.347 262.72 581.089 262.424 580.881C262.133 580.669 261.809 580.51 261.453 580.403C261.097 580.297 260.725 580.244 260.339 580.244C259.634 580.244 258.996 580.422 258.424 580.778C257.856 581.135 257.403 581.659 257.066 582.352C256.733 583.046 256.566 583.896 256.566 584.903C256.566 585.911 256.733 586.761 257.066 587.455C257.403 588.148 257.856 588.672 258.424 589.028C258.996 589.385 259.634 589.563 260.339 589.563C260.725 589.563 261.097 589.51 261.453 589.403C261.809 589.297 262.133 589.14 262.424 588.932C262.72 588.72 262.97 588.46 263.174 588.153C263.383 587.843 263.528 587.487 263.612 587.085H265.021C264.915 587.68 264.722 588.212 264.441 588.682C264.161 589.152 263.812 589.551 263.396 589.881C262.979 590.207 262.511 590.455 261.992 590.625C261.477 590.796 260.926 590.881 260.339 590.881C259.347 590.881 258.464 590.638 257.691 590.153C256.919 589.669 256.311 588.979 255.867 588.085C255.424 587.191 255.203 586.131 255.203 584.903C255.203 583.676 255.424 582.616 255.867 581.722C256.311 580.828 256.919 580.138 257.691 579.653C258.464 579.169 259.347 578.926 260.339 578.926C260.926 578.926 261.477 579.011 261.992 579.182C262.511 579.352 262.979 579.602 263.396 579.932C263.812 580.258 264.161 580.655 264.441 581.125C264.722 581.591 264.915 582.123 265.021 582.722ZM270.661 590.903C269.874 590.903 269.182 590.716 268.588 590.341C267.997 589.966 267.535 589.441 267.201 588.767C266.872 588.093 266.707 587.305 266.707 586.403C266.707 585.494 266.872 584.701 267.201 584.023C267.535 583.345 267.997 582.818 268.588 582.443C269.182 582.068 269.874 581.881 270.661 581.881C271.449 581.881 272.139 582.068 272.73 582.443C273.324 582.818 273.786 583.345 274.116 584.023C274.449 584.701 274.616 585.494 274.616 586.403C274.616 587.305 274.449 588.093 274.116 588.767C273.786 589.441 273.324 589.966 272.73 590.341C272.139 590.716 271.449 590.903 270.661 590.903ZM270.661 589.699C271.26 589.699 271.752 589.546 272.139 589.239C272.525 588.932 272.811 588.528 272.997 588.028C273.182 587.528 273.275 586.987 273.275 586.403C273.275 585.82 273.182 585.277 272.997 584.773C272.811 584.269 272.525 583.862 272.139 583.551C271.752 583.241 271.26 583.085 270.661 583.085C270.063 583.085 269.57 583.241 269.184 583.551C268.798 583.862 268.512 584.269 268.326 584.773C268.141 585.277 268.048 585.82 268.048 586.403C268.048 586.987 268.141 587.528 268.326 588.028C268.512 588.528 268.798 588.932 269.184 589.239C269.57 589.546 270.063 589.699 270.661 589.699ZM276.663 590.722V581.994H277.958V583.313H278.049C278.208 582.881 278.496 582.53 278.913 582.261C279.329 581.993 279.799 581.858 280.322 581.858C280.42 581.858 280.544 581.86 280.691 581.864C280.839 581.868 280.951 581.873 281.026 581.881V583.244C280.981 583.233 280.877 583.216 280.714 583.193C280.555 583.167 280.386 583.153 280.208 583.153C279.784 583.153 279.405 583.243 279.072 583.421C278.742 583.595 278.481 583.837 278.288 584.148C278.098 584.455 278.004 584.805 278.004 585.199V590.722H276.663ZM286.958 581.994V583.131H282.436V581.994H286.958ZM283.754 579.903H285.095V588.222C285.095 588.6 285.15 588.885 285.259 589.074C285.373 589.26 285.517 589.385 285.691 589.449C285.869 589.51 286.057 589.54 286.254 589.54C286.401 589.54 286.523 589.532 286.617 589.517C286.712 589.498 286.788 589.483 286.845 589.472L287.117 590.676C287.026 590.71 286.9 590.744 286.737 590.778C286.574 590.816 286.367 590.835 286.117 590.835C285.739 590.835 285.367 590.754 285.004 590.591C284.644 590.428 284.345 590.18 284.106 589.847C283.871 589.513 283.754 589.093 283.754 588.585V579.903ZM292.541 590.903C291.7 590.903 290.974 590.718 290.365 590.347C289.758 589.972 289.291 589.449 288.961 588.778C288.635 588.104 288.472 587.32 288.472 586.426C288.472 585.532 288.635 584.744 288.961 584.063C289.291 583.377 289.749 582.843 290.336 582.46C290.927 582.074 291.616 581.881 292.404 581.881C292.859 581.881 293.308 581.957 293.751 582.108C294.194 582.26 294.597 582.506 294.961 582.847C295.325 583.184 295.615 583.631 295.83 584.188C296.046 584.744 296.154 585.43 296.154 586.244V586.813H289.427V585.653H294.791C294.791 585.161 294.692 584.722 294.495 584.335C294.302 583.949 294.026 583.644 293.666 583.421C293.31 583.197 292.889 583.085 292.404 583.085C291.87 583.085 291.408 583.218 291.018 583.483C290.632 583.744 290.334 584.085 290.126 584.506C289.918 584.926 289.813 585.377 289.813 585.858V586.631C289.813 587.29 289.927 587.849 290.154 588.307C290.385 588.761 290.705 589.108 291.115 589.347C291.524 589.582 291.999 589.699 292.541 589.699C292.893 589.699 293.211 589.65 293.495 589.551C293.783 589.449 294.031 589.297 294.24 589.097C294.448 588.892 294.609 588.638 294.722 588.335L296.018 588.699C295.882 589.138 295.652 589.525 295.33 589.858C295.008 590.188 294.611 590.445 294.137 590.631C293.664 590.813 293.132 590.903 292.541 590.903ZM304.376 583.949L303.171 584.29C303.096 584.089 302.984 583.894 302.836 583.705C302.692 583.511 302.495 583.352 302.245 583.227C301.995 583.102 301.675 583.04 301.285 583.04C300.751 583.04 300.306 583.163 299.95 583.409C299.597 583.652 299.421 583.96 299.421 584.335C299.421 584.669 299.543 584.932 299.785 585.125C300.027 585.318 300.406 585.479 300.921 585.608L302.217 585.926C302.997 586.116 303.579 586.405 303.961 586.796C304.344 587.182 304.535 587.68 304.535 588.29C304.535 588.79 304.391 589.237 304.103 589.631C303.819 590.025 303.421 590.335 302.91 590.563C302.399 590.79 301.804 590.903 301.126 590.903C300.236 590.903 299.499 590.71 298.916 590.324C298.332 589.938 297.963 589.373 297.808 588.631L299.08 588.313C299.202 588.782 299.431 589.135 299.768 589.369C300.109 589.604 300.554 589.722 301.103 589.722C301.728 589.722 302.224 589.589 302.592 589.324C302.963 589.055 303.149 588.733 303.149 588.358C303.149 588.055 303.043 587.801 302.83 587.597C302.618 587.388 302.293 587.233 301.853 587.131L300.399 586.79C299.599 586.6 299.012 586.307 298.637 585.909C298.266 585.508 298.08 585.006 298.08 584.403C298.08 583.911 298.219 583.475 298.495 583.097C298.776 582.718 299.156 582.421 299.637 582.205C300.122 581.989 300.671 581.881 301.285 581.881C302.149 581.881 302.827 582.07 303.319 582.449C303.815 582.828 304.168 583.328 304.376 583.949ZM311.713 579.085L315.167 588.881H315.303L318.758 579.085H320.235L315.963 590.722H314.508L310.235 579.085H311.713ZM321.866 590.722V581.994H323.207V590.722H321.866ZM321.934 580.813L323.32 578.176H324.889L323.116 580.813H321.934ZM328.958 590.903C328.231 590.903 327.589 590.72 327.032 590.352C326.475 589.981 326.04 589.458 325.725 588.784C325.411 588.106 325.254 587.305 325.254 586.381C325.254 585.464 325.411 584.669 325.725 583.994C326.04 583.32 326.477 582.799 327.038 582.432C327.598 582.064 328.246 581.881 328.981 581.881C329.549 581.881 329.998 581.975 330.328 582.165C330.661 582.35 330.915 582.563 331.089 582.801C331.267 583.036 331.405 583.229 331.504 583.381H331.617V579.085H332.958V590.722H331.663V589.381H331.504C331.405 589.54 331.265 589.741 331.083 589.983C330.901 590.222 330.642 590.436 330.305 590.625C329.968 590.811 329.519 590.903 328.958 590.903ZM329.14 589.699C329.678 589.699 330.133 589.559 330.504 589.278C330.875 588.994 331.157 588.602 331.35 588.102C331.544 587.599 331.64 587.017 331.64 586.358C331.64 585.707 331.545 585.136 331.356 584.648C331.167 584.155 330.886 583.773 330.515 583.5C330.144 583.224 329.686 583.085 329.14 583.085C328.572 583.085 328.098 583.231 327.72 583.523C327.345 583.811 327.062 584.203 326.873 584.699C326.687 585.191 326.595 585.744 326.595 586.358C326.595 586.979 326.689 587.544 326.879 588.051C327.072 588.555 327.356 588.957 327.731 589.256C328.11 589.551 328.579 589.699 329.14 589.699ZM339.259 590.903C338.419 590.903 337.693 590.718 337.083 590.347C336.477 589.972 336.009 589.449 335.68 588.778C335.354 588.104 335.191 587.32 335.191 586.426C335.191 585.532 335.354 584.744 335.68 584.063C336.009 583.377 336.468 582.843 337.055 582.46C337.646 582.074 338.335 581.881 339.123 581.881C339.578 581.881 340.026 581.957 340.47 582.108C340.913 582.26 341.316 582.506 341.68 582.847C342.044 583.184 342.333 583.631 342.549 584.188C342.765 584.744 342.873 585.43 342.873 586.244V586.813H336.146V585.653H341.509C341.509 585.161 341.411 584.722 341.214 584.335C341.021 583.949 340.744 583.644 340.384 583.421C340.028 583.197 339.608 583.085 339.123 583.085C338.589 583.085 338.127 583.218 337.737 583.483C337.35 583.744 337.053 584.085 336.845 584.506C336.636 584.926 336.532 585.377 336.532 585.858V586.631C336.532 587.29 336.646 587.849 336.873 588.307C337.104 588.761 337.424 589.108 337.833 589.347C338.242 589.582 338.718 589.699 339.259 589.699C339.612 589.699 339.93 589.65 340.214 589.551C340.502 589.449 340.75 589.297 340.958 589.097C341.167 588.892 341.328 588.638 341.441 588.335L342.737 588.699C342.6 589.138 342.371 589.525 342.049 589.858C341.727 590.188 341.329 590.445 340.856 590.631C340.383 590.813 339.85 590.903 339.259 590.903ZM348.458 590.903C347.67 590.903 346.979 590.716 346.384 590.341C345.794 589.966 345.331 589.441 344.998 588.767C344.669 588.093 344.504 587.305 344.504 586.403C344.504 585.494 344.669 584.701 344.998 584.023C345.331 583.345 345.794 582.818 346.384 582.443C346.979 582.068 347.67 581.881 348.458 581.881C349.246 581.881 349.936 582.068 350.526 582.443C351.121 582.818 351.583 583.345 351.913 584.023C352.246 584.701 352.413 585.494 352.413 586.403C352.413 587.305 352.246 588.093 351.913 588.767C351.583 589.441 351.121 589.966 350.526 590.341C349.936 590.716 349.246 590.903 348.458 590.903ZM348.458 589.699C349.057 589.699 349.549 589.546 349.936 589.239C350.322 588.932 350.608 588.528 350.794 588.028C350.979 587.528 351.072 586.987 351.072 586.403C351.072 585.82 350.979 585.277 350.794 584.773C350.608 584.269 350.322 583.862 349.936 583.551C349.549 583.241 349.057 583.085 348.458 583.085C347.86 583.085 347.367 583.241 346.981 583.551C346.595 583.862 346.309 584.269 346.123 584.773C345.937 585.277 345.845 585.82 345.845 586.403C345.845 586.987 345.937 587.528 346.123 588.028C346.309 588.528 346.595 588.932 346.981 589.239C347.367 589.546 347.86 589.699 348.458 589.699ZM360.642 583.949L359.437 584.29C359.361 584.089 359.249 583.894 359.102 583.705C358.958 583.511 358.761 583.352 358.511 583.227C358.261 583.102 357.941 583.04 357.551 583.04C357.017 583.04 356.571 583.163 356.215 583.409C355.863 583.652 355.687 583.96 355.687 584.335C355.687 584.669 355.808 584.932 356.051 585.125C356.293 585.318 356.672 585.479 357.187 585.608L358.482 585.926C359.263 586.116 359.844 586.405 360.227 586.796C360.609 587.182 360.801 587.68 360.801 588.29C360.801 588.79 360.657 589.237 360.369 589.631C360.085 590.025 359.687 590.335 359.176 590.563C358.664 590.79 358.07 590.903 357.392 590.903C356.501 590.903 355.765 590.71 355.181 590.324C354.598 589.938 354.229 589.373 354.073 588.631L355.346 588.313C355.467 588.782 355.696 589.135 356.034 589.369C356.374 589.604 356.82 589.722 357.369 589.722C357.994 589.722 358.49 589.589 358.857 589.324C359.229 589.055 359.414 588.733 359.414 588.358C359.414 588.055 359.308 587.801 359.096 587.597C358.884 587.388 358.558 587.233 358.119 587.131L356.664 586.79C355.865 586.6 355.278 586.307 354.903 585.909C354.532 585.508 354.346 585.006 354.346 584.403C354.346 583.911 354.484 583.475 354.761 583.097C355.041 582.718 355.422 582.421 355.903 582.205C356.388 581.989 356.937 581.881 357.551 581.881C358.414 581.881 359.092 582.07 359.585 582.449C360.081 582.828 360.433 583.328 360.642 583.949ZM256.134 597.085L259.589 606.881H259.725L263.18 597.085H264.657L260.384 608.722H258.93L254.657 597.085H256.134ZM269.134 608.903C268.294 608.903 267.568 608.718 266.958 608.347C266.352 607.972 265.884 607.449 265.555 606.778C265.229 606.104 265.066 605.32 265.066 604.426C265.066 603.532 265.229 602.744 265.555 602.063C265.884 601.377 266.343 600.843 266.93 600.46C267.521 600.074 268.21 599.881 268.998 599.881C269.453 599.881 269.901 599.957 270.345 600.108C270.788 600.26 271.191 600.506 271.555 600.847C271.919 601.184 272.208 601.631 272.424 602.188C272.64 602.744 272.748 603.43 272.748 604.244V604.813H266.021V603.653H271.384C271.384 603.161 271.286 602.722 271.089 602.335C270.896 601.949 270.619 601.644 270.259 601.421C269.903 601.197 269.483 601.085 268.998 601.085C268.464 601.085 268.002 601.218 267.612 601.483C267.225 601.744 266.928 602.085 266.72 602.506C266.511 602.926 266.407 603.377 266.407 603.858V604.631C266.407 605.29 266.521 605.849 266.748 606.307C266.979 606.761 267.299 607.108 267.708 607.347C268.117 607.582 268.593 607.699 269.134 607.699C269.487 607.699 269.805 607.65 270.089 607.551C270.377 607.449 270.625 607.297 270.833 607.097C271.042 606.892 271.203 606.638 271.316 606.335L272.612 606.699C272.475 607.138 272.246 607.525 271.924 607.858C271.602 608.188 271.204 608.445 270.731 608.631C270.258 608.813 269.725 608.903 269.134 608.903ZM274.788 608.722V599.994H276.083V601.313H276.174C276.333 600.881 276.621 600.53 277.038 600.261C277.454 599.993 277.924 599.858 278.447 599.858C278.545 599.858 278.669 599.86 278.816 599.864C278.964 599.868 279.076 599.873 279.151 599.881V601.244C279.106 601.233 279.002 601.216 278.839 601.193C278.68 601.167 278.511 601.153 278.333 601.153C277.909 601.153 277.53 601.243 277.197 601.421C276.867 601.595 276.606 601.837 276.413 602.148C276.223 602.455 276.129 602.805 276.129 603.199V608.722H274.788ZM285.083 599.994V601.131H280.561V599.994H285.083ZM281.879 597.903H283.22V606.222C283.22 606.6 283.275 606.885 283.384 607.074C283.498 607.26 283.642 607.385 283.816 607.449C283.994 607.51 284.182 607.54 284.379 607.54C284.526 607.54 284.648 607.532 284.742 607.517C284.837 607.498 284.913 607.483 284.97 607.472L285.242 608.676C285.151 608.71 285.025 608.744 284.862 608.778C284.699 608.816 284.492 608.835 284.242 608.835C283.864 608.835 283.492 608.754 283.129 608.591C282.769 608.428 282.47 608.18 282.231 607.847C281.996 607.513 281.879 607.093 281.879 606.585V597.903ZM287.1 608.722V599.994H288.441V608.722H287.1ZM287.782 598.54C287.521 598.54 287.295 598.451 287.106 598.273C286.92 598.095 286.828 597.881 286.828 597.631C286.828 597.381 286.92 597.167 287.106 596.989C287.295 596.811 287.521 596.722 287.782 596.722C288.044 596.722 288.267 596.811 288.453 596.989C288.642 597.167 288.737 597.381 288.737 597.631C288.737 597.881 288.642 598.095 288.453 598.273C288.267 598.451 288.044 598.54 287.782 598.54ZM294.443 608.903C293.624 608.903 292.92 608.71 292.329 608.324C291.738 607.938 291.284 607.405 290.965 606.727C290.647 606.049 290.488 605.275 290.488 604.403C290.488 603.517 290.651 602.735 290.977 602.057C291.306 601.375 291.765 600.843 292.352 600.46C292.943 600.074 293.632 599.881 294.42 599.881C295.034 599.881 295.587 599.994 296.079 600.222C296.571 600.449 296.975 600.767 297.289 601.176C297.604 601.585 297.799 602.063 297.874 602.608H296.534C296.431 602.21 296.204 601.858 295.852 601.551C295.503 601.241 295.034 601.085 294.443 601.085C293.92 601.085 293.462 601.222 293.068 601.494C292.677 601.763 292.373 602.144 292.153 602.636C291.937 603.125 291.829 603.699 291.829 604.358C291.829 605.032 291.935 605.619 292.147 606.119C292.363 606.619 292.666 607.008 293.056 607.284C293.45 607.561 293.912 607.699 294.443 607.699C294.791 607.699 295.107 607.638 295.392 607.517C295.676 607.396 295.916 607.222 296.113 606.994C296.31 606.767 296.45 606.494 296.534 606.176H297.874C297.799 606.691 297.611 607.155 297.312 607.568C297.017 607.977 296.624 608.303 296.136 608.546C295.651 608.784 295.087 608.903 294.443 608.903ZM302.403 608.926C301.85 608.926 301.348 608.822 300.897 608.614C300.446 608.402 300.088 608.097 299.823 607.699C299.558 607.297 299.426 606.813 299.426 606.244C299.426 605.744 299.524 605.339 299.721 605.028C299.918 604.714 300.181 604.468 300.511 604.29C300.84 604.112 301.204 603.979 301.602 603.892C302.003 603.801 302.407 603.729 302.812 603.676C303.342 603.608 303.772 603.557 304.102 603.523C304.435 603.485 304.677 603.422 304.829 603.335C304.984 603.248 305.062 603.097 305.062 602.881V602.835C305.062 602.275 304.909 601.839 304.602 601.528C304.299 601.218 303.838 601.063 303.221 601.063C302.581 601.063 302.079 601.203 301.715 601.483C301.352 601.763 301.096 602.063 300.948 602.381L299.676 601.926C299.903 601.396 300.206 600.983 300.585 600.688C300.967 600.388 301.384 600.18 301.835 600.063C302.289 599.941 302.736 599.881 303.176 599.881C303.456 599.881 303.778 599.915 304.142 599.983C304.509 600.047 304.863 600.182 305.204 600.386C305.549 600.591 305.835 600.9 306.062 601.313C306.289 601.725 306.403 602.278 306.403 602.972V608.722H305.062V607.54H304.994C304.903 607.729 304.751 607.932 304.539 608.148C304.327 608.364 304.045 608.547 303.693 608.699C303.34 608.85 302.91 608.926 302.403 608.926ZM302.607 607.722C303.138 607.722 303.585 607.618 303.948 607.409C304.316 607.201 304.592 606.932 304.778 606.602C304.967 606.273 305.062 605.926 305.062 605.563V604.335C305.005 604.403 304.88 604.466 304.687 604.523C304.498 604.576 304.278 604.623 304.028 604.665C303.782 604.703 303.541 604.737 303.306 604.767C303.075 604.794 302.888 604.816 302.744 604.835C302.395 604.881 302.07 604.955 301.767 605.057C301.467 605.155 301.225 605.305 301.039 605.506C300.857 605.703 300.767 605.972 300.767 606.313C300.767 606.778 300.939 607.131 301.284 607.369C301.632 607.604 302.073 607.722 302.607 607.722ZM308.85 608.722V599.994H310.191V608.722H308.85ZM309.532 598.54C309.271 598.54 309.045 598.451 308.856 598.273C308.67 598.095 308.578 597.881 308.578 597.631C308.578 597.381 308.67 597.167 308.856 596.989C309.045 596.811 309.271 596.722 309.532 596.722C309.794 596.722 310.017 596.811 310.203 596.989C310.392 597.167 310.487 597.381 310.487 597.631C310.487 597.881 310.392 598.095 310.203 598.273C310.017 598.451 309.794 598.54 309.532 598.54ZM318.829 601.949L317.624 602.29C317.549 602.089 317.437 601.894 317.289 601.705C317.145 601.511 316.948 601.352 316.698 601.227C316.448 601.102 316.128 601.04 315.738 601.04C315.204 601.04 314.759 601.163 314.403 601.409C314.051 601.652 313.874 601.96 313.874 602.335C313.874 602.669 313.996 602.932 314.238 603.125C314.481 603.318 314.859 603.479 315.374 603.608L316.67 603.926C317.45 604.116 318.032 604.405 318.414 604.796C318.797 605.182 318.988 605.68 318.988 606.29C318.988 606.79 318.844 607.237 318.556 607.631C318.272 608.025 317.874 608.335 317.363 608.563C316.852 608.79 316.257 608.903 315.579 608.903C314.689 608.903 313.952 608.71 313.369 608.324C312.785 607.938 312.416 607.373 312.261 606.631L313.534 606.313C313.655 606.782 313.884 607.135 314.221 607.369C314.562 607.604 315.007 607.722 315.556 607.722C316.181 607.722 316.677 607.589 317.045 607.324C317.416 607.055 317.602 606.733 317.602 606.358C317.602 606.055 317.496 605.801 317.284 605.597C317.071 605.388 316.746 605.233 316.306 605.131L314.852 604.79C314.052 604.6 313.465 604.307 313.09 603.909C312.719 603.508 312.534 603.006 312.534 602.403C312.534 601.911 312.672 601.475 312.948 601.097C313.229 600.718 313.609 600.421 314.09 600.205C314.575 599.989 315.124 599.881 315.738 599.881C316.602 599.881 317.28 600.07 317.772 600.449C318.268 600.828 318.621 601.328 318.829 601.949Z" fill="#1E1F24"/>
<path d="M775.122 285.463L778.576 295.258H778.713L782.167 285.463H783.644L779.372 297.099H777.917L773.644 285.463H775.122ZM785.275 297.099V288.372H786.616V297.099H785.275ZM785.343 287.19L786.73 284.554H788.298L786.525 287.19H785.343ZM792.367 297.281C791.64 297.281 790.998 297.097 790.441 296.73C789.884 296.359 789.449 295.836 789.134 295.162C788.82 294.484 788.663 293.682 788.663 292.758C788.663 291.842 788.82 291.046 789.134 290.372C789.449 289.698 789.886 289.177 790.447 288.809C791.008 288.442 791.655 288.258 792.39 288.258C792.958 288.258 793.407 288.353 793.737 288.542C794.07 288.728 794.324 288.94 794.498 289.179C794.676 289.414 794.814 289.607 794.913 289.758H795.027V285.463H796.367V297.099H795.072V295.758H794.913C794.814 295.917 794.674 296.118 794.492 296.36C794.311 296.599 794.051 296.813 793.714 297.003C793.377 297.188 792.928 297.281 792.367 297.281ZM792.549 296.076C793.087 296.076 793.542 295.936 793.913 295.656C794.284 295.372 794.566 294.98 794.759 294.48C794.953 293.976 795.049 293.395 795.049 292.735C795.049 292.084 794.955 291.514 794.765 291.025C794.576 290.533 794.295 290.15 793.924 289.878C793.553 289.601 793.095 289.463 792.549 289.463C791.981 289.463 791.508 289.609 791.129 289.9C790.754 290.188 790.472 290.58 790.282 291.076C790.097 291.569 790.004 292.122 790.004 292.735C790.004 293.357 790.099 293.921 790.288 294.429C790.481 294.932 790.765 295.334 791.14 295.633C791.519 295.929 791.989 296.076 792.549 296.076ZM802.669 297.281C801.828 297.281 801.102 297.095 800.492 296.724C799.886 296.349 799.419 295.826 799.089 295.156C798.763 294.482 798.6 293.698 798.6 292.804C798.6 291.91 798.763 291.122 799.089 290.44C799.419 289.754 799.877 289.22 800.464 288.838C801.055 288.451 801.744 288.258 802.532 288.258C802.987 288.258 803.436 288.334 803.879 288.485C804.322 288.637 804.725 288.883 805.089 289.224C805.453 289.561 805.742 290.008 805.958 290.565C806.174 291.122 806.282 291.807 806.282 292.622V293.19H799.555V292.031H804.919C804.919 291.539 804.82 291.099 804.623 290.713C804.43 290.326 804.153 290.021 803.794 289.798C803.438 289.574 803.017 289.463 802.532 289.463C801.998 289.463 801.536 289.595 801.146 289.86C800.759 290.122 800.462 290.463 800.254 290.883C800.045 291.304 799.941 291.754 799.941 292.235V293.008C799.941 293.667 800.055 294.226 800.282 294.684C800.513 295.139 800.833 295.485 801.242 295.724C801.652 295.959 802.127 296.076 802.669 296.076C803.021 296.076 803.339 296.027 803.623 295.929C803.911 295.826 804.159 295.675 804.367 295.474C804.576 295.27 804.737 295.016 804.85 294.713L806.146 295.076C806.009 295.516 805.78 295.902 805.458 296.235C805.136 296.565 804.739 296.823 804.265 297.008C803.792 297.19 803.259 297.281 802.669 297.281ZM811.867 297.281C811.08 297.281 810.388 297.093 809.794 296.718C809.203 296.343 808.741 295.819 808.407 295.145C808.078 294.47 807.913 293.682 807.913 292.781C807.913 291.872 808.078 291.078 808.407 290.4C808.741 289.722 809.203 289.196 809.794 288.821C810.388 288.446 811.08 288.258 811.867 288.258C812.655 288.258 813.345 288.446 813.936 288.821C814.53 289.196 814.992 289.722 815.322 290.4C815.655 291.078 815.822 291.872 815.822 292.781C815.822 293.682 815.655 294.47 815.322 295.145C814.992 295.819 814.53 296.343 813.936 296.718C813.345 297.093 812.655 297.281 811.867 297.281ZM811.867 296.076C812.466 296.076 812.958 295.923 813.345 295.616C813.731 295.309 814.017 294.906 814.203 294.406C814.388 293.906 814.481 293.364 814.481 292.781C814.481 292.198 814.388 291.654 814.203 291.15C814.017 290.646 813.731 290.239 813.345 289.929C812.958 289.618 812.466 289.463 811.867 289.463C811.269 289.463 810.777 289.618 810.39 289.929C810.004 290.239 809.718 290.646 809.532 291.15C809.347 291.654 809.254 292.198 809.254 292.781C809.254 293.364 809.347 293.906 809.532 294.406C809.718 294.906 810.004 295.309 810.39 295.616C810.777 295.923 811.269 296.076 811.867 296.076ZM824.051 290.326L822.846 290.667C822.77 290.467 822.659 290.271 822.511 290.082C822.367 289.889 822.17 289.73 821.92 289.605C821.67 289.48 821.35 289.417 820.96 289.417C820.426 289.417 819.981 289.54 819.625 289.787C819.272 290.029 819.096 290.338 819.096 290.713C819.096 291.046 819.217 291.309 819.46 291.503C819.702 291.696 820.081 291.857 820.596 291.985L821.892 292.304C822.672 292.493 823.253 292.783 823.636 293.173C824.018 293.559 824.21 294.057 824.21 294.667C824.21 295.167 824.066 295.614 823.778 296.008C823.494 296.402 823.096 296.713 822.585 296.94C822.073 297.167 821.479 297.281 820.801 297.281C819.911 297.281 819.174 297.088 818.59 296.701C818.007 296.315 817.638 295.751 817.483 295.008L818.755 294.69C818.876 295.16 819.106 295.512 819.443 295.747C819.784 295.982 820.229 296.099 820.778 296.099C821.403 296.099 821.899 295.967 822.267 295.701C822.638 295.432 822.823 295.11 822.823 294.735C822.823 294.432 822.717 294.179 822.505 293.974C822.293 293.766 821.967 293.61 821.528 293.508L820.073 293.167C819.274 292.978 818.687 292.684 818.312 292.287C817.941 291.885 817.755 291.383 817.755 290.781C817.755 290.289 817.893 289.853 818.17 289.474C818.45 289.095 818.831 288.798 819.312 288.582C819.797 288.366 820.346 288.258 820.96 288.258C821.823 288.258 822.501 288.448 822.994 288.826C823.49 289.205 823.842 289.705 824.051 290.326ZM774.644 312.099V300.463H776.054V310.849H781.463V312.099H774.644ZM787.008 312.281C786.22 312.281 785.529 312.093 784.934 311.718C784.343 311.343 783.881 310.819 783.548 310.145C783.218 309.47 783.054 308.682 783.054 307.781C783.054 306.872 783.218 306.078 783.548 305.4C783.881 304.722 784.343 304.196 784.934 303.821C785.529 303.446 786.22 303.258 787.008 303.258C787.796 303.258 788.485 303.446 789.076 303.821C789.671 304.196 790.133 304.722 790.463 305.4C790.796 306.078 790.963 306.872 790.963 307.781C790.963 308.682 790.796 309.47 790.463 310.145C790.133 310.819 789.671 311.343 789.076 311.718C788.485 312.093 787.796 312.281 787.008 312.281ZM787.008 311.076C787.607 311.076 788.099 310.923 788.485 310.616C788.872 310.309 789.158 309.906 789.343 309.406C789.529 308.906 789.622 308.364 789.622 307.781C789.622 307.198 789.529 306.654 789.343 306.15C789.158 305.646 788.872 305.239 788.485 304.929C788.099 304.618 787.607 304.463 787.008 304.463C786.41 304.463 785.917 304.618 785.531 304.929C785.144 305.239 784.858 305.646 784.673 306.15C784.487 306.654 784.394 307.198 784.394 307.781C784.394 308.364 784.487 308.906 784.673 309.406C784.858 309.906 785.144 310.309 785.531 310.616C785.917 310.923 786.41 311.076 787.008 311.076ZM794.35 306.849V312.099H793.009V303.372H794.305V304.735H794.419C794.623 304.292 794.934 303.936 795.35 303.667C795.767 303.395 796.305 303.258 796.964 303.258C797.555 303.258 798.072 303.379 798.515 303.622C798.958 303.86 799.303 304.224 799.549 304.713C799.795 305.198 799.919 305.811 799.919 306.554V312.099H798.578V306.645C798.578 305.959 798.4 305.425 798.044 305.042C797.688 304.656 797.199 304.463 796.578 304.463C796.15 304.463 795.767 304.556 795.43 304.741C795.097 304.927 794.833 305.198 794.64 305.554C794.447 305.91 794.35 306.342 794.35 306.849ZM805.892 315.554C805.244 315.554 804.687 315.47 804.221 315.304C803.755 315.141 803.367 314.925 803.056 314.656C802.75 314.391 802.505 314.107 802.323 313.804L803.392 313.054C803.513 313.213 803.666 313.395 803.852 313.599C804.037 313.807 804.291 313.987 804.613 314.139C804.939 314.294 805.365 314.372 805.892 314.372C806.596 314.372 807.178 314.201 807.636 313.86C808.094 313.52 808.323 312.985 808.323 312.258V310.485H808.21C808.111 310.645 807.971 310.842 807.789 311.076C807.611 311.307 807.354 311.514 807.017 311.696C806.683 311.874 806.233 311.963 805.664 311.963C804.96 311.963 804.327 311.796 803.767 311.463C803.21 311.129 802.768 310.645 802.443 310.008C802.121 309.372 801.96 308.599 801.96 307.69C801.96 306.796 802.117 306.018 802.431 305.355C802.746 304.688 803.183 304.173 803.744 303.809C804.304 303.442 804.952 303.258 805.687 303.258C806.255 303.258 806.706 303.353 807.039 303.542C807.376 303.728 807.634 303.94 807.812 304.179C807.994 304.414 808.134 304.607 808.233 304.758H808.369V303.372H809.664V312.349C809.664 313.099 809.494 313.709 809.153 314.179C808.816 314.652 808.361 314.999 807.789 315.218C807.221 315.442 806.589 315.554 805.892 315.554ZM805.846 310.758C806.384 310.758 806.839 310.635 807.21 310.389C807.581 310.143 807.863 309.789 808.056 309.326C808.25 308.864 808.346 308.311 808.346 307.667C808.346 307.039 808.251 306.484 808.062 306.003C807.873 305.521 807.592 305.145 807.221 304.872C806.85 304.599 806.392 304.463 805.846 304.463C805.278 304.463 804.804 304.607 804.426 304.895C804.051 305.182 803.768 305.569 803.579 306.054C803.393 306.539 803.301 307.076 803.301 307.667C803.301 308.273 803.395 308.809 803.585 309.275C803.778 309.737 804.062 310.101 804.437 310.366C804.816 310.628 805.286 310.758 805.846 310.758ZM815.664 312.281C814.876 312.281 814.185 312.093 813.59 311.718C813 311.343 812.537 310.819 812.204 310.145C811.875 309.47 811.71 308.682 811.71 307.781C811.71 306.872 811.875 306.078 812.204 305.4C812.537 304.722 813 304.196 813.59 303.821C814.185 303.446 814.876 303.258 815.664 303.258C816.452 303.258 817.142 303.446 817.733 303.821C818.327 304.196 818.789 304.722 819.119 305.4C819.452 306.078 819.619 306.872 819.619 307.781C819.619 308.682 819.452 309.47 819.119 310.145C818.789 310.819 818.327 311.343 817.733 311.718C817.142 312.093 816.452 312.281 815.664 312.281ZM815.664 311.076C816.263 311.076 816.755 310.923 817.142 310.616C817.528 310.309 817.814 309.906 818 309.406C818.185 308.906 818.278 308.364 818.278 307.781C818.278 307.198 818.185 306.654 818 306.15C817.814 305.646 817.528 305.239 817.142 304.929C816.755 304.618 816.263 304.463 815.664 304.463C815.066 304.463 814.573 304.618 814.187 304.929C813.801 305.239 813.515 305.646 813.329 306.15C813.143 306.654 813.051 307.198 813.051 307.781C813.051 308.364 813.143 308.906 813.329 309.406C813.515 309.906 813.801 310.309 814.187 310.616C814.573 310.923 815.066 311.076 815.664 311.076ZM827.848 305.326L826.643 305.667C826.567 305.467 826.456 305.271 826.308 305.082C826.164 304.889 825.967 304.73 825.717 304.605C825.467 304.48 825.147 304.417 824.757 304.417C824.223 304.417 823.777 304.54 823.421 304.787C823.069 305.029 822.893 305.338 822.893 305.713C822.893 306.046 823.014 306.309 823.257 306.503C823.499 306.696 823.878 306.857 824.393 306.985L825.688 307.304C826.469 307.493 827.05 307.783 827.433 308.173C827.815 308.559 828.007 309.057 828.007 309.667C828.007 310.167 827.863 310.614 827.575 311.008C827.291 311.402 826.893 311.713 826.382 311.94C825.87 312.167 825.276 312.281 824.598 312.281C823.707 312.281 822.971 312.088 822.387 311.701C821.804 311.315 821.435 310.751 821.279 310.008L822.552 309.69C822.673 310.16 822.902 310.512 823.24 310.747C823.581 310.982 824.026 311.099 824.575 311.099C825.2 311.099 825.696 310.967 826.063 310.701C826.435 310.432 826.62 310.11 826.62 309.735C826.62 309.432 826.514 309.179 826.302 308.974C826.09 308.766 825.764 308.61 825.325 308.508L823.87 308.167C823.071 307.978 822.484 307.684 822.109 307.287C821.738 306.885 821.552 306.383 821.552 305.781C821.552 305.289 821.69 304.853 821.967 304.474C822.247 304.095 822.628 303.798 823.109 303.582C823.594 303.366 824.143 303.258 824.757 303.258C825.62 303.258 826.298 303.448 826.791 303.826C827.287 304.205 827.639 304.705 827.848 305.326Z" fill="#1E1F24"/>
<path d="M738.669 458.244H737.26C737.177 457.838 737.031 457.482 736.823 457.175C736.618 456.869 736.368 456.611 736.073 456.403C735.781 456.191 735.457 456.032 735.101 455.925C734.745 455.819 734.374 455.766 733.987 455.766C733.283 455.766 732.645 455.944 732.073 456.3C731.504 456.657 731.052 457.181 730.715 457.874C730.381 458.568 730.215 459.418 730.215 460.425C730.215 461.433 730.381 462.283 730.715 462.977C731.052 463.67 731.504 464.194 732.073 464.55C732.645 464.907 733.283 465.085 733.987 465.085C734.374 465.085 734.745 465.032 735.101 464.925C735.457 464.819 735.781 464.662 736.073 464.454C736.368 464.242 736.618 463.982 736.823 463.675C737.031 463.365 737.177 463.009 737.26 462.607H738.669C738.563 463.202 738.37 463.734 738.09 464.204C737.809 464.674 737.461 465.073 737.044 465.403C736.628 465.729 736.16 465.977 735.641 466.147C735.126 466.318 734.575 466.403 733.987 466.403C732.995 466.403 732.112 466.16 731.34 465.675C730.567 465.191 729.959 464.501 729.516 463.607C729.073 462.713 728.851 461.653 728.851 460.425C728.851 459.198 729.073 458.138 729.516 457.244C729.959 456.35 730.567 455.66 731.34 455.175C732.112 454.691 732.995 454.448 733.987 454.448C734.575 454.448 735.126 454.533 735.641 454.704C736.16 454.874 736.628 455.124 737.044 455.454C737.461 455.78 737.809 456.177 738.09 456.647C738.37 457.113 738.563 457.645 738.669 458.244ZM744.31 466.425C743.522 466.425 742.831 466.238 742.236 465.863C741.645 465.488 741.183 464.963 740.85 464.289C740.52 463.615 740.355 462.827 740.355 461.925C740.355 461.016 740.52 460.223 740.85 459.545C741.183 458.867 741.645 458.34 742.236 457.965C742.831 457.59 743.522 457.403 744.31 457.403C745.098 457.403 745.787 457.59 746.378 457.965C746.973 458.34 747.435 458.867 747.764 459.545C748.098 460.223 748.264 461.016 748.264 461.925C748.264 462.827 748.098 463.615 747.764 464.289C747.435 464.963 746.973 465.488 746.378 465.863C745.787 466.238 745.098 466.425 744.31 466.425ZM744.31 465.221C744.908 465.221 745.401 465.068 745.787 464.761C746.173 464.454 746.459 464.05 746.645 463.55C746.831 463.05 746.923 462.509 746.923 461.925C746.923 461.342 746.831 460.799 746.645 460.295C746.459 459.791 746.173 459.384 745.787 459.073C745.401 458.763 744.908 458.607 744.31 458.607C743.711 458.607 743.219 458.763 742.833 459.073C742.446 459.384 742.16 459.791 741.975 460.295C741.789 460.799 741.696 461.342 741.696 461.925C741.696 462.509 741.789 463.05 741.975 463.55C742.16 464.05 742.446 464.454 742.833 464.761C743.219 465.068 743.711 465.221 744.31 465.221ZM750.311 466.244V457.516H751.607V458.835H751.698C751.857 458.403 752.145 458.052 752.561 457.783C752.978 457.514 753.448 457.38 753.97 457.38C754.069 457.38 754.192 457.382 754.34 457.386C754.487 457.389 754.599 457.395 754.675 457.403V458.766C754.629 458.755 754.525 458.738 754.362 458.715C754.203 458.689 754.035 458.675 753.857 458.675C753.432 458.675 753.054 458.764 752.72 458.943C752.391 459.117 752.129 459.359 751.936 459.67C751.747 459.977 751.652 460.327 751.652 460.721V466.244H750.311ZM760.607 457.516V458.653H756.084V457.516H760.607ZM757.402 455.425H758.743V463.744C758.743 464.122 758.798 464.407 758.908 464.596C759.021 464.782 759.165 464.907 759.34 464.971C759.518 465.032 759.705 465.062 759.902 465.062C760.05 465.062 760.171 465.054 760.266 465.039C760.36 465.02 760.436 465.005 760.493 464.994L760.766 466.198C760.675 466.232 760.548 466.266 760.385 466.3C760.222 466.338 760.016 466.357 759.766 466.357C759.387 466.357 759.016 466.276 758.652 466.113C758.292 465.95 757.993 465.702 757.754 465.369C757.52 465.035 757.402 464.615 757.402 464.107V455.425ZM766.189 466.425C765.348 466.425 764.623 466.24 764.013 465.869C763.407 465.494 762.939 464.971 762.61 464.3C762.284 463.626 762.121 462.842 762.121 461.948C762.121 461.054 762.284 460.266 762.61 459.585C762.939 458.899 763.397 458.365 763.985 457.982C764.575 457.596 765.265 457.403 766.053 457.403C766.507 457.403 766.956 457.479 767.399 457.63C767.843 457.782 768.246 458.028 768.61 458.369C768.973 458.706 769.263 459.153 769.479 459.71C769.695 460.266 769.803 460.952 769.803 461.766V462.335H763.075V461.175H768.439C768.439 460.683 768.341 460.244 768.144 459.857C767.95 459.471 767.674 459.166 767.314 458.943C766.958 458.719 766.538 458.607 766.053 458.607C765.519 458.607 765.057 458.74 764.666 459.005C764.28 459.266 763.983 459.607 763.774 460.028C763.566 460.448 763.462 460.899 763.462 461.38V462.153C763.462 462.812 763.575 463.371 763.803 463.829C764.034 464.283 764.354 464.63 764.763 464.869C765.172 465.104 765.647 465.221 766.189 465.221C766.541 465.221 766.86 465.172 767.144 465.073C767.432 464.971 767.68 464.819 767.888 464.619C768.096 464.414 768.257 464.16 768.371 463.857L769.666 464.221C769.53 464.66 769.301 465.047 768.979 465.38C768.657 465.71 768.259 465.967 767.786 466.153C767.312 466.335 766.78 466.425 766.189 466.425ZM778.024 459.471L776.82 459.812C776.744 459.611 776.632 459.416 776.485 459.227C776.341 459.033 776.144 458.874 775.894 458.749C775.644 458.624 775.324 458.562 774.933 458.562C774.399 458.562 773.954 458.685 773.598 458.931C773.246 459.174 773.07 459.482 773.07 459.857C773.07 460.191 773.191 460.454 773.433 460.647C773.676 460.84 774.055 461.001 774.57 461.13L775.865 461.448C776.646 461.638 777.227 461.927 777.61 462.318C777.992 462.704 778.183 463.202 778.183 463.812C778.183 464.312 778.039 464.759 777.752 465.153C777.468 465.547 777.07 465.857 776.558 466.085C776.047 466.312 775.452 466.425 774.774 466.425C773.884 466.425 773.147 466.232 772.564 465.846C771.981 465.46 771.611 464.895 771.456 464.153L772.729 463.835C772.85 464.304 773.079 464.657 773.416 464.891C773.757 465.126 774.202 465.244 774.752 465.244C775.377 465.244 775.873 465.111 776.24 464.846C776.611 464.577 776.797 464.255 776.797 463.88C776.797 463.577 776.691 463.323 776.479 463.119C776.267 462.91 775.941 462.755 775.502 462.653L774.047 462.312C773.248 462.122 772.661 461.829 772.286 461.431C771.914 461.03 771.729 460.528 771.729 459.925C771.729 459.433 771.867 458.997 772.144 458.619C772.424 458.24 772.805 457.943 773.286 457.727C773.771 457.511 774.32 457.403 774.933 457.403C775.797 457.403 776.475 457.592 776.968 457.971C777.464 458.35 777.816 458.85 778.024 459.471ZM729.783 472.607L733.237 482.403H733.374L736.828 472.607H738.306L734.033 484.244H732.578L728.306 472.607H729.783ZM739.936 484.244V475.516H741.277V484.244H739.936ZM740.004 474.335L741.391 471.698H742.959L741.186 474.335H740.004ZM747.029 484.425C746.301 484.425 745.659 484.242 745.102 483.874C744.546 483.503 744.11 482.98 743.796 482.306C743.481 481.628 743.324 480.827 743.324 479.903C743.324 478.986 743.481 478.191 743.796 477.516C744.11 476.842 744.548 476.321 745.108 475.954C745.669 475.586 746.316 475.403 747.051 475.403C747.619 475.403 748.068 475.497 748.398 475.687C748.731 475.872 748.985 476.085 749.159 476.323C749.337 476.558 749.476 476.751 749.574 476.903H749.688V472.607H751.029V484.244H749.733V482.903H749.574C749.476 483.062 749.335 483.263 749.154 483.505C748.972 483.744 748.712 483.958 748.375 484.147C748.038 484.333 747.589 484.425 747.029 484.425ZM747.21 483.221C747.748 483.221 748.203 483.081 748.574 482.8C748.945 482.516 749.227 482.124 749.421 481.624C749.614 481.121 749.71 480.539 749.71 479.88C749.71 479.229 749.616 478.658 749.426 478.17C749.237 477.677 748.957 477.295 748.585 477.022C748.214 476.746 747.756 476.607 747.21 476.607C746.642 476.607 746.169 476.753 745.79 477.045C745.415 477.333 745.133 477.725 744.943 478.221C744.758 478.713 744.665 479.266 744.665 479.88C744.665 480.501 744.76 481.066 744.949 481.573C745.142 482.077 745.426 482.479 745.801 482.778C746.18 483.073 746.65 483.221 747.21 483.221ZM757.33 484.425C756.489 484.425 755.763 484.24 755.154 483.869C754.548 483.494 754.08 482.971 753.75 482.3C753.424 481.626 753.262 480.842 753.262 479.948C753.262 479.054 753.424 478.266 753.75 477.585C754.08 476.899 754.538 476.365 755.125 475.982C755.716 475.596 756.405 475.403 757.193 475.403C757.648 475.403 758.097 475.479 758.54 475.63C758.983 475.782 759.387 476.028 759.75 476.369C760.114 476.706 760.404 477.153 760.619 477.71C760.835 478.266 760.943 478.952 760.943 479.766V480.335H754.216V479.175H759.58C759.58 478.683 759.481 478.244 759.284 477.857C759.091 477.471 758.815 477.166 758.455 476.943C758.099 476.719 757.678 476.607 757.193 476.607C756.659 476.607 756.197 476.74 755.807 477.005C755.421 477.266 755.123 477.607 754.915 478.028C754.707 478.448 754.602 478.899 754.602 479.38V480.153C754.602 480.812 754.716 481.371 754.943 481.829C755.174 482.283 755.494 482.63 755.904 482.869C756.313 483.104 756.788 483.221 757.33 483.221C757.682 483.221 758 483.172 758.284 483.073C758.572 482.971 758.82 482.819 759.029 482.619C759.237 482.414 759.398 482.16 759.512 481.857L760.807 482.221C760.671 482.66 760.441 483.047 760.119 483.38C759.798 483.71 759.4 483.967 758.926 484.153C758.453 484.335 757.921 484.425 757.33 484.425ZM766.529 484.425C765.741 484.425 765.049 484.238 764.455 483.863C763.864 483.488 763.402 482.963 763.068 482.289C762.739 481.615 762.574 480.827 762.574 479.925C762.574 479.016 762.739 478.223 763.068 477.545C763.402 476.867 763.864 476.34 764.455 475.965C765.049 475.59 765.741 475.403 766.529 475.403C767.316 475.403 768.006 475.59 768.597 475.965C769.191 476.34 769.654 476.867 769.983 477.545C770.316 478.223 770.483 479.016 770.483 479.925C770.483 480.827 770.316 481.615 769.983 482.289C769.654 482.963 769.191 483.488 768.597 483.863C768.006 484.238 767.316 484.425 766.529 484.425ZM766.529 483.221C767.127 483.221 767.619 483.068 768.006 482.761C768.392 482.454 768.678 482.05 768.864 481.55C769.049 481.05 769.142 480.509 769.142 479.925C769.142 479.342 769.049 478.799 768.864 478.295C768.678 477.791 768.392 477.384 768.006 477.073C767.619 476.763 767.127 476.607 766.529 476.607C765.93 476.607 765.438 476.763 765.051 477.073C764.665 477.384 764.379 477.791 764.193 478.295C764.008 478.799 763.915 479.342 763.915 479.925C763.915 480.509 764.008 481.05 764.193 481.55C764.379 482.05 764.665 482.454 765.051 482.761C765.438 483.068 765.93 483.221 766.529 483.221ZM778.712 477.471L777.507 477.812C777.432 477.611 777.32 477.416 777.172 477.227C777.028 477.033 776.831 476.874 776.581 476.749C776.331 476.624 776.011 476.562 775.621 476.562C775.087 476.562 774.642 476.685 774.286 476.931C773.933 477.174 773.757 477.482 773.757 477.857C773.757 478.191 773.878 478.454 774.121 478.647C774.363 478.84 774.742 479.001 775.257 479.13L776.553 479.448C777.333 479.638 777.914 479.927 778.297 480.318C778.68 480.704 778.871 481.202 778.871 481.812C778.871 482.312 778.727 482.759 778.439 483.153C778.155 483.547 777.757 483.857 777.246 484.085C776.735 484.312 776.14 484.425 775.462 484.425C774.572 484.425 773.835 484.232 773.252 483.846C772.668 483.46 772.299 482.895 772.144 482.153L773.416 481.835C773.538 482.304 773.767 482.657 774.104 482.891C774.445 483.126 774.89 483.244 775.439 483.244C776.064 483.244 776.56 483.111 776.928 482.846C777.299 482.577 777.485 482.255 777.485 481.88C777.485 481.577 777.378 481.323 777.166 481.119C776.954 480.91 776.628 480.755 776.189 480.653L774.735 480.312C773.935 480.122 773.348 479.829 772.973 479.431C772.602 479.03 772.416 478.528 772.416 477.925C772.416 477.433 772.555 476.997 772.831 476.619C773.111 476.24 773.492 475.943 773.973 475.727C774.458 475.511 775.007 475.403 775.621 475.403C776.485 475.403 777.163 475.592 777.655 475.971C778.151 476.35 778.503 476.85 778.712 477.471ZM729.306 502.244V490.607H730.715V495.789H736.919V490.607H738.328V502.244H736.919V497.039H730.715V502.244H729.306ZM744.513 502.425C743.725 502.425 743.034 502.238 742.439 501.863C741.848 501.488 741.386 500.963 741.053 500.289C740.723 499.615 740.558 498.827 740.558 497.925C740.558 497.016 740.723 496.223 741.053 495.545C741.386 494.867 741.848 494.34 742.439 493.965C743.034 493.59 743.725 493.403 744.513 493.403C745.301 493.403 745.99 493.59 746.581 493.965C747.176 494.34 747.638 494.867 747.968 495.545C748.301 496.223 748.468 497.016 748.468 497.925C748.468 498.827 748.301 499.615 747.968 500.289C747.638 500.963 747.176 501.488 746.581 501.863C745.99 502.238 745.301 502.425 744.513 502.425ZM744.513 501.221C745.111 501.221 745.604 501.068 745.99 500.761C746.377 500.454 746.663 500.05 746.848 499.55C747.034 499.05 747.127 498.509 747.127 497.925C747.127 497.342 747.034 496.799 746.848 496.295C746.663 495.791 746.377 495.384 745.99 495.073C745.604 494.763 745.111 494.607 744.513 494.607C743.914 494.607 743.422 494.763 743.036 495.073C742.649 495.384 742.363 495.791 742.178 496.295C741.992 496.799 741.899 497.342 741.899 497.925C741.899 498.509 741.992 499.05 742.178 499.55C742.363 500.05 742.649 500.454 743.036 500.761C743.422 501.068 743.914 501.221 744.513 501.221ZM750.514 502.244V493.516H751.81V494.835H751.901C752.06 494.403 752.348 494.052 752.764 493.783C753.181 493.514 753.651 493.38 754.173 493.38C754.272 493.38 754.395 493.382 754.543 493.386C754.691 493.389 754.802 493.395 754.878 493.403V494.766C754.833 494.755 754.728 494.738 754.566 494.715C754.406 494.689 754.238 494.675 754.06 494.675C753.636 494.675 753.257 494.764 752.923 494.943C752.594 495.117 752.333 495.359 752.139 495.67C751.95 495.977 751.855 496.327 751.855 496.721V502.244H750.514ZM756.468 502.244V493.516H757.808V502.244H756.468ZM757.149 492.062C756.888 492.062 756.663 491.973 756.473 491.795C756.288 491.617 756.195 491.403 756.195 491.153C756.195 490.903 756.288 490.689 756.473 490.511C756.663 490.333 756.888 490.244 757.149 490.244C757.411 490.244 757.634 490.333 757.82 490.511C758.009 490.689 758.104 490.903 758.104 491.153C758.104 491.403 758.009 491.617 757.82 491.795C757.634 491.973 757.411 492.062 757.149 492.062ZM760.014 502.244V501.221L764.969 494.857V494.766H760.173V493.516H766.696V494.585L761.878 500.903V500.994H766.855V502.244H760.014ZM772.216 502.425C771.428 502.425 770.737 502.238 770.142 501.863C769.551 501.488 769.089 500.963 768.756 500.289C768.426 499.615 768.262 498.827 768.262 497.925C768.262 497.016 768.426 496.223 768.756 495.545C769.089 494.867 769.551 494.34 770.142 493.965C770.737 493.59 771.428 493.403 772.216 493.403C773.004 493.403 773.693 493.59 774.284 493.965C774.879 494.34 775.341 494.867 775.671 495.545C776.004 496.223 776.171 497.016 776.171 497.925C776.171 498.827 776.004 499.615 775.671 500.289C775.341 500.963 774.879 501.488 774.284 501.863C773.693 502.238 773.004 502.425 772.216 502.425ZM772.216 501.221C772.815 501.221 773.307 501.068 773.693 500.761C774.08 500.454 774.366 500.05 774.551 499.55C774.737 499.05 774.83 498.509 774.83 497.925C774.83 497.342 774.737 496.799 774.551 496.295C774.366 495.791 774.08 495.384 773.693 495.073C773.307 494.763 772.815 494.607 772.216 494.607C771.618 494.607 771.125 494.763 770.739 495.073C770.352 495.384 770.066 495.791 769.881 496.295C769.695 496.799 769.602 497.342 769.602 497.925C769.602 498.509 769.695 499.05 769.881 499.55C770.066 500.05 770.352 500.454 770.739 500.761C771.125 501.068 771.618 501.221 772.216 501.221ZM779.558 496.994V502.244H778.218V493.516H779.513V494.88H779.627C779.831 494.437 780.142 494.081 780.558 493.812C780.975 493.539 781.513 493.403 782.172 493.403C782.763 493.403 783.28 493.524 783.723 493.766C784.166 494.005 784.511 494.369 784.757 494.857C785.003 495.342 785.127 495.956 785.127 496.698V502.244H783.786V496.789C783.786 496.104 783.608 495.569 783.252 495.187C782.896 494.8 782.407 494.607 781.786 494.607C781.358 494.607 780.975 494.7 780.638 494.886C780.305 495.071 780.041 495.342 779.848 495.698C779.655 496.054 779.558 496.486 779.558 496.994ZM791.372 493.516V494.653H786.85V493.516H791.372ZM788.168 491.425H789.509V499.744C789.509 500.122 789.564 500.407 789.673 500.596C789.787 500.782 789.931 500.907 790.105 500.971C790.283 501.032 790.471 501.062 790.668 501.062C790.816 501.062 790.937 501.054 791.031 501.039C791.126 501.02 791.202 501.005 791.259 500.994L791.531 502.198C791.441 502.232 791.314 502.266 791.151 502.3C790.988 502.338 790.781 502.357 790.531 502.357C790.153 502.357 789.781 502.276 789.418 502.113C789.058 501.95 788.759 501.702 788.52 501.369C788.285 501.035 788.168 500.615 788.168 500.107V491.425ZM795.958 502.448C795.405 502.448 794.903 502.344 794.452 502.136C794.001 501.924 793.643 501.619 793.378 501.221C793.113 500.819 792.98 500.335 792.98 499.766C792.98 499.266 793.079 498.861 793.276 498.55C793.473 498.236 793.736 497.99 794.066 497.812C794.395 497.634 794.759 497.501 795.156 497.414C795.558 497.323 795.961 497.251 796.367 497.198C796.897 497.13 797.327 497.079 797.656 497.045C797.99 497.007 798.232 496.944 798.384 496.857C798.539 496.77 798.617 496.619 798.617 496.403V496.357C798.617 495.797 798.463 495.361 798.156 495.05C797.853 494.74 797.393 494.585 796.776 494.585C796.136 494.585 795.634 494.725 795.27 495.005C794.906 495.285 794.651 495.585 794.503 495.903L793.23 495.448C793.458 494.918 793.761 494.505 794.139 494.21C794.522 493.91 794.939 493.702 795.389 493.585C795.844 493.463 796.291 493.403 796.73 493.403C797.011 493.403 797.333 493.437 797.696 493.505C798.064 493.569 798.418 493.704 798.759 493.908C799.103 494.113 799.389 494.422 799.617 494.835C799.844 495.247 799.958 495.8 799.958 496.494V502.244H798.617V501.062H798.548C798.458 501.251 798.306 501.454 798.094 501.67C797.882 501.886 797.6 502.069 797.247 502.221C796.895 502.372 796.465 502.448 795.958 502.448ZM796.162 501.244C796.692 501.244 797.139 501.139 797.503 500.931C797.87 500.723 798.147 500.454 798.333 500.124C798.522 499.795 798.617 499.448 798.617 499.085V497.857C798.56 497.925 798.435 497.988 798.242 498.045C798.052 498.098 797.833 498.145 797.583 498.187C797.336 498.225 797.096 498.259 796.861 498.289C796.63 498.316 796.442 498.338 796.298 498.357C795.95 498.403 795.624 498.477 795.321 498.579C795.022 498.677 794.78 498.827 794.594 499.028C794.412 499.225 794.321 499.494 794.321 499.835C794.321 500.3 794.494 500.653 794.838 500.891C795.187 501.126 795.628 501.244 796.162 501.244ZM802.405 502.244V493.516H803.746V502.244H802.405ZM803.087 492.062C802.825 492.062 802.6 491.973 802.411 491.795C802.225 491.617 802.132 491.403 802.132 491.153C802.132 490.903 802.225 490.689 802.411 490.511C802.6 490.333 802.825 490.244 803.087 490.244C803.348 490.244 803.572 490.333 803.757 490.511C803.947 490.689 804.041 490.903 804.041 491.153C804.041 491.403 803.947 491.617 803.757 491.795C803.572 491.973 803.348 492.062 803.087 492.062ZM812.384 495.471L811.179 495.812C811.103 495.611 810.992 495.416 810.844 495.227C810.7 495.033 810.503 494.874 810.253 494.749C810.003 494.624 809.683 494.562 809.293 494.562C808.759 494.562 808.314 494.685 807.958 494.931C807.605 495.174 807.429 495.482 807.429 495.857C807.429 496.191 807.55 496.454 807.793 496.647C808.035 496.84 808.414 497.001 808.929 497.13L810.225 497.448C811.005 497.638 811.586 497.927 811.969 498.318C812.352 498.704 812.543 499.202 812.543 499.812C812.543 500.312 812.399 500.759 812.111 501.153C811.827 501.547 811.429 501.857 810.918 502.085C810.406 502.312 809.812 502.425 809.134 502.425C808.244 502.425 807.507 502.232 806.923 501.846C806.34 501.46 805.971 500.895 805.816 500.153L807.088 499.835C807.209 500.304 807.439 500.657 807.776 500.891C808.117 501.126 808.562 501.244 809.111 501.244C809.736 501.244 810.232 501.111 810.6 500.846C810.971 500.577 811.156 500.255 811.156 499.88C811.156 499.577 811.05 499.323 810.838 499.119C810.626 498.91 810.3 498.755 809.861 498.653L808.406 498.312C807.607 498.122 807.02 497.829 806.645 497.431C806.274 497.03 806.088 496.528 806.088 495.925C806.088 495.433 806.227 494.997 806.503 494.619C806.783 494.24 807.164 493.943 807.645 493.727C808.13 493.511 808.679 493.403 809.293 493.403C810.156 493.403 810.834 493.592 811.327 493.971C811.823 494.35 812.175 494.85 812.384 495.471Z" fill="#1E1F24"/>
<defs>
<filter id="filter0_f_1230_3147" x="0.261719" y="0.595215" width="844.52" height="829.574" filterUnits="userSpaceOnUse" color-interpolation-filters="sRGB">
<feFlood flood-opacity="0" result="BackgroundImageFix"/>
<feBlend mode="normal" in="SourceGraphic" in2="BackgroundImageFix" result="shape"/>
<feGaussianBlur stdDeviation="75" result="effect1_foregroundBlur_1230_3147"/>
</filter>
<filter id="filter1_d_1230_3147" x="363.882" y="227.881" width="377.815" height="211.235" filterUnits="userSpaceOnUse" color-interpolation-filters="sRGB">
<feFlood flood-opacity="0" result="BackgroundImageFix"/>
<feColorMatrix in="SourceAlpha" type="matrix" values="0 0 0 0 0 0 0 0 0 0 0 0 0 0 0 0 0 0 127 0" result="hardAlpha"/>
<feMorphology radius="24" operator="erode" in="SourceAlpha" result="effect1_dropShadow_1230_3147"/>
<feOffset dx="6" dy="31"/>
<feGaussianBlur stdDeviation="15.9"/>
<feComposite in2="hardAlpha" operator="out"/>
<feColorMatrix type="matrix" values="0 0 0 0 0 0 0 0 0 0 0 0 0 0 0 0 0 0 0.16 0"/>
<feBlend mode="normal" in2="BackgroundImageFix" result="effect1_dropShadow_1230_3147"/>
<feBlend mode="normal" in="SourceGraphic" in2="effect1_dropShadow_1230_3147" result="shape"/>
</filter>
<filter id="filter2_d_1230_3147" x="400.122" y="438.614" width="288.104" height="161.078" filterUnits="userSpaceOnUse" color-interpolation-filters="sRGB">
<feFlood flood-opacity="0" result="BackgroundImageFix"/>
<feColorMatrix in="SourceAlpha" type="matrix" values="0 0 0 0 0 0 0 0 0 0 0 0 0 0 0 0 0 0 127 0" result="hardAlpha"/>
<feMorphology radius="18.3013" operator="erode" in="SourceAlpha" result="effect1_dropShadow_1230_3147"/>
<feOffset dx="4.57533" dy="23.6392"/>
<feGaussianBlur stdDeviation="12.1246"/>
<feComposite in2="hardAlpha" operator="out"/>
<feColorMatrix type="matrix" values="0 0 0 0 0 0 0 0 0 0 0 0 0 0 0 0 0 0 0.16 0"/>
<feBlend mode="normal" in2="BackgroundImageFix" result="effect1_dropShadow_1230_3147"/>
<feBlend mode="normal" in="SourceGraphic" in2="effect1_dropShadow_1230_3147" result="shape"/>
</filter>
<filter id="filter3_d_1230_3147" x="146.624" y="227.881" width="201.611" height="383.936" filterUnits="userSpaceOnUse" color-interpolation-filters="sRGB">
<feFlood flood-opacity="0" result="BackgroundImageFix"/>
<feColorMatrix in="SourceAlpha" type="matrix" values="0 0 0 0 0 0 0 0 0 0 0 0 0 0 0 0 0 0 127 0" result="hardAlpha"/>
<feMorphology radius="25.8018" operator="erode" in="SourceAlpha" result="effect1_dropShadow_1230_3147"/>
<feOffset dx="6.45045" dy="33.3273"/>
<feGaussianBlur stdDeviation="17.0937"/>
<feComposite in2="hardAlpha" operator="out"/>
<feColorMatrix type="matrix" values="0 0 0 0 0 0 0 0 0 0 0 0 0 0 0 0 0 0 0.16 0"/>
<feBlend mode="normal" in2="BackgroundImageFix" result="effect1_dropShadow_1230_3147"/>
<feBlend mode="normal" in="SourceGraphic" in2="effect1_dropShadow_1230_3147" result="shape"/>
</filter>
<linearGradient id="paint0_linear_1230_3147" x1="643.016" y1="641.899" x2="376.612" y2="395.797" gradientUnits="userSpaceOnUse">
<stop stop-color="#CAFF1F"/>
<stop offset="0.676598" stop-color="#32FECA"/>
</linearGradient>
</defs>
</svg>
