<svg width="828" height="731" viewBox="0 0 828 731" fill="none" xmlns="http://www.w3.org/2000/svg">
<g filter="url(#filter0_f_1736_3161)">
<path d="M641.913 484.077C616.851 416.007 532.461 332.754 565.034 268.25C588.433 221.911 550.951 185.084 522.8 168.31L416.33 150.618C303.676 256.574 134.408 292.206 152.838 310.664C175.874 333.737 244.361 514.54 274.732 498.908C305.102 483.277 338.794 485.595 464.187 552.293C589.58 618.99 666.975 552.147 641.913 484.077Z" fill="url(#paint0_linear_1736_3161)"/>
<path d="M513.668 163.385C516.523 164.757 519.601 166.404 522.8 168.31M522.8 168.31C550.951 185.084 588.433 221.911 565.034 268.25C532.461 332.754 616.851 416.007 641.913 484.077C666.975 552.147 589.58 618.99 464.187 552.293C338.794 485.595 305.102 483.277 274.732 498.908C244.361 514.54 175.874 333.737 152.838 310.664C134.408 292.206 303.676 256.574 416.33 150.618L522.8 168.31Z" stroke="black"/>
</g>
<g filter="url(#filter1_d_1736_3161)">
<rect x="722.093" y="171.879" width="172.435" height="375.748" rx="11" transform="rotate(90 722.093 171.879)" fill="#D9D9D9" fill-opacity="0.34" shape-rendering="crispEdges"/>
<rect x="721.593" y="172.379" width="171.435" height="374.748" rx="10.5" transform="rotate(90 721.593 172.379)" stroke="white" shape-rendering="crispEdges"/>
</g>
<g filter="url(#filter2_d_1736_3161)">
<rect x="670.023" y="382.612" width="131.491" height="286.529" rx="8.38811" transform="rotate(90 670.023 382.612)" fill="#D9D9D9" fill-opacity="0.34" shape-rendering="crispEdges"/>
<rect x="669.642" y="382.993" width="130.729" height="285.766" rx="8.00683" transform="rotate(90 669.642 382.993)" stroke="white" stroke-width="0.762555" shape-rendering="crispEdges"/>
</g>
<g filter="url(#filter3_d_1736_3161)">
<rect x="121.107" y="171.879" width="191.746" height="342.223" rx="11.8258" fill="#D9D9D9" fill-opacity="0.34" shape-rendering="crispEdges"/>
<rect x="121.645" y="172.417" width="190.671" height="341.148" rx="11.2883" stroke="white" stroke-width="1.07507" shape-rendering="crispEdges"/>
</g>
<path d="M547.125 223.85H521.308C508.873 223.85 498.793 233.595 498.793 245.617V270.577C498.793 282.599 508.873 292.345 521.308 292.345H547.125C559.56 292.345 569.64 282.599 569.64 270.577V245.617C569.64 233.595 559.56 223.85 547.125 223.85Z" fill="#F7F7F7" fill-opacity="0.6"/>
<path d="M525.229 270.367V245.857C525.229 244.507 526.871 243.717 528.047 244.515L545.171 256.027C546.69 257.046 546.69 259.16 545.171 260.179L527.995 271.691C526.844 272.464 525.229 271.691 525.229 270.375V270.367Z" fill="#1E1F24"/>
<path d="M536.6 422.242H516.913C507.431 422.242 499.744 429.674 499.744 438.841V457.875C499.744 467.042 507.431 474.474 516.913 474.474H536.6C546.082 474.474 553.769 467.042 553.769 457.875V438.841C553.769 429.674 546.082 422.242 536.6 422.242Z" fill="#F7F7F7" fill-opacity="0.6"/>
<path d="M519.902 457.714V439.024C519.902 437.995 521.155 437.392 522.052 438.001L535.109 446.78C536.268 447.556 536.268 449.168 535.109 449.945L522.012 458.724C521.134 459.313 519.902 458.724 519.902 457.72V457.714Z" fill="#1E1F24"/>
<path d="M228.193 313.242H205.768C194.966 313.242 186.21 321.708 186.21 332.15V353.832C186.21 364.274 194.966 372.74 205.768 372.74H228.193C238.995 372.74 247.751 364.274 247.751 353.832V332.15C247.751 321.708 238.995 313.242 228.193 313.242Z" fill="#F7F7F7" fill-opacity="0.6"/>
<path d="M209.173 353.649V332.359C209.173 331.186 210.599 330.5 211.621 331.194L226.496 341.193C227.815 342.078 227.815 343.915 226.496 344.8L211.576 354.799C210.576 355.471 209.173 354.799 209.173 353.656V353.649Z" fill="#1E1F24"/>
<rect x="650.331" y="305.63" width="57.923" height="31" rx="4" fill="black" fill-opacity="0.67"/>
<path d="M659.118 326.63V325.079L662.743 321.723C663.051 321.425 663.309 321.157 663.518 320.918C663.73 320.679 663.891 320.446 664 320.217C664.11 319.985 664.164 319.735 664.164 319.466C664.164 319.168 664.096 318.911 663.961 318.696C663.825 318.477 663.639 318.31 663.404 318.194C663.168 318.074 662.902 318.015 662.603 318.015C662.292 318.015 662.02 318.078 661.788 318.204C661.556 318.329 661.377 318.51 661.251 318.745C661.125 318.981 661.062 319.261 661.062 319.586H659.019C659.019 318.919 659.17 318.341 659.471 317.851C659.773 317.36 660.195 316.981 660.739 316.712C661.283 316.444 661.909 316.309 662.618 316.309C663.347 316.309 663.982 316.439 664.522 316.697C665.066 316.952 665.489 317.307 665.79 317.761C666.092 318.215 666.243 318.735 666.243 319.322C666.243 319.707 666.166 320.086 666.014 320.461C665.865 320.835 665.598 321.251 665.213 321.708C664.829 322.163 664.287 322.708 663.588 323.344L662.101 324.801V324.87H666.377V326.63H659.118ZM671.929 326.854C671.074 326.851 670.338 326.64 669.721 326.223C669.108 325.805 668.636 325.2 668.305 324.408C667.976 323.616 667.814 322.663 667.817 321.549C667.817 320.439 667.981 319.493 668.309 318.711C668.641 317.928 669.113 317.333 669.726 316.926C670.343 316.515 671.077 316.309 671.929 316.309C672.781 316.309 673.513 316.515 674.126 316.926C674.743 317.337 675.217 317.933 675.548 318.716C675.88 319.494 676.044 320.439 676.04 321.549C676.04 322.666 675.875 323.621 675.543 324.413C675.215 325.205 674.744 325.81 674.131 326.228C673.518 326.645 672.784 326.854 671.929 326.854ZM671.929 325.069C672.512 325.069 672.978 324.776 673.326 324.189C673.674 323.603 673.846 322.723 673.843 321.549C673.843 320.777 673.763 320.134 673.604 319.62C673.448 319.107 673.226 318.721 672.938 318.462C672.653 318.204 672.317 318.074 671.929 318.074C671.349 318.074 670.885 318.364 670.537 318.944C670.189 319.524 670.013 320.393 670.01 321.549C670.01 322.332 670.088 322.985 670.243 323.508C670.403 324.029 670.626 324.42 670.915 324.682C671.203 324.94 671.541 325.069 671.929 325.069ZM678.833 325.447C678.505 325.447 678.223 325.331 677.988 325.099C677.756 324.867 677.64 324.585 677.64 324.254C677.64 323.929 677.756 323.651 677.988 323.419C678.223 323.187 678.505 323.071 678.833 323.071C679.151 323.071 679.43 323.187 679.668 323.419C679.907 323.651 680.026 323.929 680.026 324.254C680.026 324.473 679.97 324.673 679.857 324.856C679.748 325.034 679.604 325.179 679.425 325.288C679.246 325.394 679.049 325.447 678.833 325.447ZM678.833 320.451C678.505 320.451 678.223 320.335 677.988 320.103C677.756 319.871 677.64 319.589 677.64 319.258C677.64 318.933 677.756 318.656 677.988 318.427C678.223 318.195 678.505 318.079 678.833 318.079C679.151 318.079 679.43 318.195 679.668 318.427C679.907 318.656 680.026 318.933 680.026 319.258C680.026 319.48 679.97 319.682 679.857 319.864C679.748 320.043 679.604 320.186 679.425 320.292C679.246 320.398 679.049 320.451 678.833 320.451ZM681.745 326.63V325.079L685.369 321.723C685.678 321.425 685.936 321.157 686.145 320.918C686.357 320.679 686.518 320.446 686.627 320.217C686.737 319.985 686.791 319.735 686.791 319.466C686.791 319.168 686.723 318.911 686.588 318.696C686.452 318.477 686.266 318.31 686.031 318.194C685.795 318.074 685.529 318.015 685.23 318.015C684.919 318.015 684.647 318.078 684.415 318.204C684.183 318.329 684.004 318.51 683.878 318.745C683.752 318.981 683.689 319.261 683.689 319.586H681.646C681.646 318.919 681.797 318.341 682.098 317.851C682.4 317.36 682.822 316.981 683.366 316.712C683.91 316.444 684.536 316.309 685.245 316.309C685.974 316.309 686.609 316.439 687.149 316.697C687.693 316.952 688.115 317.307 688.417 317.761C688.719 318.215 688.869 318.735 688.869 319.322C688.869 319.707 688.793 320.086 688.641 320.461C688.492 320.835 688.225 321.251 687.84 321.708C687.456 322.163 686.914 322.708 686.215 323.344L684.728 324.801V324.87H689.004V326.63H681.745ZM694.556 326.854C693.701 326.851 692.965 326.64 692.348 326.223C691.735 325.805 691.263 325.2 690.931 324.408C690.603 323.616 690.441 322.663 690.444 321.549C690.444 320.439 690.608 319.493 690.936 318.711C691.268 317.928 691.74 317.333 692.353 316.926C692.97 316.515 693.704 316.309 694.556 316.309C695.408 316.309 696.14 316.515 696.753 316.926C697.37 317.337 697.844 317.933 698.175 318.716C698.507 319.494 698.671 320.439 698.667 321.549C698.667 322.666 698.502 323.621 698.17 324.413C697.842 325.205 697.371 325.81 696.758 326.228C696.145 326.645 695.411 326.854 694.556 326.854ZM694.556 325.069C695.139 325.069 695.605 324.776 695.953 324.189C696.301 323.603 696.473 322.723 696.47 321.549C696.47 320.777 696.39 320.134 696.231 319.62C696.075 319.107 695.853 318.721 695.565 318.462C695.28 318.204 694.944 318.074 694.556 318.074C693.976 318.074 693.512 318.364 693.164 318.944C692.816 319.524 692.64 320.393 692.637 321.549C692.637 322.332 692.715 322.985 692.87 323.508C693.029 324.029 693.253 324.42 693.542 324.682C693.83 324.94 694.168 325.069 694.556 325.069Z" fill="white"/>
<rect x="619.3" y="481.36" width="42.0725" height="24.1004" rx="3.05022" fill="black" fill-opacity="0.67"/>
<path d="M629.343 489.646V497.41H627.702V491.204H627.656L625.878 492.319V490.863L627.8 489.646H629.343ZM631.071 496.045V494.753L634.312 489.646H635.427V491.435H634.767L632.724 494.669V494.73H637.33V496.045H631.071ZM634.798 497.41V495.651L634.828 495.079V489.646H636.367V497.41H634.798ZM639.383 496.508C639.133 496.508 638.918 496.419 638.738 496.242C638.562 496.066 638.473 495.851 638.473 495.598C638.473 495.35 638.562 495.138 638.738 494.961C638.918 494.784 639.133 494.696 639.383 494.696C639.626 494.696 639.838 494.784 640.02 494.961C640.202 495.138 640.293 495.35 640.293 495.598C640.293 495.765 640.25 495.918 640.164 496.057C640.081 496.193 639.971 496.303 639.834 496.387C639.698 496.467 639.547 496.508 639.383 496.508ZM639.383 492.698C639.133 492.698 638.918 492.609 638.738 492.432C638.562 492.256 638.473 492.041 638.473 491.788C638.473 491.54 638.562 491.329 638.738 491.155C638.918 490.978 639.133 490.889 639.383 490.889C639.626 490.889 639.838 490.978 640.02 491.155C640.202 491.329 640.293 491.54 640.293 491.788C640.293 491.957 640.25 492.111 640.164 492.25C640.081 492.387 639.971 492.496 639.834 492.576C639.698 492.657 639.547 492.698 639.383 492.698ZM641.604 497.41V496.227L644.367 493.668C644.602 493.441 644.8 493.236 644.959 493.054C645.12 492.872 645.243 492.694 645.326 492.52C645.41 492.343 645.452 492.152 645.452 491.947C645.452 491.72 645.4 491.524 645.296 491.36C645.193 491.193 645.051 491.065 644.872 490.977C644.692 490.886 644.489 490.84 644.261 490.84C644.024 490.84 643.816 490.888 643.639 490.984C643.463 491.08 643.326 491.218 643.23 491.397C643.134 491.577 643.086 491.79 643.086 492.038H641.528C641.528 491.53 641.643 491.089 641.873 490.715C642.103 490.341 642.425 490.052 642.84 489.847C643.254 489.642 643.732 489.54 644.273 489.54C644.829 489.54 645.313 489.638 645.725 489.836C646.139 490.03 646.461 490.301 646.691 490.647C646.921 490.993 647.036 491.39 647.036 491.837C647.036 492.13 646.978 492.42 646.862 492.705C646.748 492.991 646.545 493.308 646.252 493.657C645.958 494.003 645.545 494.419 645.012 494.904L643.878 496.015V496.068H647.139V497.41H641.604ZM651.372 497.581C650.72 497.578 650.159 497.418 649.689 497.099C649.222 496.781 648.861 496.32 648.609 495.716C648.358 495.111 648.235 494.385 648.237 493.536C648.237 492.689 648.362 491.967 648.612 491.371C648.865 490.774 649.225 490.321 649.693 490.01C650.163 489.697 650.723 489.54 651.372 489.54C652.022 489.54 652.58 489.697 653.048 490.01C653.518 490.323 653.88 490.778 654.132 491.375C654.385 491.969 654.51 492.689 654.508 493.536C654.508 494.387 654.381 495.115 654.128 495.719C653.878 496.323 653.519 496.785 653.052 497.103C652.584 497.422 652.024 497.581 651.372 497.581ZM651.372 496.22C651.817 496.22 652.172 495.996 652.438 495.549C652.703 495.101 652.834 494.43 652.832 493.536C652.832 492.947 652.771 492.456 652.65 492.065C652.531 491.673 652.362 491.378 652.142 491.181C651.925 490.984 651.668 490.886 651.372 490.886C650.93 490.886 650.576 491.107 650.311 491.549C650.045 491.991 649.912 492.654 649.909 493.536C649.909 494.132 649.968 494.63 650.087 495.029C650.208 495.426 650.379 495.724 650.599 495.924C650.819 496.121 651.077 496.22 651.372 496.22Z" fill="white"/>
<path d="M261.568 451.618V457.37L245.03 503.963H234.389L250.998 459.995H229.931V451.618H261.568ZM267.291 495.802H267.795C270.095 495.802 272.061 495.466 273.69 494.795C275.344 494.124 276.686 493.142 277.717 491.847C278.772 490.529 279.539 488.911 280.018 486.994C280.497 485.077 280.737 482.896 280.737 480.451V470.349C280.737 468.479 280.605 466.862 280.341 465.495C280.078 464.105 279.706 462.955 279.227 462.044C278.748 461.109 278.208 460.414 277.609 459.959C277.01 459.504 276.363 459.276 275.668 459.276C274.853 459.276 274.134 459.551 273.511 460.103C272.888 460.654 272.36 461.409 271.929 462.368C271.521 463.302 271.21 464.369 270.994 465.567C270.778 466.766 270.671 468 270.671 469.27C270.671 470.612 270.778 471.871 270.994 473.045C271.21 474.219 271.533 475.262 271.965 476.173C272.396 477.084 272.947 477.791 273.619 478.294C274.29 478.797 275.093 479.049 276.027 479.049C276.794 479.049 277.501 478.833 278.148 478.402C278.796 477.946 279.359 477.347 279.838 476.604C280.317 475.861 280.701 475.046 280.989 474.16C281.276 473.273 281.432 472.362 281.456 471.427L284.727 473.476C284.727 475.106 284.428 476.724 283.829 478.33C283.253 479.936 282.451 481.398 281.42 482.716C280.389 484.034 279.191 485.089 277.825 485.88C276.483 486.647 275.033 487.03 273.475 487.03C271.39 487.03 269.544 486.587 267.938 485.7C266.333 484.813 264.978 483.579 263.876 481.997C262.797 480.391 261.982 478.522 261.431 476.389C260.88 474.231 260.604 471.907 260.604 469.414C260.604 466.874 260.952 464.489 261.647 462.26C262.366 460.007 263.385 458.03 264.703 456.328C266.021 454.626 267.615 453.296 269.484 452.337C271.354 451.355 273.439 450.863 275.74 450.863C278.017 450.863 280.078 451.367 281.923 452.373C283.769 453.38 285.351 454.83 286.669 456.723C287.987 458.593 288.994 460.846 289.689 463.482C290.408 466.095 290.767 469.019 290.767 472.254V475.885C290.767 479.313 290.468 482.5 289.868 485.448C289.269 488.372 288.358 491.009 287.136 493.357C285.914 495.706 284.392 497.719 282.57 499.397C280.749 501.051 278.616 502.321 276.171 503.208C273.75 504.071 271.006 504.502 267.938 504.502H267.291V495.802ZM291.817 498.822C291.817 497.24 292.344 495.922 293.399 494.867C294.453 493.789 295.879 493.25 297.677 493.25C299.474 493.25 300.901 493.789 301.955 494.867C303.01 495.922 303.537 497.24 303.537 498.822C303.537 500.404 303.01 501.722 301.955 502.777C300.901 503.831 299.474 504.358 297.677 504.358C295.879 504.358 294.453 503.831 293.399 502.777C292.344 501.722 291.817 500.404 291.817 498.822ZM313.79 473.153H318.679C319.95 473.153 320.992 472.865 321.807 472.29C322.622 471.691 323.221 470.852 323.605 469.774C323.988 468.695 324.18 467.437 324.18 465.999C324.18 464.657 324 463.482 323.641 462.476C323.281 461.469 322.73 460.678 321.987 460.103C321.244 459.528 320.309 459.24 319.183 459.24C318.32 459.24 317.517 459.48 316.774 459.959C316.031 460.438 315.432 461.121 314.977 462.008C314.545 462.871 314.329 463.914 314.329 465.136H304.191C304.191 462.26 304.85 459.755 306.169 457.622C307.487 455.489 309.26 453.823 311.489 452.625C313.718 451.427 316.187 450.827 318.895 450.827C321.939 450.827 324.611 451.403 326.912 452.553C329.213 453.68 331.011 455.357 332.305 457.586C333.599 459.791 334.246 462.523 334.246 465.783C334.246 467.461 333.923 469.078 333.276 470.636C332.652 472.194 331.742 473.596 330.543 474.843C329.345 476.065 327.883 477.036 326.157 477.755C324.456 478.474 322.514 478.833 320.333 478.833H313.79V473.153ZM313.79 481.314V475.813H320.333C322.778 475.813 324.911 476.137 326.733 476.784C328.578 477.407 330.1 478.318 331.298 479.516C332.521 480.715 333.431 482.141 334.031 483.794C334.63 485.448 334.929 487.27 334.929 489.259C334.929 491.704 334.522 493.885 333.707 495.802C332.892 497.719 331.754 499.337 330.292 500.655C328.83 501.974 327.128 502.98 325.187 503.675C323.245 504.346 321.136 504.682 318.859 504.682C316.966 504.682 315.108 504.382 313.287 503.783C311.489 503.184 309.872 502.261 308.433 501.015C306.995 499.769 305.857 498.199 305.018 496.305C304.179 494.412 303.76 492.171 303.76 489.583H313.826C313.826 490.877 314.054 492.039 314.509 493.07C314.965 494.076 315.588 494.867 316.379 495.443C317.194 496.018 318.104 496.305 319.111 496.305C320.285 496.305 321.304 496.006 322.167 495.407C323.03 494.807 323.689 493.969 324.144 492.89C324.599 491.811 324.827 490.553 324.827 489.115C324.827 487.27 324.587 485.784 324.108 484.657C323.629 483.507 322.934 482.668 322.023 482.141C321.112 481.589 320.01 481.314 318.715 481.314H313.79ZM340.075 488.406V487.316C340.075 486.533 340.217 485.82 340.5 485.178C340.792 484.537 341.207 484.022 341.745 483.636C342.283 483.249 342.925 483.055 343.671 483.055C344.435 483.055 345.086 483.249 345.624 483.636C346.171 484.022 346.587 484.537 346.87 485.178C347.153 485.82 347.294 486.533 347.294 487.316V488.406C347.294 489.17 347.153 489.873 346.87 490.515C346.587 491.157 346.176 491.671 345.638 492.058C345.1 492.445 344.454 492.638 343.699 492.638C342.944 492.638 342.293 492.445 341.745 492.058C341.207 491.671 340.792 491.157 340.5 490.515C340.217 489.873 340.075 489.17 340.075 488.406ZM341.915 487.316V488.406C341.915 488.84 341.977 489.251 342.099 489.637C342.231 490.024 342.43 490.341 342.694 490.586C342.958 490.822 343.293 490.94 343.699 490.94C344.095 490.94 344.421 490.822 344.676 490.586C344.94 490.341 345.133 490.024 345.256 489.637C345.388 489.251 345.454 488.84 345.454 488.406V487.316C345.454 486.872 345.388 486.457 345.256 486.07C345.124 485.674 344.926 485.358 344.661 485.122C344.407 484.877 344.076 484.754 343.671 484.754C343.274 484.754 342.944 484.877 342.68 485.122C342.425 485.358 342.231 485.674 342.099 486.07C341.977 486.457 341.915 486.872 341.915 487.316ZM348.398 500.013V498.909C348.398 498.136 348.54 497.428 348.823 496.786C349.116 496.144 349.531 495.63 350.069 495.243C350.616 494.856 351.263 494.663 352.008 494.663C352.763 494.663 353.41 494.856 353.947 495.243C354.485 495.63 354.896 496.144 355.179 496.786C355.472 497.428 355.618 498.136 355.618 498.909V500.013C355.618 500.787 355.472 501.495 355.179 502.137C354.896 502.779 354.485 503.293 353.947 503.68C353.419 504.067 352.777 504.26 352.022 504.26C351.267 504.26 350.616 504.067 350.069 503.68C349.531 503.293 349.116 502.779 348.823 502.137C348.54 501.495 348.398 500.787 348.398 500.013ZM350.239 498.909V500.013C350.239 500.448 350.305 500.863 350.437 501.259C350.569 501.646 350.767 501.962 351.031 502.208C351.296 502.444 351.626 502.561 352.022 502.561C352.419 502.561 352.744 502.444 352.999 502.208C353.263 501.962 353.457 501.646 353.579 501.259C353.712 500.872 353.778 500.457 353.778 500.013V498.909C353.778 498.466 353.712 498.051 353.579 497.664C353.447 497.277 353.249 496.965 352.985 496.729C352.73 496.484 352.404 496.361 352.008 496.361C351.612 496.361 351.281 496.484 351.017 496.729C350.762 496.965 350.569 497.277 350.437 497.664C350.305 498.051 350.239 498.466 350.239 498.909ZM352.673 486.283L344.223 502.392L342.835 501.457L351.3 485.348L352.673 486.283Z" fill="black"/>
<path d="M698.412 200.2V258.097H687.301V213.851L676.269 218.097V208.811L697.222 200.2H698.412ZM731.396 200.2V258.097H720.285V213.851L709.253 218.097V208.811L730.206 200.2H731.396ZM737.64 240.925V239.722C737.64 238.858 737.796 238.071 738.109 237.363C738.432 236.654 738.89 236.087 739.484 235.66C740.077 235.233 740.786 235.019 741.609 235.019C742.452 235.019 743.171 235.233 743.765 235.66C744.369 236.087 744.827 236.654 745.14 237.363C745.452 238.071 745.609 238.858 745.609 239.722V240.925C745.609 241.769 745.452 242.545 745.14 243.253C744.827 243.962 744.374 244.529 743.78 244.957C743.187 245.384 742.473 245.597 741.64 245.597C740.807 245.597 740.088 245.384 739.484 244.957C738.89 244.529 738.432 243.962 738.109 243.253C737.796 242.545 737.64 241.769 737.64 240.925ZM739.671 239.722V240.925C739.671 241.404 739.739 241.858 739.874 242.285C740.02 242.712 740.239 243.061 740.53 243.332C740.822 243.592 741.192 243.722 741.64 243.722C742.077 243.722 742.437 243.592 742.718 243.332C743.01 243.061 743.223 242.712 743.359 242.285C743.504 241.858 743.577 241.404 743.577 240.925V239.722C743.577 239.233 743.504 238.774 743.359 238.347C743.213 237.91 742.994 237.561 742.702 237.3C742.421 237.029 742.057 236.894 741.609 236.894C741.171 236.894 740.807 237.029 740.515 237.3C740.234 237.561 740.02 237.91 739.874 238.347C739.739 238.774 739.671 239.233 739.671 239.722ZM746.827 253.738V252.519C746.827 251.665 746.984 250.884 747.296 250.175C747.619 249.467 748.077 248.899 748.671 248.472C749.275 248.045 749.989 247.832 750.812 247.832C751.645 247.832 752.359 248.045 752.952 248.472C753.546 248.899 753.999 249.467 754.312 250.175C754.635 250.884 754.796 251.665 754.796 252.519V253.738C754.796 254.592 754.635 255.373 754.312 256.082C753.999 256.79 753.546 257.358 752.952 257.785C752.369 258.212 751.661 258.425 750.827 258.425C749.994 258.425 749.275 258.212 748.671 257.785C748.077 257.358 747.619 256.79 747.296 256.082C746.984 255.373 746.827 254.592 746.827 253.738ZM748.859 252.519V253.738C748.859 254.217 748.932 254.675 749.077 255.113C749.223 255.54 749.442 255.889 749.734 256.16C750.025 256.42 750.39 256.55 750.827 256.55C751.265 256.55 751.624 256.42 751.905 256.16C752.197 255.889 752.411 255.54 752.546 255.113C752.692 254.686 752.765 254.227 752.765 253.738V252.519C752.765 252.029 752.692 251.571 752.546 251.144C752.4 250.717 752.182 250.373 751.89 250.113C751.609 249.842 751.249 249.707 750.812 249.707C750.374 249.707 750.01 249.842 749.718 250.113C749.437 250.373 749.223 250.717 749.077 251.144C748.932 251.571 748.859 252.029 748.859 252.519ZM751.546 238.582L742.218 256.363L740.687 255.332L750.03 237.55L751.546 238.582Z" fill="black"/>
<path d="M641.849 435.936H642.268C644.187 435.936 645.826 435.656 647.185 435.097C648.564 434.537 649.683 433.718 650.543 432.638C651.422 431.539 652.062 430.19 652.462 428.591C652.861 426.992 653.061 425.173 653.061 423.135V414.71C653.061 413.151 652.951 411.802 652.731 410.663C652.512 409.504 652.202 408.545 651.802 407.785C651.402 407.006 650.953 406.426 650.453 406.046C649.953 405.666 649.414 405.477 648.834 405.477C648.154 405.477 647.555 405.706 647.035 406.166C646.516 406.626 646.076 407.255 645.716 408.055C645.376 408.834 645.117 409.724 644.937 410.723C644.757 411.722 644.667 412.752 644.667 413.811C644.667 414.93 644.757 415.98 644.937 416.959C645.117 417.938 645.386 418.808 645.746 419.567C646.106 420.327 646.566 420.916 647.125 421.336C647.685 421.756 648.354 421.966 649.134 421.966C649.773 421.966 650.363 421.786 650.903 421.426C651.442 421.046 651.912 420.547 652.312 419.927C652.711 419.307 653.031 418.628 653.271 417.888C653.511 417.149 653.641 416.389 653.661 415.61L656.389 417.319C656.389 418.678 656.139 420.027 655.639 421.366C655.16 422.705 654.49 423.924 653.631 425.024C652.771 426.123 651.772 427.002 650.633 427.662C649.514 428.301 648.304 428.621 647.005 428.621C645.266 428.621 643.727 428.251 642.388 427.512C641.049 426.772 639.92 425.743 639.001 424.424C638.101 423.085 637.422 421.526 636.962 419.747C636.502 417.948 636.272 416.01 636.272 413.931C636.272 411.812 636.562 409.824 637.142 407.965C637.741 406.086 638.591 404.437 639.69 403.018C640.789 401.599 642.119 400.49 643.677 399.69C645.236 398.871 646.975 398.461 648.894 398.461C650.793 398.461 652.512 398.881 654.051 399.72C655.59 400.56 656.909 401.769 658.008 403.348C659.107 404.907 659.947 406.786 660.526 408.984C661.126 411.163 661.426 413.601 661.426 416.299V419.327C661.426 422.185 661.176 424.844 660.676 427.302C660.176 429.74 659.417 431.939 658.398 433.898C657.378 435.856 656.109 437.535 654.59 438.934C653.071 440.313 651.292 441.373 649.254 442.112C647.235 442.832 644.947 443.191 642.388 443.191H641.849V435.936ZM662.301 438.455C662.301 437.135 662.741 436.036 663.62 435.157C664.5 434.257 665.689 433.808 667.188 433.808C668.687 433.808 669.876 434.257 670.755 435.157C671.635 436.036 672.075 437.135 672.075 438.455C672.075 439.774 671.635 440.873 670.755 441.752C669.876 442.632 668.687 443.071 667.188 443.071C665.689 443.071 664.5 442.632 663.62 441.752C662.741 440.873 662.301 439.774 662.301 438.455ZM698.643 399.091V403.888L684.852 442.742H675.978L689.829 406.076H672.26V399.091H698.643ZM696.404 429.769V428.86C696.404 428.206 696.522 427.612 696.758 427.077C697.002 426.542 697.349 426.113 697.797 425.79C698.246 425.468 698.781 425.306 699.403 425.306C700.04 425.306 700.583 425.468 701.032 425.79C701.488 426.113 701.834 426.542 702.07 427.077C702.306 427.612 702.424 428.206 702.424 428.86V429.769C702.424 430.406 702.306 430.992 702.07 431.527C701.834 432.063 701.492 432.491 701.043 432.814C700.595 433.137 700.056 433.298 699.426 433.298C698.797 433.298 698.254 433.137 697.797 432.814C697.349 432.491 697.002 432.063 696.758 431.527C696.522 430.992 696.404 430.406 696.404 429.769ZM697.939 428.86V429.769C697.939 430.131 697.99 430.473 698.092 430.796C698.202 431.118 698.368 431.382 698.588 431.586C698.808 431.783 699.088 431.882 699.426 431.882C699.757 431.882 700.028 431.783 700.241 431.586C700.461 431.382 700.622 431.118 700.725 430.796C700.835 430.473 700.89 430.131 700.89 429.769V428.86C700.89 428.49 700.835 428.143 700.725 427.821C700.614 427.49 700.449 427.227 700.229 427.03C700.016 426.825 699.741 426.723 699.403 426.723C699.072 426.723 698.797 426.825 698.576 427.03C698.364 427.227 698.202 427.49 698.092 427.821C697.99 428.143 697.939 428.49 697.939 428.86ZM703.345 439.448V438.527C703.345 437.882 703.463 437.292 703.699 436.757C703.943 436.222 704.29 435.793 704.738 435.47C705.195 435.147 705.734 434.986 706.355 434.986C706.985 434.986 707.524 435.147 707.973 435.47C708.421 435.793 708.763 436.222 709 436.757C709.244 437.292 709.366 437.882 709.366 438.527V439.448C709.366 440.094 709.244 440.684 709 441.219C708.763 441.754 708.421 442.183 707.973 442.506C707.532 442.828 706.997 442.99 706.367 442.99C705.738 442.99 705.195 442.828 704.738 442.506C704.29 442.183 703.943 441.754 703.699 441.219C703.463 440.684 703.345 440.094 703.345 439.448ZM704.88 438.527V439.448C704.88 439.81 704.935 440.157 705.045 440.487C705.155 440.81 705.321 441.073 705.541 441.278C705.761 441.475 706.037 441.573 706.367 441.573C706.698 441.573 706.969 441.475 707.182 441.278C707.402 441.073 707.563 440.81 707.666 440.487C707.776 440.164 707.831 439.818 707.831 439.448V438.527C707.831 438.158 707.776 437.811 707.666 437.489C707.555 437.166 707.39 436.906 707.17 436.71C706.957 436.505 706.686 436.403 706.355 436.403C706.025 436.403 705.749 436.505 705.529 436.71C705.317 436.906 705.155 437.166 705.045 437.489C704.935 437.811 704.88 438.158 704.88 438.527ZM706.91 427.998L699.863 441.431L698.706 440.652L705.765 427.219L706.91 427.998Z" fill="black"/>
<path d="M241.519 526.72H240.11C240.026 526.314 239.881 525.958 239.672 525.652C239.468 525.345 239.218 525.087 238.922 524.879C238.631 524.667 238.307 524.508 237.951 524.402C237.595 524.295 237.223 524.242 236.837 524.242C236.132 524.242 235.494 524.42 234.922 524.777C234.354 525.133 233.901 525.657 233.564 526.35C233.231 527.044 233.064 527.894 233.064 528.902C233.064 529.909 233.231 530.759 233.564 531.453C233.901 532.146 234.354 532.67 234.922 533.027C235.494 533.383 236.132 533.561 236.837 533.561C237.223 533.561 237.595 533.508 237.951 533.402C238.307 533.295 238.631 533.138 238.922 532.93C239.218 532.718 239.468 532.458 239.672 532.152C239.881 531.841 240.026 531.485 240.11 531.083H241.519C241.413 531.678 241.22 532.21 240.939 532.68C240.659 533.15 240.31 533.549 239.894 533.879C239.477 534.205 239.009 534.453 238.49 534.623C237.975 534.794 237.424 534.879 236.837 534.879C235.845 534.879 234.962 534.636 234.189 534.152C233.417 533.667 232.809 532.977 232.365 532.083C231.922 531.189 231.701 530.129 231.701 528.902C231.701 527.674 231.922 526.614 232.365 525.72C232.809 524.826 233.417 524.136 234.189 523.652C234.962 523.167 235.845 522.924 236.837 522.924C237.424 522.924 237.975 523.009 238.49 523.18C239.009 523.35 239.477 523.6 239.894 523.93C240.31 524.256 240.659 524.653 240.939 525.123C241.22 525.589 241.413 526.121 241.519 526.72ZM247.159 534.902C246.372 534.902 245.68 534.714 245.086 534.339C244.495 533.964 244.033 533.439 243.699 532.765C243.37 532.091 243.205 531.303 243.205 530.402C243.205 529.492 243.37 528.699 243.699 528.021C244.033 527.343 244.495 526.816 245.086 526.441C245.68 526.066 246.372 525.879 247.159 525.879C247.947 525.879 248.637 526.066 249.228 526.441C249.822 526.816 250.284 527.343 250.614 528.021C250.947 528.699 251.114 529.492 251.114 530.402C251.114 531.303 250.947 532.091 250.614 532.765C250.284 533.439 249.822 533.964 249.228 534.339C248.637 534.714 247.947 534.902 247.159 534.902ZM247.159 533.697C247.758 533.697 248.25 533.544 248.637 533.237C249.023 532.93 249.309 532.527 249.495 532.027C249.68 531.527 249.773 530.985 249.773 530.402C249.773 529.818 249.68 529.275 249.495 528.771C249.309 528.267 249.023 527.86 248.637 527.549C248.25 527.239 247.758 527.083 247.159 527.083C246.561 527.083 246.069 527.239 245.682 527.549C245.296 527.86 245.01 528.267 244.824 528.771C244.639 529.275 244.546 529.818 244.546 530.402C244.546 530.985 244.639 531.527 244.824 532.027C245.01 532.527 245.296 532.93 245.682 533.237C246.069 533.544 246.561 533.697 247.159 533.697ZM253.161 534.72V525.992H254.456V527.311H254.547C254.706 526.879 254.994 526.528 255.411 526.259C255.828 525.991 256.297 525.856 256.82 525.856C256.918 525.856 257.042 525.858 257.189 525.862C257.337 525.866 257.449 525.871 257.525 525.879V527.242C257.479 527.231 257.375 527.214 257.212 527.191C257.053 527.165 256.884 527.152 256.706 527.152C256.282 527.152 255.903 527.241 255.57 527.419C255.24 527.593 254.979 527.835 254.786 528.146C254.596 528.453 254.502 528.803 254.502 529.197V534.72H253.161ZM263.456 525.992V527.129H258.934V525.992H263.456ZM260.252 523.902H261.593V532.22C261.593 532.599 261.648 532.883 261.757 533.072C261.871 533.258 262.015 533.383 262.189 533.447C262.367 533.508 262.555 533.538 262.752 533.538C262.9 533.538 263.021 533.53 263.115 533.515C263.21 533.496 263.286 533.481 263.343 533.47L263.615 534.674C263.525 534.708 263.398 534.742 263.235 534.777C263.072 534.814 262.865 534.833 262.615 534.833C262.237 534.833 261.865 534.752 261.502 534.589C261.142 534.426 260.843 534.178 260.604 533.845C260.369 533.511 260.252 533.091 260.252 532.583V523.902ZM269.039 534.902C268.198 534.902 267.472 534.716 266.863 534.345C266.257 533.97 265.789 533.447 265.459 532.777C265.133 532.102 264.971 531.318 264.971 530.424C264.971 529.53 265.133 528.742 265.459 528.061C265.789 527.375 266.247 526.841 266.834 526.458C267.425 526.072 268.114 525.879 268.902 525.879C269.357 525.879 269.806 525.955 270.249 526.106C270.692 526.258 271.096 526.504 271.459 526.845C271.823 527.182 272.113 527.629 272.328 528.186C272.544 528.742 272.652 529.428 272.652 530.242V530.811H265.925V529.652H271.289C271.289 529.159 271.19 528.72 270.993 528.333C270.8 527.947 270.524 527.642 270.164 527.419C269.808 527.195 269.387 527.083 268.902 527.083C268.368 527.083 267.906 527.216 267.516 527.481C267.13 527.742 266.832 528.083 266.624 528.504C266.416 528.924 266.311 529.375 266.311 529.856V530.629C266.311 531.288 266.425 531.847 266.652 532.305C266.883 532.759 267.203 533.106 267.613 533.345C268.022 533.58 268.497 533.697 269.039 533.697C269.391 533.697 269.709 533.648 269.993 533.549C270.281 533.447 270.529 533.295 270.738 533.095C270.946 532.89 271.107 532.636 271.221 532.333L272.516 532.697C272.38 533.136 272.15 533.523 271.828 533.856C271.507 534.186 271.109 534.443 270.635 534.629C270.162 534.811 269.63 534.902 269.039 534.902ZM280.874 527.947L279.669 528.288C279.594 528.087 279.482 527.892 279.334 527.703C279.19 527.509 278.993 527.35 278.743 527.225C278.493 527.1 278.173 527.038 277.783 527.038C277.249 527.038 276.804 527.161 276.448 527.407C276.096 527.65 275.919 527.958 275.919 528.333C275.919 528.667 276.041 528.93 276.283 529.123C276.525 529.316 276.904 529.477 277.419 529.606L278.715 529.924C279.495 530.114 280.077 530.403 280.459 530.794C280.842 531.18 281.033 531.678 281.033 532.288C281.033 532.788 280.889 533.235 280.601 533.629C280.317 534.023 279.919 534.333 279.408 534.561C278.897 534.788 278.302 534.902 277.624 534.902C276.734 534.902 275.997 534.708 275.414 534.322C274.83 533.936 274.461 533.371 274.306 532.629L275.578 532.311C275.7 532.78 275.929 533.133 276.266 533.367C276.607 533.602 277.052 533.72 277.601 533.72C278.226 533.72 278.722 533.587 279.09 533.322C279.461 533.053 279.647 532.731 279.647 532.356C279.647 532.053 279.541 531.799 279.328 531.595C279.116 531.386 278.791 531.231 278.351 531.129L276.897 530.788C276.097 530.599 275.51 530.305 275.135 529.907C274.764 529.506 274.578 529.004 274.578 528.402C274.578 527.909 274.717 527.474 274.993 527.095C275.274 526.716 275.654 526.419 276.135 526.203C276.62 525.987 277.169 525.879 277.783 525.879C278.647 525.879 279.325 526.068 279.817 526.447C280.313 526.826 280.666 527.326 280.874 527.947ZM288.211 523.083L291.665 532.879H291.801L295.256 523.083H296.733L292.461 534.72H291.006L286.733 523.083H288.211ZM298.364 534.72V525.992H299.705V534.72H298.364ZM298.432 524.811L299.819 522.174H301.387L299.614 524.811H298.432ZM305.456 534.902C304.729 534.902 304.087 534.718 303.53 534.35C302.973 533.979 302.538 533.456 302.223 532.782C301.909 532.104 301.752 531.303 301.752 530.379C301.752 529.462 301.909 528.667 302.223 527.992C302.538 527.318 302.975 526.797 303.536 526.43C304.096 526.063 304.744 525.879 305.479 525.879C306.047 525.879 306.496 525.974 306.826 526.163C307.159 526.349 307.413 526.561 307.587 526.799C307.765 527.034 307.903 527.227 308.002 527.379H308.115V523.083H309.456V534.72H308.161V533.379H308.002C307.903 533.538 307.763 533.739 307.581 533.981C307.4 534.22 307.14 534.434 306.803 534.623C306.466 534.809 306.017 534.902 305.456 534.902ZM305.638 533.697C306.176 533.697 306.631 533.557 307.002 533.277C307.373 532.992 307.655 532.6 307.848 532.1C308.042 531.597 308.138 531.015 308.138 530.356C308.138 529.705 308.043 529.134 307.854 528.646C307.665 528.153 307.384 527.771 307.013 527.498C306.642 527.222 306.184 527.083 305.638 527.083C305.07 527.083 304.596 527.229 304.218 527.521C303.843 527.809 303.56 528.201 303.371 528.697C303.185 529.189 303.093 529.742 303.093 530.356C303.093 530.977 303.187 531.542 303.377 532.049C303.57 532.553 303.854 532.955 304.229 533.254C304.608 533.549 305.078 533.697 305.638 533.697ZM315.757 534.902C314.917 534.902 314.191 534.716 313.581 534.345C312.975 533.97 312.507 533.447 312.178 532.777C311.852 532.102 311.689 531.318 311.689 530.424C311.689 529.53 311.852 528.742 312.178 528.061C312.507 527.375 312.966 526.841 313.553 526.458C314.144 526.072 314.833 525.879 315.621 525.879C316.076 525.879 316.525 525.955 316.968 526.106C317.411 526.258 317.814 526.504 318.178 526.845C318.542 527.182 318.831 527.629 319.047 528.186C319.263 528.742 319.371 529.428 319.371 530.242V530.811H312.644V529.652H318.007C318.007 529.159 317.909 528.72 317.712 528.333C317.519 527.947 317.242 527.642 316.882 527.419C316.526 527.195 316.106 527.083 315.621 527.083C315.087 527.083 314.625 527.216 314.235 527.481C313.848 527.742 313.551 528.083 313.343 528.504C313.134 528.924 313.03 529.375 313.03 529.856V530.629C313.03 531.288 313.144 531.847 313.371 532.305C313.602 532.759 313.922 533.106 314.331 533.345C314.74 533.58 315.216 533.697 315.757 533.697C316.11 533.697 316.428 533.648 316.712 533.549C317 533.447 317.248 533.295 317.456 533.095C317.665 532.89 317.826 532.636 317.939 532.333L319.235 532.697C319.098 533.136 318.869 533.523 318.547 533.856C318.225 534.186 317.828 534.443 317.354 534.629C316.881 534.811 316.348 534.902 315.757 534.902ZM324.956 534.902C324.168 534.902 323.477 534.714 322.882 534.339C322.292 533.964 321.829 533.439 321.496 532.765C321.167 532.091 321.002 531.303 321.002 530.402C321.002 529.492 321.167 528.699 321.496 528.021C321.829 527.343 322.292 526.816 322.882 526.441C323.477 526.066 324.168 525.879 324.956 525.879C325.744 525.879 326.434 526.066 327.025 526.441C327.619 526.816 328.081 527.343 328.411 528.021C328.744 528.699 328.911 529.492 328.911 530.402C328.911 531.303 328.744 532.091 328.411 532.765C328.081 533.439 327.619 533.964 327.025 534.339C326.434 534.714 325.744 534.902 324.956 534.902ZM324.956 533.697C325.555 533.697 326.047 533.544 326.434 533.237C326.82 532.93 327.106 532.527 327.292 532.027C327.477 531.527 327.57 530.985 327.57 530.402C327.57 529.818 327.477 529.275 327.292 528.771C327.106 528.267 326.82 527.86 326.434 527.549C326.047 527.239 325.555 527.083 324.956 527.083C324.358 527.083 323.865 527.239 323.479 527.549C323.093 527.86 322.807 528.267 322.621 528.771C322.435 529.275 322.343 529.818 322.343 530.402C322.343 530.985 322.435 531.527 322.621 532.027C322.807 532.527 323.093 532.93 323.479 533.237C323.865 533.544 324.358 533.697 324.956 533.697ZM337.14 527.947L335.935 528.288C335.859 528.087 335.748 527.892 335.6 527.703C335.456 527.509 335.259 527.35 335.009 527.225C334.759 527.1 334.439 527.038 334.049 527.038C333.515 527.038 333.069 527.161 332.713 527.407C332.361 527.65 332.185 527.958 332.185 528.333C332.185 528.667 332.306 528.93 332.549 529.123C332.791 529.316 333.17 529.477 333.685 529.606L334.98 529.924C335.761 530.114 336.342 530.403 336.725 530.794C337.107 531.18 337.299 531.678 337.299 532.288C337.299 532.788 337.155 533.235 336.867 533.629C336.583 534.023 336.185 534.333 335.674 534.561C335.162 534.788 334.568 534.902 333.89 534.902C332.999 534.902 332.263 534.708 331.679 534.322C331.096 533.936 330.727 533.371 330.571 532.629L331.844 532.311C331.965 532.78 332.194 533.133 332.532 533.367C332.873 533.602 333.318 533.72 333.867 533.72C334.492 533.72 334.988 533.587 335.355 533.322C335.727 533.053 335.912 532.731 335.912 532.356C335.912 532.053 335.806 531.799 335.594 531.595C335.382 531.386 335.056 531.231 334.617 531.129L333.162 530.788C332.363 530.599 331.776 530.305 331.401 529.907C331.03 529.506 330.844 529.004 330.844 528.402C330.844 527.909 330.982 527.474 331.259 527.095C331.539 526.716 331.92 526.419 332.401 526.203C332.886 525.987 333.435 525.879 334.049 525.879C334.912 525.879 335.59 526.068 336.083 526.447C336.579 526.826 336.931 527.326 337.14 527.947ZM232.632 541.083L236.087 550.879H236.223L239.678 541.083H241.155L236.882 552.72H235.428L231.155 541.083H232.632ZM245.632 552.902C244.792 552.902 244.066 552.716 243.456 552.345C242.85 551.97 242.382 551.447 242.053 550.777C241.727 550.102 241.564 549.318 241.564 548.424C241.564 547.53 241.727 546.742 242.053 546.061C242.382 545.375 242.841 544.841 243.428 544.458C244.019 544.072 244.708 543.879 245.496 543.879C245.951 543.879 246.4 543.955 246.843 544.106C247.286 544.258 247.689 544.504 248.053 544.845C248.417 545.182 248.706 545.629 248.922 546.186C249.138 546.742 249.246 547.428 249.246 548.242V548.811H242.519V547.652H247.882C247.882 547.159 247.784 546.72 247.587 546.333C247.394 545.947 247.117 545.642 246.757 545.419C246.401 545.195 245.981 545.083 245.496 545.083C244.962 545.083 244.5 545.216 244.11 545.481C243.723 545.742 243.426 546.083 243.218 546.504C243.009 546.924 242.905 547.375 242.905 547.856V548.629C242.905 549.288 243.019 549.847 243.246 550.305C243.477 550.759 243.797 551.106 244.206 551.345C244.615 551.58 245.091 551.697 245.632 551.697C245.985 551.697 246.303 551.648 246.587 551.549C246.875 551.447 247.123 551.295 247.331 551.095C247.54 550.89 247.701 550.636 247.814 550.333L249.11 550.697C248.973 551.136 248.744 551.523 248.422 551.856C248.1 552.186 247.703 552.443 247.229 552.629C246.756 552.811 246.223 552.902 245.632 552.902ZM251.286 552.72V543.992H252.581V545.311H252.672C252.831 544.879 253.119 544.528 253.536 544.259C253.953 543.991 254.422 543.856 254.945 543.856C255.043 543.856 255.167 543.858 255.314 543.862C255.462 543.866 255.574 543.871 255.65 543.879V545.242C255.604 545.231 255.5 545.214 255.337 545.191C255.178 545.165 255.009 545.152 254.831 545.152C254.407 545.152 254.028 545.241 253.695 545.419C253.365 545.593 253.104 545.835 252.911 546.146C252.721 546.453 252.627 546.803 252.627 547.197V552.72H251.286ZM261.581 543.992V545.129H257.059V543.992H261.581ZM258.377 541.902H259.718V550.22C259.718 550.599 259.773 550.883 259.882 551.072C259.996 551.258 260.14 551.383 260.314 551.447C260.492 551.508 260.68 551.538 260.877 551.538C261.025 551.538 261.146 551.53 261.24 551.515C261.335 551.496 261.411 551.481 261.468 551.47L261.74 552.674C261.65 552.708 261.523 552.742 261.36 552.777C261.197 552.814 260.99 552.833 260.74 552.833C260.362 552.833 259.99 552.752 259.627 552.589C259.267 552.426 258.968 552.178 258.729 551.845C258.494 551.511 258.377 551.091 258.377 550.583V541.902ZM263.598 552.72V543.992H264.939V552.72H263.598ZM264.28 542.538C264.019 542.538 263.793 542.449 263.604 542.271C263.418 542.093 263.326 541.879 263.326 541.629C263.326 541.379 263.418 541.165 263.604 540.987C263.793 540.809 264.019 540.72 264.28 540.72C264.542 540.72 264.765 540.809 264.951 540.987C265.14 541.165 265.235 541.379 265.235 541.629C265.235 541.879 265.14 542.093 264.951 542.271C264.765 542.449 264.542 542.538 264.28 542.538ZM270.941 552.902C270.123 552.902 269.418 552.708 268.827 552.322C268.236 551.936 267.782 551.403 267.463 550.725C267.145 550.047 266.986 549.273 266.986 548.402C266.986 547.515 267.149 546.733 267.475 546.055C267.804 545.373 268.263 544.841 268.85 544.458C269.441 544.072 270.13 543.879 270.918 543.879C271.532 543.879 272.085 543.992 272.577 544.22C273.069 544.447 273.473 544.765 273.787 545.174C274.102 545.583 274.297 546.061 274.373 546.606H273.032C272.929 546.208 272.702 545.856 272.35 545.549C272.001 545.239 271.532 545.083 270.941 545.083C270.418 545.083 269.96 545.22 269.566 545.492C269.176 545.761 268.871 546.142 268.651 546.634C268.435 547.123 268.327 547.697 268.327 548.356C268.327 549.03 268.433 549.617 268.645 550.117C268.861 550.617 269.164 551.006 269.554 551.282C269.948 551.559 270.41 551.697 270.941 551.697C271.289 551.697 271.605 551.636 271.89 551.515C272.174 551.394 272.414 551.22 272.611 550.992C272.808 550.765 272.948 550.492 273.032 550.174H274.373C274.297 550.689 274.109 551.153 273.81 551.566C273.515 551.975 273.123 552.301 272.634 552.544C272.149 552.782 271.585 552.902 270.941 552.902ZM278.901 552.924C278.348 552.924 277.846 552.82 277.395 552.612C276.944 552.4 276.587 552.095 276.321 551.697C276.056 551.295 275.924 550.811 275.924 550.242C275.924 549.742 276.022 549.337 276.219 549.027C276.416 548.712 276.679 548.466 277.009 548.288C277.338 548.11 277.702 547.977 278.1 547.89C278.501 547.799 278.905 547.727 279.31 547.674C279.84 547.606 280.27 547.555 280.6 547.521C280.933 547.483 281.176 547.42 281.327 547.333C281.482 547.246 281.56 547.095 281.56 546.879V546.833C281.56 546.273 281.407 545.837 281.1 545.527C280.797 545.216 280.337 545.061 279.719 545.061C279.079 545.061 278.577 545.201 278.213 545.481C277.85 545.761 277.594 546.061 277.446 546.379L276.174 545.924C276.401 545.394 276.704 544.981 277.083 544.686C277.465 544.386 277.882 544.178 278.333 544.061C278.787 543.939 279.234 543.879 279.674 543.879C279.954 543.879 280.276 543.913 280.64 543.981C281.007 544.045 281.361 544.18 281.702 544.384C282.047 544.589 282.333 544.898 282.56 545.311C282.787 545.724 282.901 546.277 282.901 546.97V552.72H281.56V551.538H281.492C281.401 551.727 281.249 551.93 281.037 552.146C280.825 552.362 280.543 552.545 280.191 552.697C279.838 552.849 279.408 552.924 278.901 552.924ZM279.105 551.72C279.636 551.72 280.083 551.616 280.446 551.407C280.814 551.199 281.09 550.93 281.276 550.6C281.465 550.271 281.56 549.924 281.56 549.561V548.333C281.503 548.402 281.378 548.464 281.185 548.521C280.996 548.574 280.776 548.621 280.526 548.663C280.28 548.701 280.039 548.735 279.804 548.765C279.573 548.792 279.386 548.814 279.242 548.833C278.893 548.879 278.568 548.953 278.265 549.055C277.965 549.153 277.723 549.303 277.537 549.504C277.355 549.701 277.265 549.97 277.265 550.311C277.265 550.777 277.437 551.129 277.782 551.367C278.13 551.602 278.571 551.72 279.105 551.72ZM285.348 552.72V543.992H286.689V552.72H285.348ZM286.03 542.538C285.769 542.538 285.543 542.449 285.354 542.271C285.168 542.093 285.076 541.879 285.076 541.629C285.076 541.379 285.168 541.165 285.354 540.987C285.543 540.809 285.769 540.72 286.03 540.72C286.292 540.72 286.515 540.809 286.701 540.987C286.89 541.165 286.985 541.379 286.985 541.629C286.985 541.879 286.89 542.093 286.701 542.271C286.515 542.449 286.292 542.538 286.03 542.538ZM295.327 545.947L294.123 546.288C294.047 546.087 293.935 545.892 293.787 545.703C293.643 545.509 293.446 545.35 293.196 545.225C292.946 545.1 292.626 545.038 292.236 545.038C291.702 545.038 291.257 545.161 290.901 545.407C290.549 545.65 290.373 545.958 290.373 546.333C290.373 546.667 290.494 546.93 290.736 547.123C290.979 547.316 291.357 547.477 291.873 547.606L293.168 547.924C293.948 548.114 294.53 548.403 294.912 548.794C295.295 549.18 295.486 549.678 295.486 550.288C295.486 550.788 295.342 551.235 295.054 551.629C294.77 552.023 294.373 552.333 293.861 552.561C293.35 552.788 292.755 552.902 292.077 552.902C291.187 552.902 290.45 552.708 289.867 552.322C289.283 551.936 288.914 551.371 288.759 550.629L290.032 550.311C290.153 550.78 290.382 551.133 290.719 551.367C291.06 551.602 291.505 551.72 292.054 551.72C292.679 551.72 293.176 551.587 293.543 551.322C293.914 551.053 294.1 550.731 294.1 550.356C294.1 550.053 293.994 549.799 293.782 549.595C293.569 549.386 293.244 549.231 292.804 549.129L291.35 548.788C290.551 548.599 289.963 548.305 289.588 547.907C289.217 547.506 289.032 547.004 289.032 546.402C289.032 545.909 289.17 545.474 289.446 545.095C289.727 544.716 290.107 544.419 290.588 544.203C291.073 543.987 291.623 543.879 292.236 543.879C293.1 543.879 293.778 544.068 294.27 544.447C294.766 544.826 295.119 545.326 295.327 545.947Z" fill="#1E1F24"/>
<path d="M771.012 229.461L774.467 239.256H774.603L778.058 229.461H779.535L775.262 241.097H773.808L769.535 229.461H771.012ZM781.166 241.097V232.37H782.507V241.097H781.166ZM781.234 231.188L782.62 228.552H784.188L782.416 231.188H781.234ZM788.258 241.279C787.531 241.279 786.889 241.095 786.332 240.728C785.775 240.357 785.34 239.834 785.025 239.16C784.711 238.482 784.554 237.681 784.554 236.756C784.554 235.84 784.711 235.044 785.025 234.37C785.34 233.696 785.777 233.175 786.338 232.807C786.898 232.44 787.546 232.256 788.281 232.256C788.849 232.256 789.298 232.351 789.627 232.54C789.961 232.726 790.215 232.938 790.389 233.177C790.567 233.412 790.705 233.605 790.804 233.756H790.917V229.461H792.258V241.097H790.963V239.756H790.804C790.705 239.915 790.565 240.116 790.383 240.359C790.201 240.597 789.942 240.811 789.605 241.001C789.268 241.186 788.819 241.279 788.258 241.279ZM788.44 240.074C788.978 240.074 789.432 239.934 789.804 239.654C790.175 239.37 790.457 238.978 790.65 238.478C790.843 237.974 790.94 237.393 790.94 236.734C790.94 236.082 790.845 235.512 790.656 235.023C790.466 234.531 790.186 234.148 789.815 233.876C789.444 233.599 788.985 233.461 788.44 233.461C787.872 233.461 787.398 233.607 787.019 233.898C786.644 234.186 786.362 234.578 786.173 235.074C785.987 235.567 785.894 236.12 785.894 236.734C785.894 237.355 785.989 237.919 786.179 238.427C786.372 238.931 786.656 239.332 787.031 239.631C787.41 239.927 787.879 240.074 788.44 240.074ZM798.559 241.279C797.718 241.279 796.993 241.093 796.383 240.722C795.777 240.347 795.309 239.824 794.98 239.154C794.654 238.48 794.491 237.696 794.491 236.802C794.491 235.908 794.654 235.12 794.98 234.438C795.309 233.752 795.768 233.218 796.355 232.836C796.946 232.449 797.635 232.256 798.423 232.256C798.877 232.256 799.326 232.332 799.769 232.484C800.213 232.635 800.616 232.881 800.98 233.222C801.343 233.559 801.633 234.006 801.849 234.563C802.065 235.12 802.173 235.806 802.173 236.62V237.188H795.446V236.029H800.809C800.809 235.537 800.711 235.097 800.514 234.711C800.321 234.324 800.044 234.02 799.684 233.796C799.328 233.573 798.908 233.461 798.423 233.461C797.889 233.461 797.427 233.593 797.036 233.859C796.65 234.12 796.353 234.461 796.144 234.881C795.936 235.302 795.832 235.752 795.832 236.234V237.006C795.832 237.665 795.946 238.224 796.173 238.682C796.404 239.137 796.724 239.484 797.133 239.722C797.542 239.957 798.018 240.074 798.559 240.074C798.911 240.074 799.23 240.025 799.514 239.927C799.802 239.824 800.05 239.673 800.258 239.472C800.466 239.268 800.627 239.014 800.741 238.711L802.036 239.074C801.9 239.514 801.671 239.9 801.349 240.234C801.027 240.563 800.629 240.821 800.156 241.006C799.682 241.188 799.15 241.279 798.559 241.279ZM807.758 241.279C806.97 241.279 806.279 241.091 805.684 240.716C805.093 240.341 804.631 239.817 804.298 239.143C803.968 238.468 803.804 237.681 803.804 236.779C803.804 235.87 803.968 235.076 804.298 234.398C804.631 233.72 805.093 233.194 805.684 232.819C806.279 232.444 806.97 232.256 807.758 232.256C808.546 232.256 809.235 232.444 809.826 232.819C810.421 233.194 810.883 233.72 811.213 234.398C811.546 235.076 811.713 235.87 811.713 236.779C811.713 237.681 811.546 238.468 811.213 239.143C810.883 239.817 810.421 240.341 809.826 240.716C809.235 241.091 808.546 241.279 807.758 241.279ZM807.758 240.074C808.357 240.074 808.849 239.921 809.235 239.614C809.622 239.307 809.908 238.904 810.093 238.404C810.279 237.904 810.372 237.362 810.372 236.779C810.372 236.196 810.279 235.652 810.093 235.148C809.908 234.645 809.622 234.237 809.235 233.927C808.849 233.616 808.357 233.461 807.758 233.461C807.16 233.461 806.667 233.616 806.281 233.927C805.894 234.237 805.608 234.645 805.423 235.148C805.237 235.652 805.144 236.196 805.144 236.779C805.144 237.362 805.237 237.904 805.423 238.404C805.608 238.904 805.894 239.307 806.281 239.614C806.667 239.921 807.16 240.074 807.758 240.074ZM819.941 234.324L818.737 234.665C818.661 234.465 818.549 234.27 818.402 234.08C818.258 233.887 818.061 233.728 817.811 233.603C817.561 233.478 817.241 233.415 816.85 233.415C816.316 233.415 815.871 233.538 815.515 233.785C815.163 234.027 814.987 234.336 814.987 234.711C814.987 235.044 815.108 235.307 815.35 235.501C815.593 235.694 815.972 235.855 816.487 235.984L817.782 236.302C818.563 236.491 819.144 236.781 819.527 237.171C819.909 237.557 820.1 238.056 820.1 238.665C820.1 239.165 819.956 239.612 819.669 240.006C819.384 240.4 818.987 240.711 818.475 240.938C817.964 241.165 817.369 241.279 816.691 241.279C815.801 241.279 815.064 241.086 814.481 240.699C813.898 240.313 813.528 239.749 813.373 239.006L814.646 238.688C814.767 239.158 814.996 239.51 815.333 239.745C815.674 239.98 816.119 240.097 816.669 240.097C817.294 240.097 817.79 239.965 818.157 239.699C818.528 239.431 818.714 239.109 818.714 238.734C818.714 238.431 818.608 238.177 818.396 237.972C818.184 237.764 817.858 237.609 817.419 237.506L815.964 237.165C815.165 236.976 814.578 236.682 814.203 236.285C813.831 235.883 813.646 235.381 813.646 234.779C813.646 234.287 813.784 233.851 814.061 233.472C814.341 233.093 814.722 232.796 815.203 232.58C815.688 232.364 816.237 232.256 816.85 232.256C817.714 232.256 818.392 232.446 818.884 232.824C819.381 233.203 819.733 233.703 819.941 234.324ZM770.535 256.097V244.461H771.944V254.847H777.353V256.097H770.535ZM782.899 256.279C782.111 256.279 781.42 256.091 780.825 255.716C780.234 255.341 779.772 254.817 779.438 254.143C779.109 253.468 778.944 252.681 778.944 251.779C778.944 250.87 779.109 250.076 779.438 249.398C779.772 248.72 780.234 248.194 780.825 247.819C781.42 247.444 782.111 247.256 782.899 247.256C783.687 247.256 784.376 247.444 784.967 247.819C785.562 248.194 786.024 248.72 786.353 249.398C786.687 250.076 786.853 250.87 786.853 251.779C786.853 252.681 786.687 253.468 786.353 254.143C786.024 254.817 785.562 255.341 784.967 255.716C784.376 256.091 783.687 256.279 782.899 256.279ZM782.899 255.074C783.497 255.074 783.99 254.921 784.376 254.614C784.762 254.307 785.048 253.904 785.234 253.404C785.42 252.904 785.512 252.362 785.512 251.779C785.512 251.196 785.42 250.652 785.234 250.148C785.048 249.645 784.762 249.237 784.376 248.927C783.99 248.616 783.497 248.461 782.899 248.461C782.3 248.461 781.808 248.616 781.421 248.927C781.035 249.237 780.749 249.645 780.563 250.148C780.378 250.652 780.285 251.196 780.285 251.779C780.285 252.362 780.378 252.904 780.563 253.404C780.749 253.904 781.035 254.307 781.421 254.614C781.808 254.921 782.3 255.074 782.899 255.074ZM790.241 250.847V256.097H788.9V247.37H790.196V248.734H790.309C790.514 248.29 790.824 247.934 791.241 247.665C791.658 247.393 792.196 247.256 792.855 247.256C793.446 247.256 793.963 247.377 794.406 247.62C794.849 247.859 795.194 248.222 795.44 248.711C795.686 249.196 795.809 249.809 795.809 250.552V256.097H794.468V250.643C794.468 249.957 794.29 249.423 793.934 249.04C793.578 248.654 793.09 248.461 792.468 248.461C792.04 248.461 791.658 248.554 791.321 248.739C790.987 248.925 790.724 249.196 790.531 249.552C790.338 249.908 790.241 250.34 790.241 250.847ZM801.782 259.552C801.134 259.552 800.578 259.468 800.112 259.302C799.646 259.139 799.258 258.923 798.947 258.654C798.64 258.389 798.396 258.105 798.214 257.802L799.282 257.052C799.403 257.211 799.557 257.393 799.742 257.597C799.928 257.806 800.182 257.985 800.504 258.137C800.83 258.292 801.256 258.37 801.782 258.37C802.487 258.37 803.068 258.199 803.527 257.859C803.985 257.518 804.214 256.984 804.214 256.256V254.484H804.1C804.002 254.643 803.862 254.84 803.68 255.074C803.502 255.306 803.244 255.512 802.907 255.694C802.574 255.872 802.123 255.961 801.555 255.961C800.85 255.961 800.218 255.794 799.657 255.461C799.1 255.127 798.659 254.643 798.333 254.006C798.011 253.37 797.85 252.597 797.85 251.688C797.85 250.794 798.008 250.016 798.322 249.353C798.636 248.686 799.074 248.171 799.634 247.807C800.195 247.44 800.843 247.256 801.578 247.256C802.146 247.256 802.597 247.351 802.93 247.54C803.267 247.726 803.525 247.938 803.703 248.177C803.884 248.412 804.025 248.605 804.123 248.756H804.259V247.37H805.555V256.347C805.555 257.097 805.384 257.707 805.044 258.177C804.706 258.65 804.252 258.997 803.68 259.216C803.112 259.44 802.479 259.552 801.782 259.552ZM801.737 254.756C802.275 254.756 802.729 254.633 803.1 254.387C803.472 254.141 803.754 253.787 803.947 253.324C804.14 252.862 804.237 252.309 804.237 251.665C804.237 251.037 804.142 250.482 803.953 250.001C803.763 249.52 803.483 249.143 803.112 248.87C802.741 248.597 802.282 248.461 801.737 248.461C801.169 248.461 800.695 248.605 800.316 248.893C799.941 249.181 799.659 249.567 799.47 250.052C799.284 250.537 799.191 251.074 799.191 251.665C799.191 252.271 799.286 252.807 799.475 253.273C799.669 253.735 799.953 254.099 800.328 254.364C800.706 254.626 801.176 254.756 801.737 254.756ZM811.555 256.279C810.767 256.279 810.076 256.091 809.481 255.716C808.89 255.341 808.428 254.817 808.095 254.143C807.765 253.468 807.6 252.681 807.6 251.779C807.6 250.87 807.765 250.076 808.095 249.398C808.428 248.72 808.89 248.194 809.481 247.819C810.076 247.444 810.767 247.256 811.555 247.256C812.343 247.256 813.032 247.444 813.623 247.819C814.218 248.194 814.68 248.72 815.009 249.398C815.343 250.076 815.509 250.87 815.509 251.779C815.509 252.681 815.343 253.468 815.009 254.143C814.68 254.817 814.218 255.341 813.623 255.716C813.032 256.091 812.343 256.279 811.555 256.279ZM811.555 255.074C812.153 255.074 812.646 254.921 813.032 254.614C813.419 254.307 813.705 253.904 813.89 253.404C814.076 252.904 814.169 252.362 814.169 251.779C814.169 251.196 814.076 250.652 813.89 250.148C813.705 249.645 813.419 249.237 813.032 248.927C812.646 248.616 812.153 248.461 811.555 248.461C810.956 248.461 810.464 248.616 810.078 248.927C809.691 249.237 809.405 249.645 809.22 250.148C809.034 250.652 808.941 251.196 808.941 251.779C808.941 252.362 809.034 252.904 809.22 253.404C809.405 253.904 809.691 254.307 810.078 254.614C810.464 254.921 810.956 255.074 811.555 255.074ZM823.738 249.324L822.534 249.665C822.458 249.465 822.346 249.27 822.198 249.08C822.054 248.887 821.858 248.728 821.608 248.603C821.358 248.478 821.037 248.415 820.647 248.415C820.113 248.415 819.668 248.538 819.312 248.785C818.96 249.027 818.784 249.336 818.784 249.711C818.784 250.044 818.905 250.307 819.147 250.501C819.39 250.694 819.768 250.855 820.284 250.984L821.579 251.302C822.359 251.491 822.941 251.781 823.323 252.171C823.706 252.557 823.897 253.056 823.897 253.665C823.897 254.165 823.753 254.612 823.465 255.006C823.181 255.4 822.784 255.711 822.272 255.938C821.761 256.165 821.166 256.279 820.488 256.279C819.598 256.279 818.861 256.086 818.278 255.699C817.695 255.313 817.325 254.749 817.17 254.006L818.443 253.688C818.564 254.158 818.793 254.51 819.13 254.745C819.471 254.98 819.916 255.097 820.465 255.097C821.09 255.097 821.587 254.965 821.954 254.699C822.325 254.431 822.511 254.109 822.511 253.734C822.511 253.431 822.405 253.177 822.193 252.972C821.981 252.764 821.655 252.609 821.215 252.506L819.761 252.165C818.962 251.976 818.375 251.682 818 251.285C817.628 250.883 817.443 250.381 817.443 249.779C817.443 249.287 817.581 248.851 817.858 248.472C818.138 248.093 818.518 247.796 819 247.58C819.484 247.364 820.034 247.256 820.647 247.256C821.511 247.256 822.189 247.446 822.681 247.824C823.178 248.203 823.53 248.703 823.738 249.324Z" fill="#1E1F24"/>
<path d="M732.866 402.242H731.456C731.373 401.836 731.227 401.48 731.019 401.174C730.814 400.867 730.564 400.609 730.269 400.401C729.977 400.189 729.653 400.03 729.297 399.924C728.941 399.817 728.57 399.764 728.184 399.764C727.479 399.764 726.841 399.942 726.269 400.299C725.701 400.655 725.248 401.179 724.911 401.872C724.578 402.566 724.411 403.416 724.411 404.424C724.411 405.431 724.578 406.281 724.911 406.975C725.248 407.668 725.701 408.192 726.269 408.549C726.841 408.905 727.479 409.083 728.184 409.083C728.57 409.083 728.941 409.03 729.297 408.924C729.653 408.817 729.977 408.66 730.269 408.452C730.564 408.24 730.814 407.98 731.019 407.674C731.227 407.363 731.373 407.007 731.456 406.605H732.866C732.759 407.2 732.566 407.732 732.286 408.202C732.006 408.672 731.657 409.071 731.241 409.401C730.824 409.727 730.356 409.975 729.837 410.145C729.322 410.316 728.771 410.401 728.184 410.401C727.191 410.401 726.309 410.158 725.536 409.674C724.763 409.189 724.155 408.499 723.712 407.605C723.269 406.711 723.047 405.651 723.047 404.424C723.047 403.196 723.269 402.136 723.712 401.242C724.155 400.348 724.763 399.658 725.536 399.174C726.309 398.689 727.191 398.446 728.184 398.446C728.771 398.446 729.322 398.531 729.837 398.702C730.356 398.872 730.824 399.122 731.241 399.452C731.657 399.778 732.006 400.175 732.286 400.645C732.566 401.111 732.759 401.643 732.866 402.242ZM738.506 410.424C737.718 410.424 737.027 410.236 736.432 409.861C735.841 409.486 735.379 408.961 735.046 408.287C734.716 407.613 734.552 406.825 734.552 405.924C734.552 405.014 734.716 404.221 735.046 403.543C735.379 402.865 735.841 402.338 736.432 401.963C737.027 401.588 737.718 401.401 738.506 401.401C739.294 401.401 739.983 401.588 740.574 401.963C741.169 402.338 741.631 402.865 741.961 403.543C742.294 404.221 742.461 405.014 742.461 405.924C742.461 406.825 742.294 407.613 741.961 408.287C741.631 408.961 741.169 409.486 740.574 409.861C739.983 410.236 739.294 410.424 738.506 410.424ZM738.506 409.219C739.105 409.219 739.597 409.066 739.983 408.759C740.37 408.452 740.656 408.049 740.841 407.549C741.027 407.049 741.12 406.507 741.12 405.924C741.12 405.34 741.027 404.797 740.841 404.293C740.656 403.789 740.37 403.382 739.983 403.071C739.597 402.761 739.105 402.605 738.506 402.605C737.908 402.605 737.415 402.761 737.029 403.071C736.642 403.382 736.357 403.789 736.171 404.293C735.985 404.797 735.892 405.34 735.892 405.924C735.892 406.507 735.985 407.049 736.171 407.549C736.357 408.049 736.642 408.452 737.029 408.759C737.415 409.066 737.908 409.219 738.506 409.219ZM744.508 410.242V401.514H745.803V402.833H745.894C746.053 402.401 746.341 402.05 746.758 401.781C747.174 401.513 747.644 401.378 748.167 401.378C748.265 401.378 748.388 401.38 748.536 401.384C748.684 401.388 748.795 401.393 748.871 401.401V402.764C748.826 402.753 748.722 402.736 748.559 402.713C748.4 402.687 748.231 402.674 748.053 402.674C747.629 402.674 747.25 402.763 746.917 402.941C746.587 403.115 746.326 403.357 746.133 403.668C745.943 403.975 745.848 404.325 745.848 404.719V410.242H744.508ZM754.803 401.514V402.651H750.28V401.514H754.803ZM751.598 399.424H752.939V407.742C752.939 408.12 752.994 408.405 753.104 408.594C753.218 408.78 753.362 408.905 753.536 408.969C753.714 409.03 753.901 409.06 754.098 409.06C754.246 409.06 754.367 409.052 754.462 409.037C754.557 409.018 754.633 409.003 754.689 408.992L754.962 410.196C754.871 410.23 754.744 410.264 754.581 410.299C754.419 410.336 754.212 410.355 753.962 410.355C753.583 410.355 753.212 410.274 752.848 410.111C752.489 409.948 752.189 409.7 751.951 409.367C751.716 409.033 751.598 408.613 751.598 408.105V399.424ZM760.385 410.424C759.544 410.424 758.819 410.238 758.209 409.867C757.603 409.492 757.135 408.969 756.806 408.299C756.48 407.624 756.317 406.84 756.317 405.946C756.317 405.052 756.48 404.264 756.806 403.583C757.135 402.897 757.594 402.363 758.181 401.98C758.772 401.594 759.461 401.401 760.249 401.401C760.704 401.401 761.152 401.477 761.596 401.628C762.039 401.78 762.442 402.026 762.806 402.367C763.169 402.704 763.459 403.151 763.675 403.708C763.891 404.264 763.999 404.95 763.999 405.764V406.333H757.272V405.174H762.635C762.635 404.681 762.537 404.242 762.34 403.855C762.147 403.469 761.87 403.164 761.51 402.941C761.154 402.717 760.734 402.605 760.249 402.605C759.715 402.605 759.253 402.738 758.863 403.003C758.476 403.264 758.179 403.605 757.971 404.026C757.762 404.446 757.658 404.897 757.658 405.378V406.151C757.658 406.81 757.772 407.369 757.999 407.827C758.23 408.281 758.55 408.628 758.959 408.867C759.368 409.102 759.844 409.219 760.385 409.219C760.738 409.219 761.056 409.17 761.34 409.071C761.628 408.969 761.876 408.817 762.084 408.617C762.293 408.412 762.454 408.158 762.567 407.855L763.863 408.219C763.726 408.658 763.497 409.045 763.175 409.378C762.853 409.708 762.455 409.965 761.982 410.151C761.508 410.333 760.976 410.424 760.385 410.424ZM772.221 403.469L771.016 403.81C770.94 403.609 770.829 403.414 770.681 403.225C770.537 403.031 770.34 402.872 770.09 402.747C769.84 402.622 769.52 402.56 769.13 402.56C768.596 402.56 768.151 402.683 767.794 402.929C767.442 403.172 767.266 403.48 767.266 403.855C767.266 404.189 767.387 404.452 767.63 404.645C767.872 404.838 768.251 404.999 768.766 405.128L770.062 405.446C770.842 405.636 771.423 405.925 771.806 406.316C772.188 406.702 772.38 407.2 772.38 407.81C772.38 408.31 772.236 408.757 771.948 409.151C771.664 409.545 771.266 409.855 770.755 410.083C770.243 410.31 769.649 410.424 768.971 410.424C768.08 410.424 767.344 410.23 766.76 409.844C766.177 409.458 765.808 408.893 765.652 408.151L766.925 407.833C767.046 408.302 767.276 408.655 767.613 408.889C767.954 409.124 768.399 409.242 768.948 409.242C769.573 409.242 770.069 409.109 770.437 408.844C770.808 408.575 770.993 408.253 770.993 407.878C770.993 407.575 770.887 407.321 770.675 407.117C770.463 406.908 770.137 406.753 769.698 406.651L768.243 406.31C767.444 406.12 766.857 405.827 766.482 405.429C766.111 405.028 765.925 404.526 765.925 403.924C765.925 403.431 766.063 402.995 766.34 402.617C766.62 402.238 767.001 401.941 767.482 401.725C767.967 401.509 768.516 401.401 769.13 401.401C769.993 401.401 770.671 401.59 771.164 401.969C771.66 402.348 772.012 402.848 772.221 403.469ZM723.979 416.605L727.434 426.401H727.57L731.025 416.605H732.502L728.229 428.242H726.775L722.502 416.605H723.979ZM734.133 428.242V419.514H735.473V428.242H734.133ZM734.201 418.333L735.587 415.696H737.155L735.383 418.333H734.201ZM741.225 428.424C740.498 428.424 739.856 428.24 739.299 427.872C738.742 427.501 738.306 426.978 737.992 426.304C737.678 425.626 737.52 424.825 737.52 423.901C737.52 422.984 737.678 422.189 737.992 421.514C738.306 420.84 738.744 420.319 739.304 419.952C739.865 419.585 740.513 419.401 741.248 419.401C741.816 419.401 742.265 419.495 742.594 419.685C742.928 419.87 743.181 420.083 743.356 420.321C743.534 420.556 743.672 420.749 743.77 420.901H743.884V416.605H745.225V428.242H743.929V426.901H743.77C743.672 427.06 743.532 427.261 743.35 427.503C743.168 427.742 742.909 427.956 742.571 428.145C742.234 428.331 741.785 428.424 741.225 428.424ZM741.407 427.219C741.945 427.219 742.399 427.079 742.77 426.799C743.142 426.514 743.424 426.122 743.617 425.622C743.81 425.119 743.907 424.537 743.907 423.878C743.907 423.227 743.812 422.656 743.623 422.168C743.433 421.675 743.153 421.293 742.782 421.02C742.41 420.744 741.952 420.605 741.407 420.605C740.839 420.605 740.365 420.751 739.986 421.043C739.611 421.331 739.329 421.723 739.14 422.219C738.954 422.711 738.861 423.264 738.861 423.878C738.861 424.499 738.956 425.064 739.145 425.571C739.339 426.075 739.623 426.477 739.998 426.776C740.376 427.071 740.846 427.219 741.407 427.219ZM751.526 428.424C750.685 428.424 749.96 428.238 749.35 427.867C748.744 427.492 748.276 426.969 747.946 426.299C747.621 425.624 747.458 424.84 747.458 423.946C747.458 423.052 747.621 422.264 747.946 421.583C748.276 420.897 748.734 420.363 749.321 419.98C749.912 419.594 750.602 419.401 751.39 419.401C751.844 419.401 752.293 419.477 752.736 419.628C753.179 419.78 753.583 420.026 753.946 420.367C754.31 420.704 754.6 421.151 754.816 421.708C755.032 422.264 755.14 422.95 755.14 423.764V424.333H748.412V423.174H753.776C753.776 422.681 753.678 422.242 753.481 421.855C753.287 421.469 753.011 421.164 752.651 420.941C752.295 420.717 751.874 420.605 751.39 420.605C750.856 420.605 750.393 420.738 750.003 421.003C749.617 421.264 749.32 421.605 749.111 422.026C748.903 422.446 748.799 422.897 748.799 423.378V424.151C748.799 424.81 748.912 425.369 749.14 425.827C749.371 426.281 749.691 426.628 750.1 426.867C750.509 427.102 750.984 427.219 751.526 427.219C751.878 427.219 752.196 427.17 752.481 427.071C752.768 426.969 753.017 426.817 753.225 426.617C753.433 426.412 753.594 426.158 753.708 425.855L755.003 426.219C754.867 426.658 754.638 427.045 754.316 427.378C753.994 427.708 753.596 427.965 753.123 428.151C752.649 428.333 752.117 428.424 751.526 428.424ZM760.725 428.424C759.937 428.424 759.246 428.236 758.651 427.861C758.06 427.486 757.598 426.961 757.265 426.287C756.935 425.613 756.77 424.825 756.77 423.924C756.77 423.014 756.935 422.221 757.265 421.543C757.598 420.865 758.06 420.338 758.651 419.963C759.246 419.588 759.937 419.401 760.725 419.401C761.513 419.401 762.202 419.588 762.793 419.963C763.388 420.338 763.85 420.865 764.179 421.543C764.513 422.221 764.679 423.014 764.679 423.924C764.679 424.825 764.513 425.613 764.179 426.287C763.85 426.961 763.388 427.486 762.793 427.861C762.202 428.236 761.513 428.424 760.725 428.424ZM760.725 427.219C761.323 427.219 761.816 427.066 762.202 426.759C762.589 426.452 762.874 426.049 763.06 425.549C763.246 425.049 763.339 424.507 763.339 423.924C763.339 423.34 763.246 422.797 763.06 422.293C762.874 421.789 762.589 421.382 762.202 421.071C761.816 420.761 761.323 420.605 760.725 420.605C760.126 420.605 759.634 420.761 759.248 421.071C758.861 421.382 758.575 421.789 758.39 422.293C758.204 422.797 758.111 423.34 758.111 423.924C758.111 424.507 758.204 425.049 758.39 425.549C758.575 426.049 758.861 426.452 759.248 426.759C759.634 427.066 760.126 427.219 760.725 427.219ZM772.908 421.469L771.704 421.81C771.628 421.609 771.516 421.414 771.368 421.225C771.224 421.031 771.027 420.872 770.777 420.747C770.527 420.622 770.207 420.56 769.817 420.56C769.283 420.56 768.838 420.683 768.482 420.929C768.13 421.172 767.954 421.48 767.954 421.855C767.954 422.189 768.075 422.452 768.317 422.645C768.56 422.838 768.938 422.999 769.454 423.128L770.749 423.446C771.529 423.636 772.111 423.925 772.493 424.316C772.876 424.702 773.067 425.2 773.067 425.81C773.067 426.31 772.923 426.757 772.635 427.151C772.351 427.545 771.954 427.855 771.442 428.083C770.931 428.31 770.336 428.424 769.658 428.424C768.768 428.424 768.031 428.23 767.448 427.844C766.865 427.458 766.495 426.893 766.34 426.151L767.613 425.833C767.734 426.302 767.963 426.655 768.3 426.889C768.641 427.124 769.086 427.242 769.635 427.242C770.26 427.242 770.757 427.109 771.124 426.844C771.495 426.575 771.681 426.253 771.681 425.878C771.681 425.575 771.575 425.321 771.363 425.117C771.151 424.908 770.825 424.753 770.385 424.651L768.931 424.31C768.132 424.12 767.544 423.827 767.169 423.429C766.798 423.028 766.613 422.526 766.613 421.924C766.613 421.431 766.751 420.995 767.027 420.617C767.308 420.238 767.688 419.941 768.169 419.725C768.654 419.509 769.204 419.401 769.817 419.401C770.681 419.401 771.359 419.59 771.851 419.969C772.348 420.348 772.7 420.848 772.908 421.469ZM723.502 446.242V434.605H724.911V439.787H731.116V434.605H732.525V446.242H731.116V441.037H724.911V446.242H723.502ZM738.709 446.424C737.921 446.424 737.23 446.236 736.635 445.861C736.044 445.486 735.582 444.961 735.249 444.287C734.919 443.613 734.755 442.825 734.755 441.924C734.755 441.014 734.919 440.221 735.249 439.543C735.582 438.865 736.044 438.338 736.635 437.963C737.23 437.588 737.921 437.401 738.709 437.401C739.497 437.401 740.187 437.588 740.777 437.963C741.372 438.338 741.834 438.865 742.164 439.543C742.497 440.221 742.664 441.014 742.664 441.924C742.664 442.825 742.497 443.613 742.164 444.287C741.834 444.961 741.372 445.486 740.777 445.861C740.187 446.236 739.497 446.424 738.709 446.424ZM738.709 445.219C739.308 445.219 739.8 445.066 740.187 444.759C740.573 444.452 740.859 444.049 741.044 443.549C741.23 443.049 741.323 442.507 741.323 441.924C741.323 441.34 741.23 440.797 741.044 440.293C740.859 439.789 740.573 439.382 740.187 439.071C739.8 438.761 739.308 438.605 738.709 438.605C738.111 438.605 737.618 438.761 737.232 439.071C736.846 439.382 736.56 439.789 736.374 440.293C736.188 440.797 736.096 441.34 736.096 441.924C736.096 442.507 736.188 443.049 736.374 443.549C736.56 444.049 736.846 444.452 737.232 444.759C737.618 445.066 738.111 445.219 738.709 445.219ZM744.711 446.242V437.514H746.006V438.833H746.097C746.256 438.401 746.544 438.05 746.961 437.781C747.377 437.513 747.847 437.378 748.37 437.378C748.468 437.378 748.591 437.38 748.739 437.384C748.887 437.388 748.999 437.393 749.074 437.401V438.764C749.029 438.753 748.925 438.736 748.762 438.713C748.603 438.687 748.434 438.674 748.256 438.674C747.832 438.674 747.453 438.763 747.12 438.941C746.79 439.115 746.529 439.357 746.336 439.668C746.146 439.975 746.052 440.325 746.052 440.719V446.242H744.711ZM750.664 446.242V437.514H752.005V446.242H750.664ZM751.346 436.06C751.084 436.06 750.859 435.971 750.669 435.793C750.484 435.615 750.391 435.401 750.391 435.151C750.391 434.901 750.484 434.687 750.669 434.509C750.859 434.331 751.084 434.242 751.346 434.242C751.607 434.242 751.83 434.331 752.016 434.509C752.205 434.687 752.3 434.901 752.3 435.151C752.3 435.401 752.205 435.615 752.016 435.793C751.83 435.971 751.607 436.06 751.346 436.06ZM754.211 446.242V445.219L759.165 438.855V438.764H754.37V437.514H760.892V438.583L756.074 444.901V444.992H761.052V446.242H754.211ZM766.412 446.424C765.624 446.424 764.933 446.236 764.339 445.861C763.748 445.486 763.285 444.961 762.952 444.287C762.623 443.613 762.458 442.825 762.458 441.924C762.458 441.014 762.623 440.221 762.952 439.543C763.285 438.865 763.748 438.338 764.339 437.963C764.933 437.588 765.624 437.401 766.412 437.401C767.2 437.401 767.89 437.588 768.481 437.963C769.075 438.338 769.537 438.865 769.867 439.543C770.2 440.221 770.367 441.014 770.367 441.924C770.367 442.825 770.2 443.613 769.867 444.287C769.537 444.961 769.075 445.486 768.481 445.861C767.89 446.236 767.2 446.424 766.412 446.424ZM766.412 445.219C767.011 445.219 767.503 445.066 767.89 444.759C768.276 444.452 768.562 444.049 768.748 443.549C768.933 443.049 769.026 442.507 769.026 441.924C769.026 441.34 768.933 440.797 768.748 440.293C768.562 439.789 768.276 439.382 767.89 439.071C767.503 438.761 767.011 438.605 766.412 438.605C765.814 438.605 765.321 438.761 764.935 439.071C764.549 439.382 764.263 439.789 764.077 440.293C763.892 440.797 763.799 441.34 763.799 441.924C763.799 442.507 763.892 443.049 764.077 443.549C764.263 444.049 764.549 444.452 764.935 444.759C765.321 445.066 765.814 445.219 766.412 445.219ZM773.755 440.992V446.242H772.414V437.514H773.709V438.878H773.823C774.027 438.435 774.338 438.079 774.755 437.81C775.171 437.537 775.709 437.401 776.368 437.401C776.959 437.401 777.476 437.522 777.919 437.764C778.363 438.003 778.707 438.367 778.954 438.855C779.2 439.34 779.323 439.954 779.323 440.696V446.242H777.982V440.787C777.982 440.102 777.804 439.567 777.448 439.185C777.092 438.799 776.603 438.605 775.982 438.605C775.554 438.605 775.171 438.698 774.834 438.884C774.501 439.069 774.238 439.34 774.044 439.696C773.851 440.052 773.755 440.484 773.755 440.992ZM785.569 437.514V438.651H781.046V437.514H785.569ZM782.364 435.424H783.705V443.742C783.705 444.12 783.76 444.405 783.87 444.594C783.983 444.78 784.127 444.905 784.302 444.969C784.48 445.03 784.667 445.06 784.864 445.06C785.012 445.06 785.133 445.052 785.228 445.037C785.322 445.018 785.398 445.003 785.455 444.992L785.728 446.196C785.637 446.23 785.51 446.264 785.347 446.299C785.184 446.336 784.978 446.355 784.728 446.355C784.349 446.355 783.978 446.274 783.614 446.111C783.254 445.948 782.955 445.7 782.716 445.367C782.482 445.033 782.364 444.613 782.364 444.105V435.424ZM790.154 446.446C789.601 446.446 789.099 446.342 788.648 446.134C788.197 445.922 787.839 445.617 787.574 445.219C787.309 444.817 787.177 444.333 787.177 443.764C787.177 443.264 787.275 442.859 787.472 442.549C787.669 442.234 787.932 441.988 788.262 441.81C788.591 441.632 788.955 441.499 789.353 441.412C789.754 441.321 790.158 441.249 790.563 441.196C791.093 441.128 791.523 441.077 791.853 441.043C792.186 441.005 792.428 440.942 792.58 440.855C792.735 440.768 792.813 440.617 792.813 440.401V440.355C792.813 439.795 792.66 439.359 792.353 439.049C792.05 438.738 791.589 438.583 790.972 438.583C790.332 438.583 789.83 438.723 789.466 439.003C789.103 439.283 788.847 439.583 788.699 439.901L787.427 439.446C787.654 438.916 787.957 438.503 788.336 438.208C788.718 437.908 789.135 437.7 789.586 437.583C790.04 437.461 790.487 437.401 790.927 437.401C791.207 437.401 791.529 437.435 791.892 437.503C792.26 437.567 792.614 437.702 792.955 437.906C793.3 438.111 793.586 438.42 793.813 438.833C794.04 439.245 794.154 439.799 794.154 440.492V446.242H792.813V445.06H792.745C792.654 445.249 792.502 445.452 792.29 445.668C792.078 445.884 791.796 446.067 791.444 446.219C791.091 446.37 790.661 446.446 790.154 446.446ZM790.358 445.242C790.889 445.242 791.336 445.138 791.699 444.929C792.067 444.721 792.343 444.452 792.529 444.122C792.718 443.793 792.813 443.446 792.813 443.083V441.855C792.756 441.924 792.631 441.986 792.438 442.043C792.249 442.096 792.029 442.143 791.779 442.185C791.533 442.223 791.292 442.257 791.057 442.287C790.826 442.314 790.639 442.336 790.495 442.355C790.146 442.401 789.821 442.475 789.517 442.577C789.218 442.675 788.976 442.825 788.79 443.026C788.608 443.223 788.517 443.492 788.517 443.833C788.517 444.299 788.69 444.651 789.035 444.889C789.383 445.124 789.824 445.242 790.358 445.242ZM796.601 446.242V437.514H797.942V446.242H796.601ZM797.283 436.06C797.022 436.06 796.796 435.971 796.607 435.793C796.421 435.615 796.329 435.401 796.329 435.151C796.329 434.901 796.421 434.687 796.607 434.509C796.796 434.331 797.022 434.242 797.283 434.242C797.544 434.242 797.768 434.331 797.954 434.509C798.143 434.687 798.238 434.901 798.238 435.151C798.238 435.401 798.143 435.615 797.954 435.793C797.768 435.971 797.544 436.06 797.283 436.06ZM806.58 439.469L805.375 439.81C805.3 439.609 805.188 439.414 805.04 439.225C804.896 439.031 804.699 438.872 804.449 438.747C804.199 438.622 803.879 438.56 803.489 438.56C802.955 438.56 802.51 438.683 802.154 438.929C801.802 439.172 801.625 439.48 801.625 439.855C801.625 440.189 801.747 440.452 801.989 440.645C802.232 440.838 802.61 440.999 803.125 441.128L804.421 441.446C805.201 441.636 805.783 441.925 806.165 442.316C806.548 442.702 806.739 443.2 806.739 443.81C806.739 444.31 806.595 444.757 806.307 445.151C806.023 445.545 805.625 445.855 805.114 446.083C804.603 446.31 804.008 446.424 803.33 446.424C802.44 446.424 801.703 446.23 801.12 445.844C800.536 445.458 800.167 444.893 800.012 444.151L801.285 443.833C801.406 444.302 801.635 444.655 801.972 444.889C802.313 445.124 802.758 445.242 803.307 445.242C803.932 445.242 804.428 445.109 804.796 444.844C805.167 444.575 805.353 444.253 805.353 443.878C805.353 443.575 805.247 443.321 805.035 443.117C804.822 442.908 804.497 442.753 804.057 442.651L802.603 442.31C801.803 442.12 801.216 441.827 800.841 441.429C800.47 441.028 800.285 440.526 800.285 439.924C800.285 439.431 800.423 438.995 800.699 438.617C800.98 438.238 801.36 437.941 801.841 437.725C802.326 437.509 802.875 437.401 803.489 437.401C804.353 437.401 805.031 437.59 805.523 437.969C806.019 438.348 806.372 438.848 806.58 439.469Z" fill="#1E1F24"/>
<defs>
<filter id="filter0_f_1736_3161" x="0.941406" y="0.0913086" width="796.183" height="730.256" filterUnits="userSpaceOnUse" color-interpolation-filters="sRGB">
<feFlood flood-opacity="0" result="BackgroundImageFix"/>
<feBlend mode="normal" in="SourceGraphic" in2="BackgroundImageFix" result="shape"/>
<feGaussianBlur stdDeviation="75" result="effect1_foregroundBlur_1736_3161"/>
</filter>
<filter id="filter1_d_1736_3161" x="344.545" y="171.879" width="391.348" height="211.235" filterUnits="userSpaceOnUse" color-interpolation-filters="sRGB">
<feFlood flood-opacity="0" result="BackgroundImageFix"/>
<feColorMatrix in="SourceAlpha" type="matrix" values="0 0 0 0 0 0 0 0 0 0 0 0 0 0 0 0 0 0 127 0" result="hardAlpha"/>
<feMorphology radius="24" operator="erode" in="SourceAlpha" result="effect1_dropShadow_1736_3161"/>
<feOffset dx="6" dy="31"/>
<feGaussianBlur stdDeviation="15.9"/>
<feComposite in2="hardAlpha" operator="out"/>
<feColorMatrix type="matrix" values="0 0 0 0 0 0 0 0 0 0 0 0 0 0 0 0 0 0 0.16 0"/>
<feBlend mode="normal" in2="BackgroundImageFix" result="effect1_dropShadow_1736_3161"/>
<feBlend mode="normal" in="SourceGraphic" in2="effect1_dropShadow_1736_3161" result="shape"/>
</filter>
<filter id="filter2_d_1736_3161" x="382.123" y="382.612" width="298.424" height="161.078" filterUnits="userSpaceOnUse" color-interpolation-filters="sRGB">
<feFlood flood-opacity="0" result="BackgroundImageFix"/>
<feColorMatrix in="SourceAlpha" type="matrix" values="0 0 0 0 0 0 0 0 0 0 0 0 0 0 0 0 0 0 127 0" result="hardAlpha"/>
<feMorphology radius="18.3013" operator="erode" in="SourceAlpha" result="effect1_dropShadow_1736_3161"/>
<feOffset dx="4.57533" dy="23.6392"/>
<feGaussianBlur stdDeviation="12.1246"/>
<feComposite in2="hardAlpha" operator="out"/>
<feColorMatrix type="matrix" values="0 0 0 0 0 0 0 0 0 0 0 0 0 0 0 0 0 0 0.16 0"/>
<feBlend mode="normal" in2="BackgroundImageFix" result="effect1_dropShadow_1736_3161"/>
<feBlend mode="normal" in="SourceGraphic" in2="effect1_dropShadow_1736_3161" result="shape"/>
</filter>
<filter id="filter3_d_1736_3161" x="119.172" y="171.879" width="208.517" height="383.936" filterUnits="userSpaceOnUse" color-interpolation-filters="sRGB">
<feFlood flood-opacity="0" result="BackgroundImageFix"/>
<feColorMatrix in="SourceAlpha" type="matrix" values="0 0 0 0 0 0 0 0 0 0 0 0 0 0 0 0 0 0 127 0" result="hardAlpha"/>
<feMorphology radius="25.8018" operator="erode" in="SourceAlpha" result="effect1_dropShadow_1736_3161"/>
<feOffset dx="6.45045" dy="33.3273"/>
<feGaussianBlur stdDeviation="17.0937"/>
<feComposite in2="hardAlpha" operator="out"/>
<feColorMatrix type="matrix" values="0 0 0 0 0 0 0 0 0 0 0 0 0 0 0 0 0 0 0.16 0"/>
<feBlend mode="normal" in2="BackgroundImageFix" result="effect1_dropShadow_1736_3161"/>
<feBlend mode="normal" in="SourceGraphic" in2="effect1_dropShadow_1736_3161" result="shape"/>
</filter>
<linearGradient id="paint0_linear_1736_3161" x1="618.174" y1="565.281" x2="350.62" y2="308.882" gradientUnits="userSpaceOnUse">
<stop stop-color="#CAFF1F"/>
<stop offset="0.676598" stop-color="#32FECA"/>
</linearGradient>
</defs>
</svg>
