<svg width="828" height="731" viewBox="0 0 828 731" fill="none" xmlns="http://www.w3.org/2000/svg">
<g filter="url(#filter0_f_1739_3161)">
<path d="M641.913 484.077C616.851 416.007 532.461 332.754 565.034 268.25C588.433 221.911 550.951 185.084 522.8 168.31L416.33 150.618C303.676 256.574 134.408 292.206 152.838 310.664C175.874 333.737 244.361 514.54 274.732 498.908C305.102 483.277 338.794 485.595 464.187 552.293C589.58 618.99 666.975 552.147 641.913 484.077Z" fill="url(#paint0_linear_1739_3161)"/>
<path d="M513.668 163.385C516.523 164.757 519.601 166.404 522.8 168.31M522.8 168.31C550.951 185.084 588.433 221.911 565.034 268.25C532.461 332.754 616.851 416.007 641.913 484.077C666.975 552.147 589.58 618.99 464.187 552.293C338.794 485.595 305.102 483.277 274.732 498.908C244.361 514.54 175.874 333.737 152.838 310.664C134.408 292.206 303.676 256.574 416.33 150.618L522.8 168.31Z" stroke="black"/>
</g>
<g filter="url(#filter1_d_1739_3161)">
<rect x="722.093" y="171.879" width="172.435" height="375.748" rx="11" transform="rotate(90 722.093 171.879)" fill="#D9D9D9" fill-opacity="0.34" shape-rendering="crispEdges"/>
<rect x="721.593" y="172.379" width="171.435" height="374.748" rx="10.5" transform="rotate(90 721.593 172.379)" stroke="white" shape-rendering="crispEdges"/>
</g>
<g filter="url(#filter2_d_1739_3161)">
<rect x="670.023" y="382.612" width="131.491" height="286.529" rx="8.38811" transform="rotate(90 670.023 382.612)" fill="#D9D9D9" fill-opacity="0.34" shape-rendering="crispEdges"/>
<rect x="669.642" y="382.993" width="130.729" height="285.766" rx="8.00683" transform="rotate(90 669.642 382.993)" stroke="white" stroke-width="0.762555" shape-rendering="crispEdges"/>
</g>
<g filter="url(#filter3_d_1739_3161)">
<rect x="121.107" y="171.879" width="191.746" height="342.223" rx="11.8258" fill="#D9D9D9" fill-opacity="0.34" shape-rendering="crispEdges"/>
<rect x="121.645" y="172.417" width="190.671" height="341.148" rx="11.2883" stroke="white" stroke-width="1.07507" shape-rendering="crispEdges"/>
</g>
<path d="M547.125 223.85H521.308C508.873 223.85 498.793 233.595 498.793 245.617V270.577C498.793 282.599 508.873 292.345 521.308 292.345H547.125C559.56 292.345 569.64 282.599 569.64 270.577V245.617C569.64 233.595 559.56 223.85 547.125 223.85Z" fill="#F7F7F7" fill-opacity="0.6"/>
<path d="M525.229 270.367V245.857C525.229 244.507 526.871 243.717 528.047 244.515L545.171 256.027C546.69 257.046 546.69 259.16 545.171 260.179L527.995 271.691C526.844 272.464 525.229 271.691 525.229 270.375V270.367Z" fill="#1E1F24"/>
<path d="M536.6 422.242H516.913C507.431 422.242 499.744 429.674 499.744 438.841V457.875C499.744 467.042 507.431 474.474 516.913 474.474H536.6C546.082 474.474 553.769 467.042 553.769 457.875V438.841C553.769 429.674 546.082 422.242 536.6 422.242Z" fill="#F7F7F7" fill-opacity="0.6"/>
<path d="M519.902 457.714V439.024C519.902 437.995 521.155 437.392 522.052 438.001L535.109 446.78C536.268 447.556 536.268 449.168 535.109 449.945L522.012 458.724C521.134 459.313 519.902 458.724 519.902 457.72V457.714Z" fill="#1E1F24"/>
<path d="M228.193 313.242H205.768C194.966 313.242 186.21 321.708 186.21 332.15V353.832C186.21 364.274 194.966 372.74 205.768 372.74H228.193C238.995 372.74 247.751 364.274 247.751 353.832V332.15C247.751 321.708 238.995 313.242 228.193 313.242Z" fill="#F7F7F7" fill-opacity="0.6"/>
<path d="M209.173 353.649V332.359C209.173 331.186 210.599 330.5 211.621 331.194L226.496 341.193C227.815 342.078 227.815 343.915 226.496 344.8L211.576 354.799C210.576 355.471 209.173 354.799 209.173 353.656V353.649Z" fill="#1E1F24"/>
<rect x="650.331" y="305.63" width="57.923" height="31" rx="4" fill="black" fill-opacity="0.67"/>
<path d="M659.118 326.63V325.079L662.743 321.723C663.051 321.425 663.309 321.157 663.518 320.918C663.73 320.679 663.891 320.446 664 320.217C664.11 319.985 664.164 319.735 664.164 319.466C664.164 319.168 664.096 318.911 663.961 318.696C663.825 318.477 663.639 318.31 663.404 318.194C663.168 318.074 662.902 318.015 662.603 318.015C662.292 318.015 662.02 318.078 661.788 318.204C661.556 318.329 661.377 318.51 661.251 318.745C661.125 318.981 661.062 319.261 661.062 319.586H659.019C659.019 318.919 659.17 318.341 659.471 317.851C659.773 317.36 660.195 316.981 660.739 316.712C661.283 316.444 661.909 316.309 662.618 316.309C663.347 316.309 663.982 316.439 664.522 316.697C665.066 316.952 665.489 317.307 665.79 317.761C666.092 318.215 666.243 318.735 666.243 319.322C666.243 319.707 666.166 320.086 666.014 320.461C665.865 320.835 665.598 321.251 665.213 321.708C664.829 322.163 664.287 322.708 663.588 323.344L662.101 324.801V324.87H666.377V326.63H659.118ZM671.929 326.854C671.074 326.851 670.338 326.64 669.721 326.223C669.108 325.805 668.636 325.2 668.305 324.408C667.976 323.616 667.814 322.663 667.817 321.549C667.817 320.439 667.981 319.493 668.309 318.711C668.641 317.928 669.113 317.333 669.726 316.926C670.343 316.515 671.077 316.309 671.929 316.309C672.781 316.309 673.513 316.515 674.126 316.926C674.743 317.337 675.217 317.933 675.548 318.716C675.88 319.494 676.044 320.439 676.04 321.549C676.04 322.666 675.875 323.621 675.543 324.413C675.215 325.205 674.744 325.81 674.131 326.228C673.518 326.645 672.784 326.854 671.929 326.854ZM671.929 325.069C672.512 325.069 672.978 324.776 673.326 324.189C673.674 323.603 673.846 322.723 673.843 321.549C673.843 320.777 673.763 320.134 673.604 319.62C673.448 319.107 673.226 318.721 672.938 318.462C672.653 318.204 672.317 318.074 671.929 318.074C671.349 318.074 670.885 318.364 670.537 318.944C670.189 319.524 670.013 320.393 670.01 321.549C670.01 322.332 670.088 322.985 670.243 323.508C670.403 324.029 670.626 324.42 670.915 324.682C671.203 324.94 671.541 325.069 671.929 325.069ZM678.833 325.447C678.505 325.447 678.223 325.331 677.988 325.099C677.756 324.867 677.64 324.585 677.64 324.254C677.64 323.929 677.756 323.651 677.988 323.419C678.223 323.187 678.505 323.071 678.833 323.071C679.151 323.071 679.43 323.187 679.668 323.419C679.907 323.651 680.026 323.929 680.026 324.254C680.026 324.473 679.97 324.673 679.857 324.856C679.748 325.034 679.604 325.179 679.425 325.288C679.246 325.394 679.049 325.447 678.833 325.447ZM678.833 320.451C678.505 320.451 678.223 320.335 677.988 320.103C677.756 319.871 677.64 319.589 677.64 319.258C677.64 318.933 677.756 318.656 677.988 318.427C678.223 318.195 678.505 318.079 678.833 318.079C679.151 318.079 679.43 318.195 679.668 318.427C679.907 318.656 680.026 318.933 680.026 319.258C680.026 319.48 679.97 319.682 679.857 319.864C679.748 320.043 679.604 320.186 679.425 320.292C679.246 320.398 679.049 320.451 678.833 320.451ZM681.745 326.63V325.079L685.369 321.723C685.678 321.425 685.936 321.157 686.145 320.918C686.357 320.679 686.518 320.446 686.627 320.217C686.737 319.985 686.791 319.735 686.791 319.466C686.791 319.168 686.723 318.911 686.588 318.696C686.452 318.477 686.266 318.31 686.031 318.194C685.795 318.074 685.529 318.015 685.23 318.015C684.919 318.015 684.647 318.078 684.415 318.204C684.183 318.329 684.004 318.51 683.878 318.745C683.752 318.981 683.689 319.261 683.689 319.586H681.646C681.646 318.919 681.797 318.341 682.098 317.851C682.4 317.36 682.822 316.981 683.366 316.712C683.91 316.444 684.536 316.309 685.245 316.309C685.974 316.309 686.609 316.439 687.149 316.697C687.693 316.952 688.115 317.307 688.417 317.761C688.719 318.215 688.869 318.735 688.869 319.322C688.869 319.707 688.793 320.086 688.641 320.461C688.492 320.835 688.225 321.251 687.84 321.708C687.456 322.163 686.914 322.708 686.215 323.344L684.728 324.801V324.87H689.004V326.63H681.745ZM694.556 326.854C693.701 326.851 692.965 326.64 692.348 326.223C691.735 325.805 691.263 325.2 690.931 324.408C690.603 323.616 690.441 322.663 690.444 321.549C690.444 320.439 690.608 319.493 690.936 318.711C691.268 317.928 691.74 317.333 692.353 316.926C692.97 316.515 693.704 316.309 694.556 316.309C695.408 316.309 696.14 316.515 696.753 316.926C697.37 317.337 697.844 317.933 698.175 318.716C698.507 319.494 698.671 320.439 698.667 321.549C698.667 322.666 698.502 323.621 698.17 324.413C697.842 325.205 697.371 325.81 696.758 326.228C696.145 326.645 695.411 326.854 694.556 326.854ZM694.556 325.069C695.139 325.069 695.605 324.776 695.953 324.189C696.301 323.603 696.473 322.723 696.47 321.549C696.47 320.777 696.39 320.134 696.231 319.62C696.075 319.107 695.853 318.721 695.565 318.462C695.28 318.204 694.944 318.074 694.556 318.074C693.976 318.074 693.512 318.364 693.164 318.944C692.816 319.524 692.64 320.393 692.637 321.549C692.637 322.332 692.715 322.985 692.87 323.508C693.029 324.029 693.253 324.42 693.542 324.682C693.83 324.94 694.168 325.069 694.556 325.069Z" fill="white"/>
<rect x="619.3" y="481.36" width="42.0725" height="24.1004" rx="3.05022" fill="black" fill-opacity="0.67"/>
<path d="M629.343 489.646V497.41H627.702V491.204H627.656L625.878 492.319V490.863L627.8 489.646H629.343ZM631.071 496.045V494.753L634.312 489.646H635.427V491.435H634.767L632.724 494.669V494.73H637.33V496.045H631.071ZM634.798 497.41V495.651L634.828 495.079V489.646H636.367V497.41H634.798ZM639.383 496.508C639.133 496.508 638.918 496.419 638.738 496.242C638.562 496.066 638.473 495.851 638.473 495.598C638.473 495.35 638.562 495.138 638.738 494.961C638.918 494.784 639.133 494.696 639.383 494.696C639.626 494.696 639.838 494.784 640.02 494.961C640.202 495.138 640.293 495.35 640.293 495.598C640.293 495.765 640.25 495.918 640.164 496.057C640.081 496.193 639.971 496.303 639.834 496.387C639.698 496.467 639.547 496.508 639.383 496.508ZM639.383 492.698C639.133 492.698 638.918 492.609 638.738 492.432C638.562 492.256 638.473 492.041 638.473 491.788C638.473 491.54 638.562 491.329 638.738 491.155C638.918 490.978 639.133 490.889 639.383 490.889C639.626 490.889 639.838 490.978 640.02 491.155C640.202 491.329 640.293 491.54 640.293 491.788C640.293 491.957 640.25 492.111 640.164 492.25C640.081 492.387 639.971 492.496 639.834 492.576C639.698 492.657 639.547 492.698 639.383 492.698ZM641.604 497.41V496.227L644.367 493.668C644.602 493.441 644.8 493.236 644.959 493.054C645.12 492.872 645.243 492.694 645.326 492.52C645.41 492.343 645.452 492.152 645.452 491.947C645.452 491.72 645.4 491.524 645.296 491.36C645.193 491.193 645.051 491.065 644.872 490.977C644.692 490.886 644.489 490.84 644.261 490.84C644.024 490.84 643.816 490.888 643.639 490.984C643.463 491.08 643.326 491.218 643.23 491.397C643.134 491.577 643.086 491.79 643.086 492.038H641.528C641.528 491.53 641.643 491.089 641.873 490.715C642.103 490.341 642.425 490.052 642.84 489.847C643.254 489.642 643.732 489.54 644.273 489.54C644.829 489.54 645.313 489.638 645.725 489.836C646.139 490.03 646.461 490.301 646.691 490.647C646.921 490.993 647.036 491.39 647.036 491.837C647.036 492.13 646.978 492.42 646.862 492.705C646.748 492.991 646.545 493.308 646.252 493.657C645.958 494.003 645.545 494.419 645.012 494.904L643.878 496.015V496.068H647.139V497.41H641.604ZM651.372 497.581C650.72 497.578 650.159 497.418 649.689 497.099C649.222 496.781 648.861 496.32 648.609 495.716C648.358 495.111 648.235 494.385 648.237 493.536C648.237 492.689 648.362 491.967 648.612 491.371C648.865 490.774 649.225 490.321 649.693 490.01C650.163 489.697 650.723 489.54 651.372 489.54C652.022 489.54 652.58 489.697 653.048 490.01C653.518 490.323 653.88 490.778 654.132 491.375C654.385 491.969 654.51 492.689 654.508 493.536C654.508 494.387 654.381 495.115 654.128 495.719C653.878 496.323 653.519 496.785 653.052 497.103C652.584 497.422 652.024 497.581 651.372 497.581ZM651.372 496.22C651.817 496.22 652.172 495.996 652.438 495.549C652.703 495.101 652.834 494.43 652.832 493.536C652.832 492.947 652.771 492.456 652.65 492.065C652.531 491.673 652.362 491.378 652.142 491.181C651.925 490.984 651.668 490.886 651.372 490.886C650.93 490.886 650.576 491.107 650.311 491.549C650.045 491.991 649.912 492.654 649.909 493.536C649.909 494.132 649.968 494.63 650.087 495.029C650.208 495.426 650.379 495.724 650.599 495.924C650.819 496.121 651.077 496.22 651.372 496.22Z" fill="white"/>
<path d="M261.568 451.618V457.37L245.03 503.963H234.389L250.998 459.995H229.931V451.618H261.568ZM267.291 495.802H267.795C270.095 495.802 272.061 495.466 273.69 494.795C275.344 494.124 276.686 493.142 277.717 491.847C278.772 490.529 279.539 488.911 280.018 486.994C280.497 485.077 280.737 482.896 280.737 480.451V470.349C280.737 468.479 280.605 466.862 280.341 465.495C280.078 464.105 279.706 462.955 279.227 462.044C278.748 461.109 278.208 460.414 277.609 459.959C277.01 459.504 276.363 459.276 275.668 459.276C274.853 459.276 274.134 459.551 273.511 460.103C272.888 460.654 272.36 461.409 271.929 462.368C271.521 463.302 271.21 464.369 270.994 465.567C270.778 466.766 270.671 468 270.671 469.27C270.671 470.612 270.778 471.871 270.994 473.045C271.21 474.219 271.533 475.262 271.965 476.173C272.396 477.084 272.947 477.791 273.619 478.294C274.29 478.797 275.093 479.049 276.027 479.049C276.794 479.049 277.501 478.833 278.148 478.402C278.796 477.946 279.359 477.347 279.838 476.604C280.317 475.861 280.701 475.046 280.989 474.16C281.276 473.273 281.432 472.362 281.456 471.427L284.727 473.476C284.727 475.106 284.428 476.724 283.829 478.33C283.253 479.936 282.451 481.398 281.42 482.716C280.389 484.034 279.191 485.089 277.825 485.88C276.483 486.647 275.033 487.03 273.475 487.03C271.39 487.03 269.544 486.587 267.938 485.7C266.333 484.813 264.978 483.579 263.876 481.997C262.797 480.391 261.982 478.522 261.431 476.389C260.88 474.231 260.604 471.907 260.604 469.414C260.604 466.874 260.952 464.489 261.647 462.26C262.366 460.007 263.385 458.03 264.703 456.328C266.021 454.626 267.615 453.296 269.484 452.337C271.354 451.355 273.439 450.863 275.74 450.863C278.017 450.863 280.078 451.367 281.923 452.373C283.769 453.38 285.351 454.83 286.669 456.723C287.987 458.593 288.994 460.846 289.689 463.482C290.408 466.095 290.767 469.019 290.767 472.254V475.885C290.767 479.313 290.468 482.5 289.868 485.448C289.269 488.372 288.358 491.009 287.136 493.357C285.914 495.706 284.392 497.719 282.57 499.397C280.749 501.051 278.616 502.321 276.171 503.208C273.75 504.071 271.006 504.502 267.938 504.502H267.291V495.802ZM291.817 498.822C291.817 497.24 292.344 495.922 293.399 494.867C294.453 493.789 295.879 493.25 297.677 493.25C299.474 493.25 300.901 493.789 301.955 494.867C303.01 495.922 303.537 497.24 303.537 498.822C303.537 500.404 303.01 501.722 301.955 502.777C300.901 503.831 299.474 504.358 297.677 504.358C295.879 504.358 294.453 503.831 293.399 502.777C292.344 501.722 291.817 500.404 291.817 498.822ZM313.79 473.153H318.679C319.95 473.153 320.992 472.865 321.807 472.29C322.622 471.691 323.221 470.852 323.605 469.774C323.988 468.695 324.18 467.437 324.18 465.999C324.18 464.657 324 463.482 323.641 462.476C323.281 461.469 322.73 460.678 321.987 460.103C321.244 459.528 320.309 459.24 319.183 459.24C318.32 459.24 317.517 459.48 316.774 459.959C316.031 460.438 315.432 461.121 314.977 462.008C314.545 462.871 314.329 463.914 314.329 465.136H304.191C304.191 462.26 304.85 459.755 306.169 457.622C307.487 455.489 309.26 453.823 311.489 452.625C313.718 451.427 316.187 450.827 318.895 450.827C321.939 450.827 324.611 451.403 326.912 452.553C329.213 453.68 331.011 455.357 332.305 457.586C333.599 459.791 334.246 462.523 334.246 465.783C334.246 467.461 333.923 469.078 333.276 470.636C332.652 472.194 331.742 473.596 330.543 474.843C329.345 476.065 327.883 477.036 326.157 477.755C324.456 478.474 322.514 478.833 320.333 478.833H313.79V473.153ZM313.79 481.314V475.813H320.333C322.778 475.813 324.911 476.137 326.733 476.784C328.578 477.407 330.1 478.318 331.298 479.516C332.521 480.715 333.431 482.141 334.031 483.794C334.63 485.448 334.929 487.27 334.929 489.259C334.929 491.704 334.522 493.885 333.707 495.802C332.892 497.719 331.754 499.337 330.292 500.655C328.83 501.974 327.128 502.98 325.187 503.675C323.245 504.346 321.136 504.682 318.859 504.682C316.966 504.682 315.108 504.382 313.287 503.783C311.489 503.184 309.872 502.261 308.433 501.015C306.995 499.769 305.857 498.199 305.018 496.305C304.179 494.412 303.76 492.171 303.76 489.583H313.826C313.826 490.877 314.054 492.039 314.509 493.07C314.965 494.076 315.588 494.867 316.379 495.443C317.194 496.018 318.104 496.305 319.111 496.305C320.285 496.305 321.304 496.006 322.167 495.407C323.03 494.807 323.689 493.969 324.144 492.89C324.599 491.811 324.827 490.553 324.827 489.115C324.827 487.27 324.587 485.784 324.108 484.657C323.629 483.507 322.934 482.668 322.023 482.141C321.112 481.589 320.01 481.314 318.715 481.314H313.79ZM340.075 488.406V487.316C340.075 486.533 340.217 485.82 340.5 485.178C340.792 484.537 341.207 484.022 341.745 483.636C342.283 483.249 342.925 483.055 343.671 483.055C344.435 483.055 345.086 483.249 345.624 483.636C346.171 484.022 346.587 484.537 346.87 485.178C347.153 485.82 347.294 486.533 347.294 487.316V488.406C347.294 489.17 347.153 489.873 346.87 490.515C346.587 491.157 346.176 491.671 345.638 492.058C345.1 492.445 344.454 492.638 343.699 492.638C342.944 492.638 342.293 492.445 341.745 492.058C341.207 491.671 340.792 491.157 340.5 490.515C340.217 489.873 340.075 489.17 340.075 488.406ZM341.915 487.316V488.406C341.915 488.84 341.977 489.251 342.099 489.637C342.231 490.024 342.43 490.341 342.694 490.586C342.958 490.822 343.293 490.94 343.699 490.94C344.095 490.94 344.421 490.822 344.676 490.586C344.94 490.341 345.133 490.024 345.256 489.637C345.388 489.251 345.454 488.84 345.454 488.406V487.316C345.454 486.872 345.388 486.457 345.256 486.07C345.124 485.674 344.926 485.358 344.661 485.122C344.407 484.877 344.076 484.754 343.671 484.754C343.274 484.754 342.944 484.877 342.68 485.122C342.425 485.358 342.231 485.674 342.099 486.07C341.977 486.457 341.915 486.872 341.915 487.316ZM348.398 500.013V498.909C348.398 498.136 348.54 497.428 348.823 496.786C349.116 496.144 349.531 495.63 350.069 495.243C350.616 494.856 351.263 494.663 352.008 494.663C352.763 494.663 353.41 494.856 353.947 495.243C354.485 495.63 354.896 496.144 355.179 496.786C355.472 497.428 355.618 498.136 355.618 498.909V500.013C355.618 500.787 355.472 501.495 355.179 502.137C354.896 502.779 354.485 503.293 353.947 503.68C353.419 504.067 352.777 504.26 352.022 504.26C351.267 504.26 350.616 504.067 350.069 503.68C349.531 503.293 349.116 502.779 348.823 502.137C348.54 501.495 348.398 500.787 348.398 500.013ZM350.239 498.909V500.013C350.239 500.448 350.305 500.863 350.437 501.259C350.569 501.646 350.767 501.962 351.031 502.208C351.296 502.444 351.626 502.561 352.022 502.561C352.419 502.561 352.744 502.444 352.999 502.208C353.263 501.962 353.457 501.646 353.579 501.259C353.712 500.872 353.778 500.457 353.778 500.013V498.909C353.778 498.466 353.712 498.051 353.579 497.664C353.447 497.277 353.249 496.965 352.985 496.729C352.73 496.484 352.404 496.361 352.008 496.361C351.612 496.361 351.281 496.484 351.017 496.729C350.762 496.965 350.569 497.277 350.437 497.664C350.305 498.051 350.239 498.466 350.239 498.909ZM352.673 486.283L344.223 502.392L342.835 501.457L351.3 485.348L352.673 486.283Z" fill="black"/>
<path d="M698.412 200.2V258.097H687.301V213.851L676.269 218.097V208.811L697.222 200.2H698.412ZM731.396 200.2V258.097H720.285V213.851L709.253 218.097V208.811L730.206 200.2H731.396ZM737.64 240.925V239.722C737.64 238.858 737.796 238.071 738.109 237.363C738.432 236.654 738.89 236.087 739.484 235.66C740.077 235.233 740.786 235.019 741.609 235.019C742.452 235.019 743.171 235.233 743.765 235.66C744.369 236.087 744.827 236.654 745.14 237.363C745.452 238.071 745.609 238.858 745.609 239.722V240.925C745.609 241.769 745.452 242.545 745.14 243.253C744.827 243.962 744.374 244.529 743.78 244.957C743.187 245.384 742.473 245.597 741.64 245.597C740.807 245.597 740.088 245.384 739.484 244.957C738.89 244.529 738.432 243.962 738.109 243.253C737.796 242.545 737.64 241.769 737.64 240.925ZM739.671 239.722V240.925C739.671 241.404 739.739 241.858 739.874 242.285C740.02 242.712 740.239 243.061 740.53 243.332C740.822 243.592 741.192 243.722 741.64 243.722C742.077 243.722 742.437 243.592 742.718 243.332C743.01 243.061 743.223 242.712 743.359 242.285C743.504 241.858 743.577 241.404 743.577 240.925V239.722C743.577 239.233 743.504 238.774 743.359 238.347C743.213 237.91 742.994 237.561 742.702 237.3C742.421 237.029 742.057 236.894 741.609 236.894C741.171 236.894 740.807 237.029 740.515 237.3C740.234 237.561 740.02 237.91 739.874 238.347C739.739 238.774 739.671 239.233 739.671 239.722ZM746.827 253.738V252.519C746.827 251.665 746.984 250.884 747.296 250.175C747.619 249.467 748.077 248.899 748.671 248.472C749.275 248.045 749.989 247.832 750.812 247.832C751.645 247.832 752.359 248.045 752.952 248.472C753.546 248.899 753.999 249.467 754.312 250.175C754.635 250.884 754.796 251.665 754.796 252.519V253.738C754.796 254.592 754.635 255.373 754.312 256.082C753.999 256.79 753.546 257.358 752.952 257.785C752.369 258.212 751.661 258.425 750.827 258.425C749.994 258.425 749.275 258.212 748.671 257.785C748.077 257.358 747.619 256.79 747.296 256.082C746.984 255.373 746.827 254.592 746.827 253.738ZM748.859 252.519V253.738C748.859 254.217 748.932 254.675 749.077 255.113C749.223 255.54 749.442 255.889 749.734 256.16C750.025 256.42 750.39 256.55 750.827 256.55C751.265 256.55 751.624 256.42 751.905 256.16C752.197 255.889 752.411 255.54 752.546 255.113C752.692 254.686 752.765 254.227 752.765 253.738V252.519C752.765 252.029 752.692 251.571 752.546 251.144C752.4 250.717 752.182 250.373 751.89 250.113C751.609 249.842 751.249 249.707 750.812 249.707C750.374 249.707 750.01 249.842 749.718 250.113C749.437 250.373 749.223 250.717 749.077 251.144C748.932 251.571 748.859 252.029 748.859 252.519ZM751.546 238.582L742.218 256.363L740.687 255.332L750.03 237.55L751.546 238.582Z" fill="black"/>
<path d="M641.849 435.936H642.268C644.187 435.936 645.826 435.656 647.185 435.097C648.564 434.537 649.683 433.718 650.543 432.638C651.422 431.539 652.062 430.19 652.462 428.591C652.861 426.992 653.061 425.173 653.061 423.135V414.71C653.061 413.151 652.951 411.802 652.731 410.663C652.512 409.504 652.202 408.545 651.802 407.785C651.402 407.006 650.953 406.426 650.453 406.046C649.953 405.666 649.414 405.477 648.834 405.477C648.154 405.477 647.555 405.706 647.035 406.166C646.516 406.626 646.076 407.255 645.716 408.055C645.376 408.834 645.117 409.724 644.937 410.723C644.757 411.722 644.667 412.752 644.667 413.811C644.667 414.93 644.757 415.98 644.937 416.959C645.117 417.938 645.386 418.808 645.746 419.567C646.106 420.327 646.566 420.916 647.125 421.336C647.685 421.756 648.354 421.966 649.134 421.966C649.773 421.966 650.363 421.786 650.903 421.426C651.442 421.046 651.912 420.547 652.312 419.927C652.711 419.307 653.031 418.628 653.271 417.888C653.511 417.149 653.641 416.389 653.661 415.61L656.389 417.319C656.389 418.678 656.139 420.027 655.639 421.366C655.16 422.705 654.49 423.924 653.631 425.024C652.771 426.123 651.772 427.002 650.633 427.662C649.514 428.301 648.304 428.621 647.005 428.621C645.266 428.621 643.727 428.251 642.388 427.512C641.049 426.772 639.92 425.743 639.001 424.424C638.101 423.085 637.422 421.526 636.962 419.747C636.502 417.948 636.272 416.01 636.272 413.931C636.272 411.812 636.562 409.824 637.142 407.965C637.741 406.086 638.591 404.437 639.69 403.018C640.789 401.599 642.119 400.49 643.677 399.69C645.236 398.871 646.975 398.461 648.894 398.461C650.793 398.461 652.512 398.881 654.051 399.72C655.59 400.56 656.909 401.769 658.008 403.348C659.107 404.907 659.947 406.786 660.526 408.984C661.126 411.163 661.426 413.601 661.426 416.299V419.327C661.426 422.185 661.176 424.844 660.676 427.302C660.176 429.74 659.417 431.939 658.398 433.898C657.378 435.856 656.109 437.535 654.59 438.934C653.071 440.313 651.292 441.373 649.254 442.112C647.235 442.832 644.947 443.191 642.388 443.191H641.849V435.936ZM662.301 438.455C662.301 437.135 662.741 436.036 663.62 435.157C664.5 434.257 665.689 433.808 667.188 433.808C668.687 433.808 669.876 434.257 670.755 435.157C671.635 436.036 672.075 437.135 672.075 438.455C672.075 439.774 671.635 440.873 670.755 441.752C669.876 442.632 668.687 443.071 667.188 443.071C665.689 443.071 664.5 442.632 663.62 441.752C662.741 440.873 662.301 439.774 662.301 438.455ZM698.643 399.091V403.888L684.852 442.742H675.978L689.829 406.076H672.26V399.091H698.643ZM696.404 429.769V428.86C696.404 428.206 696.522 427.612 696.758 427.077C697.002 426.542 697.349 426.113 697.797 425.79C698.246 425.468 698.781 425.306 699.403 425.306C700.04 425.306 700.583 425.468 701.032 425.79C701.488 426.113 701.834 426.542 702.07 427.077C702.306 427.612 702.424 428.206 702.424 428.86V429.769C702.424 430.406 702.306 430.992 702.07 431.527C701.834 432.063 701.492 432.491 701.043 432.814C700.595 433.137 700.056 433.298 699.426 433.298C698.797 433.298 698.254 433.137 697.797 432.814C697.349 432.491 697.002 432.063 696.758 431.527C696.522 430.992 696.404 430.406 696.404 429.769ZM697.939 428.86V429.769C697.939 430.131 697.99 430.473 698.092 430.796C698.202 431.118 698.368 431.382 698.588 431.586C698.808 431.783 699.088 431.882 699.426 431.882C699.757 431.882 700.028 431.783 700.241 431.586C700.461 431.382 700.622 431.118 700.725 430.796C700.835 430.473 700.89 430.131 700.89 429.769V428.86C700.89 428.49 700.835 428.143 700.725 427.821C700.614 427.49 700.449 427.227 700.229 427.03C700.016 426.825 699.741 426.723 699.403 426.723C699.072 426.723 698.797 426.825 698.576 427.03C698.364 427.227 698.202 427.49 698.092 427.821C697.99 428.143 697.939 428.49 697.939 428.86ZM703.345 439.448V438.527C703.345 437.882 703.463 437.292 703.699 436.757C703.943 436.222 704.29 435.793 704.738 435.47C705.195 435.147 705.734 434.986 706.355 434.986C706.985 434.986 707.524 435.147 707.973 435.47C708.421 435.793 708.763 436.222 709 436.757C709.244 437.292 709.366 437.882 709.366 438.527V439.448C709.366 440.094 709.244 440.684 709 441.219C708.763 441.754 708.421 442.183 707.973 442.506C707.532 442.828 706.997 442.99 706.367 442.99C705.738 442.99 705.195 442.828 704.738 442.506C704.29 442.183 703.943 441.754 703.699 441.219C703.463 440.684 703.345 440.094 703.345 439.448ZM704.88 438.527V439.448C704.88 439.81 704.935 440.157 705.045 440.487C705.155 440.81 705.321 441.073 705.541 441.278C705.761 441.475 706.037 441.573 706.367 441.573C706.698 441.573 706.969 441.475 707.182 441.278C707.402 441.073 707.563 440.81 707.666 440.487C707.776 440.164 707.831 439.818 707.831 439.448V438.527C707.831 438.158 707.776 437.811 707.666 437.489C707.555 437.166 707.39 436.906 707.17 436.71C706.957 436.505 706.686 436.403 706.355 436.403C706.025 436.403 705.749 436.505 705.529 436.71C705.317 436.906 705.155 437.166 705.045 437.489C704.935 437.811 704.88 438.158 704.88 438.527ZM706.91 427.998L699.863 441.431L698.706 440.652L705.765 427.219L706.91 427.998Z" fill="black"/>
<path d="M241.519 526.72H240.11C240.026 526.314 239.881 525.958 239.672 525.652C239.468 525.345 239.218 525.087 238.922 524.879C238.631 524.667 238.307 524.508 237.951 524.402C237.595 524.295 237.223 524.242 236.837 524.242C236.132 524.242 235.494 524.42 234.922 524.777C234.354 525.133 233.901 525.657 233.564 526.35C233.231 527.044 233.064 527.894 233.064 528.902C233.064 529.909 233.231 530.759 233.564 531.453C233.901 532.146 234.354 532.67 234.922 533.027C235.494 533.383 236.132 533.561 236.837 533.561C237.223 533.561 237.595 533.508 237.951 533.402C238.307 533.295 238.631 533.138 238.922 532.93C239.218 532.718 239.468 532.458 239.672 532.152C239.881 531.841 240.026 531.485 240.11 531.083H241.519C241.413 531.678 241.22 532.21 240.939 532.68C240.659 533.15 240.31 533.549 239.894 533.879C239.477 534.205 239.009 534.453 238.49 534.623C237.975 534.794 237.424 534.879 236.837 534.879C235.845 534.879 234.962 534.636 234.189 534.152C233.417 533.667 232.809 532.977 232.365 532.083C231.922 531.189 231.701 530.129 231.701 528.902C231.701 527.674 231.922 526.614 232.365 525.72C232.809 524.826 233.417 524.136 234.189 523.652C234.962 523.167 235.845 522.924 236.837 522.924C237.424 522.924 237.975 523.009 238.49 523.18C239.009 523.35 239.477 523.6 239.894 523.93C240.31 524.256 240.659 524.653 240.939 525.123C241.22 525.589 241.413 526.121 241.519 526.72ZM247.159 534.902C246.372 534.902 245.68 534.714 245.086 534.339C244.495 533.964 244.033 533.439 243.699 532.765C243.37 532.091 243.205 531.303 243.205 530.402C243.205 529.492 243.37 528.699 243.699 528.021C244.033 527.343 244.495 526.816 245.086 526.441C245.68 526.066 246.372 525.879 247.159 525.879C247.947 525.879 248.637 526.066 249.228 526.441C249.822 526.816 250.284 527.343 250.614 528.021C250.947 528.699 251.114 529.492 251.114 530.402C251.114 531.303 250.947 532.091 250.614 532.765C250.284 533.439 249.822 533.964 249.228 534.339C248.637 534.714 247.947 534.902 247.159 534.902ZM247.159 533.697C247.758 533.697 248.25 533.544 248.637 533.237C249.023 532.93 249.309 532.527 249.495 532.027C249.68 531.527 249.773 530.985 249.773 530.402C249.773 529.818 249.68 529.275 249.495 528.771C249.309 528.267 249.023 527.86 248.637 527.549C248.25 527.239 247.758 527.083 247.159 527.083C246.561 527.083 246.069 527.239 245.682 527.549C245.296 527.86 245.01 528.267 244.824 528.771C244.639 529.275 244.546 529.818 244.546 530.402C244.546 530.985 244.639 531.527 244.824 532.027C245.01 532.527 245.296 532.93 245.682 533.237C246.069 533.544 246.561 533.697 247.159 533.697ZM253.161 534.72V525.992H254.456V527.311H254.547C254.706 526.879 254.994 526.528 255.411 526.259C255.828 525.991 256.297 525.856 256.82 525.856C256.918 525.856 257.042 525.858 257.189 525.862C257.337 525.866 257.449 525.871 257.525 525.879V527.242C257.479 527.231 257.375 527.214 257.212 527.191C257.053 527.165 256.884 527.152 256.706 527.152C256.282 527.152 255.903 527.241 255.57 527.419C255.24 527.593 254.979 527.835 254.786 528.146C254.596 528.453 254.502 528.803 254.502 529.197V534.72H253.161ZM263.456 525.992V527.129H258.934V525.992H263.456ZM260.252 523.902H261.593V532.22C261.593 532.599 261.648 532.883 261.757 533.072C261.871 533.258 262.015 533.383 262.189 533.447C262.367 533.508 262.555 533.538 262.752 533.538C262.9 533.538 263.021 533.53 263.115 533.515C263.21 533.496 263.286 533.481 263.343 533.47L263.615 534.674C263.525 534.708 263.398 534.742 263.235 534.777C263.072 534.814 262.865 534.833 262.615 534.833C262.237 534.833 261.865 534.752 261.502 534.589C261.142 534.426 260.843 534.178 260.604 533.845C260.369 533.511 260.252 533.091 260.252 532.583V523.902ZM269.039 534.902C268.198 534.902 267.472 534.716 266.863 534.345C266.257 533.97 265.789 533.447 265.459 532.777C265.133 532.102 264.971 531.318 264.971 530.424C264.971 529.53 265.133 528.742 265.459 528.061C265.789 527.375 266.247 526.841 266.834 526.458C267.425 526.072 268.114 525.879 268.902 525.879C269.357 525.879 269.806 525.955 270.249 526.106C270.692 526.258 271.096 526.504 271.459 526.845C271.823 527.182 272.113 527.629 272.328 528.186C272.544 528.742 272.652 529.428 272.652 530.242V530.811H265.925V529.652H271.289C271.289 529.159 271.19 528.72 270.993 528.333C270.8 527.947 270.524 527.642 270.164 527.419C269.808 527.195 269.387 527.083 268.902 527.083C268.368 527.083 267.906 527.216 267.516 527.481C267.13 527.742 266.832 528.083 266.624 528.504C266.416 528.924 266.311 529.375 266.311 529.856V530.629C266.311 531.288 266.425 531.847 266.652 532.305C266.883 532.759 267.203 533.106 267.613 533.345C268.022 533.58 268.497 533.697 269.039 533.697C269.391 533.697 269.709 533.648 269.993 533.549C270.281 533.447 270.529 533.295 270.738 533.095C270.946 532.89 271.107 532.636 271.221 532.333L272.516 532.697C272.38 533.136 272.15 533.523 271.828 533.856C271.507 534.186 271.109 534.443 270.635 534.629C270.162 534.811 269.63 534.902 269.039 534.902ZM280.874 527.947L279.669 528.288C279.594 528.087 279.482 527.892 279.334 527.703C279.19 527.509 278.993 527.35 278.743 527.225C278.493 527.1 278.173 527.038 277.783 527.038C277.249 527.038 276.804 527.161 276.448 527.407C276.096 527.65 275.919 527.958 275.919 528.333C275.919 528.667 276.041 528.93 276.283 529.123C276.525 529.316 276.904 529.477 277.419 529.606L278.715 529.924C279.495 530.114 280.077 530.403 280.459 530.794C280.842 531.18 281.033 531.678 281.033 532.288C281.033 532.788 280.889 533.235 280.601 533.629C280.317 534.023 279.919 534.333 279.408 534.561C278.897 534.788 278.302 534.902 277.624 534.902C276.734 534.902 275.997 534.708 275.414 534.322C274.83 533.936 274.461 533.371 274.306 532.629L275.578 532.311C275.7 532.78 275.929 533.133 276.266 533.367C276.607 533.602 277.052 533.72 277.601 533.72C278.226 533.72 278.722 533.587 279.09 533.322C279.461 533.053 279.647 532.731 279.647 532.356C279.647 532.053 279.541 531.799 279.328 531.595C279.116 531.386 278.791 531.231 278.351 531.129L276.897 530.788C276.097 530.599 275.51 530.305 275.135 529.907C274.764 529.506 274.578 529.004 274.578 528.402C274.578 527.909 274.717 527.474 274.993 527.095C275.274 526.716 275.654 526.419 276.135 526.203C276.62 525.987 277.169 525.879 277.783 525.879C278.647 525.879 279.325 526.068 279.817 526.447C280.313 526.826 280.666 527.326 280.874 527.947ZM288.211 523.083L291.665 532.879H291.801L295.256 523.083H296.733L292.461 534.72H291.006L286.733 523.083H288.211ZM298.364 534.72V525.992H299.705V534.72H298.364ZM298.432 524.811L299.819 522.174H301.387L299.614 524.811H298.432ZM305.456 534.902C304.729 534.902 304.087 534.718 303.53 534.35C302.973 533.979 302.538 533.456 302.223 532.782C301.909 532.104 301.752 531.303 301.752 530.379C301.752 529.462 301.909 528.667 302.223 527.992C302.538 527.318 302.975 526.797 303.536 526.43C304.096 526.063 304.744 525.879 305.479 525.879C306.047 525.879 306.496 525.974 306.826 526.163C307.159 526.349 307.413 526.561 307.587 526.799C307.765 527.034 307.903 527.227 308.002 527.379H308.115V523.083H309.456V534.72H308.161V533.379H308.002C307.903 533.538 307.763 533.739 307.581 533.981C307.4 534.22 307.14 534.434 306.803 534.623C306.466 534.809 306.017 534.902 305.456 534.902ZM305.638 533.697C306.176 533.697 306.631 533.557 307.002 533.277C307.373 532.992 307.655 532.6 307.848 532.1C308.042 531.597 308.138 531.015 308.138 530.356C308.138 529.705 308.043 529.134 307.854 528.646C307.665 528.153 307.384 527.771 307.013 527.498C306.642 527.222 306.184 527.083 305.638 527.083C305.07 527.083 304.596 527.229 304.218 527.521C303.843 527.809 303.56 528.201 303.371 528.697C303.185 529.189 303.093 529.742 303.093 530.356C303.093 530.977 303.187 531.542 303.377 532.049C303.57 532.553 303.854 532.955 304.229 533.254C304.608 533.549 305.078 533.697 305.638 533.697ZM315.757 534.902C314.917 534.902 314.191 534.716 313.581 534.345C312.975 533.97 312.507 533.447 312.178 532.777C311.852 532.102 311.689 531.318 311.689 530.424C311.689 529.53 311.852 528.742 312.178 528.061C312.507 527.375 312.966 526.841 313.553 526.458C314.144 526.072 314.833 525.879 315.621 525.879C316.076 525.879 316.525 525.955 316.968 526.106C317.411 526.258 317.814 526.504 318.178 526.845C318.542 527.182 318.831 527.629 319.047 528.186C319.263 528.742 319.371 529.428 319.371 530.242V530.811H312.644V529.652H318.007C318.007 529.159 317.909 528.72 317.712 528.333C317.519 527.947 317.242 527.642 316.882 527.419C316.526 527.195 316.106 527.083 315.621 527.083C315.087 527.083 314.625 527.216 314.235 527.481C313.848 527.742 313.551 528.083 313.343 528.504C313.134 528.924 313.03 529.375 313.03 529.856V530.629C313.03 531.288 313.144 531.847 313.371 532.305C313.602 532.759 313.922 533.106 314.331 533.345C314.74 533.58 315.216 533.697 315.757 533.697C316.11 533.697 316.428 533.648 316.712 533.549C317 533.447 317.248 533.295 317.456 533.095C317.665 532.89 317.826 532.636 317.939 532.333L319.235 532.697C319.098 533.136 318.869 533.523 318.547 533.856C318.225 534.186 317.828 534.443 317.354 534.629C316.881 534.811 316.348 534.902 315.757 534.902ZM324.956 534.902C324.168 534.902 323.477 534.714 322.882 534.339C322.292 533.964 321.829 533.439 321.496 532.765C321.167 532.091 321.002 531.303 321.002 530.402C321.002 529.492 321.167 528.699 321.496 528.021C321.829 527.343 322.292 526.816 322.882 526.441C323.477 526.066 324.168 525.879 324.956 525.879C325.744 525.879 326.434 526.066 327.025 526.441C327.619 526.816 328.081 527.343 328.411 528.021C328.744 528.699 328.911 529.492 328.911 530.402C328.911 531.303 328.744 532.091 328.411 532.765C328.081 533.439 327.619 533.964 327.025 534.339C326.434 534.714 325.744 534.902 324.956 534.902ZM324.956 533.697C325.555 533.697 326.047 533.544 326.434 533.237C326.82 532.93 327.106 532.527 327.292 532.027C327.477 531.527 327.57 530.985 327.57 530.402C327.57 529.818 327.477 529.275 327.292 528.771C327.106 528.267 326.82 527.86 326.434 527.549C326.047 527.239 325.555 527.083 324.956 527.083C324.358 527.083 323.865 527.239 323.479 527.549C323.093 527.86 322.807 528.267 322.621 528.771C322.435 529.275 322.343 529.818 322.343 530.402C322.343 530.985 322.435 531.527 322.621 532.027C322.807 532.527 323.093 532.93 323.479 533.237C323.865 533.544 324.358 533.697 324.956 533.697ZM337.14 527.947L335.935 528.288C335.859 528.087 335.748 527.892 335.6 527.703C335.456 527.509 335.259 527.35 335.009 527.225C334.759 527.1 334.439 527.038 334.049 527.038C333.515 527.038 333.069 527.161 332.713 527.407C332.361 527.65 332.185 527.958 332.185 528.333C332.185 528.667 332.306 528.93 332.549 529.123C332.791 529.316 333.17 529.477 333.685 529.606L334.98 529.924C335.761 530.114 336.342 530.403 336.725 530.794C337.107 531.18 337.299 531.678 337.299 532.288C337.299 532.788 337.155 533.235 336.867 533.629C336.583 534.023 336.185 534.333 335.674 534.561C335.162 534.788 334.568 534.902 333.89 534.902C332.999 534.902 332.263 534.708 331.679 534.322C331.096 533.936 330.727 533.371 330.571 532.629L331.844 532.311C331.965 532.78 332.194 533.133 332.532 533.367C332.873 533.602 333.318 533.72 333.867 533.72C334.492 533.72 334.988 533.587 335.355 533.322C335.727 533.053 335.912 532.731 335.912 532.356C335.912 532.053 335.806 531.799 335.594 531.595C335.382 531.386 335.056 531.231 334.617 531.129L333.162 530.788C332.363 530.599 331.776 530.305 331.401 529.907C331.03 529.506 330.844 529.004 330.844 528.402C330.844 527.909 330.982 527.474 331.259 527.095C331.539 526.716 331.92 526.419 332.401 526.203C332.886 525.987 333.435 525.879 334.049 525.879C334.912 525.879 335.59 526.068 336.083 526.447C336.579 526.826 336.931 527.326 337.14 527.947ZM232.155 552.72V541.083H233.564V546.265H239.769V541.083H241.178V552.72H239.769V547.515H233.564V552.72H232.155ZM247.363 552.902C246.575 552.902 245.883 552.714 245.289 552.339C244.698 551.964 244.236 551.439 243.902 550.765C243.573 550.091 243.408 549.303 243.408 548.402C243.408 547.492 243.573 546.699 243.902 546.021C244.236 545.343 244.698 544.816 245.289 544.441C245.883 544.066 246.575 543.879 247.363 543.879C248.15 543.879 248.84 544.066 249.431 544.441C250.025 544.816 250.488 545.343 250.817 546.021C251.15 546.699 251.317 547.492 251.317 548.402C251.317 549.303 251.15 550.091 250.817 550.765C250.488 551.439 250.025 551.964 249.431 552.339C248.84 552.714 248.15 552.902 247.363 552.902ZM247.363 551.697C247.961 551.697 248.453 551.544 248.84 551.237C249.226 550.93 249.512 550.527 249.698 550.027C249.883 549.527 249.976 548.985 249.976 548.402C249.976 547.818 249.883 547.275 249.698 546.771C249.512 546.267 249.226 545.86 248.84 545.549C248.453 545.239 247.961 545.083 247.363 545.083C246.764 545.083 246.272 545.239 245.885 545.549C245.499 545.86 245.213 546.267 245.027 546.771C244.842 547.275 244.749 547.818 244.749 548.402C244.749 548.985 244.842 549.527 245.027 550.027C245.213 550.527 245.499 550.93 245.885 551.237C246.272 551.544 246.764 551.697 247.363 551.697ZM253.364 552.72V543.992H254.659V545.311H254.75C254.909 544.879 255.197 544.528 255.614 544.259C256.031 543.991 256.5 543.856 257.023 543.856C257.122 543.856 257.245 543.858 257.392 543.862C257.54 543.866 257.652 543.871 257.728 543.879V545.242C257.682 545.231 257.578 545.214 257.415 545.191C257.256 545.165 257.087 545.152 256.909 545.152C256.485 545.152 256.106 545.241 255.773 545.419C255.444 545.593 255.182 545.835 254.989 546.146C254.8 546.453 254.705 546.803 254.705 547.197V552.72H253.364ZM259.317 552.72V543.992H260.658V552.72H259.317ZM259.999 542.538C259.738 542.538 259.512 542.449 259.323 542.271C259.137 542.093 259.044 541.879 259.044 541.629C259.044 541.379 259.137 541.165 259.323 540.987C259.512 540.809 259.738 540.72 259.999 540.72C260.26 540.72 260.484 540.809 260.669 540.987C260.859 541.165 260.953 541.379 260.953 541.629C260.953 541.879 260.859 542.093 260.669 542.271C260.484 542.449 260.26 542.538 259.999 542.538ZM262.864 552.72V551.697L267.819 545.333V545.242H263.023V543.992H269.546V545.061L264.728 551.379V551.47H269.705V552.72H262.864ZM275.066 552.902C274.278 552.902 273.587 552.714 272.992 552.339C272.401 551.964 271.939 551.439 271.605 550.765C271.276 550.091 271.111 549.303 271.111 548.402C271.111 547.492 271.276 546.699 271.605 546.021C271.939 545.343 272.401 544.816 272.992 544.441C273.587 544.066 274.278 543.879 275.066 543.879C275.854 543.879 276.543 544.066 277.134 544.441C277.729 544.816 278.191 545.343 278.52 546.021C278.854 546.699 279.02 547.492 279.02 548.402C279.02 549.303 278.854 550.091 278.52 550.765C278.191 551.439 277.729 551.964 277.134 552.339C276.543 552.714 275.854 552.902 275.066 552.902ZM275.066 551.697C275.664 551.697 276.157 551.544 276.543 551.237C276.929 550.93 277.215 550.527 277.401 550.027C277.587 549.527 277.679 548.985 277.679 548.402C277.679 547.818 277.587 547.275 277.401 546.771C277.215 546.267 276.929 545.86 276.543 545.549C276.157 545.239 275.664 545.083 275.066 545.083C274.467 545.083 273.975 545.239 273.588 545.549C273.202 545.86 272.916 546.267 272.73 546.771C272.545 547.275 272.452 547.818 272.452 548.402C272.452 548.985 272.545 549.527 272.73 550.027C272.916 550.527 273.202 550.93 273.588 551.237C273.975 551.544 274.467 551.697 275.066 551.697ZM282.408 547.47V552.72H281.067V543.992H282.363V545.356H282.476C282.681 544.913 282.991 544.557 283.408 544.288C283.825 544.015 284.363 543.879 285.022 543.879C285.613 543.879 286.13 544 286.573 544.242C287.016 544.481 287.361 544.845 287.607 545.333C287.853 545.818 287.976 546.432 287.976 547.174V552.72H286.635V547.265C286.635 546.58 286.457 546.045 286.101 545.663C285.745 545.277 285.257 545.083 284.635 545.083C284.207 545.083 283.825 545.176 283.488 545.362C283.154 545.547 282.891 545.818 282.698 546.174C282.505 546.53 282.408 546.962 282.408 547.47ZM294.222 543.992V545.129H289.699V543.992H294.222ZM291.017 541.902H292.358V550.22C292.358 550.599 292.413 550.883 292.523 551.072C292.637 551.258 292.781 551.383 292.955 551.447C293.133 551.508 293.32 551.538 293.517 551.538C293.665 551.538 293.786 551.53 293.881 551.515C293.976 551.496 294.051 551.481 294.108 551.47L294.381 552.674C294.29 552.708 294.163 552.742 294 552.777C293.837 552.814 293.631 552.833 293.381 552.833C293.002 552.833 292.631 552.752 292.267 552.589C291.908 552.426 291.608 552.178 291.37 551.845C291.135 551.511 291.017 551.091 291.017 550.583V541.902ZM298.807 552.924C298.254 552.924 297.752 552.82 297.301 552.612C296.851 552.4 296.493 552.095 296.228 551.697C295.962 551.295 295.83 550.811 295.83 550.242C295.83 549.742 295.928 549.337 296.125 549.027C296.322 548.712 296.586 548.466 296.915 548.288C297.245 548.11 297.608 547.977 298.006 547.89C298.408 547.799 298.811 547.727 299.216 547.674C299.747 547.606 300.176 547.555 300.506 547.521C300.839 547.483 301.082 547.42 301.233 547.333C301.389 547.246 301.466 547.095 301.466 546.879V546.833C301.466 546.273 301.313 545.837 301.006 545.527C300.703 545.216 300.243 545.061 299.625 545.061C298.985 545.061 298.483 545.201 298.12 545.481C297.756 545.761 297.5 546.061 297.353 546.379L296.08 545.924C296.307 545.394 296.61 544.981 296.989 544.686C297.372 544.386 297.788 544.178 298.239 544.061C298.694 543.939 299.141 543.879 299.58 543.879C299.86 543.879 300.182 543.913 300.546 543.981C300.913 544.045 301.267 544.18 301.608 544.384C301.953 544.589 302.239 544.898 302.466 545.311C302.694 545.724 302.807 546.277 302.807 546.97V552.72H301.466V551.538H301.398C301.307 551.727 301.156 551.93 300.944 552.146C300.731 552.362 300.449 552.545 300.097 552.697C299.745 552.849 299.315 552.924 298.807 552.924ZM299.012 551.72C299.542 551.72 299.989 551.616 300.353 551.407C300.72 551.199 300.997 550.93 301.182 550.6C301.372 550.271 301.466 549.924 301.466 549.561V548.333C301.409 548.402 301.284 548.464 301.091 548.521C300.902 548.574 300.682 548.621 300.432 548.663C300.186 548.701 299.945 548.735 299.711 548.765C299.48 548.792 299.292 548.814 299.148 548.833C298.8 548.879 298.474 548.953 298.171 549.055C297.872 549.153 297.629 549.303 297.444 549.504C297.262 549.701 297.171 549.97 297.171 550.311C297.171 550.777 297.343 551.129 297.688 551.367C298.036 551.602 298.478 551.72 299.012 551.72ZM306.596 541.083V552.72H305.255V541.083H306.596ZM312.711 552.902C311.87 552.902 311.144 552.716 310.534 552.345C309.928 551.97 309.461 551.447 309.131 550.777C308.805 550.102 308.642 549.318 308.642 548.424C308.642 547.53 308.805 546.742 309.131 546.061C309.461 545.375 309.919 544.841 310.506 544.458C311.097 544.072 311.786 543.879 312.574 543.879C313.029 543.879 313.478 543.955 313.921 544.106C314.364 544.258 314.767 544.504 315.131 544.845C315.495 545.182 315.784 545.629 316 546.186C316.216 546.742 316.324 547.428 316.324 548.242V548.811H309.597V547.652H314.961C314.961 547.159 314.862 546.72 314.665 546.333C314.472 545.947 314.195 545.642 313.836 545.419C313.48 545.195 313.059 545.083 312.574 545.083C312.04 545.083 311.578 545.216 311.188 545.481C310.801 545.742 310.504 546.083 310.296 546.504C310.087 546.924 309.983 547.375 309.983 547.856V548.629C309.983 549.288 310.097 549.847 310.324 550.305C310.555 550.759 310.875 551.106 311.284 551.345C311.694 551.58 312.169 551.697 312.711 551.697C313.063 551.697 313.381 551.648 313.665 551.549C313.953 551.447 314.201 551.295 314.409 551.095C314.618 550.89 314.779 550.636 314.892 550.333L316.188 550.697C316.051 551.136 315.822 551.523 315.5 551.856C315.178 552.186 314.781 552.443 314.307 552.629C313.834 552.811 313.301 552.902 312.711 552.902ZM324.546 545.947L323.341 546.288C323.266 546.087 323.154 545.892 323.006 545.703C322.862 545.509 322.665 545.35 322.415 545.225C322.165 545.1 321.845 545.038 321.455 545.038C320.921 545.038 320.476 545.161 320.12 545.407C319.767 545.65 319.591 545.958 319.591 546.333C319.591 546.667 319.712 546.93 319.955 547.123C320.197 547.316 320.576 547.477 321.091 547.606L322.387 547.924C323.167 548.114 323.748 548.403 324.131 548.794C324.514 549.18 324.705 549.678 324.705 550.288C324.705 550.788 324.561 551.235 324.273 551.629C323.989 552.023 323.591 552.333 323.08 552.561C322.569 552.788 321.974 552.902 321.296 552.902C320.406 552.902 319.669 552.708 319.086 552.322C318.502 551.936 318.133 551.371 317.978 550.629L319.25 550.311C319.372 550.78 319.601 551.133 319.938 551.367C320.279 551.602 320.724 551.72 321.273 551.72C321.898 551.72 322.394 551.587 322.762 551.322C323.133 551.053 323.319 550.731 323.319 550.356C323.319 550.053 323.212 549.799 323 549.595C322.788 549.386 322.462 549.231 322.023 549.129L320.569 548.788C319.769 548.599 319.182 548.305 318.807 547.907C318.436 547.506 318.25 547.004 318.25 546.402C318.25 545.909 318.389 545.474 318.665 545.095C318.945 544.716 319.326 544.419 319.807 544.203C320.292 543.987 320.841 543.879 321.455 543.879C322.319 543.879 322.997 544.068 323.489 544.447C323.985 544.826 324.337 545.326 324.546 545.947Z" fill="#1E1F24"/>
<path d="M777.49 232.37L774.262 241.097H772.899L769.671 232.37H771.126L773.535 239.324H773.626L776.035 232.37H777.49ZM779.259 241.097V232.37H780.6V241.097H779.259ZM779.328 231.188L780.714 228.552H782.282L780.509 231.188H779.328ZM786.352 241.279C785.625 241.279 784.983 241.095 784.426 240.728C783.869 240.357 783.433 239.834 783.119 239.16C782.804 238.482 782.647 237.681 782.647 236.756C782.647 235.84 782.804 235.044 783.119 234.37C783.433 233.696 783.871 233.175 784.431 232.807C784.992 232.44 785.64 232.256 786.375 232.256C786.943 232.256 787.392 232.351 787.721 232.54C788.054 232.726 788.308 232.938 788.483 233.177C788.661 233.412 788.799 233.605 788.897 233.756H789.011V229.461H790.352V241.097H789.056V239.756H788.897C788.799 239.915 788.659 240.116 788.477 240.359C788.295 240.597 788.036 240.811 787.698 241.001C787.361 241.186 786.912 241.279 786.352 241.279ZM786.534 240.074C787.072 240.074 787.526 239.934 787.897 239.654C788.268 239.37 788.551 238.978 788.744 238.478C788.937 237.974 789.034 237.393 789.034 236.734C789.034 236.082 788.939 235.512 788.75 235.023C788.56 234.531 788.28 234.148 787.909 233.876C787.537 233.599 787.079 233.461 786.534 233.461C785.965 233.461 785.492 233.607 785.113 233.898C784.738 234.186 784.456 234.578 784.267 235.074C784.081 235.567 783.988 236.12 783.988 236.734C783.988 237.355 784.083 237.919 784.272 238.427C784.465 238.931 784.75 239.332 785.125 239.631C785.503 239.927 785.973 240.074 786.534 240.074ZM796.653 241.279C795.812 241.279 795.087 241.093 794.477 240.722C793.871 240.347 793.403 239.824 793.073 239.154C792.748 238.48 792.585 237.696 792.585 236.802C792.585 235.908 792.748 235.12 793.073 234.438C793.403 233.752 793.861 233.218 794.448 232.836C795.039 232.449 795.729 232.256 796.517 232.256C796.971 232.256 797.42 232.332 797.863 232.484C798.306 232.635 798.71 232.881 799.073 233.222C799.437 233.559 799.727 234.006 799.943 234.563C800.159 235.12 800.267 235.806 800.267 236.62V237.188H793.539V236.029H798.903C798.903 235.537 798.804 235.097 798.608 234.711C798.414 234.324 798.138 234.02 797.778 233.796C797.422 233.573 797.001 233.461 796.517 233.461C795.983 233.461 795.52 233.593 795.13 233.859C794.744 234.12 794.447 234.461 794.238 234.881C794.03 235.302 793.926 235.752 793.926 236.234V237.006C793.926 237.665 794.039 238.224 794.267 238.682C794.498 239.137 794.818 239.484 795.227 239.722C795.636 239.957 796.111 240.074 796.653 240.074C797.005 240.074 797.323 240.025 797.608 239.927C797.895 239.824 798.143 239.673 798.352 239.472C798.56 239.268 798.721 239.014 798.835 238.711L800.13 239.074C799.994 239.514 799.765 239.9 799.443 240.234C799.121 240.563 798.723 240.821 798.25 241.006C797.776 241.188 797.244 241.279 796.653 241.279ZM805.852 241.279C805.064 241.279 804.373 241.091 803.778 240.716C803.187 240.341 802.725 239.817 802.392 239.143C802.062 238.468 801.897 237.681 801.897 236.779C801.897 235.87 802.062 235.076 802.392 234.398C802.725 233.72 803.187 233.194 803.778 232.819C804.373 232.444 805.064 232.256 805.852 232.256C806.64 232.256 807.329 232.444 807.92 232.819C808.515 233.194 808.977 233.72 809.306 234.398C809.64 235.076 809.806 235.87 809.806 236.779C809.806 237.681 809.64 238.468 809.306 239.143C808.977 239.817 808.515 240.341 807.92 240.716C807.329 241.091 806.64 241.279 805.852 241.279ZM805.852 240.074C806.45 240.074 806.943 239.921 807.329 239.614C807.715 239.307 808.001 238.904 808.187 238.404C808.373 237.904 808.465 237.362 808.465 236.779C808.465 236.196 808.373 235.652 808.187 235.148C808.001 234.645 807.715 234.237 807.329 233.927C806.943 233.616 806.45 233.461 805.852 233.461C805.253 233.461 804.761 233.616 804.375 233.927C803.988 234.237 803.702 234.645 803.517 235.148C803.331 235.652 803.238 236.196 803.238 236.779C803.238 237.362 803.331 237.904 803.517 238.404C803.702 238.904 803.988 239.307 804.375 239.614C804.761 239.921 805.253 240.074 805.852 240.074ZM818.035 234.324L816.831 234.665C816.755 234.465 816.643 234.27 816.495 234.08C816.351 233.887 816.154 233.728 815.904 233.603C815.654 233.478 815.334 233.415 814.944 233.415C814.41 233.415 813.965 233.538 813.609 233.785C813.257 234.027 813.081 234.336 813.081 234.711C813.081 235.044 813.202 235.307 813.444 235.501C813.687 235.694 814.065 235.855 814.581 235.984L815.876 236.302C816.656 236.491 817.238 236.781 817.62 237.171C818.003 237.557 818.194 238.056 818.194 238.665C818.194 239.165 818.05 239.612 817.762 240.006C817.478 240.4 817.081 240.711 816.569 240.938C816.058 241.165 815.463 241.279 814.785 241.279C813.895 241.279 813.158 241.086 812.575 240.699C811.992 240.313 811.622 239.749 811.467 239.006L812.74 238.688C812.861 239.158 813.09 239.51 813.427 239.745C813.768 239.98 814.213 240.097 814.762 240.097C815.387 240.097 815.884 239.965 816.251 239.699C816.622 239.431 816.808 239.109 816.808 238.734C816.808 238.431 816.702 238.177 816.49 237.972C816.277 237.764 815.952 237.609 815.512 237.506L814.058 237.165C813.259 236.976 812.671 236.682 812.296 236.285C811.925 235.883 811.74 235.381 811.74 234.779C811.74 234.287 811.878 233.851 812.154 233.472C812.435 233.093 812.815 232.796 813.296 232.58C813.781 232.364 814.331 232.256 814.944 232.256C815.808 232.256 816.486 232.446 816.978 232.824C817.474 233.203 817.827 233.703 818.035 234.324ZM770.535 271.097V259.461H771.944V269.847H777.353V271.097H770.535ZM781.921 271.302C781.368 271.302 780.867 271.198 780.416 270.989C779.965 270.777 779.607 270.472 779.342 270.074C779.077 269.673 778.944 269.188 778.944 268.62C778.944 268.12 779.043 267.715 779.24 267.404C779.437 267.09 779.7 266.843 780.029 266.665C780.359 266.487 780.723 266.355 781.12 266.268C781.522 266.177 781.925 266.105 782.331 266.052C782.861 265.984 783.291 265.932 783.62 265.898C783.954 265.86 784.196 265.798 784.348 265.711C784.503 265.624 784.581 265.472 784.581 265.256V265.211C784.581 264.65 784.427 264.215 784.12 263.904C783.817 263.593 783.357 263.438 782.74 263.438C782.099 263.438 781.598 263.578 781.234 263.859C780.87 264.139 780.615 264.438 780.467 264.756L779.194 264.302C779.421 263.771 779.724 263.359 780.103 263.063C780.486 262.764 780.902 262.556 781.353 262.438C781.808 262.317 782.255 262.256 782.694 262.256C782.974 262.256 783.296 262.29 783.66 262.359C784.027 262.423 784.382 262.557 784.723 262.762C785.067 262.966 785.353 263.275 785.581 263.688C785.808 264.101 785.921 264.654 785.921 265.347V271.097H784.581V269.915H784.512C784.421 270.105 784.27 270.307 784.058 270.523C783.846 270.739 783.563 270.923 783.211 271.074C782.859 271.226 782.429 271.302 781.921 271.302ZM782.126 270.097C782.656 270.097 783.103 269.993 783.467 269.785C783.834 269.576 784.111 269.307 784.296 268.978C784.486 268.648 784.581 268.302 784.581 267.938V266.711C784.524 266.779 784.399 266.841 784.206 266.898C784.016 266.951 783.796 266.999 783.546 267.04C783.3 267.078 783.06 267.112 782.825 267.143C782.594 267.169 782.406 267.192 782.262 267.211C781.914 267.256 781.588 267.33 781.285 267.432C780.986 267.531 780.743 267.681 780.558 267.881C780.376 268.078 780.285 268.347 780.285 268.688C780.285 269.154 780.457 269.506 780.802 269.745C781.151 269.98 781.592 270.097 782.126 270.097ZM788.369 271.097V262.37H789.664V263.688H789.755C789.914 263.256 790.202 262.906 790.619 262.637C791.036 262.368 791.505 262.234 792.028 262.234C792.126 262.234 792.25 262.235 792.397 262.239C792.545 262.243 792.657 262.249 792.733 262.256V263.62C792.687 263.609 792.583 263.591 792.42 263.569C792.261 263.542 792.092 263.529 791.914 263.529C791.49 263.529 791.111 263.618 790.778 263.796C790.448 263.97 790.187 264.213 789.994 264.523C789.804 264.83 789.71 265.181 789.71 265.574V271.097H788.369ZM797.579 274.552C796.931 274.552 796.375 274.468 795.909 274.302C795.443 274.139 795.054 273.923 794.744 273.654C794.437 273.389 794.193 273.105 794.011 272.802L795.079 272.052C795.2 272.211 795.354 272.393 795.539 272.597C795.725 272.806 795.979 272.985 796.301 273.137C796.626 273.292 797.053 273.37 797.579 273.37C798.284 273.37 798.865 273.199 799.323 272.859C799.782 272.518 800.011 271.984 800.011 271.256V269.484H799.897C799.799 269.643 799.659 269.84 799.477 270.074C799.299 270.306 799.041 270.512 798.704 270.694C798.371 270.872 797.92 270.961 797.352 270.961C796.647 270.961 796.015 270.794 795.454 270.461C794.897 270.127 794.456 269.643 794.13 269.006C793.808 268.37 793.647 267.597 793.647 266.688C793.647 265.794 793.804 265.016 794.119 264.353C794.433 263.686 794.871 263.171 795.431 262.807C795.992 262.44 796.64 262.256 797.375 262.256C797.943 262.256 798.393 262.351 798.727 262.54C799.064 262.726 799.322 262.938 799.5 263.177C799.681 263.412 799.822 263.605 799.92 263.756H800.056V262.37H801.352V271.347C801.352 272.097 801.181 272.707 800.84 273.177C800.503 273.65 800.049 273.997 799.477 274.216C798.909 274.44 798.276 274.552 797.579 274.552ZM797.534 269.756C798.072 269.756 798.526 269.633 798.897 269.387C799.268 269.141 799.551 268.787 799.744 268.324C799.937 267.862 800.034 267.309 800.034 266.665C800.034 266.037 799.939 265.482 799.75 265.001C799.56 264.52 799.28 264.143 798.909 263.87C798.537 263.597 798.079 263.461 797.534 263.461C796.965 263.461 796.492 263.605 796.113 263.893C795.738 264.181 795.456 264.567 795.267 265.052C795.081 265.537 794.988 266.074 794.988 266.665C794.988 267.271 795.083 267.807 795.272 268.273C795.465 268.735 795.75 269.099 796.125 269.364C796.503 269.626 796.973 269.756 797.534 269.756ZM807.352 271.279C806.564 271.279 805.873 271.091 805.278 270.716C804.687 270.341 804.225 269.817 803.892 269.143C803.562 268.468 803.397 267.681 803.397 266.779C803.397 265.87 803.562 265.076 803.892 264.398C804.225 263.72 804.687 263.194 805.278 262.819C805.873 262.444 806.564 262.256 807.352 262.256C808.14 262.256 808.829 262.444 809.42 262.819C810.015 263.194 810.477 263.72 810.806 264.398C811.14 265.076 811.306 265.87 811.306 266.779C811.306 267.681 811.14 268.468 810.806 269.143C810.477 269.817 810.015 270.341 809.42 270.716C808.829 271.091 808.14 271.279 807.352 271.279ZM807.352 270.074C807.95 270.074 808.443 269.921 808.829 269.614C809.215 269.307 809.501 268.904 809.687 268.404C809.873 267.904 809.965 267.362 809.965 266.779C809.965 266.196 809.873 265.652 809.687 265.148C809.501 264.645 809.215 264.237 808.829 263.927C808.443 263.616 807.95 263.461 807.352 263.461C806.753 263.461 806.261 263.616 805.875 263.927C805.488 264.237 805.202 264.645 805.017 265.148C804.831 265.652 804.738 266.196 804.738 266.779C804.738 267.362 804.831 267.904 805.017 268.404C805.202 268.904 805.488 269.307 805.875 269.614C806.261 269.921 806.753 270.074 807.352 270.074Z" fill="#1E1F24"/>
<path d="M732.773 402H731.364C731.28 401.595 731.134 401.239 730.926 400.932C730.722 400.625 730.472 400.367 730.176 400.159C729.884 399.947 729.561 399.788 729.205 399.682C728.848 399.576 728.477 399.523 728.091 399.523C727.386 399.523 726.748 399.701 726.176 400.057C725.608 400.413 725.155 400.938 724.818 401.631C724.485 402.324 724.318 403.174 724.318 404.182C724.318 405.189 724.485 406.04 724.818 406.733C725.155 407.426 725.608 407.951 726.176 408.307C726.748 408.663 727.386 408.841 728.091 408.841C728.477 408.841 728.848 408.788 729.205 408.682C729.561 408.576 729.884 408.419 730.176 408.21C730.472 407.998 730.722 407.739 730.926 407.432C731.134 407.121 731.28 406.765 731.364 406.364H732.773C732.667 406.958 732.473 407.491 732.193 407.96C731.913 408.43 731.564 408.83 731.148 409.159C730.731 409.485 730.263 409.733 729.744 409.903C729.229 410.074 728.678 410.159 728.091 410.159C727.098 410.159 726.216 409.917 725.443 409.432C724.67 408.947 724.063 408.258 723.619 407.364C723.176 406.47 722.955 405.409 722.955 404.182C722.955 402.955 723.176 401.894 723.619 401C724.063 400.106 724.67 399.417 725.443 398.932C726.216 398.447 727.098 398.205 728.091 398.205C728.678 398.205 729.229 398.29 729.744 398.46C730.263 398.631 730.731 398.881 731.148 399.21C731.564 399.536 731.913 399.934 732.193 400.403C732.473 400.869 732.667 401.402 732.773 402ZM738.413 410.182C737.625 410.182 736.934 409.994 736.339 409.619C735.749 409.244 735.286 408.72 734.953 408.045C734.624 407.371 734.459 406.583 734.459 405.682C734.459 404.773 734.624 403.979 734.953 403.301C735.286 402.623 735.749 402.097 736.339 401.722C736.934 401.347 737.625 401.159 738.413 401.159C739.201 401.159 739.891 401.347 740.482 401.722C741.076 402.097 741.538 402.623 741.868 403.301C742.201 403.979 742.368 404.773 742.368 405.682C742.368 406.583 742.201 407.371 741.868 408.045C741.538 408.72 741.076 409.244 740.482 409.619C739.891 409.994 739.201 410.182 738.413 410.182ZM738.413 408.977C739.012 408.977 739.504 408.824 739.891 408.517C740.277 408.21 740.563 407.807 740.749 407.307C740.934 406.807 741.027 406.265 741.027 405.682C741.027 405.098 740.934 404.555 740.749 404.051C740.563 403.547 740.277 403.14 739.891 402.83C739.504 402.519 739.012 402.364 738.413 402.364C737.815 402.364 737.322 402.519 736.936 402.83C736.55 403.14 736.264 403.547 736.078 404.051C735.893 404.555 735.8 405.098 735.8 405.682C735.8 406.265 735.893 406.807 736.078 407.307C736.264 407.807 736.55 408.21 736.936 408.517C737.322 408.824 737.815 408.977 738.413 408.977ZM744.415 410V401.273H745.71V402.591H745.801C745.96 402.159 746.248 401.809 746.665 401.54C747.081 401.271 747.551 401.136 748.074 401.136C748.172 401.136 748.295 401.138 748.443 401.142C748.591 401.146 748.703 401.152 748.778 401.159V402.523C748.733 402.511 748.629 402.494 748.466 402.472C748.307 402.445 748.138 402.432 747.96 402.432C747.536 402.432 747.157 402.521 746.824 402.699C746.494 402.873 746.233 403.116 746.04 403.426C745.85 403.733 745.756 404.083 745.756 404.477V410H744.415ZM754.71 401.273V402.409H750.188V401.273H754.71ZM751.506 399.182H752.847V407.5C752.847 407.879 752.902 408.163 753.011 408.352C753.125 408.538 753.269 408.663 753.443 408.727C753.621 408.788 753.809 408.818 754.006 408.818C754.153 408.818 754.275 408.811 754.369 408.795C754.464 408.777 754.54 408.761 754.597 408.75L754.869 409.955C754.778 409.989 754.652 410.023 754.489 410.057C754.326 410.095 754.119 410.114 753.869 410.114C753.491 410.114 753.119 410.032 752.756 409.869C752.396 409.706 752.097 409.458 751.858 409.125C751.623 408.792 751.506 408.371 751.506 407.864V399.182ZM760.293 410.182C759.452 410.182 758.726 409.996 758.116 409.625C757.51 409.25 757.043 408.727 756.713 408.057C756.387 407.383 756.224 406.598 756.224 405.705C756.224 404.811 756.387 404.023 756.713 403.341C757.043 402.655 757.501 402.121 758.088 401.739C758.679 401.352 759.368 401.159 760.156 401.159C760.611 401.159 761.06 401.235 761.503 401.386C761.946 401.538 762.349 401.784 762.713 402.125C763.077 402.462 763.366 402.909 763.582 403.466C763.798 404.023 763.906 404.708 763.906 405.523V406.091H757.179V404.932H762.543C762.543 404.439 762.444 404 762.247 403.614C762.054 403.227 761.777 402.922 761.418 402.699C761.062 402.475 760.641 402.364 760.156 402.364C759.622 402.364 759.16 402.496 758.77 402.761C758.384 403.023 758.086 403.364 757.878 403.784C757.67 404.205 757.565 404.655 757.565 405.136V405.909C757.565 406.568 757.679 407.127 757.906 407.585C758.137 408.04 758.457 408.386 758.866 408.625C759.276 408.86 759.751 408.977 760.293 408.977C760.645 408.977 760.963 408.928 761.247 408.83C761.535 408.727 761.783 408.576 761.991 408.375C762.2 408.17 762.361 407.917 762.474 407.614L763.77 407.977C763.634 408.417 763.404 408.803 763.082 409.136C762.76 409.466 762.363 409.723 761.889 409.909C761.416 410.091 760.884 410.182 760.293 410.182ZM772.128 403.227L770.923 403.568C770.848 403.367 770.736 403.172 770.588 402.983C770.444 402.79 770.247 402.631 769.997 402.506C769.747 402.381 769.427 402.318 769.037 402.318C768.503 402.318 768.058 402.441 767.702 402.688C767.349 402.93 767.173 403.239 767.173 403.614C767.173 403.947 767.295 404.21 767.537 404.403C767.779 404.597 768.158 404.758 768.673 404.886L769.969 405.205C770.749 405.394 771.33 405.684 771.713 406.074C772.096 406.46 772.287 406.958 772.287 407.568C772.287 408.068 772.143 408.515 771.855 408.909C771.571 409.303 771.173 409.614 770.662 409.841C770.151 410.068 769.556 410.182 768.878 410.182C767.988 410.182 767.251 409.989 766.668 409.602C766.084 409.216 765.715 408.652 765.56 407.909L766.832 407.591C766.954 408.061 767.183 408.413 767.52 408.648C767.861 408.883 768.306 409 768.855 409C769.48 409 769.976 408.867 770.344 408.602C770.715 408.333 770.901 408.011 770.901 407.636C770.901 407.333 770.795 407.08 770.582 406.875C770.37 406.667 770.045 406.511 769.605 406.409L768.151 406.068C767.351 405.879 766.764 405.585 766.389 405.188C766.018 404.786 765.832 404.284 765.832 403.682C765.832 403.189 765.971 402.754 766.247 402.375C766.527 401.996 766.908 401.699 767.389 401.483C767.874 401.267 768.423 401.159 769.037 401.159C769.901 401.159 770.579 401.348 771.071 401.727C771.567 402.106 771.92 402.606 772.128 403.227ZM723.886 416.364L727.341 426.159H727.477L730.932 416.364H732.409L728.136 428H726.682L722.409 416.364H723.886ZM734.04 428V419.273H735.381V428H734.04ZM734.108 418.091L735.494 415.455H737.062L735.29 418.091H734.108ZM741.132 428.182C740.405 428.182 739.763 427.998 739.206 427.631C738.649 427.259 738.214 426.737 737.899 426.062C737.585 425.384 737.428 424.583 737.428 423.659C737.428 422.742 737.585 421.947 737.899 421.273C738.214 420.598 738.651 420.078 739.212 419.71C739.772 419.343 740.42 419.159 741.155 419.159C741.723 419.159 742.172 419.254 742.501 419.443C742.835 419.629 743.089 419.841 743.263 420.08C743.441 420.314 743.579 420.508 743.678 420.659H743.791V416.364H745.132V428H743.837V426.659H743.678C743.579 426.818 743.439 427.019 743.257 427.261C743.075 427.5 742.816 427.714 742.479 427.903C742.142 428.089 741.693 428.182 741.132 428.182ZM741.314 426.977C741.852 426.977 742.306 426.837 742.678 426.557C743.049 426.273 743.331 425.881 743.524 425.381C743.717 424.877 743.814 424.295 743.814 423.636C743.814 422.985 743.719 422.415 743.53 421.926C743.34 421.434 743.06 421.051 742.689 420.778C742.318 420.502 741.859 420.364 741.314 420.364C740.746 420.364 740.272 420.509 739.893 420.801C739.518 421.089 739.236 421.481 739.047 421.977C738.861 422.47 738.768 423.023 738.768 423.636C738.768 424.258 738.863 424.822 739.053 425.33C739.246 425.833 739.53 426.235 739.905 426.534C740.284 426.83 740.753 426.977 741.314 426.977ZM751.433 428.182C750.592 428.182 749.867 427.996 749.257 427.625C748.651 427.25 748.183 426.727 747.854 426.057C747.528 425.383 747.365 424.598 747.365 423.705C747.365 422.811 747.528 422.023 747.854 421.341C748.183 420.655 748.642 420.121 749.229 419.739C749.82 419.352 750.509 419.159 751.297 419.159C751.751 419.159 752.2 419.235 752.643 419.386C753.087 419.538 753.49 419.784 753.854 420.125C754.217 420.462 754.507 420.909 754.723 421.466C754.939 422.023 755.047 422.708 755.047 423.523V424.091H748.32V422.932H753.683C753.683 422.439 753.585 422 753.388 421.614C753.195 421.227 752.918 420.922 752.558 420.699C752.202 420.475 751.782 420.364 751.297 420.364C750.763 420.364 750.301 420.496 749.911 420.761C749.524 421.023 749.227 421.364 749.018 421.784C748.81 422.205 748.706 422.655 748.706 423.136V423.909C748.706 424.568 748.82 425.127 749.047 425.585C749.278 426.04 749.598 426.386 750.007 426.625C750.416 426.86 750.892 426.977 751.433 426.977C751.786 426.977 752.104 426.928 752.388 426.83C752.676 426.727 752.924 426.576 753.132 426.375C753.34 426.17 753.501 425.917 753.615 425.614L754.911 425.977C754.774 426.417 754.545 426.803 754.223 427.136C753.901 427.466 753.503 427.723 753.03 427.909C752.556 428.091 752.024 428.182 751.433 428.182ZM760.632 428.182C759.844 428.182 759.153 427.994 758.558 427.619C757.967 427.244 757.505 426.72 757.172 426.045C756.842 425.371 756.678 424.583 756.678 423.682C756.678 422.773 756.842 421.979 757.172 421.301C757.505 420.623 757.967 420.097 758.558 419.722C759.153 419.347 759.844 419.159 760.632 419.159C761.42 419.159 762.109 419.347 762.7 419.722C763.295 420.097 763.757 420.623 764.087 421.301C764.42 421.979 764.587 422.773 764.587 423.682C764.587 424.583 764.42 425.371 764.087 426.045C763.757 426.72 763.295 427.244 762.7 427.619C762.109 427.994 761.42 428.182 760.632 428.182ZM760.632 426.977C761.231 426.977 761.723 426.824 762.109 426.517C762.496 426.21 762.782 425.807 762.967 425.307C763.153 424.807 763.246 424.265 763.246 423.682C763.246 423.098 763.153 422.555 762.967 422.051C762.782 421.547 762.496 421.14 762.109 420.83C761.723 420.519 761.231 420.364 760.632 420.364C760.034 420.364 759.541 420.519 759.155 420.83C758.768 421.14 758.482 421.547 758.297 422.051C758.111 422.555 758.018 423.098 758.018 423.682C758.018 424.265 758.111 424.807 758.297 425.307C758.482 425.807 758.768 426.21 759.155 426.517C759.541 426.824 760.034 426.977 760.632 426.977ZM772.815 421.227L771.611 421.568C771.535 421.367 771.423 421.172 771.276 420.983C771.132 420.79 770.935 420.631 770.685 420.506C770.435 420.381 770.115 420.318 769.724 420.318C769.19 420.318 768.745 420.441 768.389 420.688C768.037 420.93 767.861 421.239 767.861 421.614C767.861 421.947 767.982 422.21 768.224 422.403C768.467 422.597 768.846 422.758 769.361 422.886L770.656 423.205C771.437 423.394 772.018 423.684 772.401 424.074C772.783 424.46 772.974 424.958 772.974 425.568C772.974 426.068 772.83 426.515 772.543 426.909C772.259 427.303 771.861 427.614 771.349 427.841C770.838 428.068 770.243 428.182 769.565 428.182C768.675 428.182 767.938 427.989 767.355 427.602C766.772 427.216 766.402 426.652 766.247 425.909L767.52 425.591C767.641 426.061 767.87 426.413 768.207 426.648C768.548 426.883 768.993 427 769.543 427C770.168 427 770.664 426.867 771.031 426.602C771.402 426.333 771.588 426.011 771.588 425.636C771.588 425.333 771.482 425.08 771.27 424.875C771.058 424.667 770.732 424.511 770.293 424.409L768.838 424.068C768.039 423.879 767.452 423.585 767.077 423.188C766.705 422.786 766.52 422.284 766.52 421.682C766.52 421.189 766.658 420.754 766.935 420.375C767.215 419.996 767.596 419.699 768.077 419.483C768.562 419.267 769.111 419.159 769.724 419.159C770.588 419.159 771.266 419.348 771.759 419.727C772.255 420.106 772.607 420.606 772.815 421.227ZM723.409 446V434.364H724.818V439.545H731.023V434.364H732.432V446H731.023V440.795H724.818V446H723.409ZM738.616 446.182C737.829 446.182 737.137 445.994 736.543 445.619C735.952 445.244 735.49 444.72 735.156 444.045C734.827 443.371 734.662 442.583 734.662 441.682C734.662 440.773 734.827 439.979 735.156 439.301C735.49 438.623 735.952 438.097 736.543 437.722C737.137 437.347 737.829 437.159 738.616 437.159C739.404 437.159 740.094 437.347 740.685 437.722C741.279 438.097 741.741 438.623 742.071 439.301C742.404 439.979 742.571 440.773 742.571 441.682C742.571 442.583 742.404 443.371 742.071 444.045C741.741 444.72 741.279 445.244 740.685 445.619C740.094 445.994 739.404 446.182 738.616 446.182ZM738.616 444.977C739.215 444.977 739.707 444.824 740.094 444.517C740.48 444.21 740.766 443.807 740.952 443.307C741.137 442.807 741.23 442.265 741.23 441.682C741.23 441.098 741.137 440.555 740.952 440.051C740.766 439.547 740.48 439.14 740.094 438.83C739.707 438.519 739.215 438.364 738.616 438.364C738.018 438.364 737.526 438.519 737.139 438.83C736.753 439.14 736.467 439.547 736.281 440.051C736.096 440.555 736.003 441.098 736.003 441.682C736.003 442.265 736.096 442.807 736.281 443.307C736.467 443.807 736.753 444.21 737.139 444.517C737.526 444.824 738.018 444.977 738.616 444.977ZM744.618 446V437.273H745.913V438.591H746.004C746.163 438.159 746.451 437.809 746.868 437.54C747.285 437.271 747.754 437.136 748.277 437.136C748.375 437.136 748.499 437.138 748.646 437.142C748.794 437.146 748.906 437.152 748.982 437.159V438.523C748.936 438.511 748.832 438.494 748.669 438.472C748.51 438.445 748.341 438.432 748.163 438.432C747.739 438.432 747.36 438.521 747.027 438.699C746.697 438.873 746.436 439.116 746.243 439.426C746.054 439.733 745.959 440.083 745.959 440.477V446H744.618ZM750.571 446V437.273H751.912V446H750.571ZM751.253 435.818C750.991 435.818 750.766 435.729 750.577 435.551C750.391 435.373 750.298 435.159 750.298 434.909C750.298 434.659 750.391 434.445 750.577 434.267C750.766 434.089 750.991 434 751.253 434C751.514 434 751.738 434.089 751.923 434.267C752.113 434.445 752.207 434.659 752.207 434.909C752.207 435.159 752.113 435.373 751.923 435.551C751.738 435.729 751.514 435.818 751.253 435.818ZM754.118 446V444.977L759.072 438.614V438.523H754.277V437.273H760.8V438.341L755.982 444.659V444.75H760.959V446H754.118ZM766.32 446.182C765.532 446.182 764.84 445.994 764.246 445.619C763.655 445.244 763.193 444.72 762.859 444.045C762.53 443.371 762.365 442.583 762.365 441.682C762.365 440.773 762.53 439.979 762.859 439.301C763.193 438.623 763.655 438.097 764.246 437.722C764.84 437.347 765.532 437.159 766.32 437.159C767.107 437.159 767.797 437.347 768.388 437.722C768.982 438.097 769.445 438.623 769.774 439.301C770.107 439.979 770.274 440.773 770.274 441.682C770.274 442.583 770.107 443.371 769.774 444.045C769.445 444.72 768.982 445.244 768.388 445.619C767.797 445.994 767.107 446.182 766.32 446.182ZM766.32 444.977C766.918 444.977 767.411 444.824 767.797 444.517C768.183 444.21 768.469 443.807 768.655 443.307C768.84 442.807 768.933 442.265 768.933 441.682C768.933 441.098 768.84 440.555 768.655 440.051C768.469 439.547 768.183 439.14 767.797 438.83C767.411 438.519 766.918 438.364 766.32 438.364C765.721 438.364 765.229 438.519 764.842 438.83C764.456 439.14 764.17 439.547 763.984 440.051C763.799 440.555 763.706 441.098 763.706 441.682C763.706 442.265 763.799 442.807 763.984 443.307C764.17 443.807 764.456 444.21 764.842 444.517C765.229 444.824 765.721 444.977 766.32 444.977ZM773.662 440.75V446H772.321V437.273H773.616V438.636H773.73C773.935 438.193 774.245 437.837 774.662 437.568C775.079 437.295 775.616 437.159 776.276 437.159C776.866 437.159 777.384 437.28 777.827 437.523C778.27 437.761 778.615 438.125 778.861 438.614C779.107 439.098 779.23 439.712 779.23 440.455V446H777.889V440.545C777.889 439.86 777.711 439.326 777.355 438.943C776.999 438.557 776.51 438.364 775.889 438.364C775.461 438.364 775.079 438.456 774.741 438.642C774.408 438.828 774.145 439.098 773.952 439.455C773.759 439.811 773.662 440.242 773.662 440.75ZM785.476 437.273V438.409H780.953V437.273H785.476ZM782.271 435.182H783.612V443.5C783.612 443.879 783.667 444.163 783.777 444.352C783.891 444.538 784.035 444.663 784.209 444.727C784.387 444.788 784.574 444.818 784.771 444.818C784.919 444.818 785.04 444.811 785.135 444.795C785.23 444.777 785.305 444.761 785.362 444.75L785.635 445.955C785.544 445.989 785.417 446.023 785.254 446.057C785.091 446.095 784.885 446.114 784.635 446.114C784.256 446.114 783.885 446.032 783.521 445.869C783.161 445.706 782.862 445.458 782.624 445.125C782.389 444.792 782.271 444.371 782.271 443.864V435.182ZM790.061 446.205C789.508 446.205 789.006 446.1 788.555 445.892C788.105 445.68 787.747 445.375 787.482 444.977C787.216 444.576 787.084 444.091 787.084 443.523C787.084 443.023 787.182 442.617 787.379 442.307C787.576 441.992 787.839 441.746 788.169 441.568C788.499 441.39 788.862 441.258 789.26 441.17C789.661 441.08 790.065 441.008 790.47 440.955C791 440.886 791.43 440.835 791.76 440.801C792.093 440.763 792.336 440.701 792.487 440.614C792.643 440.527 792.72 440.375 792.72 440.159V440.114C792.72 439.553 792.567 439.117 792.26 438.807C791.957 438.496 791.497 438.341 790.879 438.341C790.239 438.341 789.737 438.481 789.374 438.761C789.01 439.042 788.754 439.341 788.607 439.659L787.334 439.205C787.561 438.674 787.864 438.261 788.243 437.966C788.625 437.667 789.042 437.458 789.493 437.341C789.947 437.22 790.394 437.159 790.834 437.159C791.114 437.159 791.436 437.193 791.8 437.261C792.167 437.326 792.521 437.46 792.862 437.665C793.207 437.869 793.493 438.178 793.72 438.591C793.947 439.004 794.061 439.557 794.061 440.25V446H792.72V444.818H792.652C792.561 445.008 792.41 445.21 792.197 445.426C791.985 445.642 791.703 445.826 791.351 445.977C790.999 446.129 790.569 446.205 790.061 446.205ZM790.266 445C790.796 445 791.243 444.896 791.607 444.688C791.974 444.479 792.25 444.21 792.436 443.881C792.625 443.551 792.72 443.205 792.72 442.841V441.614C792.663 441.682 792.538 441.744 792.345 441.801C792.156 441.854 791.936 441.902 791.686 441.943C791.44 441.981 791.199 442.015 790.964 442.045C790.733 442.072 790.546 442.095 790.402 442.114C790.054 442.159 789.728 442.233 789.425 442.335C789.125 442.434 788.883 442.583 788.697 442.784C788.516 442.981 788.425 443.25 788.425 443.591C788.425 444.057 788.597 444.409 788.942 444.648C789.29 444.883 789.732 445 790.266 445ZM797.849 434.364V446H796.509V434.364H797.849ZM803.964 446.182C803.124 446.182 802.398 445.996 801.788 445.625C801.182 445.25 800.714 444.727 800.385 444.057C800.059 443.383 799.896 442.598 799.896 441.705C799.896 440.811 800.059 440.023 800.385 439.341C800.714 438.655 801.173 438.121 801.76 437.739C802.351 437.352 803.04 437.159 803.828 437.159C804.283 437.159 804.732 437.235 805.175 437.386C805.618 437.538 806.021 437.784 806.385 438.125C806.749 438.462 807.038 438.909 807.254 439.466C807.47 440.023 807.578 440.708 807.578 441.523V442.091H800.851V440.932H806.214C806.214 440.439 806.116 440 805.919 439.614C805.726 439.227 805.449 438.922 805.089 438.699C804.733 438.475 804.313 438.364 803.828 438.364C803.294 438.364 802.832 438.496 802.442 438.761C802.055 439.023 801.758 439.364 801.55 439.784C801.341 440.205 801.237 440.655 801.237 441.136V441.909C801.237 442.568 801.351 443.127 801.578 443.585C801.809 444.04 802.129 444.386 802.538 444.625C802.947 444.86 803.423 444.977 803.964 444.977C804.317 444.977 804.635 444.928 804.919 444.83C805.207 444.727 805.455 444.576 805.663 444.375C805.872 444.17 806.033 443.917 806.146 443.614L807.442 443.977C807.305 444.417 807.076 444.803 806.754 445.136C806.432 445.466 806.035 445.723 805.561 445.909C805.088 446.091 804.555 446.182 803.964 446.182ZM815.8 439.227L814.595 439.568C814.519 439.367 814.408 439.172 814.26 438.983C814.116 438.79 813.919 438.631 813.669 438.506C813.419 438.381 813.099 438.318 812.709 438.318C812.175 438.318 811.73 438.441 811.374 438.688C811.021 438.93 810.845 439.239 810.845 439.614C810.845 439.947 810.966 440.21 811.209 440.403C811.451 440.597 811.83 440.758 812.345 440.886L813.641 441.205C814.421 441.394 815.002 441.684 815.385 442.074C815.768 442.46 815.959 442.958 815.959 443.568C815.959 444.068 815.815 444.515 815.527 444.909C815.243 445.303 814.845 445.614 814.334 445.841C813.822 446.068 813.228 446.182 812.55 446.182C811.66 446.182 810.923 445.989 810.339 445.602C809.756 445.216 809.387 444.652 809.232 443.909L810.504 443.591C810.625 444.061 810.855 444.413 811.192 444.648C811.533 444.883 811.978 445 812.527 445C813.152 445 813.648 444.867 814.016 444.602C814.387 444.333 814.572 444.011 814.572 443.636C814.572 443.333 814.466 443.08 814.254 442.875C814.042 442.667 813.716 442.511 813.277 442.409L811.822 442.068C811.023 441.879 810.436 441.585 810.061 441.188C809.69 440.786 809.504 440.284 809.504 439.682C809.504 439.189 809.643 438.754 809.919 438.375C810.199 437.996 810.58 437.699 811.061 437.483C811.546 437.267 812.095 437.159 812.709 437.159C813.572 437.159 814.25 437.348 814.743 437.727C815.239 438.106 815.591 438.606 815.8 439.227Z" fill="#1E1F24"/>
<defs>
<filter id="filter0_f_1739_3161" x="0.941406" y="0.0913086" width="796.183" height="730.256" filterUnits="userSpaceOnUse" color-interpolation-filters="sRGB">
<feFlood flood-opacity="0" result="BackgroundImageFix"/>
<feBlend mode="normal" in="SourceGraphic" in2="BackgroundImageFix" result="shape"/>
<feGaussianBlur stdDeviation="75" result="effect1_foregroundBlur_1739_3161"/>
</filter>
<filter id="filter1_d_1739_3161" x="344.545" y="171.879" width="391.348" height="211.235" filterUnits="userSpaceOnUse" color-interpolation-filters="sRGB">
<feFlood flood-opacity="0" result="BackgroundImageFix"/>
<feColorMatrix in="SourceAlpha" type="matrix" values="0 0 0 0 0 0 0 0 0 0 0 0 0 0 0 0 0 0 127 0" result="hardAlpha"/>
<feMorphology radius="24" operator="erode" in="SourceAlpha" result="effect1_dropShadow_1739_3161"/>
<feOffset dx="6" dy="31"/>
<feGaussianBlur stdDeviation="15.9"/>
<feComposite in2="hardAlpha" operator="out"/>
<feColorMatrix type="matrix" values="0 0 0 0 0 0 0 0 0 0 0 0 0 0 0 0 0 0 0.16 0"/>
<feBlend mode="normal" in2="BackgroundImageFix" result="effect1_dropShadow_1739_3161"/>
<feBlend mode="normal" in="SourceGraphic" in2="effect1_dropShadow_1739_3161" result="shape"/>
</filter>
<filter id="filter2_d_1739_3161" x="382.123" y="382.612" width="298.424" height="161.078" filterUnits="userSpaceOnUse" color-interpolation-filters="sRGB">
<feFlood flood-opacity="0" result="BackgroundImageFix"/>
<feColorMatrix in="SourceAlpha" type="matrix" values="0 0 0 0 0 0 0 0 0 0 0 0 0 0 0 0 0 0 127 0" result="hardAlpha"/>
<feMorphology radius="18.3013" operator="erode" in="SourceAlpha" result="effect1_dropShadow_1739_3161"/>
<feOffset dx="4.57533" dy="23.6392"/>
<feGaussianBlur stdDeviation="12.1246"/>
<feComposite in2="hardAlpha" operator="out"/>
<feColorMatrix type="matrix" values="0 0 0 0 0 0 0 0 0 0 0 0 0 0 0 0 0 0 0.16 0"/>
<feBlend mode="normal" in2="BackgroundImageFix" result="effect1_dropShadow_1739_3161"/>
<feBlend mode="normal" in="SourceGraphic" in2="effect1_dropShadow_1739_3161" result="shape"/>
</filter>
<filter id="filter3_d_1739_3161" x="119.172" y="171.879" width="208.517" height="383.936" filterUnits="userSpaceOnUse" color-interpolation-filters="sRGB">
<feFlood flood-opacity="0" result="BackgroundImageFix"/>
<feColorMatrix in="SourceAlpha" type="matrix" values="0 0 0 0 0 0 0 0 0 0 0 0 0 0 0 0 0 0 127 0" result="hardAlpha"/>
<feMorphology radius="25.8018" operator="erode" in="SourceAlpha" result="effect1_dropShadow_1739_3161"/>
<feOffset dx="6.45045" dy="33.3273"/>
<feGaussianBlur stdDeviation="17.0937"/>
<feComposite in2="hardAlpha" operator="out"/>
<feColorMatrix type="matrix" values="0 0 0 0 0 0 0 0 0 0 0 0 0 0 0 0 0 0 0.16 0"/>
<feBlend mode="normal" in2="BackgroundImageFix" result="effect1_dropShadow_1739_3161"/>
<feBlend mode="normal" in="SourceGraphic" in2="effect1_dropShadow_1739_3161" result="shape"/>
</filter>
<linearGradient id="paint0_linear_1739_3161" x1="618.174" y1="565.281" x2="350.62" y2="308.882" gradientUnits="userSpaceOnUse">
<stop stop-color="#CAFF1F"/>
<stop offset="0.676598" stop-color="#32FECA"/>
</linearGradient>
</defs>
</svg>
