<svg width="828" height="731" viewBox="0 0 828 731" fill="none" xmlns="http://www.w3.org/2000/svg">
<g filter="url(#filter0_f_1739_3161)">
<path d="M641.913 484.077C616.851 416.007 532.461 332.754 565.034 268.25C588.433 221.911 550.951 185.084 522.8 168.31L416.33 150.618C303.676 256.574 134.408 292.206 152.838 310.664C175.874 333.737 244.361 514.54 274.732 498.908C305.102 483.277 338.794 485.595 464.187 552.293C589.58 618.99 666.975 552.147 641.913 484.077Z" fill="url(#paint0_linear_1739_3161)"/>
<path d="M513.668 163.385C516.523 164.757 519.601 166.404 522.8 168.31M522.8 168.31C550.951 185.084 588.433 221.911 565.034 268.25C532.461 332.754 616.851 416.007 641.913 484.077C666.975 552.147 589.58 618.99 464.187 552.293C338.794 485.595 305.102 483.277 274.732 498.908C244.361 514.54 175.874 333.737 152.838 310.664C134.408 292.206 303.676 256.574 416.33 150.618L522.8 168.31Z" stroke="black"/>
</g>
<g filter="url(#filter1_d_1739_3161)">
<rect x="722.093" y="171.879" width="172.435" height="375.748" rx="11" transform="rotate(90 722.093 171.879)" fill="#D9D9D9" fill-opacity="0.34" shape-rendering="crispEdges"/>
<rect x="721.593" y="172.379" width="171.435" height="374.748" rx="10.5" transform="rotate(90 721.593 172.379)" stroke="white" shape-rendering="crispEdges"/>
</g>
<g filter="url(#filter2_d_1739_3161)">
<rect x="670.023" y="382.612" width="131.491" height="286.529" rx="8.38811" transform="rotate(90 670.023 382.612)" fill="#D9D9D9" fill-opacity="0.34" shape-rendering="crispEdges"/>
<rect x="669.642" y="382.993" width="130.729" height="285.766" rx="8.00683" transform="rotate(90 669.642 382.993)" stroke="white" stroke-width="0.762555" shape-rendering="crispEdges"/>
</g>
<g filter="url(#filter3_d_1739_3161)">
<rect x="121.107" y="171.879" width="191.746" height="342.223" rx="11.8258" fill="#D9D9D9" fill-opacity="0.34" shape-rendering="crispEdges"/>
<rect x="121.645" y="172.417" width="190.671" height="341.148" rx="11.2883" stroke="white" stroke-width="1.07507" shape-rendering="crispEdges"/>
</g>
<path d="M547.125 223.85H521.308C508.873 223.85 498.793 233.595 498.793 245.617V270.577C498.793 282.599 508.873 292.345 521.308 292.345H547.125C559.56 292.345 569.64 282.599 569.64 270.577V245.617C569.64 233.595 559.56 223.85 547.125 223.85Z" fill="#F7F7F7" fill-opacity="0.6"/>
<path d="M525.229 270.367V245.857C525.229 244.507 526.871 243.717 528.047 244.515L545.171 256.027C546.69 257.046 546.69 259.16 545.171 260.179L527.995 271.691C526.844 272.464 525.229 271.691 525.229 270.375V270.367Z" fill="#1E1F24"/>
<path d="M536.6 422.242H516.913C507.431 422.242 499.744 429.674 499.744 438.841V457.875C499.744 467.042 507.431 474.474 516.913 474.474H536.6C546.082 474.474 553.769 467.042 553.769 457.875V438.841C553.769 429.674 546.082 422.242 536.6 422.242Z" fill="#F7F7F7" fill-opacity="0.6"/>
<path d="M519.902 457.714V439.024C519.902 437.995 521.155 437.392 522.052 438.001L535.109 446.78C536.268 447.556 536.268 449.168 535.109 449.945L522.012 458.724C521.134 459.313 519.902 458.724 519.902 457.72V457.714Z" fill="#1E1F24"/>
<path d="M228.193 313.242H205.768C194.966 313.242 186.21 321.708 186.21 332.15V353.832C186.21 364.274 194.966 372.74 205.768 372.74H228.193C238.995 372.74 247.751 364.274 247.751 353.832V332.15C247.751 321.708 238.995 313.242 228.193 313.242Z" fill="#F7F7F7" fill-opacity="0.6"/>
<path d="M209.173 353.649V332.359C209.173 331.186 210.599 330.5 211.621 331.194L226.496 341.193C227.815 342.078 227.815 343.915 226.496 344.8L211.576 354.799C210.576 355.471 209.173 354.799 209.173 353.656V353.649Z" fill="#1E1F24"/>
<rect x="650.331" y="305.63" width="57.923" height="31" rx="4" fill="black" fill-opacity="0.67"/>
<path d="M659.118 326.63V325.079L662.743 321.723C663.051 321.425 663.309 321.157 663.518 320.918C663.73 320.679 663.891 320.446 664 320.217C664.11 319.985 664.164 319.735 664.164 319.466C664.164 319.168 664.096 318.911 663.961 318.696C663.825 318.477 663.639 318.31 663.404 318.194C663.168 318.074 662.902 318.015 662.603 318.015C662.292 318.015 662.02 318.078 661.788 318.204C661.556 318.329 661.377 318.51 661.251 318.745C661.125 318.981 661.062 319.261 661.062 319.586H659.019C659.019 318.919 659.17 318.341 659.471 317.851C659.773 317.36 660.195 316.981 660.739 316.712C661.283 316.444 661.909 316.309 662.618 316.309C663.347 316.309 663.982 316.439 664.522 316.697C665.066 316.952 665.489 317.307 665.79 317.761C666.092 318.215 666.243 318.735 666.243 319.322C666.243 319.707 666.166 320.086 666.014 320.461C665.865 320.835 665.598 321.251 665.213 321.708C664.829 322.163 664.287 322.708 663.588 323.344L662.101 324.801V324.87H666.377V326.63H659.118ZM671.929 326.854C671.074 326.851 670.338 326.64 669.721 326.223C669.108 325.805 668.636 325.2 668.305 324.408C667.976 323.616 667.814 322.663 667.817 321.549C667.817 320.439 667.981 319.493 668.309 318.711C668.641 317.928 669.113 317.333 669.726 316.926C670.343 316.515 671.077 316.309 671.929 316.309C672.781 316.309 673.513 316.515 674.126 316.926C674.743 317.337 675.217 317.933 675.548 318.716C675.88 319.494 676.044 320.439 676.04 321.549C676.04 322.666 675.875 323.621 675.543 324.413C675.215 325.205 674.744 325.81 674.131 326.228C673.518 326.645 672.784 326.854 671.929 326.854ZM671.929 325.069C672.512 325.069 672.978 324.776 673.326 324.189C673.674 323.603 673.846 322.723 673.843 321.549C673.843 320.777 673.763 320.134 673.604 319.62C673.448 319.107 673.226 318.721 672.938 318.462C672.653 318.204 672.317 318.074 671.929 318.074C671.349 318.074 670.885 318.364 670.537 318.944C670.189 319.524 670.013 320.393 670.01 321.549C670.01 322.332 670.088 322.985 670.243 323.508C670.403 324.029 670.626 324.42 670.915 324.682C671.203 324.94 671.541 325.069 671.929 325.069ZM678.833 325.447C678.505 325.447 678.223 325.331 677.988 325.099C677.756 324.867 677.64 324.585 677.64 324.254C677.64 323.929 677.756 323.651 677.988 323.419C678.223 323.187 678.505 323.071 678.833 323.071C679.151 323.071 679.43 323.187 679.668 323.419C679.907 323.651 680.026 323.929 680.026 324.254C680.026 324.473 679.97 324.673 679.857 324.856C679.748 325.034 679.604 325.179 679.425 325.288C679.246 325.394 679.049 325.447 678.833 325.447ZM678.833 320.451C678.505 320.451 678.223 320.335 677.988 320.103C677.756 319.871 677.64 319.589 677.64 319.258C677.64 318.933 677.756 318.656 677.988 318.427C678.223 318.195 678.505 318.079 678.833 318.079C679.151 318.079 679.43 318.195 679.668 318.427C679.907 318.656 680.026 318.933 680.026 319.258C680.026 319.48 679.97 319.682 679.857 319.864C679.748 320.043 679.604 320.186 679.425 320.292C679.246 320.398 679.049 320.451 678.833 320.451ZM681.745 326.63V325.079L685.369 321.723C685.678 321.425 685.936 321.157 686.145 320.918C686.357 320.679 686.518 320.446 686.627 320.217C686.737 319.985 686.791 319.735 686.791 319.466C686.791 319.168 686.723 318.911 686.588 318.696C686.452 318.477 686.266 318.31 686.031 318.194C685.795 318.074 685.529 318.015 685.23 318.015C684.919 318.015 684.647 318.078 684.415 318.204C684.183 318.329 684.004 318.51 683.878 318.745C683.752 318.981 683.689 319.261 683.689 319.586H681.646C681.646 318.919 681.797 318.341 682.098 317.851C682.4 317.36 682.822 316.981 683.366 316.712C683.91 316.444 684.536 316.309 685.245 316.309C685.974 316.309 686.609 316.439 687.149 316.697C687.693 316.952 688.115 317.307 688.417 317.761C688.719 318.215 688.869 318.735 688.869 319.322C688.869 319.707 688.793 320.086 688.641 320.461C688.492 320.835 688.225 321.251 687.84 321.708C687.456 322.163 686.914 322.708 686.215 323.344L684.728 324.801V324.87H689.004V326.63H681.745ZM694.556 326.854C693.701 326.851 692.965 326.64 692.348 326.223C691.735 325.805 691.263 325.2 690.931 324.408C690.603 323.616 690.441 322.663 690.444 321.549C690.444 320.439 690.608 319.493 690.936 318.711C691.268 317.928 691.74 317.333 692.353 316.926C692.97 316.515 693.704 316.309 694.556 316.309C695.408 316.309 696.14 316.515 696.753 316.926C697.37 317.337 697.844 317.933 698.175 318.716C698.507 319.494 698.671 320.439 698.667 321.549C698.667 322.666 698.502 323.621 698.17 324.413C697.842 325.205 697.371 325.81 696.758 326.228C696.145 326.645 695.411 326.854 694.556 326.854ZM694.556 325.069C695.139 325.069 695.605 324.776 695.953 324.189C696.301 323.603 696.473 322.723 696.47 321.549C696.47 320.777 696.39 320.134 696.231 319.62C696.075 319.107 695.853 318.721 695.565 318.462C695.28 318.204 694.944 318.074 694.556 318.074C693.976 318.074 693.512 318.364 693.164 318.944C692.816 319.524 692.64 320.393 692.637 321.549C692.637 322.332 692.715 322.985 692.87 323.508C693.029 324.029 693.253 324.42 693.542 324.682C693.83 324.94 694.168 325.069 694.556 325.069Z" fill="white"/>
<rect x="619.3" y="481.36" width="42.0725" height="24.1004" rx="3.05022" fill="black" fill-opacity="0.67"/>
<path d="M629.343 489.646V497.41H627.702V491.204H627.656L625.878 492.319V490.863L627.8 489.646H629.343ZM631.071 496.045V494.753L634.312 489.646H635.427V491.435H634.767L632.724 494.669V494.73H637.33V496.045H631.071ZM634.798 497.41V495.651L634.828 495.079V489.646H636.367V497.41H634.798ZM639.383 496.508C639.133 496.508 638.918 496.419 638.738 496.242C638.562 496.066 638.473 495.851 638.473 495.598C638.473 495.35 638.562 495.138 638.738 494.961C638.918 494.784 639.133 494.696 639.383 494.696C639.626 494.696 639.838 494.784 640.02 494.961C640.202 495.138 640.293 495.35 640.293 495.598C640.293 495.765 640.25 495.918 640.164 496.057C640.081 496.193 639.971 496.303 639.834 496.387C639.698 496.467 639.547 496.508 639.383 496.508ZM639.383 492.698C639.133 492.698 638.918 492.609 638.738 492.432C638.562 492.256 638.473 492.041 638.473 491.788C638.473 491.54 638.562 491.329 638.738 491.155C638.918 490.978 639.133 490.889 639.383 490.889C639.626 490.889 639.838 490.978 640.02 491.155C640.202 491.329 640.293 491.54 640.293 491.788C640.293 491.957 640.25 492.111 640.164 492.25C640.081 492.387 639.971 492.496 639.834 492.576C639.698 492.657 639.547 492.698 639.383 492.698ZM641.604 497.41V496.227L644.367 493.668C644.602 493.441 644.8 493.236 644.959 493.054C645.12 492.872 645.243 492.694 645.326 492.52C645.41 492.343 645.452 492.152 645.452 491.947C645.452 491.72 645.4 491.524 645.296 491.36C645.193 491.193 645.051 491.065 644.872 490.977C644.692 490.886 644.489 490.84 644.261 490.84C644.024 490.84 643.816 490.888 643.639 490.984C643.463 491.08 643.326 491.218 643.23 491.397C643.134 491.577 643.086 491.79 643.086 492.038H641.528C641.528 491.53 641.643 491.089 641.873 490.715C642.103 490.341 642.425 490.052 642.84 489.847C643.254 489.642 643.732 489.54 644.273 489.54C644.829 489.54 645.313 489.638 645.725 489.836C646.139 490.03 646.461 490.301 646.691 490.647C646.921 490.993 647.036 491.39 647.036 491.837C647.036 492.13 646.978 492.42 646.862 492.705C646.748 492.991 646.545 493.308 646.252 493.657C645.958 494.003 645.545 494.419 645.012 494.904L643.878 496.015V496.068H647.139V497.41H641.604ZM651.372 497.581C650.72 497.578 650.159 497.418 649.689 497.099C649.222 496.781 648.861 496.32 648.609 495.716C648.358 495.111 648.235 494.385 648.237 493.536C648.237 492.689 648.362 491.967 648.612 491.371C648.865 490.774 649.225 490.321 649.693 490.01C650.163 489.697 650.723 489.54 651.372 489.54C652.022 489.54 652.58 489.697 653.048 490.01C653.518 490.323 653.88 490.778 654.132 491.375C654.385 491.969 654.51 492.689 654.508 493.536C654.508 494.387 654.381 495.115 654.128 495.719C653.878 496.323 653.519 496.785 653.052 497.103C652.584 497.422 652.024 497.581 651.372 497.581ZM651.372 496.22C651.817 496.22 652.172 495.996 652.438 495.549C652.703 495.101 652.834 494.43 652.832 493.536C652.832 492.947 652.771 492.456 652.65 492.065C652.531 491.673 652.362 491.378 652.142 491.181C651.925 490.984 651.668 490.886 651.372 490.886C650.93 490.886 650.576 491.107 650.311 491.549C650.045 491.991 649.912 492.654 649.909 493.536C649.909 494.132 649.968 494.63 650.087 495.029C650.208 495.426 650.379 495.724 650.599 495.924C650.819 496.121 651.077 496.22 651.372 496.22Z" fill="white"/>
<path d="M261.568 451.618V457.37L245.03 503.963H234.389L250.998 459.995H229.931V451.618H261.568ZM267.291 495.802H267.795C270.095 495.802 272.061 495.466 273.69 494.795C275.344 494.124 276.686 493.142 277.717 491.847C278.772 490.529 279.539 488.911 280.018 486.994C280.497 485.077 280.737 482.896 280.737 480.451V470.349C280.737 468.479 280.605 466.862 280.341 465.495C280.078 464.105 279.706 462.955 279.227 462.044C278.748 461.109 278.208 460.414 277.609 459.959C277.01 459.504 276.363 459.276 275.668 459.276C274.853 459.276 274.134 459.551 273.511 460.103C272.888 460.654 272.36 461.409 271.929 462.368C271.521 463.302 271.21 464.369 270.994 465.567C270.778 466.766 270.671 468 270.671 469.27C270.671 470.612 270.778 471.871 270.994 473.045C271.21 474.219 271.533 475.262 271.965 476.173C272.396 477.084 272.947 477.791 273.619 478.294C274.29 478.797 275.093 479.049 276.027 479.049C276.794 479.049 277.501 478.833 278.148 478.402C278.796 477.946 279.359 477.347 279.838 476.604C280.317 475.861 280.701 475.046 280.989 474.16C281.276 473.273 281.432 472.362 281.456 471.427L284.727 473.476C284.727 475.106 284.428 476.724 283.829 478.33C283.253 479.936 282.451 481.398 281.42 482.716C280.389 484.034 279.191 485.089 277.825 485.88C276.483 486.647 275.033 487.03 273.475 487.03C271.39 487.03 269.544 486.587 267.938 485.7C266.333 484.813 264.978 483.579 263.876 481.997C262.797 480.391 261.982 478.522 261.431 476.389C260.88 474.231 260.604 471.907 260.604 469.414C260.604 466.874 260.952 464.489 261.647 462.26C262.366 460.007 263.385 458.03 264.703 456.328C266.021 454.626 267.615 453.296 269.484 452.337C271.354 451.355 273.439 450.863 275.74 450.863C278.017 450.863 280.078 451.367 281.923 452.373C283.769 453.38 285.351 454.83 286.669 456.723C287.987 458.593 288.994 460.846 289.689 463.482C290.408 466.095 290.767 469.019 290.767 472.254V475.885C290.767 479.313 290.468 482.5 289.868 485.448C289.269 488.372 288.358 491.009 287.136 493.357C285.914 495.706 284.392 497.719 282.57 499.397C280.749 501.051 278.616 502.321 276.171 503.208C273.75 504.071 271.006 504.502 267.938 504.502H267.291V495.802ZM291.817 498.822C291.817 497.24 292.344 495.922 293.399 494.867C294.453 493.789 295.879 493.25 297.677 493.25C299.474 493.25 300.901 493.789 301.955 494.867C303.01 495.922 303.537 497.24 303.537 498.822C303.537 500.404 303.01 501.722 301.955 502.777C300.901 503.831 299.474 504.358 297.677 504.358C295.879 504.358 294.453 503.831 293.399 502.777C292.344 501.722 291.817 500.404 291.817 498.822ZM313.79 473.153H318.679C319.95 473.153 320.992 472.865 321.807 472.29C322.622 471.691 323.221 470.852 323.605 469.774C323.988 468.695 324.18 467.437 324.18 465.999C324.18 464.657 324 463.482 323.641 462.476C323.281 461.469 322.73 460.678 321.987 460.103C321.244 459.528 320.309 459.24 319.183 459.24C318.32 459.24 317.517 459.48 316.774 459.959C316.031 460.438 315.432 461.121 314.977 462.008C314.545 462.871 314.329 463.914 314.329 465.136H304.191C304.191 462.26 304.85 459.755 306.169 457.622C307.487 455.489 309.26 453.823 311.489 452.625C313.718 451.427 316.187 450.827 318.895 450.827C321.939 450.827 324.611 451.403 326.912 452.553C329.213 453.68 331.011 455.357 332.305 457.586C333.599 459.791 334.246 462.523 334.246 465.783C334.246 467.461 333.923 469.078 333.276 470.636C332.652 472.194 331.742 473.596 330.543 474.843C329.345 476.065 327.883 477.036 326.157 477.755C324.456 478.474 322.514 478.833 320.333 478.833H313.79V473.153ZM313.79 481.314V475.813H320.333C322.778 475.813 324.911 476.137 326.733 476.784C328.578 477.407 330.1 478.318 331.298 479.516C332.521 480.715 333.431 482.141 334.031 483.794C334.63 485.448 334.929 487.27 334.929 489.259C334.929 491.704 334.522 493.885 333.707 495.802C332.892 497.719 331.754 499.337 330.292 500.655C328.83 501.974 327.128 502.98 325.187 503.675C323.245 504.346 321.136 504.682 318.859 504.682C316.966 504.682 315.108 504.382 313.287 503.783C311.489 503.184 309.872 502.261 308.433 501.015C306.995 499.769 305.857 498.199 305.018 496.305C304.179 494.412 303.76 492.171 303.76 489.583H313.826C313.826 490.877 314.054 492.039 314.509 493.07C314.965 494.076 315.588 494.867 316.379 495.443C317.194 496.018 318.104 496.305 319.111 496.305C320.285 496.305 321.304 496.006 322.167 495.407C323.03 494.807 323.689 493.969 324.144 492.89C324.599 491.811 324.827 490.553 324.827 489.115C324.827 487.27 324.587 485.784 324.108 484.657C323.629 483.507 322.934 482.668 322.023 482.141C321.112 481.589 320.01 481.314 318.715 481.314H313.79ZM340.075 488.406V487.316C340.075 486.533 340.217 485.82 340.5 485.178C340.792 484.537 341.207 484.022 341.745 483.636C342.283 483.249 342.925 483.055 343.671 483.055C344.435 483.055 345.086 483.249 345.624 483.636C346.171 484.022 346.587 484.537 346.87 485.178C347.153 485.82 347.294 486.533 347.294 487.316V488.406C347.294 489.17 347.153 489.873 346.87 490.515C346.587 491.157 346.176 491.671 345.638 492.058C345.1 492.445 344.454 492.638 343.699 492.638C342.944 492.638 342.293 492.445 341.745 492.058C341.207 491.671 340.792 491.157 340.5 490.515C340.217 489.873 340.075 489.17 340.075 488.406ZM341.915 487.316V488.406C341.915 488.84 341.977 489.251 342.099 489.637C342.231 490.024 342.43 490.341 342.694 490.586C342.958 490.822 343.293 490.94 343.699 490.94C344.095 490.94 344.421 490.822 344.676 490.586C344.94 490.341 345.133 490.024 345.256 489.637C345.388 489.251 345.454 488.84 345.454 488.406V487.316C345.454 486.872 345.388 486.457 345.256 486.07C345.124 485.674 344.926 485.358 344.661 485.122C344.407 484.877 344.076 484.754 343.671 484.754C343.274 484.754 342.944 484.877 342.68 485.122C342.425 485.358 342.231 485.674 342.099 486.07C341.977 486.457 341.915 486.872 341.915 487.316ZM348.398 500.013V498.909C348.398 498.136 348.54 497.428 348.823 496.786C349.116 496.144 349.531 495.63 350.069 495.243C350.616 494.856 351.263 494.663 352.008 494.663C352.763 494.663 353.41 494.856 353.947 495.243C354.485 495.63 354.896 496.144 355.179 496.786C355.472 497.428 355.618 498.136 355.618 498.909V500.013C355.618 500.787 355.472 501.495 355.179 502.137C354.896 502.779 354.485 503.293 353.947 503.68C353.419 504.067 352.777 504.26 352.022 504.26C351.267 504.26 350.616 504.067 350.069 503.68C349.531 503.293 349.116 502.779 348.823 502.137C348.54 501.495 348.398 500.787 348.398 500.013ZM350.239 498.909V500.013C350.239 500.448 350.305 500.863 350.437 501.259C350.569 501.646 350.767 501.962 351.031 502.208C351.296 502.444 351.626 502.561 352.022 502.561C352.419 502.561 352.744 502.444 352.999 502.208C353.263 501.962 353.457 501.646 353.579 501.259C353.712 500.872 353.778 500.457 353.778 500.013V498.909C353.778 498.466 353.712 498.051 353.579 497.664C353.447 497.277 353.249 496.965 352.985 496.729C352.73 496.484 352.404 496.361 352.008 496.361C351.612 496.361 351.281 496.484 351.017 496.729C350.762 496.965 350.569 497.277 350.437 497.664C350.305 498.051 350.239 498.466 350.239 498.909ZM352.673 486.283L344.223 502.392L342.835 501.457L351.3 485.348L352.673 486.283Z" fill="black"/>
<path d="M698.412 200.2V258.097H687.301V213.851L676.269 218.097V208.811L697.222 200.2H698.412ZM731.396 200.2V258.097H720.285V213.851L709.253 218.097V208.811L730.206 200.2H731.396ZM737.64 240.925V239.722C737.64 238.858 737.796 238.071 738.109 237.363C738.432 236.654 738.89 236.087 739.484 235.66C740.077 235.233 740.786 235.019 741.609 235.019C742.452 235.019 743.171 235.233 743.765 235.66C744.369 236.087 744.827 236.654 745.14 237.363C745.452 238.071 745.609 238.858 745.609 239.722V240.925C745.609 241.769 745.452 242.545 745.14 243.253C744.827 243.962 744.374 244.529 743.78 244.957C743.187 245.384 742.473 245.597 741.64 245.597C740.807 245.597 740.088 245.384 739.484 244.957C738.89 244.529 738.432 243.962 738.109 243.253C737.796 242.545 737.64 241.769 737.64 240.925ZM739.671 239.722V240.925C739.671 241.404 739.739 241.858 739.874 242.285C740.02 242.712 740.239 243.061 740.53 243.332C740.822 243.592 741.192 243.722 741.64 243.722C742.077 243.722 742.437 243.592 742.718 243.332C743.01 243.061 743.223 242.712 743.359 242.285C743.504 241.858 743.577 241.404 743.577 240.925V239.722C743.577 239.233 743.504 238.774 743.359 238.347C743.213 237.91 742.994 237.561 742.702 237.3C742.421 237.029 742.057 236.894 741.609 236.894C741.171 236.894 740.807 237.029 740.515 237.3C740.234 237.561 740.02 237.91 739.874 238.347C739.739 238.774 739.671 239.233 739.671 239.722ZM746.827 253.738V252.519C746.827 251.665 746.984 250.884 747.296 250.175C747.619 249.467 748.077 248.899 748.671 248.472C749.275 248.045 749.989 247.832 750.812 247.832C751.645 247.832 752.359 248.045 752.952 248.472C753.546 248.899 753.999 249.467 754.312 250.175C754.635 250.884 754.796 251.665 754.796 252.519V253.738C754.796 254.592 754.635 255.373 754.312 256.082C753.999 256.79 753.546 257.358 752.952 257.785C752.369 258.212 751.661 258.425 750.827 258.425C749.994 258.425 749.275 258.212 748.671 257.785C748.077 257.358 747.619 256.79 747.296 256.082C746.984 255.373 746.827 254.592 746.827 253.738ZM748.859 252.519V253.738C748.859 254.217 748.932 254.675 749.077 255.113C749.223 255.54 749.442 255.889 749.734 256.16C750.025 256.42 750.39 256.55 750.827 256.55C751.265 256.55 751.624 256.42 751.905 256.16C752.197 255.889 752.411 255.54 752.546 255.113C752.692 254.686 752.765 254.227 752.765 253.738V252.519C752.765 252.029 752.692 251.571 752.546 251.144C752.4 250.717 752.182 250.373 751.89 250.113C751.609 249.842 751.249 249.707 750.812 249.707C750.374 249.707 750.01 249.842 749.718 250.113C749.437 250.373 749.223 250.717 749.077 251.144C748.932 251.571 748.859 252.029 748.859 252.519ZM751.546 238.582L742.218 256.363L740.687 255.332L750.03 237.55L751.546 238.582Z" fill="black"/>
<path d="M641.849 435.936H642.268C644.187 435.936 645.826 435.656 647.185 435.097C648.564 434.537 649.683 433.718 650.543 432.638C651.422 431.539 652.062 430.19 652.462 428.591C652.861 426.992 653.061 425.173 653.061 423.135V414.71C653.061 413.151 652.951 411.802 652.731 410.663C652.512 409.504 652.202 408.545 651.802 407.785C651.402 407.006 650.953 406.426 650.453 406.046C649.953 405.666 649.414 405.477 648.834 405.477C648.154 405.477 647.555 405.706 647.035 406.166C646.516 406.626 646.076 407.255 645.716 408.055C645.376 408.834 645.117 409.724 644.937 410.723C644.757 411.722 644.667 412.752 644.667 413.811C644.667 414.93 644.757 415.98 644.937 416.959C645.117 417.938 645.386 418.808 645.746 419.567C646.106 420.327 646.566 420.916 647.125 421.336C647.685 421.756 648.354 421.966 649.134 421.966C649.773 421.966 650.363 421.786 650.903 421.426C651.442 421.046 651.912 420.547 652.312 419.927C652.711 419.307 653.031 418.628 653.271 417.888C653.511 417.149 653.641 416.389 653.661 415.61L656.389 417.319C656.389 418.678 656.139 420.027 655.639 421.366C655.16 422.705 654.49 423.924 653.631 425.024C652.771 426.123 651.772 427.002 650.633 427.662C649.514 428.301 648.304 428.621 647.005 428.621C645.266 428.621 643.727 428.251 642.388 427.512C641.049 426.772 639.92 425.743 639.001 424.424C638.101 423.085 637.422 421.526 636.962 419.747C636.502 417.948 636.272 416.01 636.272 413.931C636.272 411.812 636.562 409.824 637.142 407.965C637.741 406.086 638.591 404.437 639.69 403.018C640.789 401.599 642.119 400.49 643.677 399.69C645.236 398.871 646.975 398.461 648.894 398.461C650.793 398.461 652.512 398.881 654.051 399.72C655.59 400.56 656.909 401.769 658.008 403.348C659.107 404.907 659.947 406.786 660.526 408.984C661.126 411.163 661.426 413.601 661.426 416.299V419.327C661.426 422.185 661.176 424.844 660.676 427.302C660.176 429.74 659.417 431.939 658.398 433.898C657.378 435.856 656.109 437.535 654.59 438.934C653.071 440.313 651.292 441.373 649.254 442.112C647.235 442.832 644.947 443.191 642.388 443.191H641.849V435.936ZM662.301 438.455C662.301 437.135 662.741 436.036 663.62 435.157C664.5 434.257 665.689 433.808 667.188 433.808C668.687 433.808 669.876 434.257 670.755 435.157C671.635 436.036 672.075 437.135 672.075 438.455C672.075 439.774 671.635 440.873 670.755 441.752C669.876 442.632 668.687 443.071 667.188 443.071C665.689 443.071 664.5 442.632 663.62 441.752C662.741 440.873 662.301 439.774 662.301 438.455ZM698.643 399.091V403.888L684.852 442.742H675.978L689.829 406.076H672.26V399.091H698.643ZM696.404 429.769V428.86C696.404 428.206 696.522 427.612 696.758 427.077C697.002 426.542 697.349 426.113 697.797 425.79C698.246 425.468 698.781 425.306 699.403 425.306C700.04 425.306 700.583 425.468 701.032 425.79C701.488 426.113 701.834 426.542 702.07 427.077C702.306 427.612 702.424 428.206 702.424 428.86V429.769C702.424 430.406 702.306 430.992 702.07 431.527C701.834 432.063 701.492 432.491 701.043 432.814C700.595 433.137 700.056 433.298 699.426 433.298C698.797 433.298 698.254 433.137 697.797 432.814C697.349 432.491 697.002 432.063 696.758 431.527C696.522 430.992 696.404 430.406 696.404 429.769ZM697.939 428.86V429.769C697.939 430.131 697.99 430.473 698.092 430.796C698.202 431.118 698.368 431.382 698.588 431.586C698.808 431.783 699.088 431.882 699.426 431.882C699.757 431.882 700.028 431.783 700.241 431.586C700.461 431.382 700.622 431.118 700.725 430.796C700.835 430.473 700.89 430.131 700.89 429.769V428.86C700.89 428.49 700.835 428.143 700.725 427.821C700.614 427.49 700.449 427.227 700.229 427.03C700.016 426.825 699.741 426.723 699.403 426.723C699.072 426.723 698.797 426.825 698.576 427.03C698.364 427.227 698.202 427.49 698.092 427.821C697.99 428.143 697.939 428.49 697.939 428.86ZM703.345 439.448V438.527C703.345 437.882 703.463 437.292 703.699 436.757C703.943 436.222 704.29 435.793 704.738 435.47C705.195 435.147 705.734 434.986 706.355 434.986C706.985 434.986 707.524 435.147 707.973 435.47C708.421 435.793 708.763 436.222 709 436.757C709.244 437.292 709.366 437.882 709.366 438.527V439.448C709.366 440.094 709.244 440.684 709 441.219C708.763 441.754 708.421 442.183 707.973 442.506C707.532 442.828 706.997 442.99 706.367 442.99C705.738 442.99 705.195 442.828 704.738 442.506C704.29 442.183 703.943 441.754 703.699 441.219C703.463 440.684 703.345 440.094 703.345 439.448ZM704.88 438.527V439.448C704.88 439.81 704.935 440.157 705.045 440.487C705.155 440.81 705.321 441.073 705.541 441.278C705.761 441.475 706.037 441.573 706.367 441.573C706.698 441.573 706.969 441.475 707.182 441.278C707.402 441.073 707.563 440.81 707.666 440.487C707.776 440.164 707.831 439.818 707.831 439.448V438.527C707.831 438.158 707.776 437.811 707.666 437.489C707.555 437.166 707.39 436.906 707.17 436.71C706.957 436.505 706.686 436.403 706.355 436.403C706.025 436.403 705.749 436.505 705.529 436.71C705.317 436.906 705.155 437.166 705.045 437.489C704.935 437.811 704.88 438.158 704.88 438.527ZM706.91 427.998L699.863 441.431L698.706 440.652L705.765 427.219L706.91 427.998Z" fill="black"/>
<path d="M232.632 523.083L236.087 532.879H236.223L239.678 523.083H241.155L236.882 534.72H235.428L231.155 523.083H232.632ZM245.632 534.902C244.792 534.902 244.066 534.716 243.456 534.345C242.85 533.97 242.382 533.447 242.053 532.777C241.727 532.102 241.564 531.318 241.564 530.424C241.564 529.53 241.727 528.742 242.053 528.061C242.382 527.375 242.841 526.841 243.428 526.458C244.019 526.072 244.708 525.879 245.496 525.879C245.951 525.879 246.4 525.955 246.843 526.106C247.286 526.258 247.689 526.504 248.053 526.845C248.417 527.182 248.706 527.629 248.922 528.186C249.138 528.742 249.246 529.428 249.246 530.242V530.811H242.519V529.652H247.882C247.882 529.159 247.784 528.72 247.587 528.333C247.394 527.947 247.117 527.642 246.757 527.419C246.401 527.195 245.981 527.083 245.496 527.083C244.962 527.083 244.5 527.216 244.11 527.481C243.723 527.742 243.426 528.083 243.218 528.504C243.009 528.924 242.905 529.375 242.905 529.856V530.629C242.905 531.288 243.019 531.847 243.246 532.305C243.477 532.759 243.797 533.106 244.206 533.345C244.615 533.58 245.091 533.697 245.632 533.697C245.985 533.697 246.303 533.648 246.587 533.549C246.875 533.447 247.123 533.295 247.331 533.095C247.54 532.89 247.701 532.636 247.814 532.333L249.11 532.697C248.973 533.136 248.744 533.523 248.422 533.856C248.1 534.186 247.703 534.443 247.229 534.629C246.756 534.811 246.223 534.902 245.632 534.902ZM251.286 534.72V525.992H252.581V527.311H252.672C252.831 526.879 253.119 526.528 253.536 526.259C253.953 525.991 254.422 525.856 254.945 525.856C255.043 525.856 255.167 525.858 255.314 525.862C255.462 525.866 255.574 525.871 255.65 525.879V527.242C255.604 527.231 255.5 527.214 255.337 527.191C255.178 527.165 255.009 527.152 254.831 527.152C254.407 527.152 254.028 527.241 253.695 527.419C253.365 527.593 253.104 527.835 252.911 528.146C252.721 528.453 252.627 528.803 252.627 529.197V534.72H251.286ZM261.581 525.992V527.129H257.059V525.992H261.581ZM258.377 523.902H259.718V532.22C259.718 532.599 259.773 532.883 259.882 533.072C259.996 533.258 260.14 533.383 260.314 533.447C260.492 533.508 260.68 533.538 260.877 533.538C261.025 533.538 261.146 533.53 261.24 533.515C261.335 533.496 261.411 533.481 261.468 533.47L261.74 534.674C261.65 534.708 261.523 534.742 261.36 534.777C261.197 534.814 260.99 534.833 260.74 534.833C260.362 534.833 259.99 534.752 259.627 534.589C259.267 534.426 258.968 534.178 258.729 533.845C258.494 533.511 258.377 533.091 258.377 532.583V523.902ZM263.598 534.72V525.992H264.939V534.72H263.598ZM264.28 524.538C264.019 524.538 263.793 524.449 263.604 524.271C263.418 524.093 263.326 523.879 263.326 523.629C263.326 523.379 263.418 523.165 263.604 522.987C263.793 522.809 264.019 522.72 264.28 522.72C264.542 522.72 264.765 522.809 264.951 522.987C265.14 523.165 265.235 523.379 265.235 523.629C265.235 523.879 265.14 524.093 264.951 524.271C264.765 524.449 264.542 524.538 264.28 524.538ZM270.941 534.902C270.123 534.902 269.418 534.708 268.827 534.322C268.236 533.936 267.782 533.403 267.463 532.725C267.145 532.047 266.986 531.273 266.986 530.402C266.986 529.515 267.149 528.733 267.475 528.055C267.804 527.373 268.263 526.841 268.85 526.458C269.441 526.072 270.13 525.879 270.918 525.879C271.532 525.879 272.085 525.992 272.577 526.22C273.069 526.447 273.473 526.765 273.787 527.174C274.102 527.583 274.297 528.061 274.373 528.606H273.032C272.929 528.208 272.702 527.856 272.35 527.549C272.001 527.239 271.532 527.083 270.941 527.083C270.418 527.083 269.96 527.22 269.566 527.492C269.176 527.761 268.871 528.142 268.651 528.634C268.435 529.123 268.327 529.697 268.327 530.356C268.327 531.03 268.433 531.617 268.645 532.117C268.861 532.617 269.164 533.006 269.554 533.282C269.948 533.559 270.41 533.697 270.941 533.697C271.289 533.697 271.605 533.636 271.89 533.515C272.174 533.394 272.414 533.22 272.611 532.992C272.808 532.765 272.948 532.492 273.032 532.174H274.373C274.297 532.689 274.109 533.153 273.81 533.566C273.515 533.975 273.123 534.301 272.634 534.544C272.149 534.782 271.585 534.902 270.941 534.902ZM278.901 534.924C278.348 534.924 277.846 534.82 277.395 534.612C276.944 534.4 276.587 534.095 276.321 533.697C276.056 533.295 275.924 532.811 275.924 532.242C275.924 531.742 276.022 531.337 276.219 531.027C276.416 530.712 276.679 530.466 277.009 530.288C277.338 530.11 277.702 529.977 278.1 529.89C278.501 529.799 278.905 529.727 279.31 529.674C279.84 529.606 280.27 529.555 280.6 529.521C280.933 529.483 281.176 529.42 281.327 529.333C281.482 529.246 281.56 529.095 281.56 528.879V528.833C281.56 528.273 281.407 527.837 281.1 527.527C280.797 527.216 280.337 527.061 279.719 527.061C279.079 527.061 278.577 527.201 278.213 527.481C277.85 527.761 277.594 528.061 277.446 528.379L276.174 527.924C276.401 527.394 276.704 526.981 277.083 526.686C277.465 526.386 277.882 526.178 278.333 526.061C278.787 525.939 279.234 525.879 279.674 525.879C279.954 525.879 280.276 525.913 280.64 525.981C281.007 526.045 281.361 526.18 281.702 526.384C282.047 526.589 282.333 526.898 282.56 527.311C282.787 527.724 282.901 528.277 282.901 528.97V534.72H281.56V533.538H281.492C281.401 533.727 281.249 533.93 281.037 534.146C280.825 534.362 280.543 534.545 280.191 534.697C279.838 534.849 279.408 534.924 278.901 534.924ZM279.105 533.72C279.636 533.72 280.083 533.616 280.446 533.407C280.814 533.199 281.09 532.93 281.276 532.6C281.465 532.271 281.56 531.924 281.56 531.561V530.333C281.503 530.402 281.378 530.464 281.185 530.521C280.996 530.574 280.776 530.621 280.526 530.663C280.28 530.701 280.039 530.735 279.804 530.765C279.573 530.792 279.386 530.814 279.242 530.833C278.893 530.879 278.568 530.953 278.265 531.055C277.965 531.153 277.723 531.303 277.537 531.504C277.355 531.701 277.265 531.97 277.265 532.311C277.265 532.777 277.437 533.129 277.782 533.367C278.13 533.602 278.571 533.72 279.105 533.72ZM286.689 523.083V534.72H285.348V523.083H286.689ZM239.11 543.992L235.882 552.72H234.519L231.292 543.992H232.746L235.155 550.947H235.246L237.655 543.992H239.11ZM240.88 552.72V543.992H242.221V552.72H240.88ZM241.561 542.538C241.3 542.538 241.075 542.449 240.885 542.271C240.7 542.093 240.607 541.879 240.607 541.629C240.607 541.379 240.7 541.165 240.885 540.987C241.075 540.809 241.3 540.72 241.561 540.72C241.823 540.72 242.046 540.809 242.232 540.987C242.421 541.165 242.516 541.379 242.516 541.629C242.516 541.879 242.421 542.093 242.232 542.271C242.046 542.449 241.823 542.538 241.561 542.538ZM247.972 552.902C247.245 552.902 246.603 552.718 246.046 552.35C245.489 551.979 245.053 551.456 244.739 550.782C244.425 550.104 244.267 549.303 244.267 548.379C244.267 547.462 244.425 546.667 244.739 545.992C245.053 545.318 245.491 544.797 246.051 544.43C246.612 544.063 247.26 543.879 247.995 543.879C248.563 543.879 249.012 543.974 249.341 544.163C249.675 544.349 249.928 544.561 250.103 544.799C250.281 545.034 250.419 545.227 250.517 545.379H250.631V541.083H251.972V552.72H250.676V551.379H250.517C250.419 551.538 250.279 551.739 250.097 551.981C249.915 552.22 249.656 552.434 249.319 552.623C248.981 552.809 248.533 552.902 247.972 552.902ZM248.154 551.697C248.692 551.697 249.146 551.557 249.517 551.277C249.889 550.992 250.171 550.6 250.364 550.1C250.557 549.597 250.654 549.015 250.654 548.356C250.654 547.705 250.559 547.134 250.37 546.646C250.18 546.153 249.9 545.771 249.529 545.498C249.158 545.222 248.699 545.083 248.154 545.083C247.586 545.083 247.112 545.229 246.733 545.521C246.358 545.809 246.076 546.201 245.887 546.697C245.701 547.189 245.608 547.742 245.608 548.356C245.608 548.977 245.703 549.542 245.892 550.049C246.086 550.553 246.37 550.955 246.745 551.254C247.123 551.549 247.593 551.697 248.154 551.697ZM258.273 552.902C257.432 552.902 256.707 552.716 256.097 552.345C255.491 551.97 255.023 551.447 254.694 550.777C254.368 550.102 254.205 549.318 254.205 548.424C254.205 547.53 254.368 546.742 254.694 546.061C255.023 545.375 255.481 544.841 256.069 544.458C256.659 544.072 257.349 543.879 258.137 543.879C258.591 543.879 259.04 543.955 259.483 544.106C259.926 544.258 260.33 544.504 260.694 544.845C261.057 545.182 261.347 545.629 261.563 546.186C261.779 546.742 261.887 547.428 261.887 548.242V548.811H255.159V547.652H260.523C260.523 547.159 260.425 546.72 260.228 546.333C260.034 545.947 259.758 545.642 259.398 545.419C259.042 545.195 258.622 545.083 258.137 545.083C257.603 545.083 257.141 545.216 256.75 545.481C256.364 545.742 256.067 546.083 255.858 546.504C255.65 546.924 255.546 547.375 255.546 547.856V548.629C255.546 549.288 255.659 549.847 255.887 550.305C256.118 550.759 256.438 551.106 256.847 551.345C257.256 551.58 257.731 551.697 258.273 551.697C258.625 551.697 258.944 551.648 259.228 551.549C259.516 551.447 259.764 551.295 259.972 551.095C260.18 550.89 260.341 550.636 260.455 550.333L261.75 550.697C261.614 551.136 261.385 551.523 261.063 551.856C260.741 552.186 260.343 552.443 259.87 552.629C259.396 552.811 258.864 552.902 258.273 552.902ZM267.472 552.902C266.684 552.902 265.993 552.714 265.398 552.339C264.807 551.964 264.345 551.439 264.012 550.765C263.682 550.091 263.517 549.303 263.517 548.402C263.517 547.492 263.682 546.699 264.012 546.021C264.345 545.343 264.807 544.816 265.398 544.441C265.993 544.066 266.684 543.879 267.472 543.879C268.26 543.879 268.949 544.066 269.54 544.441C270.135 544.816 270.597 545.343 270.926 546.021C271.26 546.699 271.426 547.492 271.426 548.402C271.426 549.303 271.26 550.091 270.926 550.765C270.597 551.439 270.135 551.964 269.54 552.339C268.949 552.714 268.26 552.902 267.472 552.902ZM267.472 551.697C268.07 551.697 268.563 551.544 268.949 551.237C269.336 550.93 269.622 550.527 269.807 550.027C269.993 549.527 270.086 548.985 270.086 548.402C270.086 547.818 269.993 547.275 269.807 546.771C269.622 546.267 269.336 545.86 268.949 545.549C268.563 545.239 268.07 545.083 267.472 545.083C266.873 545.083 266.381 545.239 265.995 545.549C265.608 545.86 265.322 546.267 265.137 546.771C264.951 547.275 264.858 547.818 264.858 548.402C264.858 548.985 264.951 549.527 265.137 550.027C265.322 550.527 265.608 550.93 265.995 551.237C266.381 551.544 266.873 551.697 267.472 551.697ZM281.519 552.902C280.701 552.902 279.996 552.708 279.405 552.322C278.814 551.936 278.36 551.403 278.042 550.725C277.723 550.047 277.564 549.273 277.564 548.402C277.564 547.515 277.727 546.733 278.053 546.055C278.382 545.373 278.841 544.841 279.428 544.458C280.019 544.072 280.708 543.879 281.496 543.879C282.11 543.879 282.663 543.992 283.155 544.22C283.648 544.447 284.051 544.765 284.365 545.174C284.68 545.583 284.875 546.061 284.951 546.606H283.61C283.507 546.208 283.28 545.856 282.928 545.549C282.579 545.239 282.11 545.083 281.519 545.083C280.996 545.083 280.538 545.22 280.144 545.492C279.754 545.761 279.449 546.142 279.229 546.634C279.013 547.123 278.905 547.697 278.905 548.356C278.905 549.03 279.011 549.617 279.223 550.117C279.439 550.617 279.742 551.006 280.132 551.282C280.526 551.559 280.989 551.697 281.519 551.697C281.867 551.697 282.184 551.636 282.468 551.515C282.752 551.394 282.992 551.22 283.189 550.992C283.386 550.765 283.526 550.492 283.61 550.174H284.951C284.875 550.689 284.687 551.153 284.388 551.566C284.093 551.975 283.701 552.301 283.212 552.544C282.727 552.782 282.163 552.902 281.519 552.902ZM292.411 549.152V543.992H293.752V552.72H292.411V551.242H292.32C292.115 551.686 291.797 552.063 291.365 552.373C290.934 552.68 290.388 552.833 289.729 552.833C289.184 552.833 288.699 552.714 288.275 552.475C287.85 552.233 287.517 551.869 287.275 551.384C287.032 550.896 286.911 550.28 286.911 549.538V543.992H288.252V549.447C288.252 550.083 288.43 550.591 288.786 550.97C289.146 551.349 289.604 551.538 290.161 551.538C290.494 551.538 290.833 551.453 291.178 551.282C291.526 551.112 291.818 550.85 292.053 550.498C292.292 550.146 292.411 549.697 292.411 549.152ZM300.003 543.992V545.129H295.48V543.992H300.003ZM296.799 541.902H298.14V550.22C298.14 550.599 298.194 550.883 298.304 551.072C298.418 551.258 298.562 551.383 298.736 551.447C298.914 551.508 299.102 551.538 299.299 551.538C299.446 551.538 299.568 551.53 299.662 551.515C299.757 551.496 299.833 551.481 299.89 551.47L300.162 552.674C300.071 552.708 299.944 552.742 299.782 552.777C299.619 552.814 299.412 552.833 299.162 552.833C298.783 552.833 298.412 552.752 298.049 552.589C297.689 552.426 297.39 552.178 297.151 551.845C296.916 551.511 296.799 551.091 296.799 550.583V541.902ZM308.046 545.947L306.841 546.288C306.766 546.087 306.654 545.892 306.506 545.703C306.362 545.509 306.165 545.35 305.915 545.225C305.665 545.1 305.345 545.038 304.955 545.038C304.421 545.038 303.976 545.161 303.62 545.407C303.267 545.65 303.091 545.958 303.091 546.333C303.091 546.667 303.212 546.93 303.455 547.123C303.697 547.316 304.076 547.477 304.591 547.606L305.887 547.924C306.667 548.114 307.248 548.403 307.631 548.794C308.014 549.18 308.205 549.678 308.205 550.288C308.205 550.788 308.061 551.235 307.773 551.629C307.489 552.023 307.091 552.333 306.58 552.561C306.069 552.788 305.474 552.902 304.796 552.902C303.906 552.902 303.169 552.708 302.586 552.322C302.002 551.936 301.633 551.371 301.478 550.629L302.75 550.311C302.872 550.78 303.101 551.133 303.438 551.367C303.779 551.602 304.224 551.72 304.773 551.72C305.398 551.72 305.894 551.587 306.262 551.322C306.633 551.053 306.819 550.731 306.819 550.356C306.819 550.053 306.712 549.799 306.5 549.595C306.288 549.386 305.962 549.231 305.523 549.129L304.069 548.788C303.269 548.599 302.682 548.305 302.307 547.907C301.936 547.506 301.75 547.004 301.75 546.402C301.75 545.909 301.889 545.474 302.165 545.095C302.445 544.716 302.826 544.419 303.307 544.203C303.792 543.987 304.341 543.879 304.955 543.879C305.819 543.879 306.497 544.068 306.989 544.447C307.485 544.826 307.837 545.326 308.046 545.947Z" fill="#1E1F24"/>
<path d="M770.535 241.097V229.461H771.944V239.847H777.353V241.097H770.535ZM782.899 241.279C782.111 241.279 781.42 241.091 780.825 240.716C780.234 240.341 779.772 239.817 779.438 239.143C779.109 238.468 778.944 237.681 778.944 236.779C778.944 235.87 779.109 235.076 779.438 234.398C779.772 233.72 780.234 233.194 780.825 232.819C781.42 232.444 782.111 232.256 782.899 232.256C783.687 232.256 784.376 232.444 784.967 232.819C785.562 233.194 786.024 233.72 786.353 234.398C786.687 235.076 786.853 235.87 786.853 236.779C786.853 237.681 786.687 238.468 786.353 239.143C786.024 239.817 785.562 240.341 784.967 240.716C784.376 241.091 783.687 241.279 782.899 241.279ZM782.899 240.074C783.497 240.074 783.99 239.921 784.376 239.614C784.762 239.307 785.048 238.904 785.234 238.404C785.42 237.904 785.512 237.362 785.512 236.779C785.512 236.196 785.42 235.652 785.234 235.148C785.048 234.645 784.762 234.237 784.376 233.927C783.99 233.616 783.497 233.461 782.899 233.461C782.3 233.461 781.808 233.616 781.421 233.927C781.035 234.237 780.749 234.645 780.563 235.148C780.378 235.652 780.285 236.196 780.285 236.779C780.285 237.362 780.378 237.904 780.563 238.404C780.749 238.904 781.035 239.307 781.421 239.614C781.808 239.921 782.3 240.074 782.899 240.074ZM790.241 235.847V241.097H788.9V232.37H790.196V233.734H790.309C790.514 233.29 790.824 232.934 791.241 232.665C791.658 232.393 792.196 232.256 792.855 232.256C793.446 232.256 793.963 232.377 794.406 232.62C794.849 232.859 795.194 233.222 795.44 233.711C795.686 234.196 795.809 234.809 795.809 235.552V241.097H794.468V235.643C794.468 234.957 794.29 234.423 793.934 234.04C793.578 233.654 793.09 233.461 792.468 233.461C792.04 233.461 791.658 233.554 791.321 233.739C790.987 233.925 790.724 234.196 790.531 234.552C790.338 234.908 790.241 235.34 790.241 235.847ZM801.782 244.552C801.134 244.552 800.578 244.468 800.112 244.302C799.646 244.139 799.258 243.923 798.947 243.654C798.64 243.389 798.396 243.105 798.214 242.802L799.282 242.052C799.403 242.211 799.557 242.393 799.742 242.597C799.928 242.806 800.182 242.985 800.504 243.137C800.83 243.292 801.256 243.37 801.782 243.37C802.487 243.37 803.068 243.199 803.527 242.859C803.985 242.518 804.214 241.984 804.214 241.256V239.484H804.1C804.002 239.643 803.862 239.84 803.68 240.074C803.502 240.306 803.244 240.512 802.907 240.694C802.574 240.872 802.123 240.961 801.555 240.961C800.85 240.961 800.218 240.794 799.657 240.461C799.1 240.127 798.659 239.643 798.333 239.006C798.011 238.37 797.85 237.597 797.85 236.688C797.85 235.794 798.008 235.016 798.322 234.353C798.636 233.686 799.074 233.171 799.634 232.807C800.195 232.44 800.843 232.256 801.578 232.256C802.146 232.256 802.597 232.351 802.93 232.54C803.267 232.726 803.525 232.938 803.703 233.177C803.884 233.412 804.025 233.605 804.123 233.756H804.259V232.37H805.555V241.347C805.555 242.097 805.384 242.707 805.044 243.177C804.706 243.65 804.252 243.997 803.68 244.216C803.112 244.44 802.479 244.552 801.782 244.552ZM801.737 239.756C802.275 239.756 802.729 239.633 803.1 239.387C803.472 239.141 803.754 238.787 803.947 238.324C804.14 237.862 804.237 237.309 804.237 236.665C804.237 236.037 804.142 235.482 803.953 235.001C803.763 234.52 803.483 234.143 803.112 233.87C802.741 233.597 802.282 233.461 801.737 233.461C801.169 233.461 800.695 233.605 800.316 233.893C799.941 234.181 799.659 234.567 799.47 235.052C799.284 235.537 799.191 236.074 799.191 236.665C799.191 237.271 799.286 237.807 799.475 238.273C799.669 238.735 799.953 239.099 800.328 239.364C800.706 239.626 801.176 239.756 801.737 239.756ZM777.49 247.37L774.262 256.097H772.899L769.671 247.37H771.126L773.535 254.324H773.626L776.035 247.37H777.49ZM779.259 256.097V247.37H780.6V256.097H779.259ZM779.941 245.915C779.68 245.915 779.455 245.826 779.265 245.648C779.08 245.47 778.987 245.256 778.987 245.006C778.987 244.756 779.08 244.542 779.265 244.364C779.455 244.186 779.68 244.097 779.941 244.097C780.203 244.097 780.426 244.186 780.612 244.364C780.801 244.542 780.896 244.756 780.896 245.006C780.896 245.256 780.801 245.47 780.612 245.648C780.426 245.826 780.203 245.915 779.941 245.915ZM786.352 256.279C785.625 256.279 784.983 256.095 784.426 255.728C783.869 255.357 783.433 254.834 783.119 254.16C782.804 253.482 782.647 252.681 782.647 251.756C782.647 250.84 782.804 250.044 783.119 249.37C783.433 248.696 783.871 248.175 784.431 247.807C784.992 247.44 785.64 247.256 786.375 247.256C786.943 247.256 787.392 247.351 787.721 247.54C788.054 247.726 788.308 247.938 788.483 248.177C788.661 248.412 788.799 248.605 788.897 248.756H789.011V244.461H790.352V256.097H789.056V254.756H788.897C788.799 254.915 788.659 255.116 788.477 255.359C788.295 255.597 788.036 255.811 787.698 256.001C787.361 256.186 786.912 256.279 786.352 256.279ZM786.534 255.074C787.072 255.074 787.526 254.934 787.897 254.654C788.268 254.37 788.551 253.978 788.744 253.478C788.937 252.974 789.034 252.393 789.034 251.734C789.034 251.082 788.939 250.512 788.75 250.023C788.56 249.531 788.28 249.148 787.909 248.876C787.537 248.599 787.079 248.461 786.534 248.461C785.965 248.461 785.492 248.607 785.113 248.898C784.738 249.186 784.456 249.578 784.267 250.074C784.081 250.567 783.988 251.12 783.988 251.734C783.988 252.355 784.083 252.919 784.272 253.427C784.465 253.931 784.75 254.332 785.125 254.631C785.503 254.927 785.973 255.074 786.534 255.074ZM796.653 256.279C795.812 256.279 795.087 256.093 794.477 255.722C793.871 255.347 793.403 254.824 793.073 254.154C792.748 253.48 792.585 252.696 792.585 251.802C792.585 250.908 792.748 250.12 793.073 249.438C793.403 248.752 793.861 248.218 794.448 247.836C795.039 247.449 795.729 247.256 796.517 247.256C796.971 247.256 797.42 247.332 797.863 247.484C798.306 247.635 798.71 247.881 799.073 248.222C799.437 248.559 799.727 249.006 799.943 249.563C800.159 250.12 800.267 250.806 800.267 251.62V252.188H793.539V251.029H798.903C798.903 250.537 798.804 250.097 798.608 249.711C798.414 249.324 798.138 249.02 797.778 248.796C797.422 248.573 797.001 248.461 796.517 248.461C795.983 248.461 795.52 248.593 795.13 248.859C794.744 249.12 794.447 249.461 794.238 249.881C794.03 250.302 793.926 250.752 793.926 251.234V252.006C793.926 252.665 794.039 253.224 794.267 253.682C794.498 254.137 794.818 254.484 795.227 254.722C795.636 254.957 796.111 255.074 796.653 255.074C797.005 255.074 797.323 255.025 797.608 254.927C797.895 254.824 798.143 254.673 798.352 254.472C798.56 254.268 798.721 254.014 798.835 253.711L800.13 254.074C799.994 254.514 799.765 254.9 799.443 255.234C799.121 255.563 798.723 255.821 798.25 256.006C797.776 256.188 797.244 256.279 796.653 256.279ZM805.852 256.279C805.064 256.279 804.373 256.091 803.778 255.716C803.187 255.341 802.725 254.817 802.392 254.143C802.062 253.468 801.897 252.681 801.897 251.779C801.897 250.87 802.062 250.076 802.392 249.398C802.725 248.72 803.187 248.194 803.778 247.819C804.373 247.444 805.064 247.256 805.852 247.256C806.64 247.256 807.329 247.444 807.92 247.819C808.515 248.194 808.977 248.72 809.306 249.398C809.64 250.076 809.806 250.87 809.806 251.779C809.806 252.681 809.64 253.468 809.306 254.143C808.977 254.817 808.515 255.341 807.92 255.716C807.329 256.091 806.64 256.279 805.852 256.279ZM805.852 255.074C806.45 255.074 806.943 254.921 807.329 254.614C807.715 254.307 808.001 253.904 808.187 253.404C808.373 252.904 808.465 252.362 808.465 251.779C808.465 251.196 808.373 250.652 808.187 250.148C808.001 249.645 807.715 249.237 807.329 248.927C806.943 248.616 806.45 248.461 805.852 248.461C805.253 248.461 804.761 248.616 804.375 248.927C803.988 249.237 803.702 249.645 803.517 250.148C803.331 250.652 803.238 251.196 803.238 251.779C803.238 252.362 803.331 252.904 803.517 253.404C803.702 253.904 803.988 254.307 804.375 254.614C804.761 254.921 805.253 255.074 805.852 255.074ZM818.035 249.324L816.831 249.665C816.755 249.465 816.643 249.27 816.495 249.08C816.351 248.887 816.154 248.728 815.904 248.603C815.654 248.478 815.334 248.415 814.944 248.415C814.41 248.415 813.965 248.538 813.609 248.785C813.257 249.027 813.081 249.336 813.081 249.711C813.081 250.044 813.202 250.307 813.444 250.501C813.687 250.694 814.065 250.855 814.581 250.984L815.876 251.302C816.656 251.491 817.238 251.781 817.62 252.171C818.003 252.557 818.194 253.056 818.194 253.665C818.194 254.165 818.05 254.612 817.762 255.006C817.478 255.4 817.081 255.711 816.569 255.938C816.058 256.165 815.463 256.279 814.785 256.279C813.895 256.279 813.158 256.086 812.575 255.699C811.992 255.313 811.622 254.749 811.467 254.006L812.74 253.688C812.861 254.158 813.09 254.51 813.427 254.745C813.768 254.98 814.213 255.097 814.762 255.097C815.387 255.097 815.884 254.965 816.251 254.699C816.622 254.431 816.808 254.109 816.808 253.734C816.808 253.431 816.702 253.177 816.49 252.972C816.277 252.764 815.952 252.609 815.512 252.506L814.058 252.165C813.259 251.976 812.671 251.682 812.296 251.285C811.925 250.883 811.74 250.381 811.74 249.779C811.74 249.287 811.878 248.851 812.154 248.472C812.435 248.093 812.815 247.796 813.296 247.58C813.781 247.364 814.331 247.256 814.944 247.256C815.808 247.256 816.486 247.446 816.978 247.824C817.474 248.203 817.827 248.703 818.035 249.324Z" fill="#1E1F24"/>
<path d="M723.409 410V398.364H724.818V403.545H731.023V398.364H732.432V410H731.023V404.795H724.818V410H723.409ZM738.616 410.182C737.829 410.182 737.137 409.994 736.543 409.619C735.952 409.244 735.49 408.72 735.156 408.045C734.827 407.371 734.662 406.583 734.662 405.682C734.662 404.773 734.827 403.979 735.156 403.301C735.49 402.623 735.952 402.097 736.543 401.722C737.137 401.347 737.829 401.159 738.616 401.159C739.404 401.159 740.094 401.347 740.685 401.722C741.279 402.097 741.741 402.623 742.071 403.301C742.404 403.979 742.571 404.773 742.571 405.682C742.571 406.583 742.404 407.371 742.071 408.045C741.741 408.72 741.279 409.244 740.685 409.619C740.094 409.994 739.404 410.182 738.616 410.182ZM738.616 408.977C739.215 408.977 739.707 408.824 740.094 408.517C740.48 408.21 740.766 407.807 740.952 407.307C741.137 406.807 741.23 406.265 741.23 405.682C741.23 405.098 741.137 404.555 740.952 404.051C740.766 403.547 740.48 403.14 740.094 402.83C739.707 402.519 739.215 402.364 738.616 402.364C738.018 402.364 737.526 402.519 737.139 402.83C736.753 403.14 736.467 403.547 736.281 404.051C736.096 404.555 736.003 405.098 736.003 405.682C736.003 406.265 736.096 406.807 736.281 407.307C736.467 407.807 736.753 408.21 737.139 408.517C737.526 408.824 738.018 408.977 738.616 408.977ZM744.618 410V401.273H745.913V402.591H746.004C746.163 402.159 746.451 401.809 746.868 401.54C747.285 401.271 747.754 401.136 748.277 401.136C748.375 401.136 748.499 401.138 748.646 401.142C748.794 401.146 748.906 401.152 748.982 401.159V402.523C748.936 402.511 748.832 402.494 748.669 402.472C748.51 402.445 748.341 402.432 748.163 402.432C747.739 402.432 747.36 402.521 747.027 402.699C746.697 402.873 746.436 403.116 746.243 403.426C746.054 403.733 745.959 404.083 745.959 404.477V410H744.618ZM750.571 410V401.273H751.912V410H750.571ZM751.253 399.818C750.991 399.818 750.766 399.729 750.577 399.551C750.391 399.373 750.298 399.159 750.298 398.909C750.298 398.659 750.391 398.445 750.577 398.267C750.766 398.089 750.991 398 751.253 398C751.514 398 751.738 398.089 751.923 398.267C752.113 398.445 752.207 398.659 752.207 398.909C752.207 399.159 752.113 399.373 751.923 399.551C751.738 399.729 751.514 399.818 751.253 399.818ZM754.118 410V408.977L759.072 402.614V402.523H754.277V401.273H760.8V402.341L755.982 408.659V408.75H760.959V410H754.118ZM766.32 410.182C765.532 410.182 764.84 409.994 764.246 409.619C763.655 409.244 763.193 408.72 762.859 408.045C762.53 407.371 762.365 406.583 762.365 405.682C762.365 404.773 762.53 403.979 762.859 403.301C763.193 402.623 763.655 402.097 764.246 401.722C764.84 401.347 765.532 401.159 766.32 401.159C767.107 401.159 767.797 401.347 768.388 401.722C768.982 402.097 769.445 402.623 769.774 403.301C770.107 403.979 770.274 404.773 770.274 405.682C770.274 406.583 770.107 407.371 769.774 408.045C769.445 408.72 768.982 409.244 768.388 409.619C767.797 409.994 767.107 410.182 766.32 410.182ZM766.32 408.977C766.918 408.977 767.411 408.824 767.797 408.517C768.183 408.21 768.469 407.807 768.655 407.307C768.84 406.807 768.933 406.265 768.933 405.682C768.933 405.098 768.84 404.555 768.655 404.051C768.469 403.547 768.183 403.14 767.797 402.83C767.411 402.519 766.918 402.364 766.32 402.364C765.721 402.364 765.229 402.519 764.842 402.83C764.456 403.14 764.17 403.547 763.984 404.051C763.799 404.555 763.706 405.098 763.706 405.682C763.706 406.265 763.799 406.807 763.984 407.307C764.17 407.807 764.456 408.21 764.842 408.517C765.229 408.824 765.721 408.977 766.32 408.977ZM773.662 404.75V410H772.321V401.273H773.616V402.636H773.73C773.935 402.193 774.245 401.837 774.662 401.568C775.079 401.295 775.616 401.159 776.276 401.159C776.866 401.159 777.384 401.28 777.827 401.523C778.27 401.761 778.615 402.125 778.861 402.614C779.107 403.098 779.23 403.712 779.23 404.455V410H777.889V404.545C777.889 403.86 777.711 403.326 777.355 402.943C776.999 402.557 776.51 402.364 775.889 402.364C775.461 402.364 775.079 402.456 774.741 402.642C774.408 402.828 774.145 403.098 773.952 403.455C773.759 403.811 773.662 404.242 773.662 404.75ZM785.476 401.273V402.409H780.953V401.273H785.476ZM782.271 399.182H783.612V407.5C783.612 407.879 783.667 408.163 783.777 408.352C783.891 408.538 784.035 408.663 784.209 408.727C784.387 408.788 784.574 408.818 784.771 408.818C784.919 408.818 785.04 408.811 785.135 408.795C785.23 408.777 785.305 408.761 785.362 408.75L785.635 409.955C785.544 409.989 785.417 410.023 785.254 410.057C785.091 410.095 784.885 410.114 784.635 410.114C784.256 410.114 783.885 410.032 783.521 409.869C783.161 409.706 782.862 409.458 782.624 409.125C782.389 408.792 782.271 408.371 782.271 407.864V399.182ZM790.061 410.205C789.508 410.205 789.006 410.1 788.555 409.892C788.105 409.68 787.747 409.375 787.482 408.977C787.216 408.576 787.084 408.091 787.084 407.523C787.084 407.023 787.182 406.617 787.379 406.307C787.576 405.992 787.839 405.746 788.169 405.568C788.499 405.39 788.862 405.258 789.26 405.17C789.661 405.08 790.065 405.008 790.47 404.955C791 404.886 791.43 404.835 791.76 404.801C792.093 404.763 792.336 404.701 792.487 404.614C792.643 404.527 792.72 404.375 792.72 404.159V404.114C792.72 403.553 792.567 403.117 792.26 402.807C791.957 402.496 791.497 402.341 790.879 402.341C790.239 402.341 789.737 402.481 789.374 402.761C789.01 403.042 788.754 403.341 788.607 403.659L787.334 403.205C787.561 402.674 787.864 402.261 788.243 401.966C788.625 401.667 789.042 401.458 789.493 401.341C789.947 401.22 790.394 401.159 790.834 401.159C791.114 401.159 791.436 401.193 791.8 401.261C792.167 401.326 792.521 401.46 792.862 401.665C793.207 401.869 793.493 402.178 793.72 402.591C793.947 403.004 794.061 403.557 794.061 404.25V410H792.72V408.818H792.652C792.561 409.008 792.41 409.21 792.197 409.426C791.985 409.642 791.703 409.826 791.351 409.977C790.999 410.129 790.569 410.205 790.061 410.205ZM790.266 409C790.796 409 791.243 408.896 791.607 408.688C791.974 408.479 792.25 408.21 792.436 407.881C792.625 407.551 792.72 407.205 792.72 406.841V405.614C792.663 405.682 792.538 405.744 792.345 405.801C792.156 405.854 791.936 405.902 791.686 405.943C791.44 405.981 791.199 406.015 790.964 406.045C790.733 406.072 790.546 406.095 790.402 406.114C790.054 406.159 789.728 406.233 789.425 406.335C789.125 406.434 788.883 406.583 788.697 406.784C788.516 406.981 788.425 407.25 788.425 407.591C788.425 408.057 788.597 408.409 788.942 408.648C789.29 408.883 789.732 409 790.266 409ZM797.849 398.364V410H796.509V398.364H797.849ZM730.364 419.273L727.136 428H725.773L722.545 419.273H724L726.409 426.227H726.5L728.909 419.273H730.364ZM732.134 428V419.273H733.474V428H732.134ZM732.815 417.818C732.554 417.818 732.329 417.729 732.139 417.551C731.954 417.373 731.861 417.159 731.861 416.909C731.861 416.659 731.954 416.445 732.139 416.267C732.329 416.089 732.554 416 732.815 416C733.077 416 733.3 416.089 733.486 416.267C733.675 416.445 733.77 416.659 733.77 416.909C733.77 417.159 733.675 417.373 733.486 417.551C733.3 417.729 733.077 417.818 732.815 417.818ZM739.226 428.182C738.499 428.182 737.857 427.998 737.3 427.631C736.743 427.259 736.307 426.737 735.993 426.062C735.679 425.384 735.521 424.583 735.521 423.659C735.521 422.742 735.679 421.947 735.993 421.273C736.307 420.598 736.745 420.078 737.305 419.71C737.866 419.343 738.514 419.159 739.249 419.159C739.817 419.159 740.266 419.254 740.595 419.443C740.929 419.629 741.182 419.841 741.357 420.08C741.535 420.314 741.673 420.508 741.771 420.659H741.885V416.364H743.226V428H741.93V426.659H741.771C741.673 426.818 741.533 427.019 741.351 427.261C741.169 427.5 740.91 427.714 740.572 427.903C740.235 428.089 739.786 428.182 739.226 428.182ZM739.408 426.977C739.946 426.977 740.4 426.837 740.771 426.557C741.143 426.273 741.425 425.881 741.618 425.381C741.811 424.877 741.908 424.295 741.908 423.636C741.908 422.985 741.813 422.415 741.624 421.926C741.434 421.434 741.154 421.051 740.783 420.778C740.411 420.502 739.953 420.364 739.408 420.364C738.839 420.364 738.366 420.509 737.987 420.801C737.612 421.089 737.33 421.481 737.141 421.977C736.955 422.47 736.862 423.023 736.862 423.636C736.862 424.258 736.957 424.822 737.146 425.33C737.339 425.833 737.624 426.235 737.999 426.534C738.377 426.83 738.847 426.977 739.408 426.977ZM749.527 428.182C748.686 428.182 747.961 427.996 747.351 427.625C746.745 427.25 746.277 426.727 745.947 426.057C745.622 425.383 745.459 424.598 745.459 423.705C745.459 422.811 745.622 422.023 745.947 421.341C746.277 420.655 746.735 420.121 747.322 419.739C747.913 419.352 748.603 419.159 749.391 419.159C749.845 419.159 750.294 419.235 750.737 419.386C751.18 419.538 751.584 419.784 751.947 420.125C752.311 420.462 752.601 420.909 752.817 421.466C753.033 422.023 753.141 422.708 753.141 423.523V424.091H746.413V422.932H751.777C751.777 422.439 751.679 422 751.482 421.614C751.288 421.227 751.012 420.922 750.652 420.699C750.296 420.475 749.875 420.364 749.391 420.364C748.857 420.364 748.394 420.496 748.004 420.761C747.618 421.023 747.321 421.364 747.112 421.784C746.904 422.205 746.8 422.655 746.8 423.136V423.909C746.8 424.568 746.913 425.127 747.141 425.585C747.372 426.04 747.692 426.386 748.101 426.625C748.51 426.86 748.985 426.977 749.527 426.977C749.879 426.977 750.197 426.928 750.482 426.83C750.769 426.727 751.018 426.576 751.226 426.375C751.434 426.17 751.595 425.917 751.709 425.614L753.004 425.977C752.868 426.417 752.639 426.803 752.317 427.136C751.995 427.466 751.597 427.723 751.124 427.909C750.65 428.091 750.118 428.182 749.527 428.182ZM758.726 428.182C757.938 428.182 757.247 427.994 756.652 427.619C756.061 427.244 755.599 426.72 755.266 426.045C754.936 425.371 754.771 424.583 754.771 423.682C754.771 422.773 754.936 421.979 755.266 421.301C755.599 420.623 756.061 420.097 756.652 419.722C757.247 419.347 757.938 419.159 758.726 419.159C759.514 419.159 760.203 419.347 760.794 419.722C761.389 420.097 761.851 420.623 762.18 421.301C762.514 421.979 762.68 422.773 762.68 423.682C762.68 424.583 762.514 425.371 762.18 426.045C761.851 426.72 761.389 427.244 760.794 427.619C760.203 427.994 759.514 428.182 758.726 428.182ZM758.726 426.977C759.324 426.977 759.817 426.824 760.203 426.517C760.589 426.21 760.875 425.807 761.061 425.307C761.247 424.807 761.339 424.265 761.339 423.682C761.339 423.098 761.247 422.555 761.061 422.051C760.875 421.547 760.589 421.14 760.203 420.83C759.817 420.519 759.324 420.364 758.726 420.364C758.127 420.364 757.635 420.519 757.249 420.83C756.862 421.14 756.576 421.547 756.391 422.051C756.205 422.555 756.112 423.098 756.112 423.682C756.112 424.265 756.205 424.807 756.391 425.307C756.576 425.807 756.862 426.21 757.249 426.517C757.635 426.824 758.127 426.977 758.726 426.977ZM726.773 446.182C725.955 446.182 725.25 445.989 724.659 445.602C724.068 445.216 723.614 444.684 723.295 444.006C722.977 443.328 722.818 442.553 722.818 441.682C722.818 440.795 722.981 440.013 723.307 439.335C723.636 438.653 724.095 438.121 724.682 437.739C725.273 437.352 725.962 437.159 726.75 437.159C727.364 437.159 727.917 437.273 728.409 437.5C728.902 437.727 729.305 438.045 729.619 438.455C729.934 438.864 730.129 439.341 730.205 439.886H728.864C728.761 439.489 728.534 439.136 728.182 438.83C727.833 438.519 727.364 438.364 726.773 438.364C726.25 438.364 725.792 438.5 725.398 438.773C725.008 439.042 724.703 439.422 724.483 439.915C724.267 440.403 724.159 440.977 724.159 441.636C724.159 442.311 724.265 442.898 724.477 443.398C724.693 443.898 724.996 444.286 725.386 444.562C725.78 444.839 726.242 444.977 726.773 444.977C727.121 444.977 727.438 444.917 727.722 444.795C728.006 444.674 728.246 444.5 728.443 444.273C728.64 444.045 728.78 443.773 728.864 443.455H730.205C730.129 443.97 729.941 444.434 729.642 444.847C729.347 445.256 728.955 445.581 728.466 445.824C727.981 446.062 727.417 446.182 726.773 446.182ZM737.665 442.432V437.273H739.006V446H737.665V444.523H737.574C737.369 444.966 737.051 445.343 736.619 445.653C736.188 445.96 735.642 446.114 734.983 446.114C734.438 446.114 733.953 445.994 733.528 445.756C733.104 445.513 732.771 445.15 732.528 444.665C732.286 444.176 732.165 443.561 732.165 442.818V437.273H733.506V442.727C733.506 443.364 733.684 443.871 734.04 444.25C734.4 444.629 734.858 444.818 735.415 444.818C735.748 444.818 736.087 444.733 736.432 444.562C736.78 444.392 737.072 444.131 737.307 443.778C737.545 443.426 737.665 442.977 737.665 442.432ZM745.257 437.273V438.409H740.734V437.273H745.257ZM742.053 435.182H743.393V443.5C743.393 443.879 743.448 444.163 743.558 444.352C743.672 444.538 743.816 444.663 743.99 444.727C744.168 444.788 744.356 444.818 744.553 444.818C744.7 444.818 744.821 444.811 744.916 444.795C745.011 444.777 745.087 444.761 745.143 444.75L745.416 445.955C745.325 445.989 745.198 446.023 745.036 446.057C744.873 446.095 744.666 446.114 744.416 446.114C744.037 446.114 743.666 446.032 743.303 445.869C742.943 445.706 742.643 445.458 742.405 445.125C742.17 444.792 742.053 444.371 742.053 443.864V435.182ZM753.3 439.227L752.095 439.568C752.019 439.367 751.908 439.172 751.76 438.983C751.616 438.79 751.419 438.631 751.169 438.506C750.919 438.381 750.599 438.318 750.209 438.318C749.675 438.318 749.23 438.441 748.874 438.688C748.521 438.93 748.345 439.239 748.345 439.614C748.345 439.947 748.466 440.21 748.709 440.403C748.951 440.597 749.33 440.758 749.845 440.886L751.141 441.205C751.921 441.394 752.502 441.684 752.885 442.074C753.268 442.46 753.459 442.958 753.459 443.568C753.459 444.068 753.315 444.515 753.027 444.909C752.743 445.303 752.345 445.614 751.834 445.841C751.322 446.068 750.728 446.182 750.05 446.182C749.16 446.182 748.423 445.989 747.839 445.602C747.256 445.216 746.887 444.652 746.732 443.909L748.004 443.591C748.125 444.061 748.355 444.413 748.692 444.648C749.033 444.883 749.478 445 750.027 445C750.652 445 751.148 444.867 751.516 444.602C751.887 444.333 752.072 444.011 752.072 443.636C752.072 443.333 751.966 443.08 751.754 442.875C751.542 442.667 751.216 442.511 750.777 442.409L749.322 442.068C748.523 441.879 747.936 441.585 747.561 441.188C747.19 440.786 747.004 440.284 747.004 439.682C747.004 439.189 747.143 438.754 747.419 438.375C747.699 437.996 748.08 437.699 748.561 437.483C749.046 437.267 749.595 437.159 750.209 437.159C751.072 437.159 751.75 437.348 752.243 437.727C752.739 438.106 753.091 438.606 753.3 439.227Z" fill="#1E1F24"/>
<defs>
<filter id="filter0_f_1739_3161" x="0.941406" y="0.0913086" width="796.183" height="730.256" filterUnits="userSpaceOnUse" color-interpolation-filters="sRGB">
<feFlood flood-opacity="0" result="BackgroundImageFix"/>
<feBlend mode="normal" in="SourceGraphic" in2="BackgroundImageFix" result="shape"/>
<feGaussianBlur stdDeviation="75" result="effect1_foregroundBlur_1739_3161"/>
</filter>
<filter id="filter1_d_1739_3161" x="344.545" y="171.879" width="391.348" height="211.235" filterUnits="userSpaceOnUse" color-interpolation-filters="sRGB">
<feFlood flood-opacity="0" result="BackgroundImageFix"/>
<feColorMatrix in="SourceAlpha" type="matrix" values="0 0 0 0 0 0 0 0 0 0 0 0 0 0 0 0 0 0 127 0" result="hardAlpha"/>
<feMorphology radius="24" operator="erode" in="SourceAlpha" result="effect1_dropShadow_1739_3161"/>
<feOffset dx="6" dy="31"/>
<feGaussianBlur stdDeviation="15.9"/>
<feComposite in2="hardAlpha" operator="out"/>
<feColorMatrix type="matrix" values="0 0 0 0 0 0 0 0 0 0 0 0 0 0 0 0 0 0 0.16 0"/>
<feBlend mode="normal" in2="BackgroundImageFix" result="effect1_dropShadow_1739_3161"/>
<feBlend mode="normal" in="SourceGraphic" in2="effect1_dropShadow_1739_3161" result="shape"/>
</filter>
<filter id="filter2_d_1739_3161" x="382.123" y="382.612" width="298.424" height="161.078" filterUnits="userSpaceOnUse" color-interpolation-filters="sRGB">
<feFlood flood-opacity="0" result="BackgroundImageFix"/>
<feColorMatrix in="SourceAlpha" type="matrix" values="0 0 0 0 0 0 0 0 0 0 0 0 0 0 0 0 0 0 127 0" result="hardAlpha"/>
<feMorphology radius="18.3013" operator="erode" in="SourceAlpha" result="effect1_dropShadow_1739_3161"/>
<feOffset dx="4.57533" dy="23.6392"/>
<feGaussianBlur stdDeviation="12.1246"/>
<feComposite in2="hardAlpha" operator="out"/>
<feColorMatrix type="matrix" values="0 0 0 0 0 0 0 0 0 0 0 0 0 0 0 0 0 0 0.16 0"/>
<feBlend mode="normal" in2="BackgroundImageFix" result="effect1_dropShadow_1739_3161"/>
<feBlend mode="normal" in="SourceGraphic" in2="effect1_dropShadow_1739_3161" result="shape"/>
</filter>
<filter id="filter3_d_1739_3161" x="119.172" y="171.879" width="208.517" height="383.936" filterUnits="userSpaceOnUse" color-interpolation-filters="sRGB">
<feFlood flood-opacity="0" result="BackgroundImageFix"/>
<feColorMatrix in="SourceAlpha" type="matrix" values="0 0 0 0 0 0 0 0 0 0 0 0 0 0 0 0 0 0 127 0" result="hardAlpha"/>
<feMorphology radius="25.8018" operator="erode" in="SourceAlpha" result="effect1_dropShadow_1739_3161"/>
<feOffset dx="6.45045" dy="33.3273"/>
<feGaussianBlur stdDeviation="17.0937"/>
<feComposite in2="hardAlpha" operator="out"/>
<feColorMatrix type="matrix" values="0 0 0 0 0 0 0 0 0 0 0 0 0 0 0 0 0 0 0.16 0"/>
<feBlend mode="normal" in2="BackgroundImageFix" result="effect1_dropShadow_1739_3161"/>
<feBlend mode="normal" in="SourceGraphic" in2="effect1_dropShadow_1739_3161" result="shape"/>
</filter>
<linearGradient id="paint0_linear_1739_3161" x1="618.174" y1="565.281" x2="350.62" y2="308.882" gradientUnits="userSpaceOnUse">
<stop stop-color="#CAFF1F"/>
<stop offset="0.676598" stop-color="#32FECA"/>
</linearGradient>
</defs>
</svg>
