<svg width="239" height="59" viewBox="0 0 239 59" fill="none" xmlns="http://www.w3.org/2000/svg">
<g clip-path="url(#clip0_1048_6263)">
<path d="M19.4976 16.5425C19.7068 17.0446 20.0416 17.5049 20.4182 17.8815C20.7948 18.2581 21.2551 18.551 21.7572 18.8021C22.2594 19.0113 22.9289 19.1369 23.5147 19.1369C24.1005 19.1369 24.7282 19.0113 25.2722 18.8021C25.7743 18.5929 26.2346 18.2581 26.6112 17.8815C26.9878 17.5049 27.2807 17.0446 27.5318 16.5425C27.741 16.0404 27.8665 15.4964 27.8665 14.9106V10.4332H19.1628V14.9106C19.1628 15.4964 19.2884 16.0404 19.4976 16.5425Z" fill="#606060"/>
<path d="M44.522 25.794C43.3503 23.116 41.7602 20.7727 39.7935 18.806C37.785 16.7974 35.4417 15.2073 32.8054 14.0775C31.8849 13.6591 30.8806 13.3662 29.7926 13.0732V14.9981C29.7926 15.835 29.6252 16.63 29.2905 17.3414C29.0813 17.7599 28.872 18.1783 28.5791 18.5549C29.2905 18.7223 29.96 18.9733 30.5458 19.2244C32.5544 20.1032 34.27 21.2748 35.7346 22.7812C37.1991 24.2876 38.4126 26.0451 39.2914 28.0537C40.0864 29.853 40.5467 31.7778 40.6304 33.7864H6.35958C6.44327 31.7778 6.86172 29.853 7.69861 28.0537C8.57735 26.0451 9.79085 24.2876 11.2554 22.7812C12.72 21.2748 14.4775 20.1032 16.486 19.2244C17.0718 18.9733 17.7832 18.7641 18.4527 18.5549C18.2016 18.1783 17.9506 17.8017 17.7413 17.3414C17.4066 16.5882 17.2392 15.835 17.2392 14.9981V13.0732C16.1931 13.3243 15.147 13.6591 14.2264 14.0775C11.5483 15.2492 9.20502 16.8393 7.23832 18.806C5.22978 20.8145 3.63968 23.1578 2.50987 25.794C1.33822 28.4721 0.710546 31.3594 0.668701 34.4141V58.0145H6.40143V39.4773H40.6723V58.0145H46.405V34.4141C46.3631 31.3594 45.7355 28.4721 44.5638 25.794" fill="#606060"/>
<path d="M119.926 35.8762C119.884 38.9309 119.256 41.8181 118.085 44.4962C116.913 47.1743 115.323 49.5176 113.314 51.4843C111.306 53.4928 108.963 55.0829 106.285 56.2127C103.606 57.3844 100.133 57.9702 97.0787 57.9702C94.4006 57.9702 91.1786 57.4681 88.5423 56.4638C85.9061 55.4595 83.5628 53.995 81.4706 52.1119C79.3783 50.2289 77.6627 47.9275 76.3237 45.2076C74.9847 42.4877 74.3151 39.3912 74.2314 35.9599V35.8762H79.9642C80.006 38.7216 80.5918 41.1486 81.6798 43.2409C82.7678 45.3331 84.1068 47.0487 85.7387 48.3878C87.3707 49.7268 89.17 50.7311 91.053 51.4006C92.9779 52.0283 95.363 52.363 97.0368 52.363C99.2546 52.363 102.016 51.9446 104.025 51.0658C106.033 50.1871 107.791 49.0154 109.255 47.509C110.72 46.0026 111.934 44.2451 112.812 42.2366C113.691 40.228 114.151 38.094 114.151 35.8344H119.884L119.926 35.8762Z" fill="#606060"/>
<path d="M50.1722 12.2805C53.2269 12.3224 56.1142 12.95 58.7922 14.1217C61.4703 15.2933 63.8136 16.8834 65.7803 18.892C67.7888 20.9005 69.3789 23.2438 70.5088 25.9219C71.6804 28.6 72.2662 32.0731 72.2662 35.1277C72.2662 37.8058 71.7641 41.0278 70.7598 43.6641C69.7555 46.3003 68.291 48.6436 66.408 50.7358C64.525 52.8281 62.2235 54.5437 59.5036 55.8827C56.7837 57.2217 53.6872 57.8913 50.2559 57.975H50.1722V52.2422C53.0177 52.2004 55.4447 51.6146 57.5369 50.5266C59.6291 49.4386 61.3448 48.0996 62.6838 46.4677C64.0228 44.8357 65.0271 43.0364 65.6966 41.1534C66.3243 39.2285 66.659 36.8434 66.659 35.1696C66.659 32.9518 66.2406 30.1901 65.3619 28.1815C64.4831 26.173 63.3115 24.4155 61.805 22.9509C60.2986 21.4864 58.5412 20.2729 56.5326 19.3941C54.5241 18.5154 52.39 18.0551 50.1304 18.0551V12.3224L50.1722 12.2805Z" fill="#606060"/>
<path d="M143.988 52.322C146.75 52.322 149.386 51.6525 151.855 50.3135C154.324 48.9745 156.333 47.1333 157.797 44.79L162.609 47.8446C160.643 50.983 157.964 53.4518 154.575 55.293C151.186 57.1342 147.629 58.0548 143.863 58.0548C140.432 58.0129 137.335 57.3016 134.615 55.9625C131.895 54.6235 129.552 52.9497 127.669 50.8575C125.744 48.7652 124.321 46.4219 123.275 43.7857C122.271 41.1913 121.769 38.5551 121.769 35.9189C121.769 32.9061 122.355 30.0606 123.526 27.3826C124.698 24.7045 126.288 22.3612 128.255 20.3945C130.263 18.386 132.607 16.7959 135.326 15.6661C138.046 14.4944 140.892 13.8667 143.905 13.8249C147.964 13.8249 151.771 14.871 155.286 16.9632C158.801 19.0555 161.479 21.8172 163.279 25.2485L164.492 27.55L132.397 47.6354C133.82 48.9745 135.452 50.1043 137.335 50.9412C139.218 51.8199 141.436 52.2802 144.03 52.322M127.543 35.9189C127.543 38.1785 128.087 40.5218 129.217 42.907L156.877 25.6669C155.412 23.7421 153.529 22.2357 151.186 21.1477C148.884 20.0598 146.457 19.4739 143.946 19.4739C141.687 19.4739 139.553 19.9342 137.544 20.813C135.536 21.6917 133.82 22.9052 132.356 24.3698C130.891 25.8343 129.719 27.5918 128.841 29.6003C127.962 31.6089 127.543 33.7011 127.543 35.9189Z" fill="#606060"/>
<path d="M172.189 35.8788C172.231 38.7242 172.817 41.1512 173.905 43.2434C174.993 45.3357 176.332 47.0513 177.964 48.3903C179.596 49.7294 181.353 50.7337 183.278 51.4032C185.203 52.0308 186.961 52.3656 188.634 52.3656V57.9728C185.998 57.9728 183.362 57.4706 180.768 56.4664C178.173 55.4621 175.788 53.9975 173.696 52.1145C171.604 50.2315 169.888 47.9301 168.591 45.2101C167.252 42.4902 166.582 39.3937 166.499 35.9625V0.854736H172.231V35.8788H172.189Z" fill="#606060"/>
<path d="M236.337 25.7957C235.166 23.1176 233.575 20.7743 231.609 18.8076C229.6 16.799 227.257 15.2089 224.621 14.0791C221.943 12.9075 218.469 12.3217 215.457 12.3217C215.457 12.3217 215.373 12.3217 215.331 12.3217C215.331 12.3217 215.247 12.3217 215.206 12.3217C212.193 12.3217 208.72 12.9075 206.042 14.0791C203.364 15.2508 201.02 16.8409 199.054 18.8076C197.045 20.8161 195.455 23.1594 194.325 25.7957C193.153 28.4737 192.526 31.361 192.484 34.4157V58.0161H198.217V39.4789H215.373H232.529V58.0161H238.262V34.4157C238.22 31.361 237.593 28.4737 236.421 25.7957M215.415 33.7462H198.3C198.384 31.7376 198.802 29.8127 199.639 28.0134C200.518 26.0049 201.732 24.2474 203.196 22.741C204.661 21.2346 206.418 20.0629 208.427 19.1842C210.435 18.3055 213.155 17.887 215.373 17.887C215.373 17.887 215.457 17.887 215.498 17.887C215.498 17.887 215.582 17.887 215.624 17.887C217.842 17.887 220.562 18.3055 222.57 19.1842C224.579 20.0629 226.294 21.2346 227.759 22.741C229.224 24.2474 230.437 26.0049 231.316 28.0134C232.111 29.8127 232.571 31.7376 232.655 33.7462H215.54H215.415Z" fill="#606060"/>
</g>
<defs>
<clipPath id="clip0_1048_6263">
<rect width="237.553" height="57.1599" fill="white" transform="translate(0.627441 0.854492)"/>
</clipPath>
</defs>
</svg>
