<svg width="159" height="45" viewBox="0 0 159 45" fill="none" xmlns="http://www.w3.org/2000/svg">
<g clip-path="url(#clip0_1048_6297)">
<path d="M54.8741 22.5213C55.5104 22.9223 56.4628 23.2431 57.656 23.4837C58.8491 23.8045 60.1197 23.8847 61.3924 23.8847C62.6651 23.8847 63.7766 23.7243 64.8106 23.4035C65.8447 23.0827 66.7175 22.6015 67.513 22.0401C68.3084 21.4787 68.8652 20.6766 69.2608 19.8768C69.6585 19.0748 69.8972 18.1145 69.8972 17.0719C69.8972 15.7887 69.4994 14.6681 68.7835 13.6255C68.0676 12.663 66.7971 11.8632 65.0471 11.3018L61.6289 10.179C60.3562 9.77798 59.4038 9.29677 58.9265 8.81557C58.4493 8.33436 58.2106 7.85316 58.2106 7.05331C58.2106 6.0909 58.6084 5.29106 59.3242 4.89005C60.0401 4.48905 61.1516 4.16825 62.5834 4.16825C64.3312 4.16825 65.8426 4.48905 67.2722 5.13066C67.6699 5.29106 67.9881 5.45146 68.2267 5.45146C68.6245 5.45146 68.7835 5.21086 68.7835 4.64945V3.52664C68.7835 3.20583 68.704 2.88503 68.5449 2.72463C68.3858 2.56423 68.1472 2.32362 67.829 2.08302C67.5904 1.92262 67.1927 1.76222 66.7949 1.68201C66.3972 1.52161 65.92 1.44141 65.4427 1.28101C64.9654 1.20081 64.4086 1.04041 63.854 0.960206C63.2971 0.880005 62.7403 0.880005 62.1857 0.880005C61.1516 0.880005 60.1197 1.04041 59.1652 1.28101C58.2106 1.60181 57.3378 2.00282 56.6219 2.56423C55.906 3.20583 55.2696 3.84744 54.8741 4.64728C54.4764 5.44929 54.2377 6.32934 54.2377 7.37195C54.2377 8.65517 54.6354 9.85601 55.4309 10.8986C56.2263 12.0214 57.4969 12.8213 59.3264 13.3827L62.8242 14.5055C64.0173 14.9065 64.8106 15.3075 65.2879 15.7887C65.7652 16.2699 65.9243 16.8313 65.9243 17.4708C65.9243 18.4332 65.5265 19.233 64.6516 19.7944C63.7766 20.3558 62.6651 20.5964 61.0742 20.5964C60.1197 20.5964 59.1673 20.5162 58.2128 20.2756C57.2583 20.035 56.3854 19.7944 55.5104 19.3934C55.2718 19.3132 55.0332 19.233 54.8741 19.1528C54.715 19.0726 54.5559 19.0726 54.3968 19.0726C53.9991 19.0726 53.84 19.3132 53.84 19.8746V21.0776C53.84 21.3183 53.9195 21.5589 53.9991 21.7995C54.1582 22.1203 54.4764 22.2807 54.8741 22.5213ZM13.8573 10.6602C12.9823 10.4998 12.1095 10.4998 11.314 10.4998C8.85031 10.4998 6.86386 11.1414 5.35252 12.4224C3.92073 13.7057 3.12744 15.3877 3.12744 17.4708C3.12744 19.5538 3.68425 20.9974 4.87526 22.1983C6.06842 23.4013 7.65715 23.9606 9.72315 23.9606C12.5846 23.9606 14.9688 22.8377 16.8778 20.5943C17.1164 21.1557 17.3551 21.6369 17.5937 22.0379C17.8323 22.4389 18.1505 22.8399 18.4687 23.1607C18.7073 23.4013 18.946 23.4815 19.1846 23.4815C19.3437 23.4815 19.5823 23.4013 19.8209 23.2409L21.3301 22.1983C21.6483 21.9577 21.8074 21.7171 21.8074 21.4765C21.8074 21.3161 21.7278 21.1557 21.6483 20.9151C21.3301 20.2735 21.012 19.7121 20.8529 19.1528C20.6938 18.5914 20.5347 17.8696 20.5347 16.9896V8.97597C20.5347 6.3315 19.8188 4.32865 18.5482 2.96523C17.2755 1.60181 15.0505 0.962373 12.189 0.962373C10.8368 0.962373 9.56621 1.12278 8.37305 1.44358C7.17989 1.76438 6.14797 2.16539 5.35252 2.56639C5.03435 2.7268 4.79572 2.8872 4.71617 3.0476C4.63663 3.208 4.55708 3.52881 4.55708 3.92981V5.13282C4.55708 5.61403 4.71617 5.93483 5.03435 5.93483C5.11389 5.93483 5.27298 5.93483 5.43207 5.85463C5.59116 5.77443 5.90933 5.69423 6.30705 5.53383C7.18204 5.21303 8.05487 4.89222 8.92986 4.73182C9.80484 4.49122 10.6777 4.41102 11.5527 4.41102C13.38 4.41102 14.7323 4.81202 15.5277 5.53383C16.3232 6.25564 16.6413 7.61689 16.6413 9.46151V11.2238C15.6051 10.981 14.7323 10.8206 13.8573 10.6602ZM16.6392 14.9889C16.6392 15.7909 16.5596 16.5105 16.4005 17.0719C16.2415 17.6333 16.0028 18.1947 15.6051 18.6738C14.9688 19.3956 14.1733 19.957 13.3005 20.1954C12.4255 20.436 11.5527 20.6766 10.7572 20.6766C9.64361 20.6766 8.77077 20.3558 8.21396 19.7944C7.57761 19.233 7.33898 18.3508 7.33898 17.2302C7.33898 16.0272 7.7367 15.0669 8.53214 14.4253C9.32758 13.7837 10.5186 13.4629 12.1095 13.4629C12.8254 13.4629 13.6187 13.5431 14.4141 13.6233C15.2095 13.7035 15.9233 13.8639 16.6392 14.0243V14.9889ZM28.8008 22.1203C28.9599 22.6015 29.119 22.9223 29.2781 23.0827C29.4372 23.2431 29.7554 23.3233 30.2326 23.3233H32.2986C32.7759 23.3233 33.0941 23.2431 33.2531 23.0827C33.4122 22.9223 33.5713 22.6015 33.7304 22.1203L37.4668 6.3315L41.2828 22.1203C41.3623 22.6015 41.5214 22.9223 41.7601 23.0827C41.9987 23.2431 42.3169 23.3233 42.7146 23.3233H44.7806C45.1783 23.3233 45.4965 23.2431 45.7351 23.0827C45.8942 22.9223 46.1328 22.6015 46.2124 22.1203L52.0943 3.20583C52.1739 2.96523 52.2534 2.72463 52.2534 2.56423C52.2534 2.40382 52.333 2.32362 52.333 2.16322C52.333 1.76222 52.1739 1.52161 51.6966 1.52161H49.4715C48.9943 1.52161 48.6761 1.60181 48.517 1.76222C48.3579 1.92262 48.1988 2.24342 48.0397 2.72463L43.826 19.1528L40.0101 2.80483C39.9305 2.32362 39.7715 2.00282 39.5328 1.84242C39.3737 1.68201 38.976 1.60181 38.5783 1.60181H36.5918C36.1146 1.60181 35.7964 1.68201 35.6373 1.84242C35.4782 2.00282 35.2396 2.24342 35.16 2.80483L31.3441 18.9946L27.2895 2.72463C27.1304 2.24342 26.9713 1.92262 26.8122 1.76222C26.6531 1.60181 26.335 1.52161 25.8577 1.52161H23.4735C23.0758 1.52161 22.8372 1.68201 22.8372 2.16322C22.8372 2.32362 22.9167 2.64443 23.0758 3.12563C23.0779 3.12563 28.8008 22.1203 28.8008 22.1203Z" fill="#606060"/>
<path d="M64.8083 33.9813C55.8263 37.8288 46.1284 39.6713 37.2259 39.6713C24.1097 39.6713 11.3934 36.0644 1.13867 29.9734C0.263681 29.412 -0.450066 30.3744 0.343225 31.016C9.88206 39.6713 22.4393 44.88 36.4304 44.88C46.367 44.88 57.9718 41.7543 65.9993 35.7436C67.2742 34.8635 66.1606 33.4199 64.8083 33.9813Z" fill="#606060"/>
<path d="M59.8014 30.6153C59.0855 31.0965 59.2445 31.8183 59.9604 31.7381C62.5037 31.4173 68.2266 30.7757 69.2607 32.0589C70.2947 33.4223 68.147 38.7915 67.1947 41.2755C66.8765 41.9973 67.5128 42.3181 68.1492 41.7567C72.4424 38.1498 73.5539 30.5373 72.6789 29.4946C71.8835 28.2916 64.3332 27.3292 59.8014 30.6153Z" fill="#606060"/>
<path d="M91.914 18.2729C91.7549 18.2729 91.5958 18.1927 91.5958 17.9521V4.72763C91.5958 4.56723 91.6754 4.40683 91.914 4.40683H92.3117C92.5504 4.40683 92.6299 4.48703 92.6299 4.72763L92.7094 5.52964C93.2662 5.04843 93.9026 4.72763 94.4573 4.48703C95.0119 4.24642 95.5709 4.16622 96.2051 4.16622C97.4778 4.16622 98.4302 4.64743 99.1461 5.52964C99.862 6.41185 100.26 7.6929 100.26 9.21672C100.26 10.8186 99.862 12.1018 99.1461 13.0642C98.4302 14.0266 97.3982 14.5078 96.046 14.5078C94.8528 14.5078 93.8209 14.0266 92.7868 13.1444V17.9521C92.7868 18.1125 92.7073 18.2729 92.4687 18.2729H91.914ZM95.8869 13.4652C96.921 13.4652 97.7143 13.1444 98.2711 12.4226C98.8279 11.7008 99.0665 10.6603 99.0665 9.29692C99.0665 6.57225 98.0324 5.20884 95.9665 5.20884C94.9324 5.20884 93.8209 5.60984 92.7868 6.41185V12.1018C93.3436 12.583 93.8209 12.9038 94.296 13.0642C94.7754 13.3048 95.3301 13.385 95.8869 13.4652ZM104.948 14.4276C104.073 14.4276 103.36 14.187 102.803 13.6256C102.326 13.1444 102.007 12.4226 102.007 11.5425C102.007 10.5801 102.326 9.86049 102.962 9.29909C103.598 8.73768 104.471 8.49708 105.585 8.49708C106.46 8.49708 107.333 8.65748 108.367 8.97828V7.37643C108.367 6.57442 108.208 6.01301 107.81 5.69438C107.412 5.37357 106.855 5.21317 105.983 5.21317C105.11 5.21317 104.155 5.37357 103.201 5.69438C103.121 5.69438 102.962 5.77458 102.882 5.77458C102.723 5.77458 102.723 5.69438 102.723 5.53398V5.21317C102.723 5.13297 102.723 5.05277 102.803 4.97257L102.962 4.81217C103.996 4.41116 105.028 4.17056 106.221 4.17056C107.414 4.17056 108.208 4.41116 108.764 4.89237C109.321 5.37357 109.56 6.09538 109.56 7.05563V13.9486C109.56 14.109 109.48 14.2694 109.242 14.2694H108.844C108.685 14.2694 108.526 14.1892 108.526 13.9486L108.446 13.1466C107.333 14.0266 106.142 14.5078 104.948 14.4276ZM105.108 13.4652C105.585 13.4652 106.142 13.385 106.696 13.1444C107.253 12.9038 107.81 12.6632 108.444 12.2622V9.85833C107.614 9.6329 106.759 9.52668 105.901 9.53752C104.073 9.53752 103.199 10.2593 103.199 11.6206C103.199 12.2622 103.358 12.6632 103.676 12.984C103.994 13.3048 104.471 13.385 105.108 13.4652ZM112.817 14.2672C112.658 14.2672 112.499 14.187 112.499 13.9464V4.7298C112.499 4.5694 112.578 4.40899 112.817 4.40899H113.215C113.453 4.40899 113.533 4.48919 113.533 4.7298L113.612 5.85261C114.09 5.2912 114.567 4.8902 115.044 4.7298C115.521 4.48919 116.078 4.40899 116.633 4.40899H117.11C117.269 4.40899 117.428 4.48919 117.428 4.7298V5.211C117.428 5.26447 117.402 5.31794 117.349 5.37141C117.349 5.45161 117.269 5.45161 117.19 5.45161H116.474C115.917 5.45161 115.36 5.53181 114.885 5.77241C114.408 6.01301 114.01 6.33382 113.533 6.81502V13.9486C113.533 14.109 113.453 14.2694 113.215 14.2694H112.817V14.2672ZM122.515 14.3474C121.719 14.3474 121.163 14.187 120.767 13.7058C120.369 13.3048 120.131 12.7434 120.131 11.9436V5.45161H118.621C118.462 5.45161 118.303 5.37141 118.303 5.1308V4.9704C118.303 4.8902 118.303 4.81 118.383 4.7298C118.462 4.6496 118.462 4.6496 118.621 4.6496L120.21 4.48919L120.369 1.92493C120.369 1.84473 120.449 1.76453 120.449 1.68433C120.449 1.60413 120.528 1.60413 120.687 1.60413H121.006C121.165 1.60413 121.324 1.68433 121.324 1.92493V4.48919H124.106C124.265 4.48919 124.424 4.5694 124.424 4.81V5.211C124.424 5.37141 124.344 5.53181 124.106 5.53181H121.324V11.8634C121.324 12.4248 121.403 12.7456 121.642 12.9862C121.881 13.2268 122.278 13.307 122.756 13.307C123.153 13.307 123.472 13.307 123.71 13.2268C123.869 13.2268 123.949 13.1466 124.028 13.1466H124.187C124.346 13.1466 124.426 13.2268 124.426 13.3872V13.708C124.426 13.9486 124.346 14.0288 124.187 14.109C123.708 14.2672 123.151 14.3474 122.515 14.3474ZM126.808 14.2672C126.649 14.2672 126.49 14.187 126.49 13.9464V4.7298C126.49 4.5694 126.569 4.40899 126.808 4.40899H127.206C127.444 4.40899 127.524 4.48919 127.524 4.7298L127.603 5.53181C128.24 5.0506 128.876 4.7298 129.59 4.48919C130.306 4.24859 130.942 4.08819 131.656 4.08819C132.61 4.08819 133.324 4.32879 133.801 4.81C134.279 5.2912 134.517 6.01301 134.517 7.05346V13.8662C134.517 14.0266 134.438 14.187 134.199 14.187H133.722C133.563 14.187 133.404 14.1068 133.404 13.8662V7.53467C133.404 6.73266 133.245 6.09105 132.926 5.69221C132.608 5.2912 132.052 5.1308 131.417 5.1308C130.145 5.1308 128.874 5.53181 127.681 6.33382V13.8662C127.681 14.0266 127.601 14.187 127.363 14.187L126.808 14.2672ZM141.593 14.5078C140.083 14.5078 138.89 14.1068 138.095 13.2246C137.299 12.3424 136.902 11.0613 136.902 9.29692C136.902 7.69507 137.299 6.41185 138.095 5.44944C138.89 4.56723 140.002 4.08602 141.354 4.08602C142.547 4.08602 143.42 4.40683 144.056 5.12864C144.693 5.77024 145.011 6.81069 145.011 8.0137C145.011 8.57511 145.011 8.89591 144.931 9.21672C144.852 9.37712 144.772 9.53752 144.613 9.53752H138.095C138.095 10.9009 138.413 11.9414 138.97 12.583C139.527 13.2246 140.479 13.5454 141.672 13.5454C142.627 13.5454 143.499 13.385 144.295 13.0642C144.454 12.984 144.613 12.984 144.613 12.984C144.666 12.984 144.719 13.0107 144.772 13.0642C144.825 13.1177 144.852 13.1711 144.852 13.2246V13.4652C144.852 13.7058 144.772 13.786 144.613 13.8662C143.74 14.2672 142.706 14.5078 141.593 14.5078ZM143.979 8.65748V8.01587C143.979 7.05346 143.74 6.33382 143.263 5.85261C142.786 5.37141 142.149 5.1308 141.276 5.1308C139.21 5.1308 138.176 6.33382 138.017 8.57728H143.979V8.65748ZM147.793 14.2672C147.634 14.2672 147.474 14.187 147.474 13.9464V4.7298C147.474 4.5694 147.554 4.40899 147.793 4.40899H148.19C148.429 4.40899 148.509 4.48919 148.509 4.7298L148.588 5.85261C149.065 5.2912 149.543 4.8902 150.02 4.7298C150.497 4.48919 151.054 4.40899 151.609 4.40899H152.086C152.245 4.40899 152.404 4.48919 152.404 4.7298V5.211C152.404 5.26447 152.378 5.31794 152.325 5.37141C152.325 5.45161 152.245 5.45161 152.165 5.45161H151.45C150.893 5.45161 150.336 5.53181 149.861 5.77241C149.384 6.01301 148.986 6.33382 148.509 6.81502V13.9486C148.509 14.109 148.429 14.2694 148.19 14.2694H147.793V14.2672ZM91.914 35.8261C91.7549 35.8261 91.5958 35.7459 91.5958 35.5053V26.3689C91.5958 26.2085 91.6754 26.0481 91.914 26.0481H92.3117C92.5504 26.0481 92.6299 26.1283 92.6299 26.3689L92.7094 27.1709C93.3458 26.6897 93.9822 26.3689 94.6959 26.1283C95.4118 25.8877 96.0481 25.7273 96.7619 25.7273C97.7164 25.7273 98.4302 25.9679 98.9074 26.4491C99.3847 26.9303 99.6233 27.6521 99.6233 28.6926V35.5053C99.6233 35.6657 99.5438 35.8261 99.3052 35.8261H98.7483C98.5893 35.8261 98.4302 35.7459 98.4302 35.5053V29.1738C98.4302 28.2916 98.2711 27.7301 97.9529 27.3313C97.6347 26.9303 97.0779 26.7699 96.4437 26.7699C95.171 26.7699 93.9005 27.1709 92.7073 28.0531V35.5855C92.7073 35.7459 92.6277 35.9063 92.3891 35.9063C92.4687 35.8261 91.914 35.8261 91.914 35.8261ZM106.696 36.1447C105.187 36.1447 103.994 35.7437 103.199 34.8615C102.403 33.9793 102.005 32.6983 102.005 30.9338C102.005 29.332 102.403 28.0488 103.199 27.0864C103.994 26.2042 105.105 25.723 106.458 25.723C107.651 25.723 108.524 26.0438 109.16 26.7656C109.796 27.4072 110.115 28.3674 110.115 29.6506C110.115 30.212 110.115 30.5328 110.035 30.8536C109.955 31.0141 109.876 31.1745 109.717 31.1745H103.199C103.199 32.5379 103.517 33.5783 104.073 34.2199C104.63 34.8615 105.583 35.1823 106.776 35.1823C107.73 35.1823 108.603 35.0219 109.399 34.7011C109.558 34.6209 109.717 34.6209 109.717 34.6209C109.77 34.6209 109.823 34.6477 109.876 34.7011C109.929 34.7546 109.955 34.8081 109.955 34.8615V35.1823C109.955 35.4229 109.876 35.5031 109.717 35.5833C108.844 35.9041 107.81 36.1447 106.696 36.1447ZM109.083 30.2142V29.5726C109.083 28.6102 108.844 27.8905 108.367 27.4093C107.889 26.9281 107.253 26.6875 106.38 26.6875C104.314 26.6875 103.28 27.8103 103.121 30.134L109.083 30.2142ZM115.599 35.9843C114.803 35.9843 114.247 35.8239 113.851 35.3427C113.453 34.9417 113.215 34.3803 113.215 33.5805V27.0083H111.705C111.546 27.0083 111.387 26.9281 111.387 26.6875V26.5271C111.387 26.4469 111.387 26.3667 111.467 26.2865C111.546 26.2063 111.546 26.2063 111.705 26.2063L113.294 26.0459L113.453 23.4817C113.453 23.4015 113.533 23.3213 113.533 23.2411C113.586 23.1876 113.665 23.1609 113.771 23.1609H114.09C114.249 23.1609 114.408 23.2411 114.408 23.4817V26.0459H117.19C117.349 26.0459 117.508 26.1261 117.508 26.3667V26.7677C117.508 26.9281 117.428 27.0885 117.19 27.0885H114.408V33.5003C114.408 34.0617 114.487 34.3825 114.726 34.6231C114.965 34.8637 115.362 34.9439 115.84 34.9439C116.237 34.9439 116.555 34.9439 116.794 34.8637C116.953 34.8637 117.033 34.7835 117.112 34.7835H117.271C117.43 34.7835 117.51 34.8637 117.51 35.0241V35.3449C117.51 35.5855 117.43 35.6657 117.271 35.7459C116.792 35.9063 116.235 35.9843 115.599 35.9843ZM121.878 35.8261C121.719 35.8261 121.56 35.7459 121.481 35.5855L118.46 26.5293C118.381 26.3689 118.381 26.2887 118.381 26.2085C118.381 26.0481 118.46 26.0481 118.619 26.0481H119.256C119.415 26.0481 119.574 26.1283 119.574 26.2887L122.197 34.5429L124.501 26.2887C124.581 26.1283 124.66 26.0481 124.899 26.0481H125.615C125.774 26.0481 125.933 26.1283 126.013 26.2887L128.317 34.5429L131.02 26.2085C131.099 26.0481 131.179 25.9679 131.338 25.9679H131.895C132.054 25.9679 132.133 26.0481 132.133 26.1283C132.133 26.2085 132.133 26.2887 132.054 26.4491L128.874 35.5053C128.795 35.6657 128.715 35.7459 128.476 35.7459H127.84C127.681 35.7459 127.522 35.6657 127.442 35.5053L125.138 27.2511L122.833 35.5053C122.753 35.6657 122.674 35.7459 122.435 35.7459L121.878 35.8261ZM137.856 36.1447C136.424 36.1447 135.313 35.6635 134.597 34.7813C133.881 33.8991 133.404 32.6181 133.404 30.9338C133.404 29.2496 133.801 28.0488 134.597 27.0864C135.392 26.124 136.504 25.723 137.856 25.723C139.208 25.723 140.399 26.2042 141.115 27.0864C141.911 27.9686 142.308 29.2496 142.308 30.9338C142.308 32.6181 141.911 33.8189 141.115 34.7813C140.399 35.6657 139.286 36.1447 137.856 36.1447ZM137.856 35.1043C140.081 35.1043 141.195 33.7409 141.195 30.936C141.195 28.1312 140.081 26.7677 137.856 26.7677C135.631 26.7677 134.517 28.1312 134.517 30.936C134.517 33.7409 135.631 35.1043 137.856 35.1043ZM145.17 35.8261C145.011 35.8261 144.852 35.7459 144.852 35.5053V26.3689C144.852 26.2085 144.931 26.0481 145.17 26.0481H145.568C145.806 26.0481 145.886 26.1283 145.886 26.3689L145.965 27.4917C146.443 26.9303 146.92 26.5293 147.397 26.3689C147.874 26.1283 148.431 26.0481 148.986 26.0481H149.463C149.622 26.0481 149.781 26.1283 149.781 26.3689V26.8501C149.781 26.9036 149.755 26.957 149.702 27.0105C149.702 27.0105 149.622 27.0907 149.543 27.0907H148.827C148.27 27.0907 147.713 27.1709 147.238 27.4115C146.761 27.6521 146.363 27.9729 145.886 28.4541V35.5877C145.886 35.7481 145.806 35.9085 145.568 35.9085C145.568 35.9041 145.17 35.8261 145.17 35.8261ZM151.766 35.8261C151.606 35.8261 151.447 35.7459 151.447 35.5053V21.7216C151.447 21.5612 151.527 21.4008 151.766 21.4008H152.322C152.481 21.4008 152.641 21.481 152.641 21.7216V30.3768L157.25 26.2085C157.409 26.0481 157.568 26.0481 157.727 26.0481H158.443C158.602 26.0481 158.682 26.1283 158.682 26.2085C158.682 26.2887 158.602 26.3689 158.443 26.5293L153.754 30.6976L158.841 35.4251C158.92 35.5053 159 35.5855 159 35.6657C159 35.8261 158.92 35.8261 158.761 35.8261H157.966C157.807 35.8261 157.648 35.7459 157.568 35.6657L152.641 31.0986V35.5855C152.641 35.7459 152.561 35.9063 152.322 35.9063L151.766 35.8261Z" fill="#606060"/>
</g>
<defs>
<clipPath id="clip0_1048_6297">
<rect width="159" height="44" fill="white" transform="translate(0 0.879883)"/>
</clipPath>
</defs>
</svg>
