<svg width="141" height="128" viewBox="0 0 141 128" fill="none" xmlns="http://www.w3.org/2000/svg">
<g clip-path="url(#clip0_1048_6281)">
<path d="M2.23193 92.0134C2.92285 92.7156 3.74462 93.2606 4.70772 93.6536C5.66559 94.0518 6.71243 94.2457 7.84303 94.2457C8.8637 94.2457 9.84774 94.1252 10.7899 93.8841C11.7425 93.6431 12.6166 93.2763 13.4437 92.7837V85.9925H8.41879V87.3497H11.9153V91.9138C11.4756 92.1968 10.9051 92.4326 10.1984 92.6108C9.49181 92.7994 8.71191 92.8885 7.8692 92.8885C6.9061 92.8885 6.04245 92.7103 5.26779 92.3593C4.49835 92.0082 3.84408 91.5313 3.30495 90.9392C2.77106 90.347 2.35232 89.6553 2.06444 88.8693C1.77655 88.0728 1.63 87.2449 1.63 86.3698C1.63 85.4947 1.77655 84.6562 2.06444 83.865C2.35232 83.0737 2.77106 82.3768 3.30495 81.7794C3.84408 81.182 4.49835 80.7052 5.26779 80.3489C6.03722 79.9978 6.9061 79.8196 7.8692 79.8196C8.8323 79.8196 9.6279 79.9716 10.345 80.2807C11.0673 80.5794 11.6902 81.0091 12.2136 81.5646L13.2709 80.5061C12.6376 79.8615 11.8734 79.3637 10.9836 79.0074C10.099 78.6458 9.0469 78.4624 7.84303 78.4624C6.72814 78.4624 5.70223 78.6615 4.73913 79.0598C3.7865 79.458 2.96472 80.0082 2.26334 80.7052C1.56195 81.4074 1.01759 82.2405 0.625023 83.1995C0.227221 84.1584 0.0283203 85.2117 0.0283203 86.3593C0.0283203 87.5069 0.216753 88.5602 0.60932 89.5191C0.996653 90.4833 1.53578 91.3112 2.2267 92.0134H2.23193Z" fill="#606060"/>
<path d="M44.3832 93.8632L39.9969 86.7156C40.5518 86.658 41.0595 86.5322 41.5306 86.3331C41.9912 86.134 42.3942 85.8667 42.7292 85.5366C43.0694 85.2065 43.3416 84.8135 43.5353 84.3576C43.7289 83.9069 43.8336 83.4039 43.8336 82.8484C43.8336 82.1148 43.7028 81.4965 43.4463 80.9829C43.1951 80.4746 42.8391 80.0607 42.3785 79.7463C41.9179 79.4266 41.3788 79.1961 40.7507 79.0546C40.1226 78.9131 39.4369 78.8397 38.7041 78.8397H34.2916V93.858H35.82V86.8362H38.3639L42.5198 93.858H44.3832V93.8632ZM35.82 85.5261V80.155H38.5314C39.1019 80.155 39.6148 80.2022 40.0859 80.3017C40.5518 80.4065 40.9443 80.5585 41.2689 80.7681C41.5934 80.9777 41.8499 81.2554 42.0331 81.596C42.2163 81.9419 42.3105 82.3559 42.3105 82.8484C42.3105 83.7393 41.9755 84.41 41.3107 84.8554C40.6512 85.3008 39.7038 85.5261 38.4685 85.5261H35.82Z" fill="#606060"/>
<path d="M63.8597 78.845V88.2667C63.8597 88.8903 63.9382 89.5453 64.1057 90.2475C64.268 90.9497 64.5611 91.5942 64.9851 92.1916C65.4091 92.7837 65.9796 93.2816 66.7019 93.6588C67.4242 94.0519 68.3455 94.2457 69.4761 94.2457C70.6066 94.2457 71.5122 94.0519 72.245 93.6588C72.9725 93.2763 73.5483 92.7837 73.9723 92.1916C74.3962 91.5942 74.6841 90.9497 74.8464 90.2475C75.0139 89.5453 75.0976 88.8903 75.0976 88.2667V78.845H73.5692V88.0991C73.5692 88.7069 73.4959 89.2991 73.3546 89.8702C73.2133 90.4414 72.983 90.9497 72.6637 91.3951C72.3497 91.8405 71.9204 92.1968 71.4023 92.4746C70.8788 92.7523 70.235 92.8885 69.4761 92.8885C68.7171 92.8885 68.0733 92.7471 67.5499 92.4746C67.0212 92.1968 66.6025 91.8405 66.2832 91.3951C65.9691 90.9497 65.7388 90.4414 65.5975 89.8702C65.4562 89.2991 65.3881 88.7069 65.3881 88.0991V78.845H63.8545H63.8597Z" fill="#606060"/>
<path d="M104.881 84.6248C105.121 84.1218 105.252 83.5297 105.252 82.8484C105.252 82.1672 105.132 81.5803 104.891 81.0825C104.655 80.5794 104.31 80.1602 103.86 79.8301C103.42 79.4947 102.881 79.2485 102.258 79.086C101.641 78.9183 100.944 78.8397 100.185 78.8397H95.9457V93.858H97.4741V86.8729H100.144C100.908 86.8729 101.604 86.7943 102.232 86.6213C102.865 86.4484 103.404 86.2021 103.849 85.8667C104.289 85.5314 104.64 85.1174 104.891 84.6144L104.881 84.6248ZM102.787 84.8868C102.169 85.348 101.258 85.589 100.06 85.589H97.4688V80.155H100.06C101.211 80.155 102.112 80.3751 102.755 80.8048C103.404 81.2397 103.724 81.9209 103.724 82.8484C103.724 83.7759 103.41 84.4257 102.787 84.8921V84.8868Z" fill="#606060"/>
<path d="M126.623 92.0134C127.33 92.7156 128.152 93.2606 129.11 93.6536C130.062 94.0518 131.093 94.2457 132.214 94.2457C133.334 94.2457 134.365 94.0518 135.318 93.6536C136.281 93.2606 137.097 92.7103 137.799 92.0134C138.5 91.306 139.044 90.4833 139.442 89.5191C139.84 88.5602 140.034 87.5016 140.034 86.3593C140.034 85.2169 139.84 84.1584 139.442 83.1995C139.044 82.2405 138.5 81.4074 137.799 80.7052C137.097 80.0082 136.275 79.4633 135.318 79.0598C134.365 78.6615 133.334 78.4624 132.214 78.4624C131.093 78.4624 130.062 78.6615 129.11 79.0598C128.157 79.458 127.33 80.0082 126.623 80.7052C125.927 81.4074 125.378 82.2405 124.985 83.1995C124.587 84.1584 124.394 85.2117 124.394 86.3593C124.394 87.5069 124.593 88.5602 124.985 89.5191C125.378 90.4833 125.927 91.3112 126.623 92.0134ZM126.419 83.865C126.707 83.0737 127.115 82.3768 127.649 81.7794C128.183 81.182 128.843 80.7052 129.612 80.3489C130.376 79.9978 131.251 79.8196 132.208 79.8196C133.166 79.8196 134.035 79.9978 134.805 80.3489C135.579 80.7052 136.228 81.182 136.767 81.7794C137.301 82.3768 137.715 83.0737 137.997 83.865C138.28 84.6562 138.421 85.4894 138.421 86.3698C138.421 87.2501 138.28 88.0728 137.997 88.8693C137.715 89.6606 137.301 90.347 136.767 90.9392C136.228 91.5313 135.579 92.0134 134.805 92.3593C134.035 92.7103 133.166 92.8885 132.208 92.8885C131.251 92.8885 130.382 92.7103 129.612 92.3593C128.843 92.0082 128.183 91.5313 127.649 90.9392C127.115 90.347 126.707 89.6553 126.419 88.8693C126.137 88.0728 125.995 87.2449 125.995 86.3698C125.995 85.4947 126.137 84.6562 126.419 83.865Z" fill="#606060"/>
<path d="M61.0908 34.4295C63.776 46.9954 54.5428 53.2992 36.9663 51.1665C43.8283 54.0014 66.6025 61.9402 84.4251 50.4853C99.8032 40.6129 105.613 38.6373 116.595 38.9622C109.842 32.2182 101.154 32.1343 95.9351 32.2182C92.3863 32.2758 88.267 31.8147 84.5245 29.4357C79.4892 26.213 70.6747 19.0654 67.4138 16.8908C36.8407 -3.52481 7.26724 0.588694 0.148682 2.93104C28.5601 2.97296 58.3847 21.8741 61.0908 34.4295Z" fill="#606060"/>
<path d="M95.3856 30.7195H95.9037C96.1393 30.7091 96.3748 30.7091 96.6051 30.7091C109.173 17.4515 126.131 9.52843 139.929 8.6638C113.957 6.72495 92.9202 18.4995 82.9647 26.5589C83.8074 27.1667 84.6083 27.7169 85.3463 28.1833C88.0315 29.9021 91.3133 30.7195 95.3856 30.7195Z" fill="#606060"/>
<path d="M11.8682 122.668H11.8054L5.01132 105.219H0.0754395V127.935H3.14793V108.944H3.21598L10.7114 127.935H12.7318L20.2639 108.944H20.3267V127.935H23.4986V105.219H18.568L11.8682 122.668Z" fill="#606060"/>
<path d="M32.9569 105.219H29.7849V127.929H32.9569V105.219Z" fill="#606060"/>
<path d="M53.0877 115.547C54.1136 114.52 54.6318 113.178 54.6318 111.507C54.6318 110.349 54.4172 109.369 53.988 108.572C53.564 107.765 52.9778 107.121 52.2398 106.628C51.507 106.136 50.6433 105.779 49.6645 105.559C48.6857 105.329 47.6441 105.219 46.5606 105.219H39.285V127.929H42.457V117.821H45.854L51.6169 127.929H55.464L49.1254 117.501C50.748 117.224 52.0723 116.574 53.0929 115.547H53.0877ZM46.1052 115.164H42.4517V107.912H46.3251C47.0108 107.912 47.6598 107.975 48.2827 108.09C48.9056 108.211 49.4394 108.41 49.9001 108.688C50.3607 108.965 50.7271 109.337 51.0045 109.793C51.2819 110.254 51.4232 110.826 51.4232 111.512C51.4232 112.198 51.2819 112.764 51.0045 113.231C50.7218 113.692 50.345 114.064 49.8634 114.352C49.3819 114.64 48.827 114.845 48.1885 114.981C47.5394 115.107 46.8485 115.17 46.1 115.17L46.1052 115.164Z" fill="#606060"/>
<path d="M66.7909 105.219L56.9611 127.929H60.4837L62.7606 122.349H73.5274L75.8357 127.929H79.4264L69.6855 105.219H66.7962H66.7909ZM63.8807 119.556L68.1414 108.908L72.3706 119.556H63.8807Z" fill="#606060"/>
<path d="M97.7357 123.308H97.6625L85.8069 105.15H81.6771V127.861H84.8543V109.316H84.9171L96.8983 127.861H100.902V105.15H97.7357V123.308Z" fill="#606060"/>
<path d="M104.032 108.006H111.308V127.935H114.475V108.006H121.75V105.219H104.032V108.006Z" fill="#606060"/>
<path d="M128.126 117.533H138.824V114.808H128.126V108.006H139.5V105.219H124.948V127.935H139.981V125.11H128.126V117.533Z" fill="#606060"/>
</g>
<defs>
<clipPath id="clip0_1048_6281">
<rect width="140" height="127" fill="white" transform="translate(0.0283203 0.93457)"/>
</clipPath>
</defs>
</svg>
