<svg width="169" height="37" viewBox="0 0 169 37" fill="none" xmlns="http://www.w3.org/2000/svg">
<g clip-path="url(#clip0_1048_6310)">
<path d="M169 17.1678V14.1767H165.252V9.58372H165.146L161.716 10.6543L161.61 10.7606V14.1767H156.146V12.2561C156.146 11.398 156.358 10.6543 156.791 10.2293C157.11 9.69813 157.755 9.47747 158.4 9.47747C158.939 9.47747 159.47 9.58372 160.009 9.90245H160.221V6.80506H160.115C159.576 6.59257 158.939 6.48633 158.082 6.48633C157.012 6.48633 156.048 6.80506 155.191 7.2382C154.333 7.66317 153.688 8.3088 153.157 9.15875C152.724 10.0169 152.512 10.973 152.512 12.0436V14.1767H149.939V17.1678H152.512V29.6636H156.154V17.1678H161.618V25.0707C161.618 28.3805 163.12 29.9824 166.224 29.9824C166.763 29.9824 167.187 29.9824 167.726 29.8761C168.372 29.6636 168.69 29.5574 168.902 29.4511H169.008V26.46L168.796 26.5662C168.584 26.6725 168.363 26.7787 168.045 26.885C167.726 26.9912 167.506 26.9912 167.294 26.9912C166.648 26.9912 166.118 26.7787 165.791 26.46C165.472 26.035 165.252 25.3894 165.252 24.4332V17.1678H169ZM145.742 21.867C145.742 20.2652 145.423 18.9821 144.672 18.124C143.921 17.2659 142.957 16.8409 141.667 16.8409C140.27 16.8409 139.307 17.2659 138.555 18.124C137.804 19.0884 137.379 20.3715 137.379 21.9733C137.379 23.5751 137.812 24.8582 138.555 25.7163C139.307 26.5744 140.27 26.9994 141.667 26.9994C142.957 26.9994 144.027 26.5744 144.672 25.7163C145.423 24.8582 145.742 23.5833 145.742 21.867ZM147.457 15.991C148.853 17.3803 149.49 19.3009 149.49 21.7608C149.49 24.2207 148.845 26.2475 147.342 27.7431C145.946 29.2387 143.912 29.9905 141.446 29.9905C138.98 29.9905 137.159 29.2468 135.762 27.8575C134.366 26.4682 133.614 24.5476 133.614 22.0877C133.614 19.6278 134.366 17.4947 135.762 15.9992C137.265 14.6098 139.298 13.8661 141.765 13.8661C144.231 13.8661 146.158 14.5036 147.449 15.9992M128.045 20.5921C126.869 20.1671 126.117 19.734 125.897 19.4153C125.578 19.2028 125.358 18.7778 125.358 18.2384C125.358 17.8135 125.57 17.4947 126.003 17.1678C126.322 16.8491 126.861 16.7429 127.506 16.7429C128.151 16.7429 128.796 16.8491 129.433 16.9553C130.078 17.1678 130.609 17.4866 131.042 17.699L131.148 17.8053V14.4954C130.715 14.2829 130.184 14.1767 129.433 13.9642C128.788 13.858 128.143 13.858 127.612 13.858C125.897 13.858 124.5 14.2829 123.431 15.141C122.255 15.9992 121.716 17.1678 121.716 18.5572C121.716 19.3009 121.822 19.9465 122.034 20.4777C122.353 21.0089 122.679 21.5483 123.21 21.867C123.643 22.292 124.386 22.7251 125.464 23.1501C126.215 23.4688 126.861 23.7876 127.285 24.0082C127.718 24.2207 127.93 24.4332 128.143 24.7601C128.249 24.9726 128.355 25.1851 128.355 25.6182C128.355 26.5826 127.604 27.1138 125.995 27.1138C125.35 27.1138 124.705 27.0076 123.961 26.7951C123.21 26.4763 122.459 26.1576 121.928 25.7245L121.716 25.6182V29.1406H121.822C122.255 29.4593 122.998 29.5656 123.749 29.778C124.5 29.8843 125.252 29.9905 125.783 29.9905C127.71 29.9905 129.213 29.5656 130.282 28.7074C131.458 27.7431 131.997 26.5744 131.997 25.1851C131.997 24.1145 131.679 23.2645 131.14 22.5127C130.495 21.7608 129.425 21.1233 128.028 20.5921M116.13 21.8752C116.13 20.2734 115.811 18.9903 115.06 18.1322C114.308 17.2741 113.345 16.8491 112.055 16.8491C110.764 16.8491 109.694 17.2741 108.943 18.1322C108.192 19.0965 107.767 20.3796 107.767 21.9814C107.767 23.5833 108.2 24.8664 108.943 25.7245C109.694 26.5826 110.764 27.0076 112.055 27.0076C113.451 27.0076 114.415 26.5826 115.166 25.7245C115.811 24.8664 116.13 23.5914 116.13 21.8752ZM117.951 15.9992C119.241 17.3885 119.984 19.309 119.984 21.769C119.984 24.2289 119.233 26.2557 117.73 27.7513C116.334 29.2468 114.3 29.9987 111.834 29.9987C109.368 29.9987 107.547 29.255 106.15 27.8657C104.754 26.4763 104.002 24.5558 104.002 22.0959C104.002 19.6359 104.754 17.5029 106.15 16.0073C107.653 14.618 109.686 13.8743 112.259 13.8743C114.619 13.8743 116.546 14.5118 117.943 16.0073M102.295 13.9805C101.438 13.9805 100.58 14.193 99.9352 14.8387C99.2901 15.3699 98.8654 16.0155 98.5387 16.8654H98.4326V14.193H94.7903V29.68H98.4326V21.7771C98.4326 20.3878 98.7511 19.3172 99.3962 18.4673C99.9352 17.6091 100.793 17.1842 101.756 17.1842C102.075 17.1842 102.402 17.2904 102.826 17.3967C103.259 17.5029 103.471 17.6091 103.684 17.7154L103.79 17.8216V14.193C103.471 13.9805 102.932 13.9805 102.287 13.9805M90.2823 14.0868C89.6371 13.8743 88.992 13.8743 88.2488 13.8743C86.64 13.8743 85.1373 14.193 83.8552 14.9449C82.5648 15.5824 81.6012 16.653 80.9642 17.936C80.3272 19.2191 80.0005 20.7147 80.0005 22.3165C80.0005 23.8121 80.319 25.0952 80.9642 26.272C81.6093 27.4489 82.4668 28.4051 83.6428 29.0507C84.8188 29.6963 86.1091 30.015 87.6118 30.015C89.3268 30.015 90.8295 29.6963 92.0055 29.0507L92.1116 28.9444V25.6346L91.8993 25.7408C91.3603 26.1658 90.8295 26.4927 90.1843 26.7052C89.5391 26.9177 88.894 27.0239 88.3631 27.0239C86.9666 27.0239 85.7906 26.5989 84.9332 25.7408C84.1818 24.7765 83.7572 23.6078 83.7572 21.9978C83.7572 20.5022 84.19 19.2191 85.0475 18.2548C85.905 17.2904 87.081 16.8654 88.4775 16.8654C89.6535 16.8654 90.8376 17.2904 91.9074 18.0423L92.1198 18.1485V14.6262H92.0136C91.5808 14.4137 91.05 14.2012 90.2986 14.095M75.7212 7.68769C75.076 7.68769 74.5452 7.90018 74.1124 8.32515C73.6796 8.64388 73.4672 9.18326 73.4672 9.82072C73.4672 10.3519 73.6796 10.8913 74.1124 11.3163C74.5452 11.635 75.076 11.8475 75.7212 11.8475C76.2602 11.8475 76.791 11.635 77.2239 11.3163C77.6567 10.8913 77.869 10.3519 77.869 9.82072C77.869 9.18326 77.6567 8.75012 77.2239 8.32515C76.791 7.90018 76.2602 7.68769 75.7212 7.68769ZM73.7939 29.6963H77.4362V14.2094H73.7939V29.6963ZM65.2189 8.12083H70.2577V29.6963H66.6154V16.0237C66.6154 15.0593 66.6154 13.67 66.7216 12.0682C66.5093 12.7056 66.4031 13.4575 66.1826 13.7762L59.7473 29.6963H57.281L50.8457 13.9887C50.7395 13.5637 50.5272 12.9181 50.3067 12.0682H50.2005C50.3067 12.4931 50.3067 12.9263 50.3067 13.4575C50.4129 14.6343 50.4129 15.5905 50.4129 16.4486V29.6963H46.8767V8.08814H52.234L57.5913 21.6545C58.1303 22.8314 58.4488 23.7876 58.555 24.4332H58.6611L59.6248 21.6545L65.2026 8.08814L65.2189 8.12083Z" fill="#606060"/>
<path d="M17.2073 0.937073H0.057373V18.0258H17.2073V0.937073Z" fill="#606060"/>
<path d="M36.0722 0.937073H19.0284V18.0258H36.0722V0.937073Z" fill="#606060"/>
<path d="M17.2073 19.7341H0.057373V36.8229H17.2073V19.7341Z" fill="#606060"/>
<path d="M36.0722 19.7341H19.0284V36.8229H36.0722V19.7341Z" fill="#606060"/>
</g>
<defs>
<clipPath id="clip0_1048_6310">
<rect width="169" height="36" fill="white" transform="translate(0 0.879883)"/>
</clipPath>
</defs>
</svg>
