<svg width="153" height="111" viewBox="0 0 153 111" fill="none" xmlns="http://www.w3.org/2000/svg">
<g clip-path="url(#clip0_1048_6272)">
<path d="M28.8548 90.0981H24.8997V110.394H28.8548V90.0981Z" fill="#606060"/>
<path d="M12.2546 104.878L7.10252 90.0981H1.84631V110.394H5.74943L5.59331 95.6666L10.7454 110.394H13.7118L18.8639 95.6666L18.7078 110.394H22.663V90.0981H17.4068L12.2546 104.878Z" fill="#606060"/>
<path d="M118.888 102.381L121.334 95.824L123.728 102.381H118.888ZM140.901 104.827L135.749 90.0474H130.493V109.303L123.103 90.0474H119.72L111.81 110.344H115.921L117.483 106.076H125.029L126.642 110.344H134.448L134.292 95.6159L139.444 110.344H142.411L147.563 95.6159L147.407 110.344H151.31V90.0474H146.054L140.901 104.827Z" fill="#606060"/>
<path d="M80.9462 93.689H84.7972V110.394H88.7524V93.689H92.6035V90.0981H80.9462V93.689Z" fill="#606060"/>
<path d="M51.3904 102.373L53.8363 95.8154L56.2303 102.373H51.3904ZM38.6922 99.4583C38.432 99.5624 38.1198 99.6664 37.8596 99.7185C37.5473 99.8226 37.2351 99.8746 36.8708 99.8746C36.5065 99.8746 36.1422 99.9266 35.7259 99.9266H34.8411V93.3694H36.2983C36.6626 93.3694 37.0269 93.3694 37.3391 93.3694C37.6514 93.3694 37.9636 93.4214 38.2239 93.5255C38.4841 93.5776 38.7443 93.6816 38.9524 93.7857C39.1606 93.8898 39.3688 93.9939 39.5769 94.098C39.7331 94.2541 39.8892 94.3582 40.0453 94.5664C40.1494 94.7225 40.2535 94.8786 40.3576 95.0868C40.4096 95.2949 40.5137 95.5031 40.5657 95.7633C40.5657 95.9715 40.6178 96.2317 40.6178 96.4919C40.6178 96.7521 40.6178 97.0123 40.5137 97.2725C40.5137 97.5327 40.4096 97.7409 40.3055 97.9491C40.2014 98.1572 40.0973 98.3654 39.9412 98.5215C39.7851 98.6776 39.5769 98.8858 39.3688 98.9899C39.1606 99.146 38.9004 99.2501 38.6922 99.3542M75.1734 102.945L66.7947 89.9867H62.9957V109.242L55.6578 89.9867H52.223L44.5209 109.815L39.7851 102.425C40.1494 102.373 40.5137 102.269 40.8259 102.112C41.1382 102.008 41.4504 101.852 41.7627 101.644C42.0749 101.488 42.3351 101.28 42.5953 101.072C42.8556 100.811 43.1158 100.603 43.3239 100.343C43.5321 100.083 43.7403 99.7705 43.8964 99.5103C44.0525 99.1981 44.2086 98.8858 44.3127 98.5736C44.4168 98.2093 44.5209 97.897 44.5729 97.5327C44.625 97.1684 44.677 96.8041 44.677 96.3878C44.677 96.0756 44.677 95.7633 44.625 95.4511C44.625 95.1388 44.5209 94.8266 44.4688 94.5664C44.3648 94.3061 44.3127 93.9939 44.2086 93.7337C44.1046 93.4735 43.9484 93.2133 43.7923 93.0051C43.6362 92.7449 43.4801 92.5367 43.2719 92.3286C43.0637 92.1204 42.8556 91.9122 42.6474 91.7041C42.4392 91.4959 42.179 91.3398 41.9188 91.1836C41.6586 91.0275 41.3984 90.8714 41.0861 90.7673C40.93 90.7153 40.8259 90.6632 40.6698 90.6112C40.5137 90.6112 40.3576 90.5071 40.2014 90.4551C40.0453 90.4551 39.8892 90.351 39.681 90.351C39.5249 90.351 39.3167 90.2989 39.1606 90.2469C38.9524 90.2469 38.7443 90.2469 38.5361 90.1949C38.3279 90.1949 38.0677 90.1949 37.7555 90.1949C37.4953 90.1949 37.183 90.1949 36.8187 90.1949C36.5065 90.1949 36.1422 90.1949 35.7259 90.1949H30.886V110.491H34.8411V101.072L40.0974 110.491H48.476L50.0373 106.224H57.5833L59.1966 110.491H66.9508V97.1164L75.4336 110.491H79.1286V90.1949H75.2254V103.153L75.1734 102.945Z" fill="#606060"/>
<path d="M93.9053 110.394H104.834V106.856H97.8084V101.808H104.834V98.3207H97.8084V93.689H104.834V90.0981H93.9053V110.394Z" fill="#606060"/>
<path d="M98.6425 37.3766C98.6425 37.3766 98.1742 37.3766 97.966 37.3766H97.4456C94.9996 37.3766 92.8659 37.0644 90.9924 36.4399C90.1077 36.0756 89.275 35.6593 88.5465 35.1909C87.8699 34.7746 87.0893 34.2021 86.2566 33.6296C95.6241 25.8234 115.348 14.5304 139.703 16.1437C126.537 17.2365 110.56 24.8346 98.6425 37.3766ZM42.4896 57.5688C59.195 59.6505 67.99 53.5095 65.44 41.2798C62.8899 29.2581 35.412 11.2517 8.81872 10.6272C8.40238 10.6272 7.98605 10.6272 7.56972 10.5752C10.38 9.63845 16.677 8.44149 25.1077 8.7017C37.4416 9.3262 53.7827 12.9171 70.3839 24.0019C73.5585 26.0836 82.0413 33.0051 86.9332 36.1276C87.974 36.8042 89.0669 37.2726 90.1598 37.6889C93.022 38.8858 95.9884 39.146 98.5905 39.146C103.482 39.094 111.497 39.146 117.898 45.391C107.333 45.0788 101.713 47.0043 86.8811 56.528C73.7146 64.9587 57.7378 62.5127 48.0061 59.6504C45.7162 58.9219 43.8427 58.1933 42.5417 57.6208M148.186 40.6553C148.186 58.2453 133.042 73.3894 111.133 80.4151C135.696 74.066 153.026 58.6617 153.026 40.6553C153.026 32.0684 149.071 24.106 142.305 17.3927C142.566 17.0284 142.722 16.56 142.774 16.0916C142.774 14.9467 141.889 13.9579 140.744 13.9059C139.912 13.8538 139.027 13.8018 138.194 13.7497C131.117 8.0772 121.801 3.60162 111.185 0.843417C120.396 3.80979 128.41 8.23333 134.655 13.6457C131.949 13.6457 129.295 13.8018 126.745 14.114C119.98 9.53437 111.497 5.89145 101.869 3.54958C110.456 6.15166 117.95 9.89866 123.935 14.4783C122.009 14.7385 120.188 15.1028 118.366 15.4671C112.069 11.4079 104.315 8.54558 95.6762 7.29658C103.534 8.80579 110.56 11.8762 116.181 15.9875C113.995 16.56 111.913 17.1324 109.884 17.809C101.453 11.564 89.5353 7.66087 76.2646 7.66087C67.5737 7.66087 59.4552 9.3262 52.5337 12.2405C50.6081 11.5119 48.7346 10.8354 46.8611 10.263C50.2438 8.80579 53.9388 7.66087 57.7899 6.93229C53.5225 7.55679 49.4632 8.59762 45.7162 9.9507C43.3743 9.27416 41.1366 8.7017 38.8988 8.23333C42.8019 6.25575 47.0173 4.53837 51.5969 3.18529C46.4968 4.43429 41.7611 5.99554 37.3896 7.92108C34.1109 7.29658 31.0405 6.88025 28.1782 6.67208C32.4456 4.22612 37.1814 2.14446 42.2815 0.479126C36.4008 1.98833 30.9884 4.07 26.0965 6.51595C24.3792 6.41187 22.7138 6.35983 21.2046 6.35983C13.7106 6.35983 7.77788 7.40066 4.81151 8.38945C3.77068 8.7017 3.14618 9.74253 3.30231 10.8354C3.45843 11.8762 4.39518 12.7089 5.48805 12.7089C8.71463 12.7089 11.9412 12.9691 15.1678 13.4375C5.69622 20.7754 0.17981 30.0908 0.17981 40.2389C0.17981 58.2453 17.5097 73.6496 42.0733 79.9987C20.1638 72.9731 5.01968 57.829 5.01968 40.2389C5.01968 30.351 9.80751 21.2437 17.874 13.9059C20.0077 14.3222 22.1414 14.7906 24.171 15.363C15.1678 22.1805 9.75547 30.8194 9.75547 40.1869C9.75547 56.9963 26.9812 71.3598 51.3888 77.2405C29.6354 70.6833 14.5433 56.58 14.5433 40.1869C14.5433 31.1837 19.0709 22.857 26.8251 16.1437C28.3343 16.612 29.7915 17.1324 31.2487 17.6529C23.7026 23.6376 19.0709 31.548 19.0709 40.1869C19.0709 56.632 35.5681 70.319 57.5817 73.4935C37.7018 69.5904 23.0261 56.1637 23.0261 40.1869C23.0261 31.9643 26.9292 24.4183 33.4864 18.4855C35.3079 19.2141 37.0773 19.9947 38.7947 20.8274C33.1742 26.1877 29.8435 32.797 29.8435 39.9787C29.8435 57.881 50.5561 72.4006 76.1606 72.4006C101.713 72.4006 122.478 57.881 122.478 39.9787C122.478 34.7746 120.708 29.8306 117.586 25.5111C119.459 24.4703 121.385 23.4815 123.362 22.6489C127.682 27.853 130.18 33.9939 130.18 40.5512C130.18 56.58 115.504 70.0067 95.6241 73.9099C117.638 70.7353 134.135 56.9963 134.135 40.5512C134.135 33.5256 131.117 27.0204 125.964 21.608C127.37 21.0876 128.775 20.5672 130.18 20.1509C135.54 26.1356 138.663 33.1092 138.663 40.4991C138.663 56.8922 123.57 70.9955 101.869 77.5528C126.277 71.62 143.502 57.2565 143.502 40.4991C143.502 32.6929 139.755 25.4071 133.354 19.2662C135.436 18.7978 137.414 18.4335 139.391 18.2774C145.012 24.7826 148.238 32.3806 148.238 40.4991" fill="#606060"/>
</g>
<defs>
<clipPath id="clip0_1048_6272">
<rect width="152.794" height="109.912" fill="white" transform="translate(0.179688 0.478516)"/>
</clipPath>
</defs>
</svg>
