<svg width="155" height="44" viewBox="0 0 155 44" fill="none" xmlns="http://www.w3.org/2000/svg">
<g clip-path="url(#clip0_1048_6302)">
<path d="M48.7477 21.5526C48.7477 28.5833 53.2313 33.4855 59.4443 33.4855C65.6574 33.4855 70.141 28.5833 70.141 21.5526C70.141 14.5219 65.6574 9.61975 59.4443 9.61975C53.2313 9.61975 48.7477 14.5219 48.7477 21.5526ZM66.0417 21.5526C66.0417 26.5838 63.3195 29.8411 59.4443 29.8411C55.5692 29.8411 52.847 26.5838 52.847 21.5526C52.847 16.5215 55.5692 13.2641 59.4443 13.2641C63.3195 13.2641 66.0417 16.5215 66.0417 21.5526Z" fill="#606060"/>
<path d="M81.6849 33.4857C86.3927 33.4857 89.0829 29.4866 89.0829 24.6812C89.0829 19.8758 86.3927 15.8766 81.6849 15.8766C79.5071 15.8766 77.9058 16.7474 76.849 18.0052V16.1992H73.0059V38.9361H76.849V31.3571C77.9058 32.6149 79.5071 33.4857 81.6849 33.4857ZM76.7529 24.1974C76.7529 21.0046 78.5463 19.263 80.9163 19.263C83.7025 19.263 85.2077 21.4561 85.2077 24.6812C85.2077 27.9063 83.7025 30.0993 80.9163 30.0993C78.5463 30.0993 76.7529 28.3255 76.7529 25.1972V24.1974Z" fill="#606060"/>
<path d="M99.4831 33.4857C102.846 33.4857 105.504 31.7119 106.689 28.7448L103.39 27.487C102.878 29.2286 101.373 30.1961 99.4831 30.1961C97.0171 30.1961 95.2877 28.4223 94.9995 25.5197H106.785V24.2297C106.785 19.5855 104.191 15.8766 99.323 15.8766C94.4551 15.8766 91.3165 19.7145 91.3165 24.6812C91.3165 29.9058 94.6792 33.4857 99.4831 33.4857ZM99.291 19.134C101.725 19.134 102.878 20.7466 102.91 22.6171H95.1917C95.7681 20.3273 97.3054 19.134 99.291 19.134Z" fill="#606060"/>
<path d="M109.669 33.1309H113.512V23.1976C113.512 20.7788 115.273 19.4888 117.003 19.4888C119.116 19.4888 119.949 21.0046 119.949 23.1009V33.1309H123.792V21.9721C123.792 18.3277 121.678 15.8766 118.155 15.8766C115.978 15.8766 114.472 16.8764 113.512 18.0052V16.1992H109.669V33.1309Z" fill="#606060"/>
<path d="M135.048 9.97467L126.337 33.1309H130.404L132.358 27.8417H142.286L144.271 33.1309H148.403L139.691 9.97467H135.048ZM137.29 14.5543L140.94 24.2296H133.703L137.29 14.5543Z" fill="#606060"/>
<path d="M155 10.0422H150.9V33.1985H155V10.0422Z" fill="#606060"/>
<path d="M39.3558 18.4791C40.3246 15.5509 39.991 12.3433 38.4418 9.6799C36.1119 5.59478 31.4281 3.49309 26.8537 4.48212C24.8188 2.17348 21.8951 0.860598 18.8299 0.879411C14.1541 0.868661 10.0055 3.90026 8.56695 8.38046C5.56319 8.99995 2.97043 10.8933 1.4532 13.5769C-0.894029 17.6513 -0.35893 22.7873 2.77694 26.2811C1.80816 29.2092 2.14176 32.4169 3.69101 35.0803C6.0209 39.1654 10.7047 41.2671 15.279 40.2781C17.3127 42.5867 20.2377 43.8996 23.3029 43.8794C27.9813 43.8915 32.1313 40.8572 33.5698 36.373C36.5736 35.7535 39.1664 33.8601 40.6836 31.1765C43.0282 27.1022 42.4917 21.9702 39.3572 18.4764V18.4791H39.3558ZM23.3055 41.0695C21.4334 41.0722 19.6199 40.4124 18.1827 39.2044C18.2481 39.1694 18.3615 39.1063 18.4349 39.0606L26.9378 34.1154C27.3728 33.8668 27.6397 33.4005 27.637 32.8966V20.8253L31.2306 22.9149C31.2693 22.9337 31.2947 22.9714 31.3 23.0144V33.0108C31.2947 37.4561 27.7198 41.0601 23.3055 41.0695ZM6.11297 33.6747C5.17488 32.0433 4.83727 30.1311 5.15886 28.2753C5.22158 28.3129 5.33234 28.3815 5.41107 28.4271L13.9139 33.3723C14.345 33.6263 14.8787 33.6263 15.3111 33.3723L25.6915 27.336V31.5152C25.6941 31.5582 25.6741 31.5998 25.6408 31.6267L17.0458 36.6243C13.2174 38.8442 8.32809 37.5246 6.1143 33.6747H6.11297ZM3.87516 14.9839C4.80925 13.3498 6.28377 12.1001 8.03986 11.451C8.03986 11.5249 8.03586 11.6553 8.03586 11.7467V21.6383C8.03319 22.1409 8.30007 22.6072 8.73376 22.8558L19.1141 28.8908L15.5206 30.9804C15.4845 31.0045 15.4392 31.0086 15.3991 30.9911L6.80286 25.9895C2.98244 23.7615 1.67205 18.8392 3.87383 14.9852H3.87516V14.9839ZM33.4004 21.903L23.02 15.8667L26.6135 13.7785C26.6496 13.7543 26.6949 13.7503 26.735 13.7677L35.3313 18.7653C39.1584 20.9919 40.4701 25.9223 38.259 29.7763C37.3235 31.4077 35.8503 32.6574 34.0956 33.3078V23.1205C34.0996 22.6179 33.834 22.153 33.4017 21.903H33.4004ZM36.9766 16.4822C36.9139 16.4432 36.8031 16.376 36.7244 16.3303L28.2215 11.3852C27.7905 11.1312 27.2567 11.1312 26.8244 11.3852L16.444 17.4215V13.2423C16.4413 13.1993 16.4613 13.1576 16.4947 13.1308L25.0896 8.13723C28.9181 5.91326 33.8127 7.23689 36.0198 11.0936C36.9526 12.7223 37.2902 14.6291 36.9739 16.4822H36.9766ZM14.4904 23.9308L10.8955 21.8412C10.8568 21.8224 10.8315 21.7848 10.8261 21.7418V11.7453C10.8288 7.29467 14.4143 3.68794 18.8339 3.69062C20.7034 3.69062 22.5129 4.35177 23.9501 5.55581C23.8847 5.59075 23.7726 5.6539 23.6979 5.69959L15.195 10.6447C14.76 10.8933 14.4931 11.3583 14.4957 11.8622L14.4904 23.9281V23.9308ZM16.4427 19.6925L21.0664 17.0036L25.6901 19.6912V25.0677L21.0664 27.7553L16.4427 25.0677V19.6925Z" fill="#606060"/>
</g>
<defs>
<clipPath id="clip0_1048_6302">
<rect width="155" height="43" fill="white" transform="translate(0 0.879883)"/>
</clipPath>
</defs>
</svg>
